<?xml version="1.0" standalone="no"?>
<!DOCTYPE svg PUBLIC "-//W3C//DTD SVG 20010904//EN"
 "http://www.w3.org/TR/2001/REC-SVG-20010904/DTD/svg10.dtd">
<svg version="1.0" xmlns="http://www.w3.org/2000/svg"
 width="878.000000pt" height="884.000000pt" viewBox="0 0 878.000000 884.000000"
 preserveAspectRatio="xMidYMid meet">

<g transform="translate(0.000000,884.000000) scale(0.100000,-0.100000)"
fill="#FFFFFF" stroke="none">
<path d="M5712 8150 c-370 -88 -606 -312 -863 -818 -227 -446 -279 -732 -265
-1462 4 -195 9 -386 13 -424 l6 -69 -434 7 c-437 7 -771 23 -1060 51 -167 16
-205 22 -339 54 -211 50 -842 146 -1221 186 -254 26 -484 62 -579 91 -67 20
-119 45 -187 91 -68 47 -92 41 -133 -30 -75 -131 -12 -227 195 -297 266 -91
774 -182 1085 -195 328 -13 652 -48 915 -99 406 -78 582 -90 1241 -84 l502 5
7 -376 c6 -277 3 -529 -10 -961 -32 -1092 -31 -1771 4 -2050 5 -36 8 -66 7
-67 -1 -1 -46 33 -101 75 -55 41 -158 133 -229 204 -154 153 -194 179 -293
186 -70 4 -73 4 -102 -26 -28 -28 -31 -36 -31 -94 1 -144 132 -350 448 -702
197 -219 299 -347 371 -466 71 -118 135 -190 169 -190 28 0 80 37 107 77 76
113 96 146 111 185 34 89 361 550 533 753 75 87 101 139 101 199 0 66 -30 119
-85 152 -142 83 -224 49 -492 -204 l-160 -151 -11 147 c-17 222 -21 307 -32
677 -20 672 -41 1233 -50 1375 -11 162 -13 1105 -3 1189 5 48 9 55 39 67 18 8
93 23 166 35 469 74 902 252 1299 532 430 304 519 377 632 516 34 42 102 123
151 180 113 133 149 206 181 374 68 353 74 682 14 816 -57 129 -312 339 -494
408 -102 39 -324 96 -485 123 -185 32 -522 37 -638 10z m654 -236 c178 -22
349 -79 491 -162 85 -50 217 -163 258 -221 l30 -43 -1 -171 c-1 -437 -133
-737 -446 -1015 -290 -257 -590 -463 -883 -607 -300 -147 -611 -254 -808 -277
-92 -11 -99 -11 -124 8 -15 11 -31 34 -35 50 -26 93 -38 855 -18 1082 34 382
319 923 626 1188 149 128 231 170 360 183 113 12 405 4 550 -15z"/>
</g>
</svg>
