<?xml version="1.0" standalone="no"?>
<!DOCTYPE svg PUBLIC "-//W3C//DTD SVG 20010904//EN"
 "http://www.w3.org/TR/2001/REC-SVG-20010904/DTD/svg10.dtd">
<svg version="1.0" xmlns="http://www.w3.org/2000/svg"
 width="708.000000pt" height="662.000000pt" viewBox="0 0 708.000000 662.000000"
 preserveAspectRatio="xMidYMid meet">

<g transform="translate(0.000000,662.000000) scale(0.100000,-0.100000)"
fill="#FFFFFF" stroke="none">
<path d="M2857 6408 c-33 -1091 -9 -2703 48 -3263 27 -263 28 -275 20 -275
-14 0 -272 198 -423 325 -81 67 -280 250 -442 405 -162 155 -331 309 -375 343
-155 117 -278 156 -491 157 -124 0 -126 -1 -205 -84 -62 -66 -73 -105 -66
-248 6 -159 35 -256 132 -453 174 -354 432 -695 1077 -1426 558 -634 734 -855
980 -1236 78 -122 172 -259 208 -304 75 -95 170 -176 217 -185 44 -8 142 38
212 101 74 68 295 402 376 570 71 148 158 291 349 575 304 450 757 1063 1027
1390 171 207 205 254 252 340 53 95 70 175 65 291 -4 81 -10 106 -38 168 -93
200 -396 350 -608 300 -65 -16 -216 -88 -293 -139 -162 -110 -388 -307 -844
-738 -93 -89 -171 -159 -173 -158 -5 6 -50 619 -66 911 -18 326 -31 643 -51
1280 -8 264 -22 689 -30 944 -8 256 -15 500 -15 543 l0 78 -418 0 -419 0 -6
-212z"/>
</g>
</svg>
