<?xml version="1.0" standalone="no"?>
<!DOCTYPE svg PUBLIC "-//W3C//DTD SVG 20010904//EN"
 "http://www.w3.org/TR/2001/REC-SVG-20010904/DTD/svg10.dtd">
<svg version="1.0" xmlns="http://www.w3.org/2000/svg"
 width="410.000000pt" height="484.000000pt" viewBox="0 0 410.000000 484.000000"
 preserveAspectRatio="xMidYMid meet">

<g transform="translate(0.000000,484.000000) scale(0.100000,-0.100000)"
fill="#FFFFFF" stroke="none">
<path d="M2651 4483 c-29 -15 -67 -44 -85 -64 -30 -32 -40 -37 -94 -41 -62 -6
-175 -54 -199 -85 -11 -14 -18 -12 -62 16 -134 87 -180 95 -328 60 -77 -18
-162 -59 -163 -78 0 -3 -14 -21 -31 -40 l-31 -34 -55 13 c-45 11 -63 11 -106
0 -81 -20 -105 -37 -144 -98 -20 -31 -37 -59 -39 -61 -2 -2 -22 4 -44 14 -36
16 -46 17 -101 5 -80 -17 -183 -83 -186 -120 -3 -22 -2 -23 6 -5 10 24 49 53
111 85 48 25 123 31 191 16 35 -8 35 -7 70 49 37 62 55 75 140 100 52 15 59
15 98 -1 49 -19 88 -12 100 19 10 25 65 79 97 96 24 12 194 51 223 51 29 0
168 -68 205 -101 l33 -28 24 25 c35 38 144 85 209 91 61 6 114 -11 157 -50 13
-11 26 -17 30 -13 11 11 -23 38 -77 61 l-51 22 37 33 c62 54 129 80 209 80
145 0 330 -57 418 -128 38 -31 52 -35 138 -47 58 -7 144 -66 171 -115 13 -25
18 -56 18 -115 l0 -80 74 -29 c90 -34 148 -87 171 -156 19 -57 12 -114 -17
-147 l-20 -22 38 -16 c68 -28 84 -51 84 -116 0 -47 -5 -63 -26 -88 -31 -37
-38 -38 -52 -8 -9 19 -11 16 -11 -25 -1 -57 -9 -78 -28 -78 -8 0 -11 -5 -8
-11 4 -5 0 -18 -8 -27 -15 -18 -31 -96 -18 -87 5 2 12 20 15 39 4 18 15 41 25
50 18 16 20 16 40 -10 30 -38 35 -65 28 -153 -13 -171 -122 -294 -234 -266
-36 9 -63 33 -56 51 3 8 1 14 -4 14 -5 0 -20 -23 -32 -51 -33 -72 -68 -92
-150 -84 -75 7 -122 25 -173 65 -20 17 -38 25 -40 19 -4 -13 -78 23 -103 51
-28 31 -55 24 -105 -27 -25 -27 -70 -61 -100 -78 -49 -26 -64 -29 -140 -28
-69 0 -95 5 -140 26 -75 35 -97 54 -82 69 7 7 12 18 12 26 0 9 -18 -2 -44 -26
-74 -68 -118 -86 -199 -78 -38 3 -83 14 -100 23 -76 39 -112 83 -68 83 10 0
25 8 32 17 12 15 12 16 -6 9 -71 -29 -153 -34 -162 -10 -4 12 -12 5 -27 -27
-32 -67 -80 -90 -181 -87 -74 3 -80 5 -92 28 -12 24 -13 25 -13 3 0 -19 -6
-23 -29 -23 -43 0 -76 30 -68 63 4 14 15 28 25 31 10 3 6 4 -8 3 -21 -2 -28
-11 -45 -64 -25 -78 -54 -117 -108 -145 -37 -20 -56 -23 -167 -23 -119 0 -127
1 -178 29 -29 16 -73 51 -97 77 -38 41 -45 54 -45 89 0 25 -4 39 -10 35 -6 -3
-10 -16 -10 -28 0 -30 -47 -57 -101 -57 -55 0 -139 41 -184 91 -32 36 -35 44
-35 102 0 68 15 137 30 137 6 0 10 7 10 15 0 8 7 15 15 15 8 0 15 5 15 10 0 6
-6 10 -14 10 -8 0 -18 -4 -21 -10 -12 -19 -44 -10 -79 24 -36 33 -36 34 -36
119 l0 85 45 60 c25 34 65 75 88 92 44 33 51 34 172 14 31 -5 37 -4 29 5 -6 7
-42 15 -80 19 l-69 7 -3 45 c-2 25 2 62 8 84 13 42 88 129 132 152 31 16 140
19 169 4 10 -6 19 -7 19 -2 0 16 -50 32 -101 32 -67 0 -106 -18 -165 -77 -54
-54 -84 -123 -84 -195 0 -36 -7 -46 -70 -107 -86 -84 -109 -132 -110 -227 0
-80 14 -106 75 -144 30 -19 33 -24 25 -46 -6 -14 -13 -56 -16 -93 -10 -104 26
-157 141 -212 70 -34 116 -36 167 -9 36 19 37 19 43 0 9 -28 94 -109 140 -133
57 -29 259 -37 333 -13 55 19 117 77 128 121 5 20 11 24 23 19 50 -22 246 -39
293 -25 43 13 108 66 108 87 0 10 13 14 47 14 38 0 53 -5 78 -29 58 -56 103
-74 196 -79 89 -4 119 4 178 49 22 18 24 18 55 -5 67 -49 105 -60 216 -60 102
-1 107 0 160 33 30 18 74 53 96 78 l41 44 69 -45 c37 -25 75 -46 84 -46 9 0
41 -13 71 -29 69 -38 179 -55 226 -36 17 8 44 32 58 54 l27 40 31 -15 c21 -11
48 -15 87 -12 73 5 116 38 161 121 31 58 34 70 37 174 l4 112 -30 32 c-26 28
-28 35 -19 64 5 19 20 38 33 44 53 24 82 130 54 193 -11 23 -70 68 -90 68 -15
0 -12 16 5 30 25 21 20 117 -11 179 -32 64 -73 98 -161 131 l-68 26 0 80 c0
95 -17 131 -89 185 -34 26 -67 40 -110 49 -33 6 -70 13 -82 16 -11 2 -38 18
-60 35 -92 74 -244 119 -404 119 -96 0 -111 -3 -159 -27z"/>
<path d="M1910 4091 c-19 -5 -26 -14 -28 -39 -5 -48 -31 -57 -76 -26 -58 40
-105 11 -86 -54 7 -27 5 -32 -12 -38 -12 -3 -34 2 -54 12 -32 17 -34 17 -53
-1 -25 -22 -26 -43 -6 -72 27 -39 -14 -85 -56 -63 -22 13 -42 2 -60 -32 -8
-15 -4 -26 20 -54 26 -29 29 -39 21 -54 -6 -11 -21 -20 -33 -20 -31 0 -47 -18
-47 -52 0 -22 7 -31 35 -42 45 -19 47 -49 5 -71 -48 -25 -38 -95 15 -95 11 0
28 -7 38 -14 17 -13 17 -16 3 -45 -9 -16 -16 -39 -16 -49 0 -28 34 -55 59 -47
12 3 31 3 42 0 18 -6 20 -12 15 -46 -11 -67 43 -98 94 -54 20 18 50 1 50 -28
0 -28 9 -41 37 -55 27 -15 47 -7 68 24 24 36 58 31 78 -12 15 -31 21 -35 50
-32 27 3 32 7 35 33 7 58 38 71 74 30 23 -27 57 -32 76 -13 7 7 12 31 12 55 0
56 29 72 74 40 21 -15 33 -18 45 -10 19 12 27 61 12 76 -6 6 -11 21 -11 33 0
20 6 23 47 26 41 3 50 7 61 30 12 25 11 30 -13 55 -31 34 -32 59 -2 69 42 15
47 13 47 -17 0 -41 31 -55 70 -33 24 15 31 15 44 5 9 -8 16 -25 16 -40 0 -33
17 -51 46 -51 21 0 57 34 67 63 2 7 16 2 36 -16 35 -29 52 -33 82 -17 23 13
25 39 4 66 -8 10 -15 29 -15 42 0 20 5 22 34 20 70 -4 91 63 29 92 -39 18 -44
50 -11 72 48 32 -9 97 -61 68 -31 -16 -64 4 -58 36 10 53 -71 76 -83 25 -3
-13 -14 -29 -24 -35 -14 -9 -21 -7 -33 12 -19 28 -54 28 -78 2 -17 -18 -17
-25 -6 -55 16 -45 8 -56 -36 -53 -63 5 -73 -61 -13 -94 32 -18 38 -39 16 -57
-11 -9 -12 -6 -9 13 4 20 -2 29 -31 48 -44 28 -48 64 -11 98 47 44 25 104 -35
94 -14 -3 -31 0 -39 5 -12 8 -10 15 12 41 32 37 34 61 8 84 -14 12 -32 17 -63
14 l-43 -3 3 46 c2 40 0 47 -24 59 -23 13 -29 12 -56 -3 -50 -29 -68 -23 -68
21 0 26 -7 45 -19 56 -24 21 -57 14 -66 -15 -7 -21 -50 -43 -65 -34 -5 3 -11
19 -15 35 -8 35 -30 49 -65 41z m46 -38 c11 -51 13 -53 54 -53 22 0 40 3 40 8
0 4 8 17 18 30 23 30 52 20 52 -18 0 -16 3 -35 6 -44 8 -21 67 -21 84 -1 7 9
23 15 34 13 19 -3 21 -9 18 -54 -3 -65 13 -82 62 -67 59 18 89 -23 46 -62 -11
-10 -20 -26 -20 -36 0 -23 36 -48 61 -42 25 7 48 -13 42 -37 -3 -10 -16 -28
-29 -41 -36 -33 -32 -71 11 -103 43 -33 47 -66 8 -66 -29 0 -63 -25 -63 -47 0
-8 11 -29 25 -47 34 -45 25 -66 -29 -66 -66 0 -82 -30 -49 -89 14 -24 15 -33
5 -43 -10 -10 -18 -9 -41 5 -59 35 -101 10 -101 -60 0 -35 -3 -43 -18 -43 -11
0 -27 9 -37 20 -10 11 -26 22 -37 26 -25 8 -58 -22 -58 -51 0 -13 -6 -28 -14
-34 -16 -14 -46 -4 -46 15 0 22 -38 54 -64 54 -14 0 -30 -10 -40 -25 -11 -17
-26 -25 -46 -25 -27 0 -29 3 -32 42 -3 36 -7 44 -30 52 -23 8 -32 6 -52 -13
-13 -13 -32 -21 -43 -19 -19 4 -20 18 -7 72 5 20 4 27 -4 22 -8 -5 -10 -1 -5
10 5 14 3 16 -11 11 -11 -5 -15 -3 -10 4 5 9 -6 10 -39 5 -39 -6 -47 -4 -56
12 -8 16 -6 26 11 47 32 40 16 77 -39 90 -23 6 -44 13 -48 17 -12 12 5 45 30
56 20 9 25 19 25 46 0 30 -4 35 -29 41 -18 4 -31 14 -35 27 -7 28 0 38 29 38
55 0 76 74 29 104 -17 12 -24 25 -22 39 3 19 8 22 47 19 30 -2 49 3 62 14 21
19 25 54 8 71 -16 16 -7 57 14 61 10 2 27 -4 38 -14 15 -14 25 -16 47 -8 24 9
27 15 27 53 0 61 24 75 63 38 25 -24 33 -26 55 -18 24 9 49 40 46 58 -4 23 4
33 26 33 19 0 26 -7 31 -27z m769 -303 c9 -41 42 -61 96 -58 35 2 44 0 47 -15
2 -11 -5 -25 -18 -34 -15 -11 -20 -23 -18 -46 2 -25 9 -32 34 -39 34 -9 51
-35 34 -52 -9 -9 -21 -11 -77 -15 -24 -2 -26 -49 -4 -86 11 -19 17 -34 13 -33
-4 1 -15 -2 -24 -6 -11 -5 -27 -1 -44 13 -37 29 -60 26 -81 -9 -23 -40 -63
-42 -63 -3 0 14 -7 35 -17 45 -17 19 -58 24 -68 8 -9 -15 -35 -12 -41 5 -3 8
4 26 15 41 30 38 27 69 -9 91 -31 18 -46 45 -35 63 3 5 24 10 46 10 35 0 39 3
39 24 0 14 -4 36 -10 50 -8 21 -6 28 12 40 20 14 23 13 46 -9 14 -14 28 -25
33 -25 23 0 41 16 54 47 17 39 30 37 40 -7z"/>
<path d="M1794 3895 c-99 -51 -119 -70 -115 -112 1 -14 89 -76 108 -76 7 0 13
-3 13 -7 0 -8 52 -37 67 -36 6 1 25 11 42 24 31 22 31 24 31 113 0 50 -5 99
-10 110 -16 29 -58 24 -136 -16z m130 -12 c3 -16 4 -39 2 -53 -2 -14 -4 -46
-5 -72 -1 -42 -4 -48 -32 -62 -30 -15 -33 -14 -64 10 -19 14 -53 35 -77 47
-62 31 -60 61 7 100 58 34 111 55 142 56 16 1 23 -6 27 -26z"/>
<path d="M2012 3918 c-8 -8 -12 -49 -12 -120 l0 -108 34 -16 c33 -16 34 -16
117 27 56 29 89 53 99 72 15 28 14 29 -25 64 -44 39 -149 93 -180 93 -12 0
-26 -5 -33 -12z m94 -23 c51 -21 123 -75 130 -97 9 -29 -18 -52 -103 -89 -103
-45 -107 -42 -111 95 l-3 106 26 0 c14 0 41 -7 61 -15z"/>
<path d="M1611 3697 c-26 -32 -36 -185 -16 -248 10 -30 49 -34 88 -10 19 12
43 21 53 21 11 0 36 16 57 36 34 32 38 41 35 77 -3 40 -5 42 -86 89 -88 50
-112 57 -131 35z m67 -20 c6 -7 38 -26 72 -42 58 -27 60 -30 60 -66 0 -29 -7
-43 -30 -62 -16 -14 -40 -28 -52 -32 -13 -3 -40 -14 -62 -23 -36 -15 -39 -15
-52 2 -19 27 -8 206 14 224 20 16 37 15 50 -1z"/>
<path d="M2255 3700 c-4 -6 -38 -25 -76 -42 -60 -27 -70 -35 -78 -65 -11 -38
-5 -66 12 -56 6 4 8 0 4 -10 -5 -12 15 -28 84 -67 49 -29 96 -49 104 -46 39
15 47 235 10 276 -19 22 -50 26 -60 10z m61 -45 c12 -29 13 -53 5 -126 -4 -49
-11 -92 -14 -96 -8 -7 -125 48 -156 74 -18 15 -24 30 -25 63 l-1 43 70 37 c90
48 102 49 121 5z"/>
<path d="M1920 3600 c-11 -11 -20 -29 -20 -40 0 -42 62 -75 96 -52 15 10 34
47 34 68 0 42 -75 59 -110 24z m90 -30 c0 -41 -55 -66 -80 -35 -21 25 0 61 33
56 4 0 7 4 7 9 0 7 6 7 20 0 11 -6 20 -19 20 -30z"/>
<path d="M1781 3425 c-82 -44 -101 -62 -101 -96 0 -69 203 -172 248 -127 8 8
12 47 12 109 l0 98 -33 25 c-19 15 -40 26 -48 26 -8 0 -43 -16 -78 -35z m122
-9 c14 -11 17 -30 17 -110 0 -93 -1 -96 -22 -96 -77 0 -198 78 -198 126 0 13
4 24 9 24 5 0 22 11 38 24 51 42 122 57 156 32z"/>
<path d="M2021 3434 c-31 -25 -31 -27 -31 -118 0 -101 12 -126 59 -126 36 0
124 46 171 90 41 38 42 41 28 62 -14 21 -170 118 -189 118 -4 0 -21 -12 -38
-26z m133 -42 c91 -49 100 -64 61 -97 -39 -33 -139 -85 -163 -85 -34 0 -41 22
-37 110 3 66 8 87 21 97 27 20 43 16 118 -25z"/>
<path d="M2637 3602 c-21 -23 -22 -75 -2 -92 23 -19 64 -15 91 10 31 30 31 53
-2 79 -33 26 -66 27 -87 3z m67 -12 c36 -13 34 -45 -4 -65 -23 -12 -35 -13
-50 -5 -23 12 -24 18 -10 54 10 28 24 31 64 16z"/>
<path d="M1690 2743 c-156 -27 -296 -114 -390 -243 -28 -40 -49 -77 -47 -84 5
-12 127 -90 132 -84 1 2 12 30 25 63 32 80 103 154 183 191 60 28 67 29 208
27 139 -1 148 -3 210 -31 73 -34 183 -135 206 -189 12 -30 16 -33 31 -22 47
35 82 75 82 92 0 11 -34 54 -76 97 -88 91 -172 140 -291 170 -73 18 -205 25
-273 13z"/>
<path d="M1705 2559 c-65 -11 -132 -36 -175 -67 -38 -27 -120 -133 -120 -155
0 -18 44 -55 75 -63 22 -5 35 4 93 64 83 87 110 96 269 90 103 -4 115 -6 153
-33 23 -16 55 -49 72 -73 16 -23 33 -42 36 -40 38 18 82 53 82 64 0 21 -102
142 -142 169 -76 52 -202 68 -343 44z"/>
<path d="M1714 2370 c-44 -10 -100 -46 -124 -80 -23 -33 -26 -50 -7 -50 8 0
22 -9 32 -20 21 -23 50 -26 62 -6 16 28 87 56 141 56 64 0 112 -19 140 -54
l21 -27 30 22 c61 45 34 92 -76 139 -74 31 -147 38 -219 20z"/>
<path d="M1755 2216 c-47 -20 -70 -90 -45 -136 12 -22 61 -40 111 -40 55 0 90
33 96 92 l5 46 -50 26 c-58 29 -74 31 -117 12z"/>
<path d="M981 1867 c-69 -22 -133 -45 -142 -53 -17 -15 -307 -118 -364 -128
-21 -4 -49 -15 -63 -24 -23 -15 -24 -19 -19 -101 3 -47 8 -97 11 -111 4 -14 9
-45 12 -70 3 -25 9 -54 14 -65 14 -35 42 -239 54 -402 11 -148 12 -158 31
-156 45 3 343 44 385 52 25 5 74 9 110 10 74 1 71 1 205 35 213 54 348 86 361
86 8 0 14 -15 16 -42 3 -42 4 -43 58 -61 91 -29 210 -50 257 -44 36 4 43 2 39
-10 -3 -8 -6 -21 -6 -29 0 -8 -9 -14 -19 -14 -25 0 -71 -55 -71 -84 0 -19 10
-26 57 -41 51 -16 65 -17 128 -6 38 7 113 16 165 20 111 8 180 35 199 78 10
23 9 30 -7 52 -29 39 -63 60 -119 73 -29 7 -53 16 -53 20 0 5 0 11 0 15 -1 10
105 32 157 32 72 1 90 -13 96 -76 6 -61 16 -77 64 -101 l33 -17 -68 -32 c-37
-18 -121 -57 -187 -88 -66 -31 -152 -76 -192 -101 l-71 -44 -4 -52 c-4 -66 18
-114 75 -161 23 -19 65 -55 92 -81 28 -25 57 -46 66 -46 33 0 166 52 229 89
36 22 135 71 220 109 137 62 205 85 408 139 51 13 52 14 52 51 0 25 -6 41 -18
49 -10 6 -42 53 -72 104 -29 52 -64 104 -77 116 -23 22 -27 23 -131 13 -59 -5
-140 -19 -181 -30 -97 -26 -140 -25 -182 3 -31 20 -34 28 -39 81 -4 49 -9 60
-30 71 l-25 13 35 6 c19 3 59 10 87 14 43 8 55 6 65 -6 7 -8 40 -28 73 -44
l60 -29 169 6 169 6 58 -60 c54 -57 57 -63 52 -101 -13 -99 126 -190 205 -134
27 18 27 36 3 90 -24 53 -78 87 -141 89 -45 1 -52 5 -107 64 l-60 62 -179 -3
c-178 -3 -179 -2 -231 24 -28 15 -54 32 -57 37 -3 5 20 12 52 16 31 4 82 12
112 19 44 10 55 17 54 32 -2 26 -64 236 -74 249 -14 19 -58 160 -70 225 -18
97 -31 144 -44 152 -23 15 -164 8 -242 -12 -43 -12 -114 -24 -156 -28 l-78 -8
0 32 c0 28 -5 35 -38 49 -27 12 -41 26 -48 47 -7 25 -20 35 -68 54 -56 22
-183 46 -198 37 -5 -2 -8 18 -8 45 0 47 -1 50 -32 58 -18 4 -181 8 -362 8
l-330 1 -125 -38z m678 23 c41 0 72 -2 69 -5 -8 -9 -109 -24 -192 -30 -44 -3
-130 -18 -190 -34 -61 -16 -118 -29 -126 -28 -8 0 -44 -9 -80 -20 -36 -11 -85
-26 -110 -34 -25 -7 -49 -15 -53 -17 -5 -2 -70 -6 -145 -7 -76 -1 -153 -6
-172 -10 -55 -12 -31 2 60 35 46 17 99 39 117 50 19 11 41 20 48 20 8 0 61 15
117 34 87 29 119 35 203 36 55 1 154 5 220 9 66 5 129 7 140 5 11 -2 53 -4 94
-4z m155 -42 c2 -13 9 -61 15 -108 6 -47 17 -116 24 -155 13 -69 13 -70 -10
-83 -13 -7 -23 -17 -23 -22 0 -6 -6 -10 -13 -10 -14 0 -110 -77 -194 -154 -52
-48 -53 -50 -53 -106 0 -31 4 -81 9 -111 5 -30 12 -73 14 -96 l5 -42 -157 -36
c-86 -20 -189 -46 -229 -57 -41 -11 -75 -18 -77 -16 -6 7 -35 108 -50 171 -8
38 -20 123 -26 190 -5 66 -19 164 -30 216 -11 53 -26 136 -33 184 -14 101 -18
96 74 117 30 7 70 19 87 27 18 7 35 13 38 12 10 -1 121 23 190 42 39 11 126
24 195 30 69 6 132 15 140 20 8 4 34 9 57 9 36 0 43 -3 47 -22z m224 -107 c42
-19 52 -28 52 -48 0 -27 -1 -27 -95 8 -27 11 -74 19 -102 19 -46 0 -53 3 -53
19 0 11 6 22 13 25 27 12 134 -1 185 -23z m-52 -50 c21 -10 54 -22 72 -26 38
-8 40 -15 7 -52 -17 -20 -24 -23 -25 -12 0 39 -85 88 -159 90 l-36 2 40 7 c22
4 45 8 51 9 5 0 28 -7 50 -18z m-1019 -76 c7 -44 19 -109 28 -145 20 -84 21
-97 40 -278 9 -86 27 -191 40 -238 14 -46 22 -90 19 -99 -4 -11 -20 -15 -57
-15 -28 0 -105 -9 -171 -20 -133 -21 -350 -49 -353 -46 -2 1 -7 67 -13 147
-10 150 -31 311 -55 414 -7 33 -21 105 -30 160 -22 131 -16 147 60 169 67 20
232 34 375 32 l105 -1 12 -80z m963 54 c56 -13 100 -53 100 -91 0 -18 -5 -28
-15 -28 -8 0 -15 9 -15 19 0 31 -56 71 -100 71 -29 0 -39 4 -43 20 -6 23 5 25
73 9z m228 -32 c17 -8 22 -18 20 -36 -3 -24 -8 -27 -62 -33 -33 -4 -61 -6 -64
-4 -2 3 8 20 22 39 14 19 26 39 26 45 0 12 18 8 58 -11z m-192 -38 c33 -31 31
-55 -5 -62 -16 -3 -40 -9 -53 -12 -23 -6 -26 -3 -32 33 -3 22 -9 48 -13 58 -6
15 -1 16 36 11 24 -3 53 -15 67 -28z m710 -74 c16 -94 29 -141 74 -265 21 -58
49 -142 63 -186 l24 -82 -71 -11 c-39 -5 -89 -12 -111 -15 -222 -26 -456 -70
-545 -102 -66 -23 -202 -56 -208 -49 -2 2 -8 68 -13 147 -5 78 -16 198 -25
266 -9 68 -14 135 -11 149 2 14 0 41 -5 61 -7 26 -7 37 4 43 40 26 231 62 388
74 47 4 114 15 150 25 46 13 95 18 170 17 l104 -2 12 -70z m-852 -127 c-3 -9
4 -84 16 -165 22 -158 40 -423 28 -423 -15 0 -154 31 -205 46 l-53 15 -1 72
c0 40 -5 95 -10 122 -5 28 -12 82 -15 121 l-6 70 58 52 c154 134 168 144 181
125 7 -9 11 -25 7 -35z m368 -567 c-4 -39 13 -65 24 -37 15 38 126 5 158 -46
29 -47 -52 -90 -189 -99 -55 -4 -135 -11 -177 -15 -80 -7 -138 6 -138 30 0 22
47 58 71 54 22 -3 24 1 27 39 3 41 5 43 45 53 30 8 179 57 182 60 0 0 -1 -17
-3 -39z m728 -101 c0 -26 27 -37 51 -21 15 9 19 8 19 -3 0 -7 -9 -16 -20 -19
-14 -3 -20 -14 -20 -31 0 -28 9 -33 28 -14 9 9 12 9 12 0 0 -7 -4 -12 -10 -12
-6 0 -5 -10 2 -25 9 -21 14 -23 26 -12 13 10 15 9 9 -5 -3 -10 -2 -18 3 -18 6
0 10 9 10 20 0 12 7 20 16 20 14 0 15 -2 3 -17 -13 -15 -12 -15 8 -5 14 8 20
18 16 32 -9 33 5 23 27 -20 24 -46 18 -70 -10 -45 -12 11 -20 13 -25 5 -11
-18 3 -43 21 -36 8 3 12 2 9 -4 -3 -6 -1 -10 4 -10 6 0 11 7 11 15 0 18 11 19
34 2 16 -12 15 -14 -18 -24 -27 -8 -36 -8 -36 0 0 7 -6 5 -13 -4 -7 -9 -43
-24 -80 -33 -67 -17 -97 -16 -97 2 0 10 45 32 66 32 26 0 6 -17 -27 -24 -18
-3 -30 -8 -28 -11 3 -2 22 0 42 6 44 12 49 38 14 66 -13 10 -27 29 -30 43 -8
30 -14 37 -49 68 -26 23 -27 23 -62 7 -20 -10 -36 -20 -36 -24 0 -3 -13 -6
-29 -6 -21 0 -27 3 -20 11 5 7 18 10 28 7 9 -2 23 3 30 11 8 9 20 16 27 16 19
0 17 14 -4 33 -17 15 -20 15 -40 1 -17 -12 -26 -13 -36 -5 -17 14 -46 4 -46
-17 0 -12 -3 -13 -12 -4 -16 16 -47 15 -54 -2 -3 -8 -13 -12 -26 -8 -11 3 -24
-1 -29 -9 -13 -21 -11 -27 12 -34 11 -4 18 -9 16 -12 -10 -9 -45 17 -50 37 -4
16 1 23 19 30 56 22 194 54 254 60 36 4 71 8 78 8 6 1 12 -7 12 -18z m70 10
c0 -5 -9 -10 -19 -10 -11 0 -23 5 -26 10 -4 6 5 10 19 10 14 0 26 -4 26 -10z
m40 -20 c9 -16 8 -18 -5 -14 -8 4 -15 12 -15 20 0 20 7 17 20 -6z m254 -11
c-21 -11 -43 -24 -48 -29 -17 -17 -26 -11 -22 13 3 17 9 22 31 20 20 -2 24 1
16 10 -8 10 -2 12 26 9 l36 -5 -39 -18z m-329 11 c3 -5 -1 -10 -9 -10 -9 0
-16 5 -16 10 0 6 4 10 9 10 6 0 13 -4 16 -10z m407 -21 c11 -6 29 -31 40 -57
l21 -46 -23 -18 c-41 -34 -114 -16 -154 37 -14 19 -26 36 -26 39 0 8 91 54
108 55 7 1 22 -4 34 -10z m-627 -9 c-3 -5 -11 -10 -16 -10 -6 0 -7 5 -4 10 3
6 11 10 16 10 6 0 7 -4 4 -10z m79 2 c3 -5 -8 -16 -25 -26 -32 -19 -38 -12
-12 16 17 20 29 23 37 10z m206 -2 c0 -5 -5 -10 -11 -10 -5 0 -7 5 -4 10 3 6
8 10 11 10 2 0 4 -4 4 -10z m-346 -19 c3 -4 -5 -13 -18 -19 -21 -9 -23 -8 -19
9 5 19 28 26 37 10z m76 -11 c0 -5 -7 -10 -15 -10 -8 0 -15 5 -15 10 0 6 7 10
15 10 8 0 15 -4 15 -10z m243 3 c-7 -2 -19 -2 -25 0 -7 3 -2 5 12 5 14 0 19
-2 13 -5z m73 -6 c4 -4 -1 -7 -12 -7 -14 0 -16 -2 -5 -9 9 -6 10 -11 2 -15
-10 -6 -15 6 -12 27 0 4 -3 7 -9 7 -5 0 -10 -4 -10 -10 0 -5 -5 -10 -11 -10
-8 0 -8 4 1 15 12 14 43 15 56 2z m-456 -7 c0 -5 -7 -10 -16 -10 -8 0 -12 5
-9 10 3 6 10 10 16 10 5 0 9 -4 9 -10z m100 0 c0 -5 -4 -10 -10 -10 -5 0 -10
5 -10 10 0 6 5 10 10 10 6 0 10 -4 10 -10z m-180 -15 c-7 -8 -18 -14 -24 -13
-6 1 -21 -3 -33 -10 -16 -9 -24 -9 -29 0 -4 7 -3 8 4 4 7 -4 12 -2 12 3 0 6 7
11 15 11 8 0 15 5 15 10 0 6 12 10 26 10 23 0 25 -2 14 -15z m357 -11 c37 -28
41 -39 16 -49 -12 -4 -23 1 -33 13 -9 10 -21 17 -28 14 -7 -2 -19 2 -27 8 -13
11 -13 14 2 26 25 19 32 17 70 -12z m-224 1 c-3 -10 0 -15 8 -13 8 2 13 -3 12
-9 -2 -7 5 -13 14 -13 13 0 14 -3 5 -12 -8 -8 -16 -5 -31 13 -22 26 -27 49
-11 49 5 0 7 -7 3 -15z m-95 -29 c12 -3 12 -4 -3 -3 -11 1 -20 9 -21 17 0 8 1
10 3 3 2 -6 12 -14 21 -17z m53 1 l-23 -22 17 28 c10 15 20 25 23 22 3 -3 -5
-16 -17 -28z m99 23 c0 -5 -4 -10 -9 -10 -6 0 -13 5 -16 10 -3 6 1 10 9 10 9
0 16 -4 16 -10z m300 0 c0 -5 -5 -10 -11 -10 -5 0 -7 5 -4 10 3 6 8 10 11 10
2 0 4 -4 4 -10z m-250 -4 c0 -2 -7 -7 -16 -10 -8 -3 -12 -2 -9 4 6 10 25 14
25 6z m-245 -16 c-3 -5 -11 -10 -16 -10 -6 0 -7 5 -4 10 3 6 11 10 16 10 6 0
7 -4 4 -10z m313 -20 c5 13 32 -6 32 -22 0 -7 -5 -6 -13 1 -8 6 -16 8 -20 5
-3 -3 -16 0 -29 7 -21 11 -22 11 -9 -5 8 -9 21 -16 30 -14 21 4 67 -28 50 -34
-10 -3 -10 -12 3 -39 l17 -34 -87 -27 c-95 -30 -120 -31 -45 -3 119 45 117 44
97 66 -9 10 -23 19 -31 19 -7 0 -13 4 -13 10 0 5 -11 17 -25 26 -24 15 -27 15
-44 0 -21 -19 -31 -13 -24 14 3 11 11 16 19 13 19 -7 46 17 40 34 -4 9 5 6 21
-7 17 -13 29 -17 31 -10z m-423 -17 c4 -15 2 -23 -5 -23 -6 0 -8 5 -5 10 3 6
1 10 -5 10 -6 0 -8 4 -5 10 4 6 -1 7 -12 3 -15 -6 -16 -5 -3 9 17 18 25 14 35
-19z m100 17 c19 -1 19 -1 1 -11 -14 -9 -15 -13 -6 -19 16 -10 -89 -80 -120
-80 -11 0 -23 -7 -27 -16 -3 -8 -12 -13 -20 -10 -43 17 -74 -52 -33 -74 26
-14 60 3 60 30 0 11 4 20 10 20 5 0 7 -7 3 -16 -5 -14 -3 -15 15 -5 12 7 22
21 22 31 0 14 7 20 23 20 21 -1 22 -1 3 -15 -17 -13 -17 -15 -4 -15 21 0 33
19 29 45 -3 16 -1 17 13 6 9 -7 16 -19 16 -26 0 -19 -38 -48 -55 -41 -9 3 -20
-2 -27 -13 -6 -10 -19 -16 -29 -14 -11 3 -24 -5 -35 -22 -12 -18 -20 -23 -27
-16 -6 6 -19 11 -29 11 -12 0 -18 8 -18 24 0 29 -30 42 -58 27 -14 -7 -19 -6
-19 4 0 8 4 12 9 9 17 -11 57 24 51 45 -9 35 -26 41 -62 23 l-34 -16 24 -20
c20 -16 21 -18 4 -12 -57 23 -85 14 -85 -27 0 -20 -1 -20 -17 -5 -13 14 -14
20 -3 32 7 9 17 16 22 16 5 0 24 11 41 24 52 39 201 110 205 97 2 -6 10 -11
18 -11 9 0 13 -4 10 -9 -3 -4 -17 -6 -31 -3 -14 2 -25 0 -25 -6 0 -5 -12 -18
-27 -28 -25 -16 -26 -16 -14 -1 20 25 7 31 -14 6 -15 -16 -16 -22 -6 -28 7 -5
12 -11 12 -15 -3 -23 0 -26 19 -16 11 6 21 21 21 33 1 17 2 18 6 5 3 -11 14
-18 28 -18 19 0 23 4 19 18 -4 11 -3 13 3 5 12 -16 46 -9 82 17 27 18 29 24
20 52 -7 24 -6 29 3 20 7 -7 21 -12 33 -12z m140 0 c-3 -5 -13 -10 -21 -10 -8
0 -12 5 -9 10 3 6 13 10 21 10 8 0 12 -4 9 -10z m115 6 c0 -11 -19 -15 -25 -6
-3 5 1 10 9 10 9 0 16 -2 16 -4z m-305 -16 c-7 -12 -32 -13 -39 -2 -2 4 7 9
20 10 15 1 22 -2 19 -8z m99 -22 c8 -6 8 -8 -1 -8 -6 0 -19 -7 -27 -16 -9 -8
-16 -11 -16 -5 0 5 5 13 10 16 6 3 10 16 11 28 0 15 2 17 6 7 3 -8 11 -18 17
-22z m21 22 c-3 -5 -12 -10 -18 -10 -7 0 -6 4 3 10 19 12 23 12 15 0z m81 -26
c-5 -14 -9 -15 -19 -5 -9 9 -9 14 3 21 18 11 24 6 16 -16z m264 16 c0 -5 -7
-10 -16 -10 -8 0 -12 -4 -9 -10 3 -6 -1 -7 -9 -4 -29 11 -16 26 27 33 4 0 7
-3 7 -9z m-327 -33 c-3 -5 -10 -4 -15 1 -6 6 -7 16 -3 22 6 9 9 9 16 -1 4 -7
5 -17 2 -22z m27 23 c0 -5 -4 -10 -10 -10 -5 0 -10 5 -10 10 0 6 5 10 10 10 6
0 10 -4 10 -10z m75 -6 c-11 -8 -19 -17 -17 -20 9 -13 -4 -22 -18 -13 -11 8
-12 12 -2 16 6 2 12 11 12 19 0 8 10 14 23 14 22 -1 22 -1 2 -16z m-235 -4 c0
-5 -4 -10 -9 -10 -5 0 -18 -3 -28 -7 -16 -6 -16 -5 -4 10 15 19 41 23 41 7z
m-63 -14 c2 -2 0 -7 -6 -11 -6 -3 -11 -2 -11 3 0 5 -12 7 -26 4 -19 -3 -25 -1
-20 7 7 10 52 8 63 -3z m383 0 c0 -9 -30 -14 -35 -6 -4 6 3 10 14 10 12 0 21
-2 21 -4z m170 -5 c0 -13 -60 -32 -73 -24 -7 4 1 12 18 19 36 16 55 17 55 5z
m-377 -14 c3 -7 3 -26 0 -40 -5 -26 -7 -27 -28 -13 -17 11 -25 12 -34 3 -8 -8
-11 -8 -11 1 0 7 14 15 30 19 17 3 33 10 37 16 4 6 0 8 -10 4 -17 -6 -23 4
-10 16 10 11 20 8 26 -6z m37 3 c0 -5 -5 -10 -11 -10 -5 0 -7 5 -4 10 3 6 8
10 11 10 2 0 4 -4 4 -10z m100 0 c0 -5 -5 -10 -11 -10 -5 0 -7 5 -4 10 3 6 8
10 11 10 2 0 4 -4 4 -10z m-365 -10 c3 -5 1 -10 -4 -10 -6 0 -11 5 -11 10 0 6
2 10 4 10 3 0 8 -4 11 -10z m156 -13 c-13 -13 -26 -3 -16 12 3 6 11 8 17 5 6
-4 6 -10 -1 -17z m289 13 c0 -5 -4 -10 -10 -10 -5 0 -10 5 -10 10 0 6 5 10 10
10 6 0 10 -4 10 -10z m-490 -10 c0 -5 -5 -10 -11 -10 -5 0 -7 5 -4 10 3 6 8
10 11 10 2 0 4 -4 4 -10z m360 0 c0 -5 -7 -10 -16 -10 -8 0 -12 5 -9 10 3 6
10 10 16 10 5 0 9 -4 9 -10z m90 -4 c0 -17 -24 -28 -45 -20 -17 7 -20 24 -5
24 6 0 10 -4 10 -10 0 -5 5 -10 10 -10 6 0 10 7 10 15 0 8 5 15 10 15 6 0 10
-6 10 -14z m87 -11 c3 -12 -214 -98 -231 -92 -6 3 25 21 69 41 44 20 91 43
105 51 27 16 51 16 57 0z m323 1 c0 -16 -50 -36 -88 -36 -70 0 -491 -172 -613
-250 -47 -31 -189 -82 -189 -69 0 12 30 39 44 39 8 0 62 30 122 66 60 37 136
79 170 95 82 38 253 94 344 114 41 9 100 24 130 35 68 23 80 24 80 6z m-932
-12 c-11 -11 -23 -14 -35 -9 -17 7 -17 8 2 15 11 5 27 9 35 9 12 1 11 -2 -2
-15z m379 0 c-3 -3 -12 -4 -19 -1 -8 3 -5 6 6 6 11 1 17 -2 13 -5z m40 -18
c-6 -13 -24 -32 -39 -42 -29 -20 -36 -38 -18 -49 6 -3 10 -3 10 2 0 4 11 9 25
9 15 1 -8 -15 -60 -41 -47 -24 -97 -52 -113 -63 -15 -10 -45 -29 -67 -42 l-40
-24 28 29 c15 15 27 31 27 36 0 15 -60 21 -78 7 -15 -12 -16 -11 -3 4 7 10 11
25 7 33 -6 18 5 20 21 4 10 -10 44 0 104 31 9 5 26 6 38 3 23 -6 81 45 81 72
0 9 4 14 9 11 16 -10 41 5 41 25 0 12 7 19 19 19 17 0 18 -3 8 -24z m48 14 c3
-5 -1 -10 -9 -10 -9 0 -16 5 -16 10 0 6 4 10 9 10 6 0 13 -4 16 -10z m-305
-15 c-7 -8 -16 -15 -21 -15 -5 0 -6 7 -3 15 4 8 13 15 21 15 13 0 13 -3 3 -15z
m217 -1 c-3 -3 -12 -4 -19 -1 -8 3 -5 6 6 6 11 1 17 -2 13 -5z m-448 -13 c9
-6 10 -10 2 -16 -16 -9 -44 2 -36 15 8 12 16 12 34 1z m173 -13 c-12 -12 -35
-1 -27 12 3 5 13 6 21 3 10 -4 12 -9 6 -15z m218 13 c0 -12 -28 -22 -34 -12
-3 5 -3 11 1 15 9 9 33 7 33 -3z m-230 -52 c0 -5 -7 -6 -15 -3 -8 4 -15 13
-15 21 0 13 3 13 15 3 8 -7 15 -16 15 -21z m22 9 c-7 -7 -12 -8 -12 -2 0 14
12 26 19 19 2 -3 -1 -11 -7 -17z m162 13 c3 -5 0 -11 -8 -14 -15 -6 -26 1 -26
15 0 11 27 10 34 -1z m56 0 c0 -5 -9 -12 -19 -16 -11 -3 -21 -11 -23 -18 -2
-8 -13 -10 -33 -6 -27 6 -28 7 -5 8 14 1 36 10 50 21 29 23 30 23 30 11z
m-433 -82 c13 -13 43 -44 68 -69 24 -25 45 -49 45 -54 0 -5 7 -17 14 -25 9
-10 12 -22 7 -29 -6 -10 -20 0 -51 35 -23 26 -46 47 -51 45 -5 -1 -8 4 -7 10
2 7 -2 12 -9 11 -7 -2 -10 3 -8 10 3 6 -15 34 -40 60 -26 27 -45 57 -45 70 1
21 2 20 28 -9 15 -18 37 -43 49 -55z m16 62 c-2 -6 2 -11 8 -11 6 0 8 -7 5
-16 -4 -10 3 -23 16 -35 29 -24 47 -24 41 -1 -3 12 4 25 21 36 30 19 34 11 9
-16 -15 -17 -31 -90 -17 -75 10 9 35 -13 28 -24 -3 -5 1 -9 9 -9 10 0 13 -7
10 -20 -5 -19 12 -29 19 -12 2 5 14 5 28 1 23 -6 23 -7 3 -8 -12 -1 -28 -4
-37 -7 -10 -4 -19 2 -25 17 -11 27 -94 119 -108 119 -5 0 -17 14 -26 30 -11
18 -14 30 -7 30 6 0 8 5 4 11 -4 7 -1 10 7 7 8 -3 13 -11 12 -17z m102 9 c7
-11 -49 -42 -59 -33 -3 4 -6 1 -6 -4 0 -6 6 -13 13 -16 6 -2 9 -8 5 -12 -4 -4
-15 -2 -24 6 -15 12 -13 16 17 41 36 30 45 33 54 18z m190 -10 c-3 -5 -11 -10
-16 -10 -6 0 -7 5 -4 10 3 6 11 10 16 10 6 0 7 -4 4 -10z m-50 -20 c3 -5 -1
-10 -10 -10 -9 0 -13 5 -10 10 3 6 8 10 10 10 2 0 7 -4 10 -10z m35 -10 c0 -5
-2 -10 -4 -10 -3 0 -8 5 -11 10 -3 6 -1 10 4 10 6 0 11 -4 11 -10z m30 0 c0
-5 -4 -10 -10 -10 -5 0 -10 5 -10 10 0 6 5 10 10 10 6 0 10 -4 10 -10z m-85
-20 c3 -5 1 -10 -4 -10 -6 0 -11 5 -11 10 0 6 2 10 4 10 3 0 8 -4 11 -10z m35
0 c0 -5 -5 -10 -11 -10 -5 0 -7 5 -4 10 3 6 8 10 11 10 2 0 4 -4 4 -10z m-110
-30 c-22 -31 -35 -37 -45 -21 -5 10 41 51 57 51 5 0 0 -13 -12 -30z m-188 -15
c3 3 10 -1 16 -8 9 -10 8 -14 -3 -14 -8 0 -23 10 -32 21 -14 15 -14 18 -2 8 9
-6 18 -10 21 -7z m198 -10 c-13 -14 -26 -23 -28 -20 -7 7 29 45 41 45 6 0 0
-11 -13 -25z m82 -15 c5 0 -4 -12 -21 -26 -19 -16 -38 -24 -48 -20 -14 6 -13
10 8 32 12 13 29 22 37 19 7 -3 18 -5 24 -5z"/>
<path d="M1675 1760 c3 -5 8 -10 11 -10 2 0 4 5 4 10 0 6 -5 10 -11 10 -5 0
-7 -4 -4 -10z"/>
<path d="M1640 1749 c0 -5 5 -7 10 -4 6 3 10 8 10 11 0 2 -4 4 -10 4 -5 0 -10
-5 -10 -11z"/>
<path d="M1738 1673 c6 -2 18 -2 25 0 6 3 1 5 -13 5 -14 0 -19 -2 -12 -5z"/>
<path d="M1660 1640 c-13 -8 -12 -10 3 -10 9 0 17 5 17 10 0 12 -1 12 -20 0z"/>
<path d="M873 1652 c-6 -4 -12 -14 -13 -22 -5 -34 0 -41 28 -38 19 2 28 9 30
25 3 23 -26 46 -45 35z m32 -32 c0 -8 -8 -16 -17 -18 -13 -2 -18 3 -18 18 0
15 5 20 18 18 9 -2 17 -10 17 -18z"/>
<path d="M444 1615 c-11 -27 4 -45 36 -45 46 0 38 35 -13 53 -11 4 -20 1 -23
-8z m46 -20 c11 -13 8 -15 -14 -15 -16 0 -26 5 -26 15 0 8 6 15 14 15 7 0 19
-7 26 -15z"/>
<path d="M681 1531 c-60 -11 -50 -51 12 -43 31 3 37 8 37 28 0 13 -3 23 -7 23
-5 -1 -23 -4 -42 -8z m39 -21 c0 -5 -13 -10 -30 -10 -16 0 -30 5 -30 10 0 6
14 10 30 10 17 0 30 -4 30 -10z"/>
<path d="M875 1429 c-11 -4 -46 -8 -77 -8 -81 -1 -284 -28 -276 -37 3 -2 58 3
124 10 159 19 258 23 262 11 1 -6 -42 -15 -100 -22 -57 -7 -137 -19 -179 -28
-93 -18 -87 -19 -92 3 -4 13 -5 11 -6 -5 -1 -28 15 -29 114 -8 39 9 104 18
145 21 41 3 92 10 113 15 32 9 36 12 27 28 -12 24 -30 30 -55 20z"/>
<path d="M2410 1563 c-19 -8 -66 -19 -105 -23 -65 -6 -252 -32 -355 -48 l-45
-7 1 -55 c1 -104 23 -495 30 -529 6 -31 9 -33 39 -28 18 3 53 15 79 26 76 35
95 41 165 51 104 14 327 38 428 45 51 4 97 12 102 19 6 7 1 31 -16 70 -14 33
-28 80 -33 105 -4 25 -20 84 -34 130 -14 47 -26 105 -26 130 0 58 -27 113 -60
122 -45 13 -134 8 -170 -8z m149 -9 c41 -8 61 -46 61 -114 0 -28 9 -77 20
-110 11 -33 29 -98 40 -145 11 -48 27 -100 36 -117 8 -16 13 -32 10 -35 -3 -3
-70 -12 -148 -19 -337 -31 -477 -57 -543 -98 -11 -7 -32 -16 -46 -19 -25 -6
-27 -4 -33 36 -3 23 -10 146 -16 272 -6 127 -13 237 -16 246 -4 13 7 17 53 23
32 3 94 11 138 16 44 6 116 14 160 19 44 5 103 18 130 29 52 22 100 26 154 16z"/>
<path d="M2222 1399 c-29 -11 -28 -35 1 -44 18 -6 13 -9 -30 -18 -58 -11 -83
-5 -83 18 0 9 4 14 8 11 4 -2 14 -1 22 5 11 6 8 9 -14 9 -28 0 -28 -1 -23 -41
7 -53 -6 -89 -33 -89 -26 0 -54 -43 -45 -70 14 -43 75 -45 102 -4 14 22 14 26
-1 49 -23 35 -13 68 17 59 61 -18 85 -33 84 -51 -2 -22 37 -30 59 -12 11 9 18
8 34 -6 23 -21 69 -23 81 -4 5 8 9 23 9 35 0 25 -42 48 -58 32 -7 -7 -24 1
-56 28 -44 36 -50 54 -20 54 8 0 14 8 14 19 0 22 -35 32 -68 20z m58 -19 c0
-5 -16 -10 -36 -10 -21 0 -33 4 -29 10 3 6 19 10 36 10 16 0 29 -4 29 -10z
m-37 -87 c3 -16 4 -29 3 -30 -4 -4 -111 38 -120 48 -6 5 13 9 51 9 58 0 61 -1
66 -27z m55 -6 c24 -22 29 -47 10 -47 -22 1 -44 24 -52 53 -8 32 1 30 42 -6z
m92 -27 c12 -7 12 -13 4 -27 -14 -22 -42 -29 -57 -14 -8 8 -3 11 17 11 16 0
25 4 21 10 -4 6 -16 8 -28 4 -22 -6 -22 -6 -2 10 24 18 26 19 45 6z m-309 -42
c1 -18 2 -19 6 -5 6 22 27 17 31 -7 5 -24 -16 -46 -45 -46 -27 0 -38 19 -29
55 8 31 36 33 37 3z m189 12 c0 -5 -7 -10 -15 -10 -8 0 -15 5 -15 10 0 6 7 10
15 10 8 0 15 -4 15 -10z"/>
<path d="M2375 1169 c-71 -10 -176 -25 -233 -33 -57 -7 -105 -16 -108 -19 -3
-2 1 -31 9 -63 12 -58 13 -59 47 -59 33 1 337 31 408 41 l33 5 -3 71 c-2 39
-7 72 -13 74 -5 1 -68 -7 -140 -17z m145 -58 c0 -58 -1 -59 -31 -65 -17 -3
-52 -6 -78 -6 -25 0 -111 -9 -191 -20 -79 -10 -146 -17 -148 -15 -2 1 -9 25
-16 53 l-14 50 72 11 c39 6 109 15 156 21 47 5 105 14 130 19 25 5 62 9 83 10
l37 1 0 -59z"/>
<path d="M2330 1100 c0 -20 3 -39 6 -42 7 -7 64 14 64 24 0 4 -12 3 -26 -2
-32 -12 -34 -12 -34 0 0 6 9 10 20 10 11 0 20 5 20 11 0 6 -9 8 -22 4 -16 -5
-20 -4 -13 3 6 6 21 12 35 14 20 3 18 5 -12 9 -38 5 -38 5 -38 -31z"/>
<path d="M2430 1100 c0 -22 5 -40 10 -40 6 0 9 3 9 8 -4 21 3 23 21 7 11 -10
20 -13 20 -7 0 6 -5 14 -11 18 -8 4 -8 9 0 17 20 20 12 37 -19 37 -28 0 -30
-2 -30 -40z m45 20 c-3 -5 -10 -10 -16 -10 -5 0 -9 5 -9 10 0 6 7 10 16 10 8
0 12 -4 9 -10z"/>
<path d="M2249 1113 c-4 -43 -3 -73 4 -73 21 0 47 23 47 40 0 23 -49 54 -51
33z m36 -33 c0 -7 -6 -15 -12 -17 -8 -3 -13 4 -13 17 0 13 5 20 13 18 6 -3 12
-11 12 -18z"/>
<path d="M2171 1068 c0 -26 3 -36 7 -26 5 13 11 15 22 8 23 -15 37 -11 17 4
-12 9 -14 16 -8 21 21 12 11 35 -14 35 -23 0 -25 -4 -24 -42z m34 22 c-3 -5
-11 -10 -16 -10 -6 0 -7 5 -4 10 3 6 11 10 16 10 6 0 7 -4 4 -10z"/>
<path d="M2077 1094 c-14 -14 -7 -43 13 -54 33 -18 62 -3 58 28 -2 22 -9 28
-33 30 -17 2 -34 0 -38 -4z m61 -26 c3 -13 -3 -18 -22 -18 -27 0 -41 14 -31
31 10 16 49 6 53 -13z"/>
<path d="M2590 1119 c0 -11 4 -18 9 -15 5 3 14 -1 21 -9 7 -8 17 -15 22 -15 7
0 6 5 -1 13 -6 8 -8 17 -4 21 8 8 -15 26 -34 26 -7 0 -13 -9 -13 -21z"/>
<path d="M3055 510 c3 -5 8 -10 11 -10 2 0 4 5 4 10 0 6 -5 10 -11 10 -5 0 -7
-4 -4 -10z"/>
</g>
</svg>
