<?xml version="1.0" standalone="no"?>
<!DOCTYPE svg PUBLIC "-//W3C//DTD SVG 20010904//EN"
 "http://www.w3.org/TR/2001/REC-SVG-20010904/DTD/svg10.dtd">
<svg version="1.0" xmlns="http://www.w3.org/2000/svg"
 width="677.000000pt" height="564.000000pt" viewBox="0 0 677.000000 564.000000"
 preserveAspectRatio="xMidYMid meet">

<g transform="translate(0.000000,564.000000) scale(0.100000,-0.100000)"
fill="#FFFFFF" stroke="none">
<path d="M5130 5559 c-102 -11 -158 -28 -268 -82 -132 -65 -192 -147 -193
-262 -1 -83 20 -126 85 -175 64 -48 99 -63 207 -89 229 -53 256 -56 604 -56
328 0 330 0 427 27 101 28 155 56 200 104 69 74 63 182 -14 265 -34 36 -132
98 -198 124 -30 12 -100 43 -155 67 -119 54 -176 67 -315 73 -58 2 -148 6
-200 9 -52 2 -133 0 -180 -5z"/>
<path d="M3190 5057 c-23 -8 -36 -20 -40 -37 -4 -17 -8 -21 -14 -12 -20 33
-112 -1 -122 -46 -10 -48 -13 -51 -51 -69 -21 -10 -42 -28 -48 -40 -6 -14 -19
-23 -32 -23 -29 0 -73 -20 -73 -34 0 -6 -16 -25 -36 -42 -25 -21 -38 -40 -39
-60 -3 -50 -4 -51 -32 -57 -40 -8 -60 -27 -68 -65 -6 -31 -5 -33 14 -27 27 8
26 0 -3 -51 -13 -23 -26 -62 -30 -86 -4 -25 -13 -54 -21 -64 -8 -11 -15 -26
-15 -34 0 -8 -9 -33 -20 -55 -11 -22 -20 -51 -20 -65 -1 -34 -32 -100 -62
-133 -14 -15 -28 -40 -31 -55 -3 -15 -19 -43 -36 -62 -17 -19 -33 -42 -36 -50
-3 -8 -20 -22 -37 -30 -20 -9 -33 -24 -35 -38 -4 -27 -168 -196 -201 -206 -22
-7 -22 -8 -16 -154 5 -105 11 -154 21 -171 10 -15 16 -51 17 -92 1 -61 4 -71
30 -98 53 -55 143 -33 243 61 28 26 58 48 65 48 46 -2 116 -114 138 -223 7
-37 18 -62 31 -70 14 -8 19 -23 19 -52 0 -22 7 -51 16 -63 16 -23 74 -52 103
-52 21 1 61 34 61 52 1 7 15 22 33 33 49 31 66 76 67 176 0 115 46 255 99 303
39 35 24 90 -45 171 -52 61 -64 94 -60 168 3 64 55 176 107 226 46 45 76 127
55 150 -10 12 -12 40 -10 105 2 49 5 91 8 93 2 3 24 7 48 10 24 3 48 10 55 15
18 14 70 -17 75 -46 3 -15 -8 -50 -29 -92 -18 -37 -33 -81 -33 -97 0 -22 -11
-40 -40 -67 -42 -39 -48 -60 -29 -107 7 -15 13 -67 14 -116 1 -72 5 -91 22
-110 12 -12 30 -41 42 -64 21 -42 54 -70 79 -65 6 2 12 -2 12 -8 0 -18 95 -12
121 9 13 10 42 24 64 31 22 7 59 23 83 36 52 29 57 29 118 3 45 -20 55 -21
134 -11 85 11 158 5 195 -15 20 -11 70 -86 143 -212 43 -75 123 -143 194 -167
52 -17 110 -14 236 12 65 14 76 19 109 59 22 27 41 41 47 36 31 -22 144 -61
251 -85 66 -15 139 -31 163 -36 23 -6 54 -10 69 -10 44 0 14 -16 -77 -40 -97
-25 -145 -48 -177 -82 -22 -23 -53 -128 -53 -180 0 -33 -33 -57 -93 -69 -74
-13 -174 -66 -209 -110 -29 -36 -36 -40 -72 -37 -34 3 -41 7 -49 33 -18 57
-36 68 -96 61 -30 -4 -65 -15 -79 -26 -27 -21 -54 -19 -80 7 -14 13 -13 17 12
61 13 22 10 27 -45 85 -33 34 -80 91 -106 128 -51 73 -88 93 -183 103 -43 4
-59 11 -73 31 -10 14 -25 25 -32 25 -7 0 -23 8 -36 19 -20 16 -21 21 -10 34
11 14 9 21 -12 49 -34 46 -69 160 -65 211 l3 42 -80 3 c-103 4 -111 1 -166
-51 -25 -24 -51 -46 -57 -48 -7 -2 -16 -19 -22 -37 -8 -29 -6 -37 15 -58 13
-13 33 -24 45 -24 11 0 20 -7 20 -14 0 -8 16 -27 35 -42 43 -32 49 -78 13 -88
-44 -11 -93 -6 -126 14 -18 11 -41 20 -52 20 -10 0 -22 5 -25 10 -3 6 -10 10
-16 10 -5 0 -9 -4 -9 -10 0 -5 6 -10 14 -10 12 0 13 -7 6 -31 -5 -18 -7 -35
-5 -40 3 -4 -4 -14 -15 -22 -28 -19 -28 -51 -1 -127 21 -62 22 -69 9 -145 -12
-76 -14 -80 -41 -83 -18 -2 -31 -11 -37 -27 -9 -24 -42 -41 -60 -30 -5 3 -10
22 -10 41 0 19 -2 34 -4 34 -17 0 -126 -64 -146 -85 -28 -30 -150 -95 -177
-95 -22 1 -53 23 -53 38 0 6 -18 13 -40 17 -34 6 -44 3 -79 -25 -44 -36 -71
-34 -97 5 -8 13 -28 28 -43 33 -22 8 -29 19 -39 62 -11 49 -11 55 8 75 11 12
20 30 20 42 0 11 9 28 20 38 34 31 27 91 -17 147 -52 65 -78 63 -113 -9 -14
-28 -34 -61 -45 -73 -13 -14 -18 -33 -17 -58 4 -62 24 -156 39 -177 7 -11 13
-32 13 -46 0 -29 -39 -110 -55 -114 -70 -18 -94 -28 -119 -50 -26 -23 -31 -24
-46 -10 -38 34 -80 8 -80 -49 0 -21 -4 -25 -22 -23 -19 2 -23 -2 -20 -25 4
-37 -16 -70 -86 -147 -56 -61 -60 -63 -117 -70 l-59 -6 -30 -60 c-33 -64 -61
-85 -112 -85 -17 0 -37 -7 -45 -16 -9 -11 -22 -14 -46 -10 -18 3 -48 9 -66 12
-48 8 -68 -17 -44 -58 9 -16 17 -34 17 -39 0 -14 -27 -11 -60 6 -32 17 -60 11
-60 -13 0 -11 -10 -6 -34 17 -27 27 -39 31 -57 25 -13 -4 -30 -7 -38 -5 -7 1
-11 -3 -9 -11 3 -7 -6 -24 -19 -38 -13 -14 -23 -32 -23 -41 0 -16 54 -49 80
-49 39 0 150 -111 150 -151 0 -14 9 -38 20 -52 30 -38 33 -98 13 -232 l-19
-120 -39 -19 c-41 -21 -105 -24 -167 -8 -21 5 -66 7 -101 5 -51 -4 -72 -1
-111 17 -32 14 -62 21 -87 18 -21 -2 -36 -2 -34 1 3 2 -11 12 -30 22 -36 20
-157 27 -182 11 -26 -16 -35 -70 -34 -202 0 -127 -1 -137 -25 -173 -13 -20
-27 -50 -30 -66 -3 -16 -26 -53 -50 -82 -55 -67 -62 -98 -34 -144 21 -34 21
-37 6 -75 -32 -79 -9 -140 52 -140 15 0 44 -9 65 -20 21 -11 43 -20 50 -18 28
5 59 -16 77 -52 43 -84 127 -106 204 -54 38 26 41 27 120 16 174 -24 196 -24
222 -8 14 10 24 26 24 40 0 21 7 25 48 32 44 8 49 12 72 60 14 29 42 70 63 93
43 47 46 76 15 116 l-22 28 50 44 c27 24 72 59 100 78 29 18 59 44 68 57 9 12
44 36 78 53 74 36 101 69 104 128 1 24 9 60 18 80 l15 37 76 0 c77 0 102 -8
139 -41 29 -28 50 -23 80 16 15 19 36 35 46 35 22 0 80 32 131 73 20 16 54 31
75 34 34 4 44 1 77 -30 20 -20 37 -40 37 -44 0 -5 23 -34 50 -65 28 -31 50
-61 50 -67 0 -6 5 -11 11 -11 6 0 25 -15 43 -32 61 -60 131 -115 156 -123 44
-13 104 -47 138 -76 18 -16 44 -29 57 -29 22 0 65 -34 65 -51 0 -4 9 -10 20
-14 11 -3 30 -31 45 -63 22 -48 25 -66 20 -112 -5 -41 -2 -60 9 -75 14 -19 16
-19 32 -3 18 18 47 115 38 130 -3 4 0 7 6 6 12 -3 60 74 60 96 0 8 -16 26 -35
40 -19 15 -35 36 -35 47 0 17 7 19 65 19 64 0 105 -11 138 -39 22 -18 28 -11
30 31 2 31 -2 35 -68 70 -139 73 -150 78 -196 78 -38 0 -49 4 -66 29 -13 16
-35 31 -54 35 -41 8 -149 56 -149 67 0 15 -62 99 -80 109 -21 11 -83 100 -99
143 -17 43 -14 123 5 142 22 21 38 14 42 -19 2 -17 12 -31 28 -38 20 -10 28
-8 47 10 30 29 34 28 51 -10 7 -18 32 -52 54 -76 23 -23 44 -51 47 -62 4 -13
24 -25 58 -35 29 -8 95 -40 147 -70 52 -30 116 -64 142 -77 40 -19 51 -31 79
-91 23 -46 33 -80 32 -108 -3 -56 12 -88 45 -100 16 -5 39 -23 51 -39 12 -17
27 -30 33 -30 6 0 26 -18 45 -40 36 -42 80 -60 146 -60 45 0 49 -15 5 -24 -67
-13 -73 -38 -23 -93 19 -21 35 -47 35 -58 0 -11 5 -27 10 -35 8 -12 13 -13 30
-2 17 10 26 9 59 -14 51 -33 105 -38 109 -9 2 12 -6 32 -18 45 -24 28 -25 34
-4 51 20 17 10 55 -24 93 l-27 29 50 -6 c53 -5 109 14 103 36 -3 7 -37 31 -77
53 -76 44 -111 71 -111 86 0 5 -13 28 -29 51 -16 24 -30 60 -32 82 -4 38 -3
39 28 42 20 2 33 -3 37 -12 3 -8 1 -15 -4 -15 -6 0 -10 -4 -10 -10 0 -14 63 0
77 18 10 13 10 20 -2 39 -15 22 -13 24 27 50 39 26 50 28 128 26 96 -3 138 13
200 73 25 23 50 37 83 43 50 9 77 25 77 46 0 16 -53 41 -108 50 -35 6 -48 14
-68 44 -42 65 -46 95 -17 137 22 33 24 42 14 78 -11 43 -10 81 2 93 4 4 24
-10 45 -30 40 -39 97 -67 137 -67 13 0 48 9 77 20 29 11 65 20 79 20 26 0 108
-28 204 -70 294 -130 295 -130 347 -130 63 0 71 5 251 139 216 161 254 246
207 461 -41 190 -21 237 192 455 163 166 176 181 207 242 32 64 24 167 -24
311 -24 68 -19 119 18 193 31 64 34 67 104 99 83 37 153 94 177 143 13 29 14
49 6 128 -5 52 -13 108 -18 125 -6 18 -15 90 -22 160 -7 71 -13 130 -15 132
-4 5 -73 -34 -130 -74 -97 -67 -146 -76 -455 -82 -177 -3 -310 0 -375 7 -230
27 -276 33 -405 57 -74 14 -155 34 -179 45 -24 10 -49 19 -55 19 -7 0 -39 16
-71 35 -32 20 -64 34 -71 31 -10 -4 -13 -57 -13 -228 -1 -222 0 -223 26 -276
15 -29 44 -69 65 -88 42 -38 42 -49 -5 -93 -48 -44 -257 -68 -330 -37 -67 28
-131 91 -176 172 -69 125 -111 183 -145 202 -25 13 -55 16 -166 14 -152 -3
-205 11 -216 55 -7 26 14 86 27 77 11 -6 63 99 77 156 22 95 25 155 7 173 -9
10 -23 17 -30 17 -21 0 -65 63 -65 92 0 41 -22 91 -51 118 -15 15 -35 52 -45
85 -19 59 -57 110 -83 110 -8 0 -23 13 -35 28 -19 26 -19 29 -3 56 11 18 17
50 17 85 0 51 -2 56 -25 62 -14 3 -36 20 -50 36 -36 42 -33 92 7 153 30 46 31
48 13 61 -10 8 -27 14 -37 14 -22 0 -23 13 -3 30 19 15 20 54 2 69 -7 6 -27
10 -43 9 -16 0 -42 2 -59 5 -16 4 -46 1 -65 -6z m125 -21 c32 8 43 -16 21 -48
-23 -32 -20 -47 12 -60 38 -17 37 -16 19 -36 -24 -26 -46 -97 -40 -124 11 -40
54 -97 76 -100 29 -4 34 -56 12 -116 -21 -54 -11 -80 51 -123 34 -23 47 -42
69 -99 16 -41 37 -77 52 -88 18 -13 28 -33 35 -73 12 -66 42 -114 86 -135 l34
-16 -7 -61 c-4 -34 -15 -82 -26 -106 -10 -24 -16 -47 -13 -52 3 -5 -1 -9 -9
-9 -8 0 -20 -12 -26 -27 -6 -16 -22 -47 -36 -71 -14 -24 -23 -48 -20 -53 15
-23 -10 -48 -75 -78 -39 -17 -76 -31 -84 -31 -7 0 -25 -9 -39 -20 -14 -11 -38
-20 -54 -20 -32 0 -113 34 -113 48 0 4 -18 36 -40 70 -37 57 -40 66 -34 110 3
29 0 73 -10 116 l-17 70 41 37 c27 25 40 45 40 63 0 15 8 44 19 64 43 86 53
112 48 126 -3 9 -2 18 3 21 5 3 11 -5 13 -17 3 -18 5 -16 6 8 1 33 -20 60 -38
49 -6 -3 -25 2 -43 11 -24 13 -36 14 -50 5 -10 -6 -30 -11 -46 -11 -48 0 -62
-19 -77 -105 -15 -83 -11 -133 11 -142 20 -8 -12 -82 -53 -121 -50 -47 -115
-193 -116 -257 0 -57 26 -116 68 -155 31 -29 65 -90 65 -118 0 -10 -10 -27
-21 -38 -50 -44 -102 -204 -101 -309 1 -91 -16 -141 -51 -154 -13 -5 -39 -27
-58 -50 l-34 -40 -39 14 c-47 16 -56 29 -56 77 0 38 -17 88 -31 88 -4 0 -13
26 -19 58 -7 31 -18 64 -25 72 -7 8 -17 30 -24 49 -6 19 -23 49 -37 68 -22 28
-31 33 -68 33 -40 0 -49 -5 -102 -59 -63 -62 -121 -89 -168 -77 -34 8 -45 32
-51 109 -2 35 -12 81 -21 102 -11 27 -15 64 -13 124 1 47 -2 98 -6 113 -6 25
2 37 102 135 66 65 113 119 117 136 4 18 13 27 26 27 11 0 27 12 37 28 9 15
30 42 45 59 15 18 32 51 38 73 6 23 18 44 26 47 17 6 64 105 64 134 0 11 5 19
10 19 6 0 10 8 10 17 0 22 17 77 41 131 11 23 19 55 19 70 0 15 7 36 16 47 8
11 19 36 25 57 5 21 14 38 19 38 19 0 10 18 -12 23 -18 5 -19 8 -8 21 7 9 23
16 37 16 13 0 26 7 30 18 3 9 13 25 21 34 12 15 13 20 2 33 -11 14 -10 17 8
22 12 3 30 20 41 39 17 28 26 34 55 34 38 0 66 21 66 50 0 12 10 21 29 25 36
8 47 20 64 71 12 32 20 40 48 46 19 4 39 2 46 -4 18 -15 43 -2 43 22 0 11 3
20 8 21 28 3 67 11 71 14 2 2 12 0 22 -6 10 -5 30 -7 44 -3z m357 -1606 c-6
-39 23 -143 54 -197 17 -29 23 -50 18 -68 -5 -21 -1 -28 26 -42 18 -10 47 -30
65 -45 23 -20 51 -31 105 -39 81 -14 109 -32 155 -101 16 -24 55 -71 88 -105
58 -60 59 -62 43 -84 -22 -32 -20 -58 6 -86 27 -28 74 -30 102 -4 12 11 43 23
72 26 l52 7 12 -38 c14 -46 45 -73 80 -74 14 0 44 -9 65 -20 40 -20 125 -25
125 -6 0 4 12 5 27 2 14 -4 40 -2 56 5 27 11 32 10 48 -10 15 -19 24 -22 46
-16 53 15 147 20 164 9 18 -11 70 -134 67 -158 -2 -13 -11 -22 -26 -24 -12 -2
-29 -16 -37 -33 -9 -16 -20 -29 -25 -29 -6 0 -10 -18 -10 -40 0 -34 -4 -42
-31 -55 -17 -9 -28 -19 -25 -22 8 -9 -32 -72 -76 -118 -21 -22 -45 -54 -54
-71 -9 -17 -32 -39 -50 -49 -56 -30 -53 -75 6 -75 21 0 56 -8 78 -18 l41 -18
-44 -35 c-24 -19 -44 -39 -45 -45 0 -6 -6 -16 -13 -22 -10 -9 -17 -6 -30 8 -9
11 -26 20 -37 20 -11 0 -23 7 -26 15 -5 12 -15 14 -40 9 -45 -8 -46 17 -4 53
48 40 37 54 -45 59 -163 11 -159 12 -201 -25 -49 -43 -52 -48 -69 -124 -7 -34
-22 -91 -32 -127 -19 -67 -22 -131 -9 -187 6 -25 3 -35 -15 -52 -18 -16 -22
-31 -21 -70 1 -54 17 -95 33 -86 5 4 9 0 9 -7 1 -29 50 -61 93 -61 27 0 35 -2
23 -7 -17 -6 -18 -7 -3 -13 28 -11 19 -24 -20 -32 -25 -4 -54 -22 -85 -51 -53
-49 -62 -52 -178 -56 -77 -3 -91 -7 -142 -38 -32 -19 -58 -39 -58 -44 0 -5 7
-18 17 -28 15 -17 15 -18 -4 -18 -12 0 -23 7 -27 15 -8 21 -69 19 -89 -3 -15
-16 -15 -22 -1 -62 8 -24 24 -56 36 -72 11 -16 22 -47 25 -68 5 -36 9 -40 34
-40 15 0 34 -6 41 -12 17 -15 45 -34 76 -50 12 -6 22 -15 22 -20 0 -13 -116
-9 -204 7 -44 8 -83 12 -86 10 -19 -11 -82 19 -112 54 -18 21 -43 41 -55 45
-13 4 -26 18 -29 32 -6 23 -15 28 -43 25 -7 -2 -10 2 -7 7 3 5 -3 12 -14 15
-17 4 -20 14 -20 64 -1 86 -49 180 -108 210 -24 12 -48 26 -55 31 -7 5 -37 23
-68 40 -32 16 -68 37 -80 45 -13 9 -50 25 -81 37 -39 14 -65 32 -80 53 -12 18
-37 47 -55 64 -20 20 -33 43 -33 57 0 16 -8 30 -22 37 -19 10 -25 8 -44 -16
-23 -29 -53 -29 -55 0 -1 8 -3 20 -4 25 -1 6 -3 15 -4 20 -2 18 -68 12 -76 -7
-19 -47 -23 -90 -12 -133 14 -54 86 -171 120 -193 14 -9 35 -37 48 -61 19 -39
33 -50 94 -81 39 -19 80 -35 91 -35 10 0 30 -13 44 -30 22 -26 33 -30 88 -33
50 -4 73 -11 115 -38 28 -19 69 -43 89 -54 50 -26 33 -43 -22 -21 -40 16 -134
22 -164 10 -29 -11 -19 -60 17 -90 l34 -26 -18 -35 c-10 -20 -24 -43 -32 -52
-8 -9 -17 -38 -21 -66 -3 -27 -11 -54 -16 -59 -15 -15 -23 20 -13 61 8 31 5
48 -15 93 -33 77 -36 82 -57 94 -11 6 -27 21 -37 32 -10 12 -33 25 -51 28 -19
4 -43 16 -53 28 -11 11 -55 38 -99 59 -45 20 -97 52 -117 70 -20 19 -64 59
-98 89 -33 30 -87 94 -120 141 -33 48 -67 89 -76 93 -47 18 -139 -9 -178 -53
-11 -11 -25 -21 -31 -21 -7 0 -18 -7 -25 -15 -7 -9 -18 -14 -24 -12 -21 8 -86
-33 -86 -53 0 -27 -10 -25 -68 10 -45 29 -54 31 -127 28 l-79 -3 -27 -40 c-18
-26 -28 -57 -31 -92 -6 -64 -31 -95 -94 -117 -23 -8 -62 -34 -87 -58 -24 -24
-80 -71 -125 -106 -91 -70 -99 -89 -57 -134 l24 -26 -43 -49 c-24 -26 -52 -69
-64 -95 -11 -27 -27 -48 -34 -48 -42 0 -84 -22 -96 -49 -12 -27 -52 -48 -70
-37 -11 6 -149 20 -207 21 -38 0 -58 -6 -79 -22 -28 -23 -85 -30 -121 -17 -9
4 -27 28 -40 53 -25 51 -48 65 -160 96 -118 32 -116 30 -89 126 16 56 16 59
-6 93 -26 43 -22 59 31 123 22 26 44 63 49 82 5 18 21 51 35 71 26 37 26 43
26 174 -1 115 1 138 14 143 9 3 14 12 11 19 -14 36 97 47 142 14 18 -13 50
-23 87 -26 32 -2 73 -12 91 -20 31 -15 188 -27 322 -24 49 0 97 21 111 48 15
28 36 201 34 276 -2 54 -7 74 -23 91 -11 12 -20 31 -20 42 0 12 -4 33 -9 46
-12 31 -115 113 -161 128 -61 20 -65 28 -28 66 38 40 57 41 88 8 28 -30 60
-33 60 -5 0 18 1 19 45 3 42 -16 45 -16 64 1 l21 19 -21 34 c-12 19 -18 37
-15 41 4 3 27 1 51 -6 60 -16 102 -15 108 2 3 7 24 16 48 20 73 12 103 40 132
127 4 11 21 18 55 21 57 6 83 24 162 113 28 33 52 72 56 90 4 22 11 32 22 31
13 -1 18 9 20 39 5 57 18 69 49 45 27 -21 44 -18 86 17 16 13 46 26 68 29 55
9 99 65 99 126 0 24 -6 52 -14 63 -26 39 -43 191 -23 214 8 9 26 42 41 74 15
31 30 57 34 57 19 0 64 -61 72 -96 8 -32 6 -41 -11 -57 -10 -10 -19 -28 -19
-41 0 -13 -9 -31 -20 -41 -25 -22 -25 -43 -2 -120 13 -43 24 -61 38 -64 10 -2
34 -16 52 -32 42 -37 65 -36 114 3 33 26 43 29 57 20 52 -38 79 -52 102 -52
34 0 144 54 176 86 15 15 50 39 79 54 l52 27 6 -28 c9 -48 89 -50 106 -3 6 14
18 24 29 24 25 0 36 16 50 72 16 68 14 116 -9 178 -11 30 -20 65 -20 77 0 13
9 32 20 43 11 11 20 33 20 50 0 23 5 30 19 30 10 0 24 -6 30 -14 6 -7 31 -19
54 -25 36 -11 49 -10 85 4 23 9 44 25 47 35 8 27 -10 65 -44 89 -16 12 -31 31
-33 44 -2 17 -11 23 -38 27 -52 7 -53 41 -2 90 61 57 107 77 183 79 l66 1 -5
-30z m2398 -367 c-36 -67 -36 -76 10 -240 55 -197 45 -227 -152 -428 -167
-171 -204 -216 -234 -280 -28 -59 -31 -131 -9 -220 23 -97 19 -210 -9 -270
-34 -69 -54 -90 -192 -193 -163 -121 -181 -132 -232 -132 -43 0 -58 6 -282
105 -223 99 -271 110 -343 80 -20 -8 -60 -15 -90 -15 -48 0 -58 4 -105 44 -28
24 -57 46 -63 48 -8 3 -5 25 10 72 12 37 21 79 21 92 0 45 30 99 75 132 42 30
83 41 99 25 4 -5 11 -8 14 -9 4 0 15 -4 25 -8 9 -5 34 -6 54 -4 l36 4 -30 -25
c-25 -21 -30 -32 -26 -53 5 -25 10 -28 43 -28 21 0 43 -7 50 -15 7 -8 23 -15
35 -15 14 0 25 -7 28 -20 8 -30 21 -25 62 26 21 26 61 61 90 79 28 18 57 40
64 49 11 13 9 17 -13 27 -22 10 -29 9 -46 -6 -19 -17 -26 -18 -66 -7 -24 7
-55 12 -69 12 -34 0 -32 25 3 39 16 7 37 26 47 44 10 18 43 59 73 91 29 33 59
71 65 85 6 14 22 36 34 48 14 13 23 34 23 52 0 20 7 34 20 41 11 6 20 19 20
29 0 12 10 21 25 25 45 11 41 69 -11 179 -27 56 -76 68 -174 43 -53 -14 -55
-14 -77 10 -25 27 -34 28 -83 13 -68 -21 -113 -27 -146 -17 -41 11 -42 21 -8
65 32 42 130 89 225 108 53 10 69 35 90 135 11 51 27 102 37 113 25 28 79 53
168 77 129 35 163 39 299 29 286 -19 519 -8 615 29 14 5 26 6 28 2 2 -5 -11
-35 -28 -67z m-1273 -499 c-3 -3 -12 -4 -19 -1 -8 3 -5 6 6 6 11 1 17 -2 13
-5z m198 -694 c-3 -5 -11 -10 -16 -10 -6 0 -7 5 -4 10 3 6 11 10 16 10 6 0 7
-4 4 -10z m-984 -1395 c25 -36 26 -42 13 -67 -15 -29 -11 -53 12 -62 8 -3 14
-13 13 -23 0 -10 -3 -13 -5 -7 -3 6 -15 9 -28 7 -12 -3 -29 2 -37 10 -23 22
-63 41 -81 38 -11 -1 -18 4 -18 13 0 9 -16 34 -36 56 -20 22 -34 44 -30 48 12
12 99 30 136 29 28 -2 39 -9 61 -42z"/>
<path d="M3698 2867 c-65 -21 -72 -41 -70 -202 2 -103 -1 -151 -12 -182 -13
-37 -13 -43 2 -56 37 -33 181 -49 297 -33 83 11 95 24 95 105 0 62 -2 68 -32
94 l-31 28 31 19 c41 25 55 54 48 96 -9 43 -48 89 -100 116 -50 26 -172 34
-228 15z m223 -32 c58 -30 72 -47 76 -95 3 -32 -1 -41 -24 -60 -22 -17 -36
-21 -68 -16 -23 3 -49 8 -58 12 -9 3 -17 2 -17 -2 1 -5 24 -20 53 -34 64 -31
101 -81 93 -125 -9 -42 -41 -72 -105 -96 -46 -17 -68 -19 -121 -14 -87 9 -134
29 -125 52 17 45 25 127 24 230 -2 117 2 132 45 155 61 33 153 30 227 -7z"/>
<path d="M3798 2774 c-16 -35 4 -50 72 -53 64 -3 79 20 34 56 -41 32 -91 31
-106 -3z m117 -24 c4 -6 -5 -10 -19 -10 -14 0 -26 5 -26 10 0 6 9 10 19 10 11
0 23 -4 26 -10z"/>
<path d="M3808 2580 c-21 -13 -24 -50 -6 -68 28 -28 118 0 118 37 0 26 -82 49
-112 31z m82 -29 c0 -5 -7 -14 -15 -21 -13 -10 -15 -9 -15 9 0 12 6 21 15 21
8 0 15 -4 15 -9z"/>
<path d="M2952 2317 c-15 -18 -25 -94 -14 -101 6 -4 11 -65 11 -143 1 -75 3
-139 6 -141 2 -2 51 -6 108 -9 83 -5 115 -2 158 12 64 21 83 36 115 91 37 62
29 127 -23 197 -35 45 -50 56 -95 70 -29 9 -82 19 -118 22 -36 3 -81 8 -101
10 -22 3 -41 0 -47 -8z m208 -33 c51 -16 127 -83 136 -120 3 -13 3 -46 -1 -72
-5 -38 -15 -55 -49 -88 -53 -50 -107 -67 -206 -62 l-75 3 -3 170 c-1 93 0 175
2 182 6 15 132 7 196 -13z"/>
<path d="M3110 2150 c0 -22 0 -43 0 -47 -1 -5 9 -9 20 -11 28 -5 70 24 70 47
0 22 -40 51 -70 51 -17 0 -20 -6 -20 -40z m74 -5 c3 -9 -3 -19 -14 -25 -17 -9
-20 -7 -20 15 0 27 24 35 34 10z"/>
<path d="M3526 2125 c-23 -25 -53 -112 -81 -240 -8 -38 -17 -80 -20 -92 -4
-18 2 -24 39 -36 24 -8 89 -23 145 -33 55 -10 101 -22 101 -26 0 -5 -6 -8 -13
-8 -25 0 -98 -62 -116 -99 -24 -49 -33 -125 -20 -174 15 -56 89 -127 162 -155
76 -29 196 -32 198 -4 6 92 -4 109 -64 111 -72 2 -83 7 -107 48 -26 45 -20
100 12 112 32 12 110 1 138 -19 l26 -18 27 48 c33 59 34 73 2 98 -26 21 -160
61 -211 63 -26 2 -27 2 -4 6 42 7 78 24 84 40 8 21 -3 61 -20 67 -19 7 -18 36
3 52 15 10 16 17 7 41 -10 27 -9 31 18 46 35 20 37 55 5 85 -13 12 -26 22 -30
22 -4 0 -50 20 -101 45 -109 52 -147 56 -180 20z m137 -28 c40 -19 89 -41 110
-50 41 -19 45 -31 19 -65 -17 -22 -22 -23 -58 -13 -21 6 -52 11 -69 10 -21 0
-10 -6 35 -17 59 -15 65 -20 68 -45 6 -48 -10 -56 -76 -41 -67 16 -72 16 -72
6 0 -4 27 -16 61 -26 68 -20 99 -45 99 -80 0 -30 -23 -49 -58 -49 -31 1 -239
38 -265 48 -11 5 -15 14 -12 29 3 11 9 41 14 66 8 36 45 157 76 248 7 21 53
13 128 -21z m218 -442 l45 -16 -15 -48 c-16 -48 -16 -48 -40 -33 -13 9 -46 16
-76 16 -76 1 -105 -27 -105 -101 0 -48 4 -57 31 -83 30 -27 67 -40 115 -40 22
0 24 -4 24 -44 0 -38 -3 -45 -24 -50 -63 -16 -199 56 -242 129 -24 42 -26 53
-21 112 8 78 28 114 88 154 41 28 49 30 109 25 36 -3 86 -12 111 -21z"/>
<path d="M2275 2052 l-60 -3 -49 -101 c-55 -114 -111 -277 -99 -289 4 -4 46
-8 93 -9 142 -3 130 -8 124 55 -5 53 -4 55 20 55 21 0 27 -8 42 -54 l17 -54
90 4 c50 2 95 8 100 13 6 6 -7 39 -36 88 -72 125 -92 165 -116 223 -26 65 -44
76 -126 72z m65 -36 c0 -15 25 -74 99 -229 28 -59 51 -109 51 -110 0 -1 -27
-3 -59 -5 l-59 -2 -13 49 c-12 48 -13 49 -57 56 -24 4 -46 4 -49 2 -2 -3 -7
-30 -10 -61 l-6 -56 -76 7 c-42 3 -77 7 -78 8 -8 5 54 174 94 256 l47 98 51 3
c58 3 65 2 65 -16z"/>
<path d="M2245 1894 c-8 -20 -15 -38 -15 -40 0 -2 27 -4 60 -4 33 0 60 4 60 9
0 11 -70 71 -82 71 -4 0 -15 -16 -23 -36z m61 -9 c18 -14 18 -14 -8 -15 -18 0
-28 5 -28 15 0 19 11 19 36 0z"/>
<path d="M4623 4913 c-12 -28 -18 -73 -21 -164 -4 -146 7 -181 77 -241 99 -85
390 -132 901 -144 266 -7 380 3 500 43 70 24 161 75 198 112 l35 34 -7 79 c-4
45 -15 94 -25 116 -11 20 -25 70 -32 110 -7 39 -17 72 -21 72 -4 0 -36 -18
-70 -40 -41 -26 -75 -40 -96 -40 -18 0 -63 -4 -100 -10 -240 -34 -376 -42
-608 -37 -180 3 -267 10 -354 25 -175 32 -183 34 -212 48 -15 8 -36 14 -47 14
-11 0 -36 14 -54 30 -19 17 -37 30 -41 30 -3 0 -13 -17 -23 -37z"/>
<path d="M4597 4452 c-16 -28 -29 -154 -23 -221 4 -42 9 -99 11 -128 1 -29 5
-67 9 -86 11 -57 89 -121 163 -131 15 -2 53 -9 83 -15 30 -5 73 -12 95 -15 22
-3 75 -12 118 -21 57 -11 181 -17 450 -22 411 -7 440 -4 612 59 187 68 200 80
209 196 4 46 7 87 8 90 4 18 -16 189 -23 204 -9 16 -14 14 -54 -16 -48 -37
-54 -39 -200 -61 -84 -12 -148 -13 -375 -5 -323 11 -548 26 -599 40 -20 5 -83
16 -140 25 -58 9 -109 19 -115 24 -6 4 -38 15 -71 25 -33 9 -81 28 -107 41
-26 13 -49 21 -51 17z"/>
<path d="M3276 3304 c-14 -36 -5 -59 29 -76 34 -17 35 -17 46 3 8 17 6 27 -16
55 -28 37 -49 43 -59 18z m60 -61 c-11 -11 -46 20 -46 40 1 21 2 21 26 -7 14
-15 23 -30 20 -33z"/>
<path d="M1331 3198 c-43 -37 -50 -48 -50 -81 -1 -29 -10 -49 -36 -80 -43 -49
-46 -83 -9 -97 21 -8 24 -13 14 -25 -17 -21 -8 -59 18 -70 24 -11 28 -20 12
-30 -14 -9 -12 -61 3 -77 6 -7 12 -26 12 -43 0 -35 24 -44 61 -24 31 16 42 5
20 -20 -16 -18 -16 -22 -2 -50 25 -47 21 -78 -14 -96 -16 -8 -40 -15 -53 -15
-35 0 -45 -18 -42 -78 3 -47 0 -54 -27 -77 -36 -31 -36 -68 1 -73 22 -4 60
-37 61 -54 0 -14 -77 -47 -97 -42 -14 4 -27 -3 -42 -22 -43 -55 -22 -84 62
-81 43 2 61 7 76 24 19 20 23 21 48 8 24 -13 29 -12 45 2 13 12 29 14 72 9 33
-5 56 -3 60 3 4 6 21 5 48 -5 60 -21 90 -17 128 15 32 27 34 30 22 56 -12 25
-10 31 11 54 46 50 58 80 55 129 l-3 47 -64 5 -64 5 -1 73 c-1 68 -3 76 -29
98 -16 13 -27 32 -26 42 3 33 -1 41 -66 138 -65 98 -74 117 -55 129 6 4 18 24
27 46 8 22 24 46 35 54 19 13 19 16 7 57 -14 43 -14 43 -77 53 l-62 10 50 43
c27 24 50 47 50 51 0 14 -50 31 -90 31 -32 0 -49 -8 -89 -42z m144 12 c3 -5
-15 -26 -40 -46 -64 -54 -60 -69 23 -80 63 -8 67 -11 70 -37 2 -15 -5 -39 -15
-55 -10 -15 -32 -53 -48 -85 l-30 -58 22 -17 c37 -29 123 -164 123 -194 0 -16
13 -42 31 -63 30 -34 32 -39 26 -99 -4 -41 -2 -67 6 -75 6 -6 37 -11 69 -11
l58 0 0 -39 c0 -30 -9 -51 -40 -92 -23 -30 -39 -61 -37 -69 3 -8 6 -21 8 -28
2 -7 -13 -22 -34 -34 -37 -22 -39 -22 -88 -5 -27 10 -55 15 -62 10 -6 -4 -37
-8 -67 -10 -30 -1 -66 -3 -80 -4 -14 -1 -32 1 -41 5 -11 5 -24 0 -35 -12 -11
-11 -35 -22 -54 -26 -27 -4 -30 -4 -15 4 16 7 12 9 -19 7 -65 -3 -57 39 10 50
21 3 56 17 76 29 20 13 48 26 62 30 39 9 31 24 -9 17 -32 -5 -35 -3 -51 31
-15 29 -21 35 -41 30 -33 -9 -30 16 8 49 25 22 30 32 24 54 -4 17 -2 29 7 34
10 7 10 11 0 21 -20 20 -14 28 21 28 17 0 47 9 65 20 26 16 32 26 32 55 0 19
-5 44 -12 55 -9 15 -9 24 1 44 8 13 11 32 7 41 -6 17 -17 17 -75 -1 -22 -7
-23 -5 -17 21 5 19 2 33 -9 46 -14 15 -15 23 -5 53 12 38 7 56 -15 56 -22 0
-28 20 -15 46 11 19 11 26 0 39 -7 8 -19 15 -26 15 -24 0 -16 26 21 70 23 27
35 52 35 72 0 28 29 78 47 80 4 0 14 9 20 19 9 12 26 17 58 17 25 0 47 -3 50
-8z"/>
<path d="M3033 3124 c-6 -15 29 -53 50 -54 17 0 18 32 2 50 -22 24 -43 26 -52
4z"/>
<path d="M2954 3005 c-16 -41 35 -64 56 -25 8 15 6 21 -9 30 -27 14 -41 13
-47 -5z"/>
<path d="M1018 2781 c-30 -29 -39 -45 -35 -60 7 -27 -21 -28 -65 -2 -38 24
-48 20 -48 -18 0 -16 -11 -45 -25 -65 -27 -39 -31 -56 -15 -56 5 0 13 -12 16
-26 6 -22 -1 -32 -45 -73 l-52 -47 16 -42 c10 -23 29 -51 43 -62 23 -19 27
-19 48 -5 13 8 45 15 71 15 26 0 61 7 77 15 15 8 38 15 50 15 11 0 40 17 63
38 35 31 43 45 48 83 2 25 11 59 19 74 9 17 12 40 9 57 -4 21 0 38 16 58 26
36 26 45 0 78 -31 41 -70 62 -112 62 -30 0 -46 -8 -79 -39z m133 7 c8 -7 25
-25 37 -40 23 -25 23 -27 6 -53 -10 -15 -21 -45 -24 -68 -26 -154 -45 -207
-75 -207 -7 0 -18 -7 -25 -15 -7 -8 -25 -15 -40 -15 -16 0 -30 -5 -32 -10 -2
-6 -35 -14 -73 -19 -39 -4 -77 -11 -86 -15 -23 -10 -63 46 -54 74 4 11 26 40
51 65 24 25 44 51 44 58 0 7 -10 24 -22 37 -15 16 -18 25 -10 28 16 5 42 55
42 82 0 25 1 25 44 -1 43 -25 81 -18 73 13 -7 24 28 76 58 88 30 13 69 12 86
-2z"/>
<path d="M2588 2763 c-53 -28 -57 -42 -31 -98 21 -44 53 -48 53 -7 0 16 -7 37
-15 48 -24 32 -16 41 9 11 23 -28 24 -29 55 -13 33 17 42 51 19 74 -17 17 -36
14 -90 -15z m77 -18 c0 -23 -34 -33 -46 -14 -10 17 9 41 30 37 9 -2 16 -12 16
-23z m-80 -55 c3 -5 1 -10 -4 -10 -6 0 -11 5 -11 10 0 6 2 10 4 10 3 0 8 -4
11 -10z"/>
<path d="M2445 984 c-35 -36 -47 -63 -40 -94 9 -43 39 -57 59 -28 9 12 16 31
16 42 0 10 7 24 16 31 12 8 15 20 10 38 -7 31 -36 36 -61 11z m20 -68 c-20
-52 -32 -58 -41 -21 -4 16 1 34 16 55 32 46 47 25 25 -34z"/>
<path d="M2434 755 c-9 -14 -25 -25 -35 -25 -15 0 -19 -7 -19 -34 0 -18 -7
-47 -15 -62 -23 -44 -15 -120 18 -171 14 -21 22 -16 81 54 56 68 66 96 45 134
-8 15 -6 25 11 46 l21 26 -28 29 c-33 35 -58 36 -79 3z m57 -5 c23 -13 24 -28
3 -51 -14 -16 -15 -23 -4 -49 17 -41 8 -67 -44 -122 -48 -53 -56 -57 -56 -29
0 11 -4 23 -10 26 -15 9 -12 60 5 102 8 19 15 46 15 59 0 14 6 24 14 24 7 0
21 11 30 25 19 28 20 29 47 15z"/>
<path d="M1756 581 c-23 -25 -15 -48 19 -57 19 -5 36 1 63 20 21 14 44 26 51
26 7 0 11 6 9 13 -3 7 -28 13 -64 15 -50 2 -63 -1 -78 -17z m62 -27 c-4 -3
-19 -4 -35 -2 l-28 4 25 11 c23 10 51 1 38 -13z"/>
<path d="M3044 415 c-17 -22 -29 -26 -99 -31 -82 -7 -125 -23 -125 -49 0 -21
33 -35 84 -35 35 0 48 -5 60 -22 13 -19 28 -23 103 -28 49 -4 91 -5 96 -3 11
6 8 37 -7 58 -7 11 -16 40 -19 65 -9 69 -56 92 -93 45z m66 -48 c0 -18 7 -42
15 -53 28 -37 19 -44 -54 -44 -59 0 -72 3 -95 25 -20 18 -38 25 -69 25 -23 0
-48 4 -56 9 -21 13 19 31 71 31 65 1 118 16 135 39 21 31 53 11 53 -32z"/>
<path d="M4430 264 c-8 -2 -73 -8 -143 -14 -142 -11 -170 -20 -165 -53 2 -18
9 -21 33 -19 17 2 44 2 60 2 88 -3 154 1 183 11 53 18 82 82 32 73z m-20 -34
c0 -17 -34 -28 -95 -30 -77 -3 -81 -2 -69 10 21 21 164 39 164 20z m-195 -10
c3 -5 -1 -10 -10 -10 -8 0 -24 -5 -35 -12 -10 -7 -23 -9 -27 -5 -9 9 17 28 29
21 4 -3 8 0 8 5 0 14 27 14 35 1z"/>
</g>
</svg>
