<?xml version="1.0" standalone="no"?>
<!DOCTYPE svg PUBLIC "-//W3C//DTD SVG 20010904//EN"
 "http://www.w3.org/TR/2001/REC-SVG-20010904/DTD/svg10.dtd">
<svg version="1.0" xmlns="http://www.w3.org/2000/svg"
 width="1649.000000pt" height="955.000000pt" viewBox="0 0 1649.000000 955.000000"
 preserveAspectRatio="xMidYMid meet">

<g transform="translate(0.000000,955.000000) scale(0.100000,-0.100000)"
fill="#000000" stroke="none">
<path d="M7670 8613 c-80 -14 -301 -70 -394 -100 -170 -55 -426 -191 -691
-367 -386 -257 -534 -408 -738 -751 -130 -220 -210 -427 -272 -700 -26 -117
-89 -592 -119 -905 -18 -180 -54 -475 -62 -502 -7 -22 -33 -23 -100 -1 -170
53 -245 -114 -232 -517 6 -176 15 -206 133 -445 92 -184 105 -228 129 -425 9
-69 21 -142 27 -163 17 -62 72 -113 174 -162 l92 -44 7 -53 c6 -56 29 -172 38
-198 56 -152 68 -191 68 -213 0 -14 5 -29 11 -32 6 -4 8 -13 5 -20 -2 -7 9
-41 25 -75 16 -34 29 -68 29 -74 0 -7 16 -43 35 -80 19 -37 35 -73 35 -79 0
-7 6 -24 14 -39 9 -16 10 -30 4 -36 -6 -6 1 -15 17 -26 15 -10 38 -43 53 -74
38 -84 45 -265 32 -877 -5 -280 -10 -531 -10 -556 0 -42 -5 -51 -50 -97 -116
-118 -332 -270 -444 -313 -45 -16 -123 -55 -174 -86 -51 -31 -108 -61 -128
-68 -29 -10 35 -13 372 -18 525 -9 2295 -9 2617 0 242 6 247 7 247 27 0 35 24
70 50 76 14 3 29 15 35 26 34 66 113 118 164 108 23 -5 32 -2 40 15 7 12 20
21 29 21 10 0 23 5 30 12 20 20 26 -1 7 -22 -42 -47 54 -2 117 55 45 40 54 45
84 39 33 -6 48 8 22 20 -10 5 -10 7 0 12 7 3 19 19 28 35 13 26 13 30 -1 35
-9 4 -26 -3 -39 -15 -18 -17 -33 -22 -62 -19 l-39 3 43 23 c50 26 53 40 12 48
-50 10 -23 23 35 17 52 -5 55 -4 64 20 16 40 42 49 79 27 38 -23 57 -18 71 20
11 32 5 63 -17 98 -8 12 -13 24 -11 25 2 1 18 11 34 23 17 11 39 24 50 29 17
8 14 10 -17 13 -25 2 -38 8 -38 18 0 8 4 14 9 14 5 0 28 16 52 36 38 31 44 34
55 20 14 -20 24 -21 24 -2 0 7 7 19 15 26 8 7 15 19 15 27 0 11 -7 13 -31 8
-42 -9 -31 6 24 34 46 24 77 51 128 113 l30 37 -32 -9 c-38 -11 -45 -18 -51
-45 -4 -17 -6 -15 -13 9 -6 20 -4 31 3 34 7 2 12 16 12 30 0 15 4 33 9 41 7
11 13 10 32 -8 42 -39 90 -40 54 -1 -17 19 -17 21 9 58 14 21 26 44 26 51 0 7
7 10 18 7 15 -5 23 3 37 34 10 21 26 47 36 56 11 10 19 22 19 29 0 6 15 31 33
55 17 24 50 75 72 114 29 51 49 75 73 85 20 9 32 22 32 34 0 25 37 77 56 77 8
0 14 6 14 14 0 7 7 19 15 26 8 7 15 20 15 30 0 10 9 20 20 23 13 3 20 14 20
30 0 15 23 54 60 100 33 41 60 82 60 91 0 24 43 96 57 96 6 0 17 26 23 57 6
33 24 76 41 100 16 23 29 50 29 61 0 11 6 25 14 31 7 6 16 42 20 79 4 37 13
76 21 88 19 29 43 134 54 237 8 71 15 94 38 123 26 35 26 36 5 30 -21 -7 -22
-5 -22 54 0 76 25 321 45 433 19 110 46 170 101 229 47 50 53 71 29 102 -17
23 -20 76 -5 76 6 0 -3 20 -20 45 -44 65 -60 107 -60 165 0 88 -17 54 -23 -47
-7 -113 -23 -198 -43 -230 -9 -14 -14 -51 -14 -104 0 -68 -2 -80 -14 -70 -11
9 -15 6 -19 -16 -6 -27 -24 -101 -53 -215 -7 -32 -14 -85 -14 -117 0 -33 -4
-63 -10 -66 -5 -3 -10 -39 -10 -80 0 -47 -4 -75 -12 -77 -8 -3 -9 -15 -1 -46
11 -41 10 -41 -11 -30 -11 6 -38 30 -59 52 -39 42 -40 35 -2 -19 23 -34 48
-98 34 -89 -14 8 -11 -19 6 -59 20 -48 19 -67 -2 -37 -9 14 -31 41 -49 61 -17
20 -37 54 -44 75 -14 43 -30 67 -30 44 1 -8 7 -44 15 -80 27 -121 15 -187 -20
-110 -16 36 -55 83 -55 66 0 -4 7 -20 15 -36 9 -17 12 -30 7 -30 -13 0 -32 47
-32 80 0 16 -4 32 -10 35 -15 9 -12 25 5 25 19 0 19 5 -6 59 -33 73 -35 75
-64 86 -22 8 -29 6 -40 -8 -17 -23 -24 -22 -60 13 -31 30 -31 30 -88 18 -46
-10 -62 -10 -78 0 -10 7 -30 10 -43 6 -15 -4 -35 3 -61 20 -21 14 -43 26 -50
26 -7 0 -24 9 -38 20 l-26 21 -51 -35 c-121 -83 -240 -75 -424 29 -43 25 -81
43 -84 40 -3 -3 5 -20 18 -37 17 -24 24 -47 26 -95 2 -39 -1 -65 -8 -69 -7 -5
-28 11 -50 37 -24 28 -38 38 -38 27 0 -24 -56 -34 -79 -14 -10 9 -23 16 -29
16 -6 0 -32 21 -57 46 -33 32 -51 43 -64 39 -13 -4 -31 4 -55 25 l-35 32 60
72 c34 40 70 87 81 105 20 30 20 31 1 31 -11 0 -52 16 -92 35 -39 19 -84 35
-100 35 -15 0 -53 -13 -84 -30 -31 -16 -68 -30 -81 -30 -13 0 -54 16 -90 35
-37 19 -75 35 -85 35 -10 0 -24 6 -30 14 -7 8 -39 17 -71 21 -59 7 -66 11
-161 84 -15 11 -36 41 -48 67 -18 38 -24 44 -36 34 -24 -20 -19 32 5 60 26 30
25 38 -5 70 -23 24 -25 30 -14 54 7 14 18 26 26 26 16 0 17 -22 2 -37 -8 -8
-8 -13 0 -17 11 -7 31 32 31 60 0 8 5 14 10 14 6 0 10 11 10 25 0 15 6 25 15
25 28 0 42 43 44 140 2 108 -23 340 -40 371 -7 14 -10 77 -9 178 1 86 -1 169
-5 185 -6 22 -4 31 9 38 11 6 15 16 11 29 -4 13 -2 17 7 14 13 -5 29 29 51
113 8 32 8 52 0 73 -7 17 -7 31 -2 35 14 8 11 47 -7 72 -17 25 -54 30 -54 8 0
-17 -18 -31 -27 -22 -3 3 0 12 6 20 18 21 4 37 -27 34 -24 -3 -27 0 -24 25 4
35 -14 35 -25 1 -9 -26 -10 -25 -51 37 -59 89 -112 149 -112 127 0 -10 -4 -18
-10 -18 -10 0 -14 13 -11 36 1 6 -8 19 -19 29 -20 18 -20 17 -20 -8 0 -27 -13
-36 -25 -17 -11 18 -83 50 -113 50 -39 0 -64 27 -30 32 19 3 12 11 -47 50 -41
28 -91 52 -120 58 -27 6 -63 15 -80 20 -16 5 -51 12 -77 15 -62 8 -62 25 -1
25 73 0 39 19 -55 30 -46 6 -87 8 -92 5 -15 -9 -72 35 -66 50 2 7 -4 29 -15
49 -26 50 -24 62 16 101 l35 33 -42 18 -43 18 40 5 c40 6 40 6 39 48 0 25 -8
51 -18 61 -15 17 -15 20 -1 32 21 18 19 38 -10 76 -31 40 -32 59 -5 50 67 -20
63 -21 49 3 -11 17 -11 25 -1 41 10 17 9 25 -10 50 -13 18 -31 30 -45 30 -19
0 -23 5 -23 31 0 20 -4 28 -12 23 -8 -5 -9 -2 -5 10 4 10 7 38 7 62 0 35 5 49
25 66 23 19 25 29 25 97 0 57 -5 86 -20 114 -16 30 -18 42 -9 58 13 25 5 49
-16 49 -22 0 -19 17 6 31 17 9 20 17 14 42 -14 67 -12 171 3 195 13 20 14 35
4 98 -14 88 -29 121 -70 151 -38 28 -58 83 -41 114 9 19 9 25 -5 34 -15 12
-15 13 3 18 10 2 25 17 32 33 18 37 68 70 120 78 23 4 39 10 35 13 -8 8 23 43
39 43 7 0 18 -6 24 -14 9 -11 19 -12 47 -3 27 8 37 8 43 -1 5 -9 17 -4 42 14
48 37 143 79 212 94 31 7 62 19 68 27 6 7 17 13 25 13 7 0 14 10 16 23 3 19 8
21 37 19 21 -3 31 0 27 7 -9 14 18 19 137 25 95 5 137 17 137 36 0 10 -100 12
-150 3z m-494 -198 c-22 -17 -56 -20 -56 -6 0 12 19 19 50 20 24 0 24 0 6 -14z
m-426 -270 c0 -8 -4 -15 -10 -15 -5 0 -10 7 -10 15 0 8 5 15 10 15 6 0 10 -7
10 -15z m161 -1478 c-1 -12 -15 -9 -19 4 -3 6 1 10 8 8 6 -3 11 -8 11 -12z
m-231 -227 c0 -5 -4 -10 -10 -10 -5 0 -10 5 -10 10 0 6 5 10 10 10 6 0 10 -4
10 -10z m677 -245 c42 -25 56 -45 31 -45 -15 1 -98 70 -84 70 5 0 29 -11 53
-25z m-129 -947 c-3 -40 -6 -44 -45 -58 -24 -9 -48 -21 -54 -27 -14 -14 -39
-6 -39 12 0 16 110 115 128 115 9 0 12 -13 10 -42z m162 12 c0 -5 -4 -10 -10
-10 -5 0 -10 5 -10 10 0 6 5 10 10 10 6 0 10 -4 10 -10z m-115 -100 c8 12 75
13 75 1 0 -12 -26 -21 -60 -21 -35 0 -60 9 -60 21 0 6 8 5 19 -1 13 -7 22 -7
26 0z m-85 -180 c0 -5 20 -10 44 -10 25 0 47 -4 51 -9 7 -13 -34 -41 -61 -41
-12 0 -27 -7 -34 -15 -18 -22 16 -32 39 -11 20 18 41 21 41 6 0 -17 29 -11 51
11 17 17 29 20 58 15 20 -3 48 -6 64 -6 22 0 27 -4 27 -24 0 -14 -4 -28 -10
-31 -5 -3 -10 -17 -10 -31 0 -13 -4 -24 -10 -24 -5 0 -10 5 -10 10 0 6 -5 10
-11 10 -6 0 -9 -6 -6 -14 3 -7 1 -18 -4 -23 -6 -6 -4 -23 5 -45 9 -19 13 -38
9 -41 -3 -3 4 -21 16 -40 26 -43 26 -51 1 -44 -16 4 -21 -1 -26 -21 -3 -15
-10 -49 -16 -77 -5 -27 -14 -57 -19 -65 -5 -8 -14 -27 -20 -42 -6 -16 -17 -28
-25 -28 -7 0 -17 -15 -22 -32 -5 -18 -14 -32 -21 -30 -6 1 -11 -5 -11 -13 0
-8 -6 -14 -12 -13 -8 2 -13 -7 -12 -19 0 -14 -7 -25 -18 -29 -10 -3 -18 -11
-18 -19 0 -8 -9 -17 -21 -20 -16 -6 -19 -12 -14 -36 4 -16 2 -29 -3 -29 -5 0
-24 -16 -43 -35 -19 -19 -44 -35 -56 -35 -13 0 -23 -4 -23 -10 0 -5 7 -10 15
-10 18 0 20 -26 2 -33 -7 -3 -26 -2 -43 1 -26 5 -28 4 -15 -11 12 -15 10 -17
-22 -17 -36 0 -56 -13 -37 -25 5 -3 10 -15 10 -27 0 -16 -4 -19 -24 -14 -14 3
-37 1 -52 -6 -22 -10 -28 -10 -39 5 -7 9 -17 17 -22 17 -5 0 -18 9 -28 20 -10
11 -22 17 -27 14 -5 -3 -17 1 -27 10 -17 16 -21 16 -55 0 -35 -17 -36 -17 -60
5 -13 12 -36 25 -52 30 -24 6 -29 13 -32 44 -4 46 -38 72 -81 64 -22 -5 -38 0
-63 18 -18 14 -43 29 -55 34 -25 11 -31 49 -12 68 8 8 7 17 -3 33 -8 14 -9 24
-3 26 37 15 40 23 15 48 -13 15 -31 26 -41 26 -10 0 -21 10 -25 23 -4 12 -16
28 -26 36 -14 9 -19 23 -16 47 2 26 -3 38 -20 50 -19 13 -22 24 -22 75 0 44
-4 61 -15 65 -8 4 -15 18 -15 32 0 14 -9 35 -20 47 l-20 21 24 24 c25 22 27
22 138 12 62 -6 130 -14 151 -18 30 -5 45 -2 66 14 21 15 108 42 136 42 3 0 5
-16 5 -35 0 -32 2 -35 29 -35 17 0 33 5 36 10 4 6 29 8 63 4 55 -6 56 -6 35
10 -27 20 -28 29 -7 50 11 11 21 13 32 7 10 -6 24 -5 37 2 27 14 126 37 136
31 5 -2 5 -12 2 -22 -4 -10 7 -5 28 15 19 17 54 36 78 43 28 7 45 18 48 31 5
20 23 27 23 9z m168 -8 c2 -7 -3 -12 -12 -12 -9 0 -16 7 -16 16 0 17 22 14 28
-4z m-561 -1028 c-3 -3 -12 -4 -19 -1 -8 3 -5 6 6 6 11 1 17 -2 13 -5z m1809
-221 c-9 -10 -46 9 -46 23 0 12 4 12 25 -2 14 -9 24 -19 21 -21z m427 -90 c4
-19 2 -33 -3 -33 -6 0 -10 17 -10 37 0 43 5 41 13 -4z m-328 -129 c8 -44 -1
-56 -15 -20 -12 33 -13 56 -1 56 5 0 12 -16 16 -36z m-195 -25 c0 -5 -4 -9
-10 -9 -5 0 -10 7 -10 16 0 8 5 12 10 9 6 -3 10 -10 10 -16z m160 -80 c16 -38
33 -38 25 0 -4 20 -2 32 8 38 7 4 17 16 20 26 14 37 42 11 93 -83 37 -67 57
-94 68 -92 25 4 33 -28 11 -44 -26 -19 -32 -18 -39 11 -7 26 -20 32 -31 15 -9
-15 -122 -13 -132 3 -9 14 -83 19 -83 6 0 -19 -22 -7 -38 20 -15 26 -18 27
-29 13 -11 -15 -14 -15 -23 -2 -12 19 -13 87 -1 95 5 3 17 -5 25 -17 13 -19
16 -20 16 -5 0 10 -7 34 -15 54 -22 52 -12 52 24 -1 21 -30 38 -44 51 -43 19
1 18 3 -5 22 -13 11 -27 33 -31 49 l-7 29 41 -32 c22 -18 46 -46 52 -62z
m-165 40 c5 -6 4 -14 -3 -21 -7 -7 -12 -36 -12 -65 0 -45 -3 -53 -19 -53 -10
0 -24 7 -31 15 -7 9 -21 13 -31 10 -14 -5 -19 -1 -19 14 0 19 -1 20 -31 3 -29
-17 -31 -16 -49 6 -18 22 -19 22 -29 3 -17 -30 -75 -44 -160 -38 -74 5 -143
26 -156 47 -3 5 5 15 19 21 14 7 27 21 29 33 4 21 5 21 12 -2 6 -17 11 -20 20
-12 9 7 20 7 39 -1 19 -9 29 -9 40 0 8 7 16 8 18 2 5 -15 61 -16 96 -2 30 13
36 12 62 -8 35 -26 40 -26 40 -3 0 10 6 26 13 36 12 16 14 16 31 -3 16 -17 20
-18 32 -6 8 7 14 21 14 29 0 12 7 14 33 9 17 -3 36 -10 42 -14z m358 -43 c4
-10 1 -13 -9 -9 -7 3 -14 9 -14 14 0 14 17 10 23 -5z m980 -243 c5 -7 13 -13
19 -13 6 0 6 6 -2 15 -7 9 -10 18 -7 21 14 14 27 -38 18 -70 -5 -19 -7 -37 -4
-40 3 -2 2 -10 -2 -16 -6 -9 -10 -9 -17 1 -6 9 -7 -9 -3 -51 l7 -65 -33 45
c-24 33 -37 64 -45 115 -8 43 -9 74 -3 79 5 6 11 -3 15 -22 4 -18 10 -32 15
-32 12 0 11 36 -3 143 -11 81 -10 91 5 102 9 7 18 18 19 26 1 8 4 -40 7 -106
3 -66 10 -126 14 -132z m-443 174 c0 -5 -7 -4 -15 3 -8 7 -15 20 -15 29 1 13
3 13 15 -3 8 -11 15 -24 15 -29z m307 11 c-3 -8 -6 -5 -6 6 -1 11 2 17 5 13 3
-3 4 -12 1 -19z m49 -23 c15 -38 19 -75 6 -59 -5 5 -16 28 -25 52 -20 51 -3
58 19 7z m-76 -12 c0 -11 7 -14 21 -10 19 5 20 2 14 -34 -4 -24 -3 -39 3 -39
6 0 12 10 14 23 l3 22 14 -24 c11 -19 11 -25 0 -32 -10 -6 -11 -23 -3 -78 5
-39 6 -78 2 -88 -3 -10 -7 -43 -8 -73 -1 -54 -18 -119 -19 -76 -1 15 -4 16
-16 6 -18 -15 -45 -6 -45 16 0 13 -3 14 -15 4 -21 -17 -20 8 1 38 16 23 13 52
-6 52 -5 0 -10 -7 -10 -16 0 -8 -4 -13 -9 -10 -14 9 -21 -21 -21 -94 0 -38 -4
-71 -8 -74 -4 -2 -6 10 -4 29 6 46 -15 54 -24 9 -6 -34 -8 -36 -20 -19 -12 17
-14 13 -14 -35 0 -59 -10 -59 -25 1 -10 41 -32 51 -27 12 2 -12 -4 -36 -13
-53 -18 -34 -41 -265 -31 -312 10 -49 -12 -30 -33 30 -35 95 -40 102 -40 64
-1 -18 9 -50 21 -71 20 -35 21 -42 9 -79 -8 -23 -11 -53 -7 -69 4 -15 6 -35 6
-43 -1 -8 -2 -27 -2 -42 -1 -36 -9 -35 -33 5 -18 29 -20 30 -23 10 -2 -12 13
-53 33 -91 42 -79 46 -123 7 -82 -12 13 -22 32 -22 42 0 11 -21 40 -46 66 -25
26 -43 39 -40 29 5 -15 2 -17 -13 -12 -16 5 -18 2 -14 -14 3 -11 11 -26 19
-32 8 -6 14 -22 14 -36 0 -24 -1 -23 -47 16 -52 44 -63 46 -37 7 9 -15 20 -46
25 -69 4 -23 11 -50 14 -60 6 -13 3 -16 -9 -11 -10 4 -18 0 -22 -10 -5 -13
-11 -10 -35 14 -16 16 -36 45 -44 65 -9 20 -22 35 -32 35 -15 0 -15 -1 0 -18
20 -21 22 -39 6 -44 -13 -4 -1 -78 13 -78 6 0 8 7 4 15 -3 8 -1 15 4 15 15 0
40 -43 40 -70 -1 -23 -2 -24 -14 -7 -19 25 -23 21 -19 -15 3 -25 2 -30 -6 -18
-6 8 -11 22 -11 31 0 9 -6 21 -13 28 -11 8 -13 5 -9 -19 5 -36 -4 -64 -18 -55
-8 5 -7 11 0 20 17 20 5 33 -25 27 -15 -2 -25 0 -25 7 0 6 7 11 16 11 9 0 14
6 12 13 -3 6 -11 12 -19 12 -11 0 -13 -13 -11 -55 2 -39 -5 -74 -22 -120 -23
-62 -24 -64 -32 -36 -4 17 -2 36 5 47 6 10 10 40 9 66 -1 35 -2 39 -5 16 -3
-23 -10 -33 -29 -37 -14 -4 -29 -4 -34 -1 -6 4 -7 -3 -2 -16 5 -13 4 -32 -2
-46 -13 -27 -22 -29 -30 -5 -3 9 -12 33 -20 52 l-13 35 -8 -47 c-4 -26 -5 -55
-1 -63 3 -9 0 -15 -9 -15 -9 0 -15 10 -15 26 0 22 -3 24 -14 15 -12 -10 -15
-8 -18 11 -4 33 -32 34 -45 1 l-11 -28 -1 28 c-1 18 -5 26 -12 21 -6 -3 -9
-22 -7 -41 4 -31 3 -33 -9 -17 -19 26 -16 54 8 80 14 15 19 32 17 55 l-3 34
-16 -45 c-9 -25 -20 -45 -25 -44 -5 0 -16 -9 -25 -20 -21 -26 -49 -15 -49 21
0 43 -20 13 -28 -42 -4 -27 -13 -50 -21 -53 -11 -4 -13 6 -7 49 l7 54 -33 -37
c-42 -46 -92 -74 -84 -45 14 45 16 68 5 61 -9 -5 -11 2 -6 29 3 20 2 39 -3 42
-5 3 -10 -5 -12 -17 -2 -13 -9 -22 -16 -20 -7 1 -17 -9 -22 -24 -6 -15 -14
-22 -21 -18 -7 4 -18 -1 -25 -11 -8 -10 -17 -15 -21 -12 -4 4 -12 -6 -19 -23
-7 -16 -18 -30 -23 -30 -6 0 -24 26 -40 58 -17 31 -30 49 -31 39 0 -15 -3 -16
-21 -6 -23 12 -54 2 -91 -30 -16 -13 -18 -12 -18 12 0 14 5 29 10 32 6 3 10
11 10 18 0 8 -3 8 -12 -1 -7 -7 -21 -12 -33 -12 -12 0 -26 -5 -33 -12 -9 -9
-12 -9 -12 0 0 24 -18 11 -29 -19 -15 -43 -14 -69 3 -69 8 0 17 -7 20 -16 5
-13 1 -15 -20 -10 -15 4 -32 2 -40 -5 -8 -6 -14 -8 -15 -3 0 5 -4 0 -9 -11
l-8 -20 -7 20 c-3 11 -11 29 -17 40 -6 11 -14 34 -18 50 -3 17 -12 30 -20 30
-10 0 -16 13 -18 43 -3 39 -5 42 -27 36 -30 -7 -65 12 -65 36 0 10 -4 22 -10
25 -22 14 -8 20 38 17 35 -3 44 -1 36 8 -7 6 -33 10 -65 8 -57 -3 -58 -4 -44
-58 6 -24 6 -24 -9 -6 -14 17 -20 18 -54 8 -70 -21 -100 -9 -44 18 24 12 25
14 7 18 -11 2 -50 -1 -86 -8 -64 -12 -69 -12 -94 9 -15 11 -37 21 -49 21 -11
0 -34 9 -50 19 -22 15 -35 17 -54 10 -36 -14 -38 -4 -4 19 61 44 189 71 176
37 -4 -8 -1 -15 5 -15 6 0 11 7 11 16 0 15 3 15 27 -1 25 -17 27 -17 42 2 12
16 26 20 63 18 25 -2 51 -5 56 -9 5 -3 25 -3 43 0 76 13 220 16 234 4 10 -8
18 -8 34 2 17 10 24 9 48 -8 48 -35 49 -35 45 6 -2 23 1 41 8 45 9 6 11 0 8
-24 -3 -21 0 -31 9 -31 7 0 13 -4 13 -10 0 -19 19 -10 26 13 4 12 12 25 18 29
19 13 59 9 78 -8 16 -16 18 -15 24 0 5 14 9 15 15 4 14 -22 40 22 34 57 l-5
29 28 -27 c15 -15 31 -27 35 -27 3 0 14 14 23 31 16 31 16 31 30 10 21 -30 37
-16 29 25 -3 19 -2 34 3 34 14 0 39 -33 44 -55 3 -16 9 -12 34 25 16 25 36 45
43 45 7 0 18 10 25 23 l12 23 12 -26 c10 -21 9 -30 -3 -48 -26 -37 -16 -50 12
-17 25 30 26 35 15 76 -15 54 -15 67 -2 59 6 -4 10 5 10 20 0 15 9 38 19 52
11 13 17 31 14 40 -8 21 27 13 41 -10 9 -15 6 -21 -14 -37 -14 -10 -21 -22
-17 -26 4 -4 7 -2 7 5 0 7 4 10 10 6 14 -9 40 50 40 93 0 39 -22 83 -36 69 -4
-4 -1 -18 6 -32 19 -36 2 -45 -22 -12 -21 29 -58 37 -58 12 0 -9 7 -32 15 -52
18 -42 18 -43 6 -43 -5 0 -19 16 -31 35 -12 19 -27 35 -35 35 -7 0 -15 8 -19
18 -3 9 -9 24 -12 32 -5 12 -4 13 7 3 20 -20 31 -15 19 8 -7 11 -9 26 -7 34 4
8 -2 13 -16 13 -119 1 -365 31 -400 48 -20 11 -32 12 -46 4 -27 -14 -62 -12
-84 5 -11 7 -38 17 -60 20 -23 4 -48 12 -55 18 -9 7 -18 5 -30 -7 -24 -21 -32
-12 -32 39 0 26 -6 48 -15 55 -13 11 -20 9 -44 -14 -35 -33 -55 -17 -22 18 26
28 27 42 1 56 -11 6 -20 18 -20 27 0 14 13 15 128 7 185 -12 323 -9 333 7 8
14 107 15 171 3 21 -4 33 1 53 22 20 22 28 25 34 15 6 -10 22 -11 62 -6 63 9
89 20 89 40 0 8 9 15 21 15 13 0 18 -4 13 -12 -5 -8 0 -9 17 -4 55 15 107 18
128 7 18 -10 26 -9 48 8 37 30 53 27 53 -11 l0 -31 23 20 c24 21 89 43 130 43
34 0 82 -60 72 -90 -10 -30 32 -75 53 -58 27 23 50 -33 43 -109 -1 -13 2 -23
7 -23 5 0 17 -19 27 -42 l17 -43 10 33 c7 25 5 44 -7 77 -17 44 -17 91 0 88 9
-1 15 -19 31 -88 l6 -30 15 22 c12 17 19 20 33 13 16 -9 17 -15 5 -76 -7 -36
-18 -70 -26 -74 -10 -7 -10 -14 -1 -34 9 -21 9 -24 -4 -19 -12 4 -15 0 -12
-18 2 -16 9 -23 19 -21 12 2 18 -7 20 -30 5 -45 0 -80 -12 -73 -5 4 -9 -1 -9
-9 0 -9 6 -16 14 -16 21 0 29 51 21 130 -10 99 12 286 39 327 12 18 26 33 33
33 19 0 73 76 73 103 0 40 10 57 34 57 17 0 22 7 24 30 4 50 20 80 42 80 18 0
19 3 9 22 -10 18 -8 24 7 38 28 23 54 74 54 105 0 23 2 26 15 15 8 -7 15 -19
15 -27z m-196 11 c3 -9 6 -30 6 -47 -1 -32 -1 -32 -14 -9 -11 21 -14 22 -26 7
-14 -17 -59 -17 -50 0 3 6 13 9 23 8 12 -2 17 4 17 20 0 38 32 53 44 21z m726
-132 c0 -46 -4 -81 -9 -78 -10 7 -24 163 -15 178 14 22 24 -19 24 -100z m-211
29 c24 -58 28 -90 4 -47 -27 52 -44 96 -34 96 5 0 18 -22 30 -49z m-839 6 c0
-5 -4 -5 -10 -2 -5 3 -10 14 -10 23 0 15 2 15 10 2 5 -8 10 -19 10 -23z m305
13 c3 -5 1 -10 -4 -10 -6 0 -11 5 -11 10 0 6 2 10 4 10 3 0 8 -4 11 -10z m500
-42 c5 -18 3 -28 -4 -28 -15 0 -32 36 -25 55 8 20 20 9 29 -27z m195 17 c0 -8
-4 -17 -10 -20 -6 -4 -10 5 -10 20 0 15 4 24 10 20 6 -3 10 -12 10 -20z m-80
-42 c0 -41 -3 -54 -10 -43 -11 17 -13 61 -4 84 11 28 14 18 14 -41z m-635 17
c3 -5 2 -10 -4 -10 -5 0 -13 5 -16 10 -3 6 -2 10 4 10 5 0 13 -4 16 -10z m31
-65 c24 -37 12 -40 -21 -5 -22 23 -25 30 -12 30 9 0 24 -11 33 -25z m474 -52
c0 -35 -14 -44 -24 -17 -3 9 -6 32 -6 52 1 35 2 36 15 18 8 -11 15 -35 15 -53z
m176 0 c-10 -26 -18 -8 -9 23 5 21 8 24 11 11 2 -10 1 -25 -2 -34z m-111 7
c-3 -5 -10 -10 -16 -10 -5 0 -9 5 -9 10 0 6 7 10 16 10 8 0 12 -4 9 -10z m55
0 c0 -5 -4 -10 -10 -10 -5 0 -10 5 -10 10 0 6 5 10 10 10 6 0 10 -4 10 -10z
m120 -21 c0 -6 -4 -7 -10 -4 -5 3 -10 11 -10 16 0 6 5 7 10 4 6 -3 10 -11 10
-16z m-140 -30 c6 -10 7 -19 2 -19 -5 0 -14 12 -20 26 -14 29 2 24 18 -7z
m-135 -28 c-7 -31 -21 -48 -32 -37 -4 4 -1 12 5 18 7 7 12 26 12 42 0 22 3 27
11 19 7 -7 8 -24 4 -42z m-136 -33 c1 -10 -3 -18 -9 -18 -5 0 -10 19 -9 43 1
36 2 38 9 17 4 -14 8 -33 9 -42z m218 -10 c-3 -8 -6 -5 -6 6 -1 11 2 17 5 13
3 -3 4 -12 1 -19z m-40 -10 c-3 -8 -6 -5 -6 6 -1 11 2 17 5 13 3 -3 4 -12 1
-19z m-136 -9 c8 -16 8 -23 -1 -29 -10 -6 -9 -18 5 -53 9 -25 15 -51 12 -59
-3 -7 -8 2 -13 21 -4 20 -14 36 -26 38 -19 6 -22 21 -12 72 8 36 19 39 35 10z
m-2181 -24 c7 -8 9 -15 4 -16 -18 -2 -70 2 -88 8 -15 4 -16 7 -5 14 22 14 75
10 89 -6z m2262 -17 c-7 -7 -12 -8 -12 -2 0 14 12 26 19 19 2 -3 -1 -11 -7
-17z m-145 -140 c-3 -8 -6 -5 -6 6 -1 11 2 17 5 13 3 -3 4 -12 1 -19z m-278
-20 c-1 -7 -5 -24 -9 -38 -7 -22 -8 -21 -9 13 -1 20 4 37 9 37 6 0 10 -6 9
-12z m28 -70 c-3 -8 -6 -5 -6 6 -1 11 2 17 5 13 3 -3 4 -12 1 -19z m-1057 -88
c0 10 3 10 15 0 8 -7 15 -24 15 -39 0 -15 5 -32 12 -39 7 -7 8 -12 2 -12 -6 0
-21 11 -34 25 -16 17 -27 22 -34 15 -7 -7 -14 0 -23 21 -17 40 -8 53 23 33 17
-12 24 -13 24 -4z m1057 -272 c-3 -8 -6 -5 -6 6 -1 11 2 17 5 13 3 -3 4 -12 1
-19z m-1027 -12 c0 -8 -7 -19 -15 -26 -16 -13 -18 -8 -9 27 6 23 24 22 24 -1z
m1030 -66 c0 -13 -1 -13 -10 0 -5 8 -10 22 -10 30 0 13 1 13 10 0 5 -8 10 -22
10 -30z m-175 -97 c4 -14 2 -23 -4 -23 -13 0 -31 33 -31 56 0 16 2 16 14 4 8
-8 17 -25 21 -37z m-2049 -18 c-20 -15 -63 -20 -90 -9 -31 12 -4 24 52 24 52
-1 55 -2 38 -15z m2024 -21 c0 -8 -4 -14 -10 -14 -5 0 -10 9 -10 21 0 11 5 17
10 14 6 -3 10 -13 10 -21z m-2000 -94 c12 -8 9 -10 -12 -10 -16 0 -28 5 -28
10 0 13 20 13 40 0z m200 -71 c0 -6 -4 -7 -10 -4 -5 3 -10 11 -10 16 0 6 5 7
10 4 6 -3 10 -11 10 -16z m230 -101 c0 -4 -3 -8 -7 -8 -5 0 -18 -3 -30 -6 -29
-8 -32 22 -5 42 14 11 19 10 30 -3 6 -9 12 -20 12 -25z m-145 12 c-3 -5 -12
-10 -18 -10 -7 0 -6 4 3 10 19 12 23 12 15 0z m1355 -10 c0 -5 -4 -10 -10 -10
-5 0 -10 5 -10 10 0 6 5 10 10 10 6 0 10 -4 10 -10z m-360 -46 c0 -8 -4 -12
-10 -9 -5 3 -10 10 -10 16 0 5 5 9 10 9 6 0 10 -7 10 -16z m-530 -19 c0 -8 -4
-15 -10 -15 -5 0 -10 7 -10 15 0 8 5 15 10 15 6 0 10 -7 10 -15z m-214 -62
c-10 -10 -19 5 -10 18 6 11 8 11 12 0 2 -7 1 -15 -2 -18z m662 -19 l-12 -25
-12 23 c-11 20 -10 24 4 29 26 10 32 1 20 -27z m887 -134 c3 -6 -2 -13 -12
-16 -10 -3 -26 -10 -35 -15 -22 -11 -38 -12 -38 -1 0 8 56 40 72 41 4 1 10 -4
13 -9z m-227 -365 c5 -21 -14 -35 -48 -35 -14 0 -42 -9 -63 -19 -20 -10 -37
-17 -37 -15 0 3 18 24 40 48 34 36 46 43 73 41 21 -2 33 -8 35 -20z m-303
-255 c3 -6 -1 -13 -9 -16 -19 -7 -21 -34 -3 -34 7 0 20 9 30 20 17 20 37 27
37 13 0 -4 -21 -29 -47 -55 l-46 -47 -19 24 c-23 30 -23 39 4 75 22 31 42 38
53 20z"/>
<path d="M7060 4871 c0 -13 29 -35 37 -28 7 8 -15 37 -28 37 -5 0 -9 -4 -9 -9z"/>
<path d="M7182 4834 c10 -10 20 -15 24 -12 3 4 -5 12 -18 18 -22 12 -22 12 -6
-6z"/>
<path d="M7355 4640 c3 -5 8 -10 11 -10 2 0 4 5 4 10 0 6 -5 10 -11 10 -5 0
-7 -4 -4 -10z"/>
<path d="M6840 3981 c0 -5 5 -13 10 -16 6 -3 10 -2 10 4 0 5 -4 13 -10 16 -5
3 -10 2 -10 -4z"/>
<path d="M9650 3256 c0 -9 4 -16 9 -16 5 0 12 -8 14 -17 4 -14 5 -14 6 3 0 12
-6 27 -14 34 -12 10 -15 10 -15 -4z"/>
<path d="M9623 3149 c-18 -18 -16 -49 4 -71 15 -17 15 -18 0 -18 -10 0 -17 -5
-17 -11 0 -6 10 -9 23 -7 19 3 22 9 22 45 0 24 -3 43 -7 43 -3 0 -8 7 -10 16
-2 12 -5 13 -15 3z"/>
<path d="M8680 2886 c0 -37 3 -44 16 -39 18 7 16 74 -3 81 -9 2 -13 -10 -13
-42z"/>
<path d="M8785 2919 c-4 -6 -5 -12 -2 -15 2 -3 7 2 10 11 7 17 1 20 -8 4z"/>
<path d="M8600 2825 c-10 -12 -6 -16 22 -23 38 -10 51 4 22 25 -23 17 -29 16
-44 -2z"/>
<path d="M7855 2809 c-4 -6 -5 -12 -2 -15 2 -3 7 2 10 11 7 17 1 20 -8 4z"/>
<path d="M8570 2781 c0 -12 5 -21 10 -21 6 0 10 6 10 14 0 8 -4 18 -10 21 -5
3 -10 -3 -10 -14z"/>
<path d="M9361 2677 c-1 -20 34 -93 49 -102 14 -9 13 -5 -19 61 -17 32 -30 51
-30 41z"/>
<path d="M9261 2494 c0 -11 3 -14 6 -6 3 7 2 16 -1 19 -3 4 -6 -2 -5 -13z"/>
<path d="M8730 2457 c0 -18 28 -42 37 -33 9 8 -9 38 -25 44 -7 2 -12 -3 -12
-11z"/>
<path d="M9273 2395 c0 -27 2 -38 4 -22 2 15 2 37 0 50 -2 12 -4 0 -4 -28z"/>
<path d="M9120 2386 c0 -9 5 -16 10 -16 6 0 10 4 10 9 0 6 -4 13 -10 16 -5 3
-10 -1 -10 -9z"/>
<path d="M9171 2344 c0 -11 3 -14 6 -6 3 7 2 16 -1 19 -3 4 -6 -2 -5 -13z"/>
<path d="M9229 2300 c13 -11 28 -20 35 -20 6 1 0 10 -13 20 -13 11 -28 20 -35
20 -6 -1 0 -10 13 -20z"/>
<path d="M9195 2270 c-3 -5 1 -10 9 -10 9 0 16 5 16 10 0 6 -4 10 -9 10 -6 0
-13 -4 -16 -10z"/>
<path d="M9115 2230 c14 -46 24 -58 25 -29 0 15 -7 33 -16 40 -15 12 -16 11
-9 -11z"/>
<path d="M7718 2079 c-33 -18 -19 -28 18 -13 20 8 43 13 51 10 8 -3 11 -1 8 4
-8 13 -55 12 -77 -1z"/>
<path d="M7437 2033 c-12 -12 -7 -22 8 -17 8 4 15 10 15 15 0 11 -14 12 -23 2z"/>
<path d="M8316 2023 c-6 -14 -5 -15 5 -6 7 7 10 15 7 18 -3 3 -9 -2 -12 -12z"/>
<path d="M8166 1981 c-21 -23 -14 -41 16 -41 17 0 18 3 8 15 -7 8 -10 22 -6
30 7 20 3 19 -18 -4z"/>
<path d="M7866 1961 c-4 -7 -5 -15 -2 -18 9 -9 19 4 14 18 -4 11 -6 11 -12 0z"/>
<path d="M7920 1886 c0 -15 18 -31 26 -23 7 7 -7 37 -17 37 -5 0 -9 -6 -9 -14z"/>
<path d="M8111 1874 c0 -11 3 -14 6 -6 3 7 2 16 -1 19 -3 4 -6 -2 -5 -13z"/>
<path d="M7893 1833 c-7 -2 -13 -11 -13 -20 0 -20 34 -12 38 10 3 17 -3 20
-25 10z"/>
<path d="M8235 1830 c-3 -5 1 -10 9 -10 9 0 16 5 16 10 0 6 -4 10 -9 10 -6 0
-13 -4 -16 -10z"/>
<path d="M9880 7675 c13 -14 26 -25 28 -25 3 0 -5 11 -18 25 -13 14 -26 25
-28 25 -3 0 5 -11 18 -25z"/>
<path d="M9946 7597 c3 -10 9 -15 12 -12 3 3 0 11 -7 18 -10 9 -11 8 -5 -6z"/>
<path d="M9981 7545 c0 -14 38 -59 45 -53 3 3 -6 19 -20 34 -14 16 -25 25 -25
19z"/>
<path d="M10089 7393 c28 -55 47 -78 54 -66 8 12 -48 103 -63 103 -6 0 -2 -17
9 -37z"/>
<path d="M10300 7008 c0 -24 11 -48 21 -48 13 0 10 23 -6 44 -12 16 -15 17
-15 4z"/>
<path d="M10370 6796 c0 -8 5 -18 10 -21 6 -3 10 3 10 14 0 12 -4 21 -10 21
-5 0 -10 -6 -10 -14z"/>
<path d="M10356 6741 c-4 -5 -2 -12 3 -15 5 -4 12 -2 15 3 4 5 2 12 -3 15 -5
4 -12 2 -15 -3z"/>
<path d="M10405 6681 c3 -24 10 -51 15 -60 7 -11 8 -2 4 29 -4 25 -11 52 -16
60 -6 10 -7 0 -3 -29z"/>
<path d="M10435 6505 c13 -116 15 -175 5 -175 -5 0 -10 8 -10 18 -1 13 -4 11
-15 -8 -21 -36 -18 -52 13 -76 23 -20 25 -25 15 -42 -10 -16 -9 -23 3 -32 11
-10 11 -16 3 -26 -7 -8 -9 -27 -5 -46 9 -45 13 -76 24 -201 6 -60 13 -111 16
-114 10 -11 6 163 -9 387 -17 252 -24 320 -36 340 -6 10 -7 1 -4 -25z"/>
<path d="M7000 6475 c-10 -13 -9 -15 9 -15 12 0 21 6 21 15 0 8 -4 15 -9 15
-5 0 -14 -7 -21 -15z"/>
<path d="M6925 6449 c-4 -6 -5 -13 -2 -16 8 -7 47 7 47 18 0 13 -37 11 -45 -2z"/>
<path d="M6935 6400 c-17 -18 -17 -20 -1 -20 9 0 19 7 23 15 9 25 -2 27 -22 5z"/>
<path d="M7010 6390 c11 -20 30 -28 30 -12 0 11 -22 32 -32 32 -5 0 -4 -9 2
-20z"/>
<path d="M9249 6184 c-12 -15 -29 -16 -154 -10 -181 8 -235 -1 -270 -43 -42
-49 -105 -77 -105 -46 0 8 -6 15 -14 15 -16 0 -158 -71 -183 -91 -9 -8 -30
-18 -47 -24 -18 -6 -36 -22 -44 -37 -13 -28 -52 -57 -52 -39 0 9 80 93 115
120 11 9 14 16 7 19 -6 2 -27 -8 -46 -23 -19 -14 -47 -30 -63 -34 -36 -10 -78
-70 -99 -141 -9 -30 -27 -74 -40 -96 l-24 -42 20 -25 c11 -14 20 -32 20 -41 0
-9 5 -16 11 -16 16 0 59 -43 59 -59 0 -8 7 -22 16 -32 9 -10 18 -36 21 -58 6
-46 20 -61 66 -70 36 -8 37 -12 17 -104 -7 -31 -10 -60 -7 -63 3 -3 17 2 31
11 17 12 36 15 56 11 17 -3 30 -1 30 4 0 6 5 10 10 10 6 0 10 -9 10 -21 0 -11
4 -29 10 -39 14 -26 73 -60 104 -60 30 0 31 -3 10 -35 -20 -31 -14 -40 49 -71
29 -15 63 -34 77 -43 47 -33 252 -59 235 -31 -11 18 15 10 32 -10 10 -11 25
-20 35 -20 11 0 18 8 18 20 0 11 -4 20 -10 20 -5 0 -10 4 -10 9 0 6 53 8 134
5 116 -5 135 -3 150 12 10 9 15 23 12 31 -3 8 -6 22 -6 30 0 12 -3 13 -13 5
-22 -19 -89 -23 -162 -12 -38 6 -95 14 -125 19 -32 5 -60 4 -67 -1 -7 -5 -14
-5 -17 1 -3 5 -22 9 -41 8 -20 -1 -42 6 -55 18 -34 31 -25 38 38 31 166 -20
209 -23 263 -17 35 4 71 16 87 28 25 18 30 19 38 6 6 -10 32 -18 74 -22 38 -4
65 -11 68 -19 3 -9 -3 -11 -22 -6 -21 5 -25 3 -20 -10 4 -11 1 -16 -11 -16
-11 0 -15 -7 -13 -22 4 -32 82 -45 134 -23 20 8 43 15 52 15 8 0 20 7 26 16
15 19 119 27 163 12 26 -9 36 -8 58 6 23 15 26 22 20 53 -4 21 -2 40 5 48 7 8
9 23 5 34 -8 27 -134 144 -190 177 -123 72 -340 147 -522 180 -51 9 -93 20
-93 25 0 5 1 9 3 9 74 5 182 21 190 28 7 5 33 13 60 16 41 6 47 10 47 31 0 31
14 38 57 30 24 -4 37 -13 41 -27 4 -15 11 -19 31 -15 30 7 151 -14 151 -25 0
-5 -7 -8 -15 -8 -8 0 -15 -4 -15 -10 0 -5 14 -10 31 -10 17 0 53 -8 80 -17 36
-13 48 -22 44 -34 -4 -10 4 -20 20 -27 16 -8 25 -19 23 -29 -2 -15 3 -18 30
-15 40 3 41 -8 2 -36 -16 -13 -30 -28 -30 -35 0 -14 88 -37 143 -37 41 0 77
-14 77 -30 0 -6 -12 -10 -27 -10 l-27 0 24 -17 c14 -10 35 -16 46 -15 14 2 28
-6 39 -20 16 -22 17 -22 10 22 l-7 45 22 -20 23 -20 -16 31 c-9 17 -23 37 -32
44 -22 18 -46 66 -37 74 3 4 19 -8 35 -26 30 -35 30 -33 -1 47 -11 28 -24 68
-30 90 -19 79 -54 159 -86 199 -17 23 -38 54 -46 70 -26 51 -195 186 -233 186
-14 0 -17 5 -12 19 4 15 -1 25 -21 38 -20 13 -29 14 -32 5 -2 -6 -12 -12 -23
-12 -13 0 -17 -5 -12 -17 4 -12 -6 -7 -28 13 -41 38 -79 59 -79 44 0 -6 11
-16 25 -22 14 -6 25 -15 25 -21 0 -12 -63 0 -108 21 l-35 17 32 5 c60 9 32 25
-66 37 -54 6 -107 14 -119 18 -13 4 -25 0 -35 -11z m134 -31 c-13 -2 -35 -2
-50 0 -16 2 -5 4 22 4 28 0 40 -2 28 -4z m-813 -168 c-13 -14 -28 -25 -33 -25
-6 0 0 11 13 25 13 14 28 25 33 25 6 0 0 -11 -13 -25z m-224 -91 c-4 -9 -9
-15 -11 -12 -3 3 -3 13 1 22 4 9 9 15 11 12 3 -3 3 -13 -1 -22z m1722 -299
c-3 -3 -9 2 -12 12 -6 14 -5 15 5 6 7 -7 10 -15 7 -18z m-706 -75 c57 -18 118
-47 158 -73 68 -47 107 -83 98 -93 -8 -7 -86 38 -143 84 -13 10 -167 67 -222
81 -23 6 -45 16 -48 21 -12 20 66 10 157 -20z m-92 -120 c0 -14 -17 -12 -26 2
-5 8 -10 6 -15 -8 -7 -18 -8 -18 -8 2 -1 11 2 24 5 27 9 8 44 -11 44 -23z
m848 -14 c3 -12 -1 -17 -10 -14 -7 3 -15 13 -16 22 -3 12 1 17 10 14 7 -3 15
-13 16 -22z m-1440 -153 c2 -9 -7 -13 -27 -13 -31 0 -42 14 -18 23 19 8 40 3
45 -10z"/>
<path d="M7540 6142 c0 -12 7 -25 15 -29 25 -9 27 2 6 28 l-20 24 -1 -23z"/>
<path d="M8711 6134 c0 -11 3 -14 6 -6 3 7 2 16 -1 19 -3 4 -6 -2 -5 -13z"/>
<path d="M7680 6080 c0 -6 7 -10 15 -10 8 0 15 2 15 4 0 2 -7 6 -15 10 -8 3
-15 1 -15 -4z"/>
<path d="M8306 5975 c-16 -12 -17 -15 -4 -15 8 0 21 7 28 15 16 19 1 19 -24 0z"/>
<path d="M7961 5894 c-18 -21 -20 -28 -10 -35 27 -17 39 -9 39 26 0 19 -1 35
-3 35 -2 0 -14 -12 -26 -26z"/>
<path d="M8010 5870 c0 -13 5 -20 13 -17 6 2 12 10 12 17 0 7 -6 15 -12 18 -8
2 -13 -5 -13 -18z"/>
<path d="M8247 5837 c-22 -35 -25 -61 -6 -65 13 -2 18 7 21 40 6 53 5 55 -15
25z"/>
<path d="M10497 5733 c-3 -5 -1 -26 3 -48 l8 -40 1 48 c1 45 -2 56 -12 40z"/>
<path d="M10821 5045 c-83 -37 -291 -215 -291 -251 0 -20 7 -18 51 17 42 33
61 30 74 -11 4 -12 20 -21 45 -25 21 -4 46 -15 56 -26 16 -18 16 -27 -5 -185
-19 -145 -21 -190 -8 -173 25 33 81 176 96 245 11 49 29 112 42 139 17 38 23
75 27 151 4 97 3 102 -19 118 -28 19 -25 19 -68 1z"/>
<path d="M10485 4757 c-4 -19 -4 -46 0 -58 7 -22 9 -21 27 15 20 38 20 39 0
59 l-21 20 -6 -36z"/>
<path d="M7890 4309 c0 -5 5 -7 10 -4 6 3 10 8 10 11 0 2 -4 4 -10 4 -5 0 -10
-5 -10 -11z"/>
<path d="M10190 3483 c0 -12 5 -25 10 -28 13 -8 13 15 0 35 -8 12 -10 11 -10
-7z"/>
<path d="M9634 1617 c-9 -24 6 -44 18 -22 7 11 6 21 -1 28 -7 7 -12 6 -17 -6z"/>
<path d="M9240 1230 c0 -13 11 -13 30 0 12 8 11 10 -7 10 -13 0 -23 -4 -23
-10z"/>
<path d="M9230 1175 c-17 -20 9 -21 36 0 19 14 19 14 -2 15 -12 0 -27 -7 -34
-15z"/>
<path d="M9330 1154 c0 -8 5 -12 10 -9 6 3 10 10 10 16 0 5 -4 9 -10 9 -5 0
-10 -7 -10 -16z"/>
<path d="M9060 1060 c-13 -9 -13 -11 0 -20 8 -5 20 -10 25 -10 19 0 38 18 31
29 -9 14 -36 14 -56 1z"/>
<path d="M9142 998 c-14 -14 -16 -42 -2 -33 14 9 32 45 22 45 -4 0 -13 -5 -20
-12z"/>
<path d="M9115 889 c-11 -17 1 -21 15 -4 8 9 8 15 2 15 -6 0 -14 -5 -17 -11z"/>
<path d="M9027 843 c-4 -3 -7 -11 -7 -17 0 -6 5 -5 12 2 6 6 9 14 7 17 -3 3
-9 2 -12 -2z"/>
<path d="M8837 763 c-10 -9 -9 -23 2 -23 5 0 11 7 15 15 5 15 -5 20 -17 8z"/>
<path d="M8986 755 c-9 -26 -7 -32 5 -12 6 10 9 21 6 23 -2 3 -7 -2 -11 -11z"/>
<path d="M8610 669 c0 -5 5 -7 10 -4 6 3 10 8 10 11 0 2 -4 4 -10 4 -5 0 -10
-5 -10 -11z"/>
</g>
</svg>
