<?xml version="1.0" standalone="no"?>
<!DOCTYPE svg PUBLIC "-//W3C//DTD SVG 20010904//EN"
 "http://www.w3.org/TR/2001/REC-SVG-20010904/DTD/svg10.dtd">
<svg version="1.0" xmlns="http://www.w3.org/2000/svg"
 width="1649.000000pt" height="995.000000pt" viewBox="0 0 1649.000000 995.000000"
 preserveAspectRatio="xMidYMid meet">

<g transform="translate(0.000000,995.000000) scale(0.100000,-0.100000)"
fill="#FFFFFF" stroke="none">
<path d="M4692 9926 c-25 -56 -34 -148 -30 -317 l4 -174 48 -125 c89 -234 147
-332 261 -438 217 -204 439 -220 626 -45 61 57 101 59 160 6 83 -75 115 -171
93 -278 -7 -33 -16 -103 -20 -156 -7 -94 -6 -99 23 -160 35 -76 85 -127 165
-169 71 -38 113 -40 243 -11 105 23 304 91 343 117 41 28 118 44 155 31 18 -5
87 -34 154 -63 67 -30 143 -58 169 -64 69 -16 252 5 462 51 77 17 101 19 137
10 24 -6 59 -10 77 -10 29 1 27 2 -13 9 -25 4 -61 16 -80 25 -48 25 -338 223
-372 254 -68 62 -86 139 -81 342 4 166 19 243 55 275 l21 19 -6 -155 c-2 -85
-8 -196 -12 -245 -6 -80 -4 -95 14 -130 25 -49 59 -81 137 -130 33 -21 89 -59
125 -85 74 -55 201 -124 245 -135 16 -3 32 -11 36 -16 3 -5 24 4 46 20 42 30
55 65 65 166 3 29 5 31 123 62 66 17 132 32 148 32 34 1 35 22 1 38 -22 10
-24 10 -13 -3 6 -8 10 -16 8 -18 -2 -2 -85 -22 -184 -45 -99 -23 -189 -44
-200 -47 -22 -5 -65 20 -53 31 4 4 93 27 199 51 105 24 198 46 208 49 14 4 54
111 57 155 1 8 2 30 3 49 1 33 1 34 21 16 25 -22 25 -40 0 -135 -11 -41 -19
-82 -19 -90 1 -23 24 47 42 124 l16 69 -33 33 -32 32 -129 -29 c-205 -45 -208
-44 -181 77 24 111 22 131 -16 154 -42 25 -67 25 -183 -2 l-95 -21 -57 44
c-32 25 -76 56 -99 71 -38 24 -122 58 -145 58 -6 0 -34 -22 -63 -49 -37 -36
-94 -71 -201 -124 -83 -41 -172 -83 -200 -93 -62 -24 -138 -97 -155 -150 -41
-129 -108 -204 -245 -275 -44 -22 -91 -49 -105 -59 -14 -10 -56 -34 -93 -54
-86 -45 -128 -47 -168 -7 -40 40 -38 74 16 271 61 226 62 232 26 306 -36 76
-85 132 -167 190 -177 126 -361 116 -484 -26 -88 -102 -135 -109 -265 -42
-100 52 -182 136 -233 242 -108 221 -107 430 3 703 4 9 3 17 -3 17 -10 0 -53
-111 -71 -185 -81 -324 46 -664 294 -790 75 -38 136 -52 181 -41 15 4 66 44
113 90 74 71 93 85 140 96 152 36 344 -55 453 -215 60 -89 60 -105 4 -315 -59
-218 -62 -239 -41 -281 25 -48 43 -58 102 -59 42 0 67 8 137 45 l85 45 14 -22
c8 -13 33 -54 56 -92 23 -38 41 -70 39 -71 -40 -35 -262 -96 -353 -98 -74 -1
-145 32 -215 102 -80 80 -96 172 -64 356 26 146 4 236 -77 312 -86 82 -129 85
-201 13 -27 -27 -79 -64 -115 -82 -58 -29 -75 -32 -153 -33 -82 0 -91 2 -166
40 -99 50 -251 192 -307 286 -52 89 -154 351 -168 435 -15 85 1 356 25 422 16
44 7 59 -12 18z m2753 -897 c84 -51 148 -100 139 -109 -5 -4 -43 -15 -84 -25
-92 -22 -113 -32 -106 -52 3 -8 11 -56 16 -106 6 -50 15 -96 20 -103 6 -6 30
-17 54 -24 40 -11 53 -9 199 34 139 41 243 59 223 39 -4 -5 -49 -22 -99 -39
-89 -29 -92 -32 -95 -62 -2 -18 4 -57 12 -86 9 -30 16 -63 16 -73 0 -11 14
-32 30 -48 30 -29 31 -29 87 -17 32 6 60 8 64 4 12 -13 -9 -125 -29 -151 -27
-35 -80 -32 -163 9 -72 36 -337 217 -387 264 -37 35 -56 92 -47 145 3 20 10
121 15 224 6 123 13 194 21 203 16 20 49 12 114 -27z m-244 -250 c-5 -316 -4
-319 252 -491 l181 -121 -94 -23 c-112 -28 -306 -54 -396 -54 -57 0 -79 7
-177 51 -62 28 -140 63 -175 77 -44 18 -73 38 -94 65 -31 38 -77 139 -78 167
0 8 15 36 34 62 18 26 48 86 65 133 39 102 75 137 189 185 54 22 297 145 297
150 0 0 -2 -90 -4 -201z m644 77 c0 -85 -3 -100 -19 -112 -15 -10 -16 -14 -5
-14 8 0 20 -5 27 -12 10 -10 -22 -22 -145 -55 -158 -43 -200 -49 -238 -34 -17
7 -14 10 20 19 22 6 67 16 100 22 79 15 217 51 212 56 -2 2 -79 -12 -173 -30
-102 -20 -173 -30 -180 -25 -10 9 -24 85 -28 153 l-1 30 205 52 c113 29 210
51 215 50 6 -2 10 -44 10 -100z m72 57 c6 -25 -21 -190 -33 -202 -2 -3 -12 2
-21 11 -14 15 -14 25 -2 100 7 46 12 91 10 101 -4 30 38 21 46 -10z m299 -253
c-4 -38 -13 -89 -19 -112 l-13 -43 -209 -42 c-115 -24 -210 -41 -212 -39 -5 5
-28 97 -36 142 l-6 32 87 28 c86 27 374 101 401 103 11 1 12 -13 7 -69z
m-1610 -252 c7 -20 29 -62 48 -92 44 -69 45 -79 5 -40 -42 40 -66 81 -78 132
-11 54 6 53 25 0z m-86 -39 c0 -9 23 -47 50 -85 53 -73 58 -84 37 -84 -42 0
-133 166 -111 202 8 12 24 -9 24 -33z m126 -100 c45 -45 47 -68 5 -54 -38 12
-113 139 -104 175 6 21 9 18 30 -26 13 -27 44 -70 69 -95z m-95 -41 c21 -26
39 -49 39 -52 0 -3 -11 -6 -24 -6 -18 0 -30 13 -55 59 -38 72 -62 137 -53 146
3 3 17 -18 30 -47 13 -29 41 -74 63 -100z m-76 34 c24 -51 42 -92 40 -92 -10
0 -95 156 -95 174 0 27 5 20 55 -82z"/>
<path d="M7030 8380 c-13 -9 -13 -10 0 -10 8 0 22 5 30 10 13 9 13 10 0 10 -8
0 -22 -5 -30 -10z"/>
<path d="M6920 8340 c-12 -8 -11 -10 8 -10 12 0 22 5 22 10 0 13 -11 13 -30 0z"/>
<path d="M6770 8310 c8 -5 20 -10 25 -10 6 0 3 5 -5 10 -8 5 -19 10 -25 10 -5
0 -3 -5 5 -10z"/>
<path d="M6710 8300 c0 -5 7 -7 15 -4 8 4 15 8 15 10 0 2 -7 4 -15 4 -8 0 -15
-4 -15 -10z"/>
<path d="M7702 8858 c-16 -16 -15 -43 3 -58 32 -27 111 25 90 60 -9 14 -78 13
-93 -2z m68 -8 c13 -9 11 -13 -9 -31 -22 -18 -26 -18 -39 -5 -13 12 -13 18 -2
30 14 18 29 20 50 6z"/>
<path d="M8020 8630 c-11 -11 -20 -26 -20 -34 0 -18 24 -43 51 -51 44 -14 98
55 69 90 -18 22 -76 19 -100 -5z m93 -13 c6 -15 0 -26 -25 -45 -31 -24 -79 24
-51 51 12 12 71 7 76 -6z"/>
<path d="M2501 9708 c-84 -26 -74 -32 14 -7 38 10 78 19 87 19 28 0 104 -111
166 -242 31 -65 57 -116 59 -114 7 7 -104 233 -137 282 -65 93 -77 97 -189 62z"/>
<path d="M2574 9675 c-8 -21 3 -45 20 -45 21 0 46 28 40 45 -8 20 -53 19 -60
0z m46 -14 c0 -14 -18 -23 -31 -15 -8 4 -7 9 2 15 18 11 29 11 29 0z"/>
<path d="M2326 9647 c-48 -17 -84 -33 -79 -34 11 -4 183 56 183 63 0 7 -13 3
-104 -29z"/>
<path d="M2130 9580 c-14 -4 -44 -8 -67 -9 -24 -1 -43 -6 -43 -12 0 -6 -42
-31 -92 -55 -101 -49 -100 -51 5 -9 61 25 69 26 85 12 9 -8 26 -17 36 -18 13
-3 28 -25 45 -67 19 -44 35 -68 58 -82 42 -25 60 -58 41 -75 -7 -7 -84 -43
-171 -80 -86 -37 -156 -70 -154 -72 2 -2 81 30 175 71 l171 73 11 -30 c5 -17
12 -28 14 -26 3 2 -5 32 -17 65 -17 49 -28 65 -56 80 -29 16 -40 32 -62 89
-23 60 -25 72 -13 86 8 8 14 21 14 27 0 7 15 18 33 26 35 16 27 19 -13 6z
m-40 -40 c0 -28 -38 -46 -58 -27 -22 23 -8 47 28 47 23 0 30 -4 30 -20z"/>
<path d="M2336 9485 c-3 -9 4 -25 16 -37 23 -23 88 -185 88 -220 0 -12 -11
-33 -24 -47 -26 -29 -40 -103 -23 -120 22 -22 53 -12 78 26 36 56 55 55 81 -7
l21 -52 18 23 c14 19 19 21 22 9 32 -110 72 -218 85 -227 14 -11 12 -13 -11
-13 -15 0 -30 -7 -33 -15 -4 -8 -44 -27 -93 -41 -47 -15 -132 -49 -187 -77
-93 -46 -103 -49 -118 -35 -14 14 -26 12 -133 -28 -65 -24 -119 -44 -120 -44
-2 0 -3 6 -3 14 0 18 -22 26 -77 26 l-45 0 7 33 c10 44 32 84 52 96 31 18 7
12 -146 -38 l-150 -48 -16 53 c-33 113 -34 108 29 134 31 12 55 24 53 27 -2 2
-25 -6 -51 -17 -61 -26 -63 -25 -71 9 -5 25 -11 29 -53 34 -26 3 -48 4 -49 3
-1 -1 27 -90 62 -199 36 -108 65 -199 65 -200 0 -8 -301 -87 -331 -87 -10 0
-19 -5 -19 -11 0 -7 9 -9 23 -5 64 19 211 56 223 56 8 0 22 -17 33 -39 12 -24
32 -43 52 -51 30 -13 31 -14 13 -28 -18 -14 -18 -14 -1 -8 62 21 64 20 94 -36
28 -52 29 -53 71 -50 39 2 42 0 56 -33 l15 -36 38 17 c92 40 92 40 108 19 8
-11 42 -68 76 -127 62 -110 83 -136 93 -119 4 5 2 12 -4 16 -5 3 -10 17 -10
29 0 13 -11 49 -25 80 -19 43 -23 62 -15 76 13 25 13 73 -1 87 -7 7 -21 8 -42
2 -35 -10 -45 -2 -87 74 l-22 37 54 25 c65 29 58 32 -15 5 -50 -19 -54 -23
-69 -70 -12 -38 -13 -50 -4 -50 7 0 20 -8 29 -18 16 -18 14 -20 -42 -44 l-60
-26 -20 61 c-11 34 -19 78 -18 97 2 29 -2 36 -20 38 -18 3 -23 -1 -23 -19 0
-12 6 -30 14 -38 8 -9 18 -28 21 -43 6 -24 4 -28 -13 -28 -11 0 -27 -3 -36 -6
-11 -4 -23 9 -43 50 -18 38 -33 56 -45 56 -37 0 -87 29 -103 60 -19 36 -14 60
12 60 10 0 36 9 58 20 22 11 30 17 18 14 -16 -4 -23 -1 -23 10 0 8 5 18 10 21
6 3 10 11 10 18 0 6 -6 2 -14 -8 -12 -17 -14 -16 -26 19 -6 20 -9 49 -6 64 5
19 4 23 -3 12 -16 -24 -26 18 -13 54 11 29 10 30 -4 11 -16 -20 -16 -19 -11 5
2 14 8 34 12 45 5 16 3 15 -14 -5 -17 -21 -21 -22 -21 -7 0 10 5 28 12 40 10
20 10 21 -5 8 -15 -11 -17 -11 -17 2 0 8 7 20 15 27 8 7 15 17 15 23 0 5 -9 2
-20 -8 -23 -21 -26 -20 -35 18 -7 26 -5 27 28 27 32 0 36 -3 42 -32 4 -18 18
-71 32 -118 21 -70 24 -90 14 -114 -6 -16 -9 -31 -7 -34 2 -2 8 7 12 20 7 20
10 16 25 -32 10 -30 15 -39 12 -20 -18 94 -21 91 109 135 64 22 119 37 122 34
3 -3 -1 -24 -10 -47 -19 -47 -13 -72 16 -72 11 0 20 -7 20 -15 0 -8 9 -22 20
-32 19 -19 19 -19 0 -48 -24 -36 -44 -39 -48 -7 -5 33 -56 28 -60 -7 -5 -33 9
-43 54 -35 32 5 44 14 69 51 29 44 35 48 155 90 102 35 129 41 146 32 17 -9
32 -5 84 21 34 17 64 29 66 27 2 -2 -9 -22 -26 -45 -34 -47 -36 -57 -15 -65
17 -7 31 11 27 35 -6 35 35 95 77 111 44 18 187 57 207 57 7 0 23 10 36 23 13
12 33 29 46 37 l22 15 -35 99 c-19 55 -38 103 -43 108 -4 4 -36 9 -72 10 -61
3 -65 5 -74 31 -7 20 -7 34 2 47 8 13 9 27 3 43 -5 13 -7 35 -4 50 5 24 2 27
-20 27 -34 0 -41 -25 -13 -44 13 -8 26 -27 28 -41 5 -24 1 -29 -39 -46 -92
-39 -144 -13 -85 42 l31 29 -16 52 c-8 29 -24 75 -35 103 -12 31 -18 62 -15
82 5 25 1 35 -13 43 -26 14 -37 13 -44 -5z m214 -235 c0 -5 -7 -10 -15 -10 -8
0 -15 5 -15 10 0 6 7 10 15 10 8 0 15 -4 15 -10z m-101 -149 c12 -8 12 -12 2
-25 -13 -16 -42 -21 -54 -10 -8 8 15 44 28 44 5 0 16 -4 24 -9z m267 -106 c36
-103 36 -108 7 -123 -15 -6 -30 -9 -33 -5 -15 18 -61 166 -56 180 4 9 16 13
33 11 24 -3 31 -11 49 -63z m37 -140 c1 -5 -11 -12 -27 -13 -27 -3 -28 -2 -16
13 14 17 40 17 43 0z m-768 -265 c0 -8 -10 -16 -22 -18 -18 -3 -23 2 -23 18 0
16 5 21 23 18 12 -2 22 -10 22 -18z m400 10 c3 -5 -1 -10 -9 -10 -9 0 -16 5
-16 10 0 6 4 10 9 10 6 0 13 -4 16 -10z m-587 -243 c2 -10 -3 -17 -12 -17 -10
0 -16 9 -16 21 0 24 23 21 28 -4z m207 -97 c66 -97 128 -221 123 -246 -2 -10
-23 20 -52 72 -54 98 -96 158 -133 190 -19 16 -23 27 -17 48 3 15 10 26 14 24
4 -2 34 -41 65 -88z m85 -25 c13 -16 10 -47 -6 -52 -14 -5 -47 44 -39 57 9 15
31 12 45 -5z"/>
<path d="M1829 9423 c6 -13 21 -23 32 -23 35 0 59 -19 59 -46 0 -29 -58 -94
-84 -94 -61 0 -110 72 -80 117 17 26 13 53 -8 53 -10 0 -9 -3 1 -9 12 -8 12
-13 -3 -36 -31 -47 7 -119 70 -131 32 -6 40 -2 74 31 21 21 41 46 43 57 7 24
-33 68 -59 68 -10 0 -26 8 -37 18 -19 16 -20 16 -8 -5z"/>
<path d="M1636 9387 c-44 -18 -81 -38 -83 -44 -4 -11 16 -35 62 -71 10 -9 15
-25 13 -45 -2 -26 -10 -34 -41 -46 -34 -13 -42 -12 -75 3 -31 14 -34 14 -17 1
34 -27 66 -30 104 -9 29 15 37 26 39 52 3 34 -19 72 -43 72 -6 0 -17 11 -23
24 -10 23 -8 25 74 56 76 30 98 41 77 40 -5 -1 -44 -15 -87 -33z"/>
<path d="M1810 9355 c-11 -13 -11 -19 2 -32 22 -22 60 -8 56 20 -4 27 -40 34
-58 12z m50 -10 c0 -21 -30 -31 -40 -14 -11 17 -3 29 21 29 10 0 19 -7 19 -15z"/>
<path d="M2831 9348 c-1 -4 76 -173 170 -375 94 -202 191 -415 216 -473 50
-117 143 -348 143 -355 0 -3 -10 -5 -21 -5 -17 0 -20 -5 -17 -24 5 -24 -6 -30
-241 -130 -135 -57 -281 -119 -324 -137 -113 -47 -89 -45 32 2 114 45 150 48
44 4 -38 -15 -180 -85 -318 -155 -137 -70 -337 -165 -443 -210 -106 -46 -191
-85 -189 -87 4 -3 219 86 377 157 52 24 174 85 270 136 96 51 290 140 430 199
387 162 440 186 440 201 0 7 -11 37 -25 66 -14 29 -56 127 -94 218 -105 250
-448 989 -450 968z m554 -1257 c-13 -12 -347 -152 -352 -148 -7 7 326 155 352
157 5 0 5 -3 0 -9z"/>
<path d="M1431 9300 c-24 -11 -50 -20 -59 -20 -8 0 -57 -27 -108 -60 -144 -94
-227 -134 -389 -190 -82 -29 -161 -59 -175 -67 -15 -9 -17 -12 -5 -7 362 124
407 144 568 250 54 35 104 64 112 64 7 0 34 9 59 19 43 19 45 19 51 2 3 -10 1
-30 -5 -45 -12 -33 -12 -36 -1 -36 12 0 24 66 16 90 -8 24 -9 24 -64 0z"/>
<path d="M1544 9246 c-8 -21 2 -46 18 -46 10 0 9 3 -1 9 -17 11 -7 45 12 38 6
-2 12 -14 11 -26 0 -11 3 -21 8 -21 5 0 8 12 6 28 -3 31 -44 45 -54 18z"/>
<path d="M2360 9250 c-8 -5 -10 -10 -5 -10 6 0 17 5 25 10 8 5 11 10 5 10 -5
0 -17 -5 -25 -10z"/>
<path d="M2290 9225 c-19 -7 -28 -14 -20 -14 8 0 29 6 45 14 39 17 21 18 -25
0z"/>
<path d="M1817 9046 c-14 -35 -25 -80 -24 -100 3 -54 15 -44 14 12 -1 32 7 63
25 100 14 28 23 52 18 52 -4 0 -19 -29 -33 -64z"/>
<path d="M2795 9040 c-8 -13 35 -70 59 -79 10 -4 31 -35 46 -69 l28 -61 -64
-21 c-36 -12 -64 -24 -62 -26 2 -2 34 6 71 18 l67 22 -6 34 c-5 26 -1 41 15
62 25 34 27 50 6 50 -8 0 -15 -6 -15 -14 0 -8 -5 -27 -11 -43 l-11 -28 -18 38
c-10 22 -28 44 -41 51 -16 8 -24 20 -23 37 2 32 -27 52 -41 29z m30 -10 c3 -5
-1 -10 -10 -10 -9 0 -13 5 -10 10 3 6 8 10 10 10 2 0 7 -4 10 -10z"/>
<path d="M653 8938 c-24 -30 -24 -66 1 -95 13 -15 55 -78 93 -139 66 -104 100
-164 222 -381 94 -168 231 -449 287 -588 31 -77 84 -201 119 -275 35 -74 70
-152 79 -173 15 -37 47 -60 54 -39 2 6 32 20 68 32 65 22 87 36 37 24 -47 -11
-23 2 95 51 62 27 111 50 109 52 -2 1 -69 -24 -148 -57 -79 -33 -150 -59 -157
-58 -8 2 -73 143 -146 313 -171 399 -384 832 -496 1005 -101 159 -172 274
-192 313 -11 22 -17 26 -25 15z m31 -46 c10 -20 77 -129 149 -242 85 -134 157
-262 208 -370 42 -91 98 -203 123 -250 47 -89 165 -354 221 -500 19 -47 52
-124 74 -172 23 -50 36 -90 30 -94 -5 -3 -23 25 -40 63 -17 37 -55 120 -84
183 -29 63 -68 155 -85 204 -65 180 -388 788 -544 1025 -71 108 -92 147 -88
166 6 34 14 31 36 -13z"/>
<path d="M2430 8943 c-8 -3 -21 -12 -27 -21 -10 -13 -10 -19 3 -33 26 -29 -18
-67 -115 -99 l-83 -27 -8 23 c-5 12 -12 38 -16 58 -8 43 -36 66 -82 66 -40 0
-100 -24 -108 -43 -3 -8 4 -42 16 -77 12 -34 19 -64 17 -67 -3 -2 -19 9 -37
24 -18 15 -31 22 -29 16 7 -18 107 -93 125 -93 15 0 275 79 330 100 14 6 28
26 39 59 9 28 23 51 30 51 49 0 86 50 49 64 -19 7 -83 7 -104 -1z m28 -10
c-27 -7 -22 -33 6 -33 29 0 44 19 25 31 -11 7 -9 9 6 9 26 0 52 -17 41 -27 -4
-4 -22 -13 -39 -19 -24 -8 -35 -21 -51 -60 -11 -27 -20 -50 -21 -52 -7 -10
-207 -57 -211 -50 -4 5 -2 13 2 18 11 10 129 50 148 50 7 0 26 16 41 36 23 30
26 40 17 55 -21 33 -9 47 38 47 10 0 9 -2 -2 -5z m19 -19 c-3 -3 -12 -4 -19
-1 -8 3 -5 6 6 6 11 1 17 -2 13 -5z m-332 -23 c3 -6 -3 -15 -12 -21 -15 -8
-14 -9 8 -4 26 5 27 3 44 -67 17 -70 17 -73 -1 -86 -27 -20 -90 -37 -109 -30
-15 6 -49 73 -61 123 -5 20 -2 24 17 24 13 1 38 8 54 16 17 8 22 12 13 10 -9
-3 -33 -8 -52 -12 -32 -5 -36 -4 -36 15 0 15 9 23 33 30 43 12 94 13 102 2z"/>
<path d="M758 8933 c-21 -5 -24 -36 -4 -52 11 -9 18 -8 30 5 29 29 13 57 -26
47z m32 -22 c0 -6 -4 -13 -10 -16 -5 -3 -10 1 -10 9 0 9 5 16 10 16 6 0 10 -4
10 -9z"/>
<path d="M1740 8895 c-14 -8 -20 -14 -15 -14 6 0 21 6 35 14 14 8 21 14 15 14
-5 0 -21 -6 -35 -14z"/>
<path d="M1345 8866 c-156 -58 -208 -80 -198 -83 5 -2 74 21 154 51 79 29 151
56 159 59 10 4 9 6 -5 6 -11 0 -60 -15 -110 -33z"/>
<path d="M1317 8803 c-37 -14 -66 -28 -63 -30 8 -8 136 38 136 48 0 5 -1 9 -2
8 -2 0 -34 -12 -71 -26z"/>
<path d="M1450 8782 c0 -15 27 -82 34 -82 6 0 -10 54 -23 77 -6 10 -11 12 -11
5z"/>
<path d="M2782 8765 c2 -13 13 -22 33 -25 20 -4 26 -8 18 -13 -22 -14 -14 -60
23 -127 20 -36 44 -87 54 -115 13 -35 24 -51 39 -53 27 -4 27 -28 1 -44 -27
-17 -25 -41 9 -145 17 -48 28 -90 25 -92 -3 -3 -26 -6 -52 -7 -45 -2 -64 -15
-42 -29 6 -4 27 1 46 10 20 9 37 15 39 13 2 -2 0 -21 -5 -43 -8 -34 -7 -42 10
-56 19 -17 19 -17 -6 -23 -20 -5 -37 0 -67 21 l-40 28 -91 -34 c-135 -49 -133
-49 -142 -9 -4 18 -7 41 -5 50 1 9 -5 28 -14 41 -14 23 -14 24 10 35 35 16 55
15 55 -2 0 -16 39 -86 47 -86 3 0 -5 16 -16 36 -12 20 -21 37 -19 38 2 1 11 8
21 16 17 12 18 11 16 -11 -3 -36 0 -59 9 -59 4 0 7 21 7 47 l0 47 80 25 c44
14 82 27 84 28 5 3 -56 162 -102 265 -24 54 -40 75 -83 108 -30 22 -60 43 -68
46 -12 5 -583 -209 -596 -223 -9 -10 43 9 317 114 l272 104 55 -41 c65 -47 79
-66 105 -141 10 -29 31 -79 45 -109 14 -30 26 -59 26 -65 0 -5 -28 -18 -61
-28 -34 -10 -59 -20 -57 -23 3 -2 16 -1 29 4 39 15 99 24 99 15 0 -9 -166 -63
-190 -63 -11 1 -10 5 5 17 l20 16 -20 -8 c-11 -4 -114 -38 -230 -77 -202 -67
-330 -117 -321 -125 2 -2 48 14 102 35 55 22 162 60 239 85 77 25 149 49 159
53 13 5 17 4 12 -4 -4 -6 -26 -17 -49 -24 -23 -6 -51 -18 -62 -25 -11 -7 -30
-13 -43 -13 -21 0 -22 -2 -10 -22 10 -19 13 -20 16 -6 3 17 39 35 48 25 3 -3
-1 -15 -8 -26 -11 -19 -10 -24 9 -39 12 -9 28 -32 34 -50 10 -28 9 -35 -6 -46
-15 -11 -16 -15 -2 -47 31 -73 33 -73 209 -15 86 29 163 58 171 64 8 7 56 30
108 51 88 36 96 42 120 86 15 27 41 61 58 77 36 34 31 57 -19 78 -33 14 -60 2
-60 -27 0 -23 -61 -6 -88 24 -18 20 -23 35 -20 66 3 52 -19 69 -60 47 -37 -21
-40 -49 -9 -75 14 -11 35 -41 46 -67 l20 -48 56 0 c59 0 62 -4 43 -46 -9 -20
-34 -37 -86 -61 -83 -38 -90 -39 -71 -17 11 14 9 19 -11 34 -22 16 -23 21 -12
45 11 23 8 40 -18 121 -16 52 -30 99 -30 105 0 6 10 24 23 40 72 92 71 91 59
108 -7 9 -37 66 -67 128 l-55 112 -48 7 c-26 4 -53 14 -60 23 -11 14 -12 14
-10 -4z m128 -75 c11 -21 20 -43 20 -47 0 -8 -62 -36 -65 -30 -1 1 -9 14 -18
29 -20 32 -22 59 -5 76 23 23 47 13 68 -28z m30 -78 c0 -8 -43 -32 -55 -32
-15 0 -1 22 18 30 29 11 37 12 37 2z m18 -34 c-5 -14 -57 -33 -66 -23 -10 9
28 35 51 35 10 0 17 -5 15 -12z m36 -60 l27 -42 -23 -18 c-35 -27 -64 -23 -72
10 -3 15 -8 37 -12 49 -5 18 -1 25 17 32 35 14 33 15 63 -31z m63 -190 c-7
-47 24 -103 64 -117 48 -17 69 -14 69 9 0 27 50 27 74 1 16 -18 16 -20 -12
-39 -16 -12 -40 -43 -53 -69 -24 -45 -31 -51 -123 -92 -62 -27 -101 -40 -107
-34 -6 6 27 27 90 56 88 40 102 50 120 86 12 22 21 43 21 46 0 3 -28 5 -63 5
l-63 0 -15 47 c-8 25 -23 51 -34 57 -21 12 -35 26 -35 38 0 14 32 38 52 38 17
0 20 -5 15 -32z m-352 -158 c3 -5 2 -10 -4 -10 -5 0 -13 5 -16 10 -3 6 -2 10
4 10 5 0 13 -4 16 -10z m-118 -62 c-3 -8 -6 -5 -6 6 -1 11 2 17 5 13 3 -3 4
-12 1 -19z m30 -29 c-3 -11 1 -38 8 -60 18 -51 3 -51 -20 0 -10 22 -24 42 -31
45 -21 8 -17 25 5 19 10 -3 22 0 25 6 12 18 19 12 13 -10z m388 -18 c7 -12
-12 -24 -25 -16 -11 7 -4 25 10 25 5 0 11 -4 15 -9z m-106 -32 c13 -11 22 -21
20 -22 -5 -3 -215 -95 -252 -110 -26 -11 -31 -9 -48 12 -11 13 -18 29 -16 35
4 11 230 104 257 105 8 0 26 -9 39 -20z m51 -44 c8 -10 10 -19 4 -25 -9 -9
-280 -100 -299 -100 -5 0 -2 7 6 16 14 13 251 122 270 124 4 0 12 -7 19 -15z"/>
<path d="M3020 8326 c0 -9 7 -16 16 -16 17 0 14 22 -4 28 -7 2 -12 -3 -12 -12z"/>
<path d="M3217 8224 c-9 -10 4 -34 19 -34 8 0 14 9 14 20 0 19 -19 27 -33 14z"/>
<path d="M1152 8748 c15 -56 102 -307 105 -304 5 5 -97 316 -103 316 -3 0 -4
-6 -2 -12z"/>
<path d="M1236 8683 c9 -21 18 -44 21 -50 3 -7 9 -13 14 -13 5 0 2 17 -7 38
-9 20 -18 43 -21 50 -3 6 -9 12 -14 12 -5 0 -2 -17 7 -37z"/>
<path d="M1377 8625 c-21 -7 -42 -16 -45 -20 -10 -10 56 5 93 20 42 19 3 19
-48 0z"/>
<path d="M1505 8580 c11 -53 28 -74 20 -25 -4 22 -11 45 -17 50 -7 7 -8 -1 -3
-25z"/>
<path d="M1305 8510 c6 -39 25 -66 25 -34 -1 10 -8 30 -16 44 l-15 25 6 -35z"/>
<path d="M2641 8454 c-30 -38 -17 -57 32 -51 51 7 86 39 67 61 -20 26 -75 20
-99 -10z m54 6 c-28 -12 -47 -12 -40 0 3 6 18 10 33 9 24 0 25 -1 7 -9z m45
-15 c0 -9 -59 -35 -80 -35 -27 0 -26 18 3 30 23 9 77 13 77 5z"/>
<path d="M2447 8433 c-17 -17 4 -103 25 -103 5 0 7 4 3 9 -3 6 4 15 15 21 15
8 20 8 20 -3 0 -7 -6 -19 -12 -26 -11 -10 -9 -11 5 -5 11 4 17 15 15 28 -2 17
-9 21 -37 18 -33 -2 -34 -2 -28 33 6 36 5 40 -6 28z"/>
<path d="M2367 8360 c4 -15 0 -20 -16 -20 -12 0 -21 6 -21 16 0 8 -4 13 -10 9
-30 -18 65 -64 103 -49 22 8 17 28 -9 32 -14 2 -16 1 -6 -6 11 -7 11 -10 -3
-15 -9 -4 -14 -3 -12 1 7 10 -11 52 -22 52 -5 0 -7 -9 -4 -20z"/>
<path d="M15080 8325 c-8 -9 -10 -28 -6 -50 6 -31 11 -35 37 -35 33 0 52 -10
152 -84 37 -27 67 -57 67 -66 0 -8 -9 -41 -20 -73 -25 -70 -25 -111 -2 -157
40 -81 145 -108 272 -70 125 38 156 36 224 -15 19 -15 19 -15 -2 -35 -26 -25
-26 -19 -7 -83 8 -29 21 -117 30 -197 27 -238 58 -355 138 -515 49 -99 51
-113 18 -144 -19 -18 -33 -45 -41 -81 -11 -49 -10 -61 9 -114 45 -129 143
-205 266 -206 39 0 60 7 95 30 24 16 75 37 112 47 40 10 68 23 68 30 0 16 11
18 -121 -17 -62 -16 -115 -28 -117 -26 -3 4 -82 364 -82 378 0 13 100 60 210
99 69 24 106 42 108 53 4 18 4 18 -206 -64 -46 -17 -89 -29 -97 -26 -28 10
-170 315 -291 626 -63 160 -71 187 -58 197 21 15 357 149 417 164 36 10 50 10
59 1 6 -6 49 -85 94 -174 60 -117 83 -155 84 -135 0 47 -163 357 -189 357 -9
0 -102 -34 -206 -76 l-191 -76 -76 46 c-42 26 -79 55 -81 64 -3 9 -5 52 -5 95
-1 171 -57 238 -182 218 -74 -12 -104 -25 -162 -67 l-48 -36 -81 68 c-44 38
-96 90 -116 116 -37 50 -53 58 -73 33z m548 -152 c24 -15 52 -69 52 -100 0
-37 -22 -93 -47 -123 -30 -36 -196 -120 -237 -120 -17 0 -39 11 -58 31 -29 28
-30 34 -25 83 7 71 31 116 60 116 30 0 64 -25 82 -60 21 -40 54 -49 77 -20 11
13 18 33 16 44 -3 18 -12 22 -59 27 -52 6 -109 31 -109 50 0 4 15 19 33 32 86
65 156 78 215 40z m91 -184 c1 -105 -40 -151 -164 -183 -62 -17 -145 -21 -145
-8 0 4 39 25 88 47 142 65 195 129 196 235 l0 55 12 -40 c7 -22 13 -70 13
-106z m-192 24 c5 -14 -32 -27 -48 -18 -6 5 -4 12 8 21 20 15 35 14 40 -3z
m288 -197 c19 -8 35 -20 35 -26 0 -6 -18 -1 -40 10 -22 11 -40 23 -40 25 0 8
8 6 45 -9z m72 -345 c20 -52 75 -180 123 -285 113 -246 124 -281 155 -461 14
-82 28 -159 30 -170 3 -11 -9 9 -27 45 -17 36 -31 80 -32 98 0 34 -6 38 -38
21 -42 -22 -60 -112 -37 -192 6 -21 8 -44 6 -50 -7 -22 -39 55 -44 108 -5 46
-2 60 21 100 15 25 42 55 59 66 37 22 20 26 -21 5 -31 -16 -65 -71 -82 -136
-10 -37 -14 -42 -20 -25 -22 56 23 165 80 196 l35 18 -30 1 -30 1 24 13 c23
13 23 14 5 20 -41 13 -133 198 -164 329 -33 143 -76 470 -53 407 3 -8 21 -57
40 -109z m123 -688 c0 -13 -48 -68 -54 -63 -7 8 31 70 44 70 5 0 10 -3 10 -7z
m115 -145 c15 -35 67 -150 83 -180 6 -12 -41 -10 -78 3 -22 8 -37 22 -46 45
-24 58 -14 174 15 174 4 0 16 -19 26 -42z m128 -220 c-17 -8 -29 -8 -45 0 -20
9 -18 11 22 11 40 0 42 -2 23 -11z"/>
<path d="M15973 7143 c-17 -6 -17 -48 0 -62 10 -8 17 -7 25 1 25 25 5 72 -25
61z"/>
<path d="M16000 7034 c0 -3 10 -14 23 -25 20 -17 21 -18 3 -19 -19 0 -19 0 0
-21 l19 -21 9 21 c10 24 -15 71 -39 71 -8 0 -15 -3 -15 -6z"/>
<path d="M1507 8323 c-12 -12 -7 -33 8 -39 9 -4 25 4 40 20 l24 26 -33 0 c-18
0 -36 -3 -39 -7z"/>
<path d="M2267 8308 c-3 -10 -12 -15 -21 -12 -13 5 -13 2 -3 -19 6 -14 14 -22
17 -18 3 5 10 10 16 12 6 2 8 15 4 29 -5 21 -7 22 -13 8z"/>
<path d="M1344 8106 c-26 -26 -34 -42 -34 -71 0 -20 4 -34 9 -30 15 8 25 -15
12 -28 -16 -16 -14 -32 3 -18 16 14 29 0 20 -22 -7 -20 51 -15 104 10 l41 18
-41 88 c-47 100 -61 106 -114 53z m104 -60 c34 -71 32 -96 -8 -96 -25 0 -86
136 -69 156 22 27 44 10 77 -60z m-68 -26 c34 -67 36 -80 16 -80 -18 0 -79
107 -72 126 10 27 26 14 56 -46z"/>
<path d="M2447 8094 c-15 -8 -36 -12 -47 -9 -11 3 -22 0 -27 -8 -11 -19 -47
-37 -73 -37 -12 0 -38 -9 -58 -20 -20 -10 -45 -21 -54 -24 -19 -6 -23 -23 -9
-45 11 -18 31 -5 31 19 0 21 34 45 50 35 6 -3 10 -13 10 -21 0 -9 7 -14 17
-12 11 2 18 13 18 27 0 18 9 28 32 38 29 12 33 11 43 -7 13 -25 40 -15 40 16
0 39 54 59 65 24 3 -11 11 -20 16 -20 13 0 11 12 -9 37 -16 20 -19 21 -45 7z
m-39 -47 c5 -24 -15 -21 -21 4 -3 13 -1 19 6 16 7 -2 13 -11 15 -20z m-119
-44 c0 -25 -1 -26 -9 -8 -12 27 -12 35 0 35 6 0 10 -12 9 -27z m-89 -41 c0
-15 -2 -15 -10 -2 -13 20 -13 33 0 25 6 -3 10 -14 10 -23z"/>
<path d="M1962 8021 c-8 -4 -19 -19 -26 -32 -13 -26 -150 -88 -198 -89 -26 0
-58 -22 -58 -40 0 -13 30 -40 45 -40 7 0 22 10 32 23 11 14 55 36 111 56 78
28 97 32 118 22 22 -9 28 -8 50 14 28 28 22 51 -18 79 -25 18 -37 19 -56 7z
m66 -29 c7 -9 11 -26 10 -37 -3 -17 -11 -20 -53 -20 -68 -1 -226 -52 -232 -76
-6 -23 -32 -32 -49 -18 -20 16 1 49 31 49 42 0 215 73 215 90 0 40 50 47 78
12z"/>
<path d="M1985 7990 c-8 -14 3 -30 21 -30 16 0 16 2 8 24 -7 18 -20 21 -29 6z"/>
<path d="M1716 7873 c-11 -11 -6 -23 9 -23 8 0 15 4 15 9 0 13 -16 22 -24 14z"/>
<path d="M1493 7865 c-28 -20 -51 -91 -35 -107 8 -8 8 -17 0 -32 -10 -19 -10
-20 5 -7 14 11 18 11 23 -3 3 -9 3 -23 0 -32 -5 -14 -4 -15 9 -4 20 17 31 -10
16 -39 -16 -28 -14 -38 3 -15 8 10 26 19 41 19 20 0 32 9 48 36 l21 36 -48 81
c-26 45 -51 82 -55 82 -3 0 -16 -7 -28 -15z m75 -72 c41 -70 41 -83 -3 -83
-34 0 -91 120 -68 143 16 17 33 2 71 -60z m-59 -38 c31 -55 37 -75 24 -75 -15
1 -75 100 -69 115 3 8 7 15 10 15 2 0 18 -25 35 -55z m81 -75 c-6 -11 -20 -20
-30 -20 -18 0 -19 3 -8 20 7 11 21 20 31 20 15 0 16 -3 7 -20z"/>
<path d="M2289 7815 c-41 -12 -87 -27 -102 -34 -25 -10 -29 -8 -39 13 -13 30
-43 38 -90 26 -51 -14 -65 -34 -51 -71 10 -26 9 -31 -5 -37 -14 -5 -12 -7 8
-12 l25 -6 -30 -16 c-45 -23 -75 -31 -75 -19 0 6 12 17 28 26 26 15 26 16 2 9
-41 -11 -43 -10 -50 16 -9 37 -49 47 -96 24 -36 -17 -39 -22 -39 -59 l0 -40
-41 0 c-53 0 -76 -19 -72 -59 4 -36 32 -46 63 -21 16 12 17 14 2 9 -13 -5 -16
-2 -11 9 3 8 1 18 -5 22 -6 3 -14 -1 -18 -10 -3 -10 0 -21 8 -26 11 -6 8 -9
-8 -9 -18 0 -23 6 -23 24 0 28 38 60 54 47 6 -5 20 -5 31 0 41 16 51 0 13 -20
-22 -11 -22 -11 4 -6 20 4 34 -1 53 -21 16 -16 32 -23 42 -20 9 4 21 -1 28
-11 12 -16 13 -15 8 9 -5 24 -2 26 28 24 18 -1 34 -7 36 -13 5 -14 -58 -53
-86 -53 -11 0 -21 -4 -21 -9 0 -15 73 9 98 32 27 25 28 44 2 52 -38 12 -25 49
26 73 40 20 47 21 60 7 18 -17 24 -18 44 -5 9 5 19 5 27 -2 10 -8 13 -6 13 6
0 10 8 16 21 16 18 0 20 5 17 42 l-3 42 85 28 c106 35 126 31 31 -6 -40 -16
-70 -30 -68 -32 3 -4 196 71 204 79 11 11 -65 0 -128 -18z m-179 -11 c0 -7
-66 -34 -86 -34 -16 0 -16 2 1 20 16 18 85 30 85 14z m34 -40 c4 -19 10 -42
12 -49 4 -9 -7 -19 -31 -29 -58 -25 -71 -21 -89 25 -9 23 -16 42 -14 43 9 5
104 44 109 45 4 1 10 -15 13 -35z m-260 -31 c4 -4 -8 -15 -26 -26 -32 -17 -29
-18 18 -3 19 6 24 0 38 -41 l17 -48 -26 -22 c-14 -13 -37 -23 -51 -23 -20 0
-29 9 -44 46 -24 56 -25 61 -2 67 12 3 11 5 -6 6 -33 1 -22 24 19 38 41 14 53
15 63 6z"/>
<path d="M2565 7767 c-104 -48 -161 -78 -295 -152 -52 -29 -146 -75 -208 -101
-62 -26 -111 -49 -109 -51 8 -8 250 102 381 174 77 42 185 98 240 124 56 26
97 48 91 48 -5 -1 -51 -19 -100 -42z"/>
<path d="M2184 7736 c-3 -8 2 -28 10 -45 16 -29 15 -31 -8 -46 -28 -19 -82
-35 -115 -35 -17 0 -22 4 -17 16 3 8 2 12 -4 9 -6 -3 -10 -13 -10 -22 0 -34
160 6 174 43 3 8 -1 26 -10 39 -9 14 -14 32 -10 40 3 8 3 15 0 15 -2 0 -7 -6
-10 -14z"/>
<path d="M16045 7721 c-40 -24 -63 -60 -70 -108 -11 -70 47 -126 151 -147 40
-9 89 30 105 83 10 32 8 45 -11 89 -40 94 -107 125 -175 83z m120 -35 c44 -47
62 -113 41 -153 -17 -34 -33 -43 -78 -43 -68 0 -126 51 -135 121 -5 34 -2 42
30 74 49 49 96 49 142 1z"/>
<path d="M16040 7643 c0 -3 8 -12 18 -19 14 -10 15 -16 5 -32 -10 -17 -9 -19
7 -15 24 6 44 29 36 42 -7 11 -66 33 -66 24z"/>
<path d="M16420 7604 c0 -8 5 -12 10 -9 6 3 10 10 10 16 0 5 -4 9 -10 9 -5 0
-10 -7 -10 -16z"/>
<path d="M1830 7515 c0 -8 4 -15 10 -15 5 0 7 7 4 15 -4 8 -8 15 -10 15 -2 0
-4 -7 -4 -15z"/>
<path d="M1875 7435 c-27 -13 -45 -23 -40 -24 6 0 33 11 60 24 28 13 46 23 40
24 -5 0 -32 -11 -60 -24z"/>
<path d="M1840 7390 c-8 -5 -10 -10 -5 -10 6 0 17 5 25 10 8 5 11 10 5 10 -5
0 -17 -5 -25 -10z"/>
<path d="M16287 7373 c-24 -24 41 -205 78 -220 18 -6 95 14 95 25 0 11 -70
124 -102 165 -28 34 -55 46 -71 30z m104 -115 c33 -56 38 -72 28 -79 -24 -15
-47 -10 -67 15 -24 32 -56 132 -48 153 6 14 8 14 26 -2 10 -9 38 -49 61 -87z"/>
<path d="M1510 7325 c0 -8 9 -15 20 -15 11 0 20 7 20 15 0 8 -9 15 -20 15 -11
0 -20 -7 -20 -15z"/>
<path d="M16129 7324 c-18 -21 -17 -83 2 -95 21 -13 34 -11 58 9 21 17 21 17
1 60 -20 44 -39 52 -61 26z m51 -63 c0 -15 -16 -22 -34 -15 -25 9 -19 24 9 24
14 0 25 -4 25 -9z"/>
<path d="M8030 7178 c-5 -13 -11 -35 -14 -50 -9 -39 -37 -43 -95 -13 -58 29
-70 30 -97 11 -15 -12 -19 -27 -19 -73 0 -68 -13 -76 -76 -47 -35 15 -43 15
-65 3 -39 -21 -49 -50 -30 -87 35 -67 7 -108 -67 -97 -40 6 -46 4 -66 -20 -28
-36 -27 -45 9 -90 40 -51 39 -79 -2 -95 -55 -20 -63 -26 -72 -60 -9 -29 -7
-35 13 -49 12 -9 37 -28 54 -43 l32 -28 -43 -40 c-38 -35 -43 -45 -40 -78 3
-35 6 -38 52 -53 65 -20 74 -35 53 -91 -22 -58 -21 -70 6 -96 18 -17 36 -22
74 -22 57 0 65 -9 56 -64 -12 -74 49 -115 111 -76 45 27 72 15 82 -35 7 -40
45 -75 80 -75 13 0 37 15 57 36 43 46 72 42 108 -13 40 -62 100 -57 113 9 6
31 32 68 47 68 5 0 23 -13 42 -29 65 -57 113 -48 123 24 14 102 28 116 90 85
48 -25 71 -25 84 -1 13 25 13 78 0 86 -16 10 -12 62 6 69 9 3 31 6 50 6 37 0
84 36 84 64 0 9 -14 35 -30 59 -40 55 -33 73 36 93 51 15 54 17 54 49 0 27 -8
39 -45 69 -55 46 -59 76 -15 131 54 67 34 125 -43 125 -66 0 -72 10 -37 61 56
82 30 129 -70 129 l-60 0 0 60 c0 57 -2 60 -31 76 -30 15 -34 15 -80 -6 -26
-13 -54 -20 -63 -17 -8 3 -18 25 -22 53 -10 72 -63 109 -96 68 -60 -75 -100
-84 -118 -29 -16 48 -35 65 -76 65 -26 0 -37 -5 -44 -22z m77 0 c6 -7 13 -26
17 -43 11 -44 24 -55 67 -55 38 0 60 14 79 51 13 23 55 25 64 3 3 -9 6 -30 6
-48 0 -18 5 -37 12 -44 17 -17 79 -15 106 4 12 8 32 14 45 12 20 -3 22 -9 25
-68 4 -86 12 -94 83 -86 45 5 60 3 73 -9 22 -22 20 -32 -9 -71 -14 -18 -25
-40 -25 -50 0 -30 31 -54 70 -54 69 0 78 -38 25 -107 -19 -25 -35 -54 -35 -65
0 -10 20 -41 45 -67 55 -59 58 -86 12 -95 -45 -8 -77 -33 -77 -59 0 -12 11
-39 25 -59 45 -66 25 -98 -60 -98 -26 0 -39 -6 -51 -25 -15 -23 -15 -28 7 -80
29 -70 18 -88 -36 -62 -48 23 -98 22 -119 -2 -10 -11 -21 -44 -25 -73 -8 -65
-26 -72 -78 -29 -21 17 -46 31 -56 31 -26 0 -67 -45 -67 -73 0 -54 -53 -61
-80 -12 -9 16 -31 38 -48 48 -31 18 -33 18 -59 1 -15 -9 -36 -26 -47 -36 -41
-37 -86 -17 -86 39 0 38 -29 73 -60 73 -11 0 -39 -12 -61 -27 -36 -24 -41 -25
-56 -11 -12 13 -13 24 -5 64 7 30 7 50 1 52 -5 2 -9 11 -9 19 0 9 -6 13 -15 9
-8 -3 -15 -1 -15 5 0 6 -19 10 -42 9 -24 -1 -51 -1 -60 -1 -28 2 -32 38 -8 76
12 20 20 46 18 62 -3 28 -27 45 -105 74 -18 6 -33 18 -33 26 0 7 18 32 41 54
33 32 40 45 37 71 -2 26 -11 36 -43 52 -22 12 -41 29 -43 39 -5 25 16 47 44
47 65 0 84 80 33 137 -45 52 -37 67 40 74 78 8 107 33 96 84 -17 82 -17 91 0
105 15 12 22 11 57 -9 34 -19 44 -21 68 -11 28 12 40 41 40 100 0 15 7 33 15
40 13 11 23 8 59 -19 25 -17 51 -31 59 -31 28 0 77 50 77 79 0 44 43 69 67 39z"/>
<path d="M7977 6970 c-31 -10 -89 -37 -127 -59 -139 -83 -134 -127 25 -213 28
-15 67 -37 88 -48 l38 -21 35 22 c62 38 68 55 61 187 -5 104 -8 119 -27 134
-26 21 -21 21 -93 -2z m93 -29 c11 -22 12 -118 2 -196 -6 -45 -11 -52 -44 -70
l-37 -19 -43 30 c-24 17 -68 45 -99 62 -66 38 -77 56 -51 91 32 43 184 118
244 120 10 1 22 -8 28 -18z"/>
<path d="M8217 6983 c-29 -7 -37 -46 -37 -186 l0 -133 47 -17 47 -17 85 42
c94 47 161 104 161 136 0 27 -64 79 -160 130 -78 41 -113 52 -143 45z m111
-48 c72 -33 141 -84 157 -116 12 -22 12 -29 -2 -49 -19 -27 -189 -110 -226
-110 -35 0 -44 35 -50 183 l-4 117 36 0 c20 0 60 -11 89 -25z"/>
<path d="M7662 6678 c-21 -26 -32 -96 -32 -200 0 -166 22 -189 133 -142 148
62 187 97 187 166 0 53 -36 88 -149 146 -85 43 -121 51 -139 30z m103 -38 c24
-17 64 -39 89 -50 63 -26 82 -59 67 -110 -14 -46 -63 -84 -154 -118 -76 -29
-95 -28 -107 4 -24 62 -3 258 31 287 27 22 23 22 74 -13z"/>
<path d="M8515 6680 c-4 -6 -47 -31 -96 -56 -95 -47 -109 -64 -109 -130 0 -24
4 -34 16 -34 8 0 13 -4 10 -9 -11 -17 108 -97 201 -136 48 -20 50 -20 69 16
36 70 27 296 -13 341 -17 19 -68 24 -78 8z m82 -57 c12 -30 14 -60 10 -148 -7
-125 -12 -145 -37 -145 -30 0 -178 79 -200 107 -14 19 -20 40 -20 79 l0 54 88
44 c111 57 138 59 159 9z"/>
<path d="M8075 6545 c-53 -52 -13 -130 64 -123 27 2 41 11 58 37 13 19 23 42
23 52 0 58 -99 81 -145 34z m103 -7 c20 -20 13 -55 -14 -77 -33 -26 -49 -26
-73 -2 -26 26 -16 59 23 76 40 17 49 18 64 3z"/>
<path d="M7892 6316 c-46 -24 -94 -54 -107 -66 -68 -64 -22 -141 128 -210 79
-37 135 -46 162 -27 18 14 20 27 20 148 l0 133 -43 33 c-24 18 -51 33 -60 33
-9 0 -55 -20 -100 -44z m152 -17 c27 -21 27 -21 24 -142 l-3 -122 -45 1 c-89
1 -240 100 -240 158 0 41 140 124 211 126 15 0 38 -9 53 -21z"/>
<path d="M8220 6335 c-19 -14 -37 -31 -42 -37 -4 -7 -8 -66 -8 -131 0 -112 1
-119 25 -142 13 -14 34 -25 47 -25 54 0 243 113 268 161 6 10 7 24 4 33 -9 23
-225 166 -251 166 -5 0 -24 -11 -43 -25z m147 -56 c135 -71 150 -99 81 -150
-60 -43 -173 -99 -202 -99 -42 0 -49 20 -44 141 3 102 5 113 27 130 33 27 50
24 138 -22z"/>
<path d="M16191 7171 c-17 -31 -13 -76 9 -96 23 -21 46 -14 61 19 10 20 8 31
-8 58 -23 39 -48 47 -62 19z m39 -16 c0 -8 -7 -15 -15 -15 -16 0 -20 12 -8 23
11 12 23 8 23 -8z m30 -45 c0 -11 -48 -25 -56 -17 -4 3 -3 10 1 16 8 14 55 14
55 1z"/>
<path d="M11795 6749 c-88 -38 -174 -76 -191 -83 -31 -14 -31 -16 -38 -103 -4
-48 -14 -141 -22 -206 -8 -65 -12 -126 -9 -136 3 -10 35 -42 71 -72 37 -30
100 -82 140 -116 129 -109 135 -112 215 -124 l74 -11 180 72 c99 40 184 75
188 79 7 7 38 234 52 392 l7 77 -154 119 c-84 66 -165 127 -179 136 -32 21
-116 47 -149 46 -14 0 -97 -32 -185 -70z m360 -79 c79 -61 147 -114 150 -119
3 -5 -4 -69 -15 -143 -10 -73 -22 -163 -26 -199 -4 -37 -9 -71 -13 -76 -3 -6
-94 -45 -202 -87 l-196 -78 -113 94 c-63 51 -124 102 -138 113 l-24 20 22 205
c12 113 24 208 28 212 4 4 66 31 137 61 72 30 155 66 185 80 30 14 56 26 58
26 2 1 68 -49 147 -109z m19 47 c101 -76 206 -158 206 -162 0 -3 -8 -5 -19 -5
-17 0 -263 179 -277 202 -13 21 46 -2 90 -35z m230 -225 c5 -8 -31 -345 -39
-369 -6 -18 -44 -16 -51 2 -4 8 4 96 17 195 22 172 24 180 46 180 12 0 24 -4
27 -8z m-104 -420 c0 -10 -297 -125 -311 -120 -12 4 273 125 299 127 6 1 12
-2 12 -7z"/>
<path d="M11794 6624 c-67 -35 -90 -59 -121 -123 -41 -84 -38 -166 8 -251 57
-103 163 -170 270 -170 94 0 195 64 241 153 33 63 31 174 -4 242 -31 60 -102
129 -161 156 -65 29 -171 26 -233 -7z m262 -40 c35 -17 89 -72 79 -82 -3 -3
-18 6 -33 20 -46 43 -86 58 -157 58 -109 0 -188 -58 -216 -158 -24 -86 28
-219 102 -261 41 -23 36 -34 -8 -16 -71 30 -118 95 -129 178 -13 96 53 219
140 258 53 24 174 26 222 3z m21 -70 c36 -26 73 -99 73 -142 0 -87 -61 -178
-137 -203 -51 -17 -134 -7 -172 20 -58 41 -90 131 -71 201 13 47 71 117 115
137 45 20 157 13 192 -13z"/>
<path d="M16430 6785 c-13 -35 3 -65 36 -65 23 0 25 3 22 43 -2 35 -7 43 -25
45 -17 3 -26 -3 -33 -23z m48 -33 c-6 -27 -23 -16 -26 18 -2 33 -2 34 13 15 9
-11 14 -26 13 -33z"/>
<path d="M16251 6764 c-27 -35 -26 -48 5 -73 67 -53 126 6 73 73 -11 14 -29
26 -39 26 -10 0 -28 -12 -39 -26z m68 -25 c15 -44 14 -49 -12 -49 -27 0 -47
17 -47 40 0 19 19 40 36 40 7 0 17 -14 23 -31z"/>
<path d="M16282 6731 c4 -13 18 -16 19 -4 0 4 -5 9 -11 12 -7 2 -11 -2 -8 -8z"/>
<path d="M16467 6683 c-14 -13 -7 -81 10 -94 15 -12 16 -12 10 4 -16 41 -18
65 -8 71 6 4 11 11 11 17 0 10 -14 12 -23 2z"/>
<path d="M16293 6623 c-16 -6 -17 -75 -1 -91 18 -18 56 -14 68 7 29 55 -12
107 -67 84z m61 -39 c7 -19 -10 -44 -29 -44 -19 0 -38 28 -31 45 7 20 52 19
60 -1z"/>
<path d="M16310 6576 c0 -9 7 -16 16 -16 9 0 14 5 12 12 -6 18 -28 21 -28 4z"/>
<path d="M1984 5756 c-3 -15 1 -34 12 -51 15 -23 16 -45 10 -215 l-6 -188 42
-7 c73 -12 172 -46 194 -66 11 -10 24 -19 28 -19 14 0 83 -64 134 -126 38 -46
73 -74 137 -109 104 -59 203 -154 242 -234 25 -50 28 -66 28 -161 0 -110 -10
-145 -55 -201 -21 -25 -21 -27 -5 -84 23 -78 16 -167 -16 -201 -40 -43 -359
-188 -375 -171 -3 3 6 35 20 70 30 74 56 178 56 223 0 34 15 50 73 79 50 26
94 75 126 144 22 49 26 69 25 156 0 81 -4 109 -21 147 -40 86 -165 188 -231
188 -51 0 -67 13 -131 108 -32 49 -83 110 -113 138 -66 59 -169 121 -217 130
-72 14 -236 -39 -319 -103 -53 -40 -152 -172 -188 -249 -60 -128 -85 -235 -91
-379 -6 -150 5 -213 64 -335 28 -59 53 -92 119 -156 l83 -81 -19 -29 c-11 -16
-36 -51 -55 -78 -40 -55 -40 -70 -3 -74 21 -2 39 11 96 74 l71 76 63 -21 c101
-34 211 -51 370 -58 l148 -6 33 -43 c36 -47 84 -84 110 -84 30 0 31 30 4 85
-14 28 -22 57 -19 63 4 5 36 22 72 35 36 14 90 36 119 50 l55 24 75 -49 c77
-50 112 -65 130 -53 22 13 9 32 -59 88 l-71 58 34 39 c40 47 128 221 151 299
22 76 22 316 0 392 -96 327 -355 500 -786 525 -115 7 -119 8 -114 28 2 12 8
86 11 166 6 117 11 153 28 187 20 41 20 43 2 63 -26 28 -63 26 -71 -4z m56 -6
c12 -23 6 -40 -15 -40 -16 0 -29 35 -20 50 10 16 23 12 35 -10z m315 -484 c99
-25 245 -94 318 -150 26 -20 47 -33 47 -29 0 3 11 -4 25 -17 14 -13 25 -31 25
-39 0 -9 13 -32 29 -51 39 -48 88 -148 106 -217 19 -74 19 -209 0 -312 -18
-92 -73 -231 -110 -276 l-24 -30 -1 72 c0 39 -5 84 -10 99 -9 22 -7 33 13 63
13 20 30 54 38 76 16 49 17 185 1 242 -30 105 -148 229 -292 308 -48 26 -83
54 -110 89 -21 28 -61 73 -89 100 -28 27 -48 53 -45 57 4 8 -13 14 -111 39
-35 8 -31 9 30 5 39 -3 111 -16 160 -29z m-406 13 c95 -20 225 -126 311 -253
22 -32 40 -64 40 -70 0 -7 -24 -24 -54 -38 -76 -37 -189 -147 -222 -214 -54
-111 -41 -258 31 -342 48 -55 141 -86 262 -87 l83 0 0 -64 c0 -117 -55 -266
-106 -290 -14 -6 -70 -11 -126 -11 -91 0 -100 2 -93 18 30 71 30 229 -1 263
-9 10 -31 23 -49 29 -38 12 -40 17 -59 109 -22 103 -73 227 -105 253 -16 13
-36 34 -44 48 -15 24 -15 29 8 79 14 29 25 70 25 90 0 74 -73 241 -135 310
-39 43 -43 56 -19 65 9 4 14 9 12 12 -3 3 -23 -2 -44 -11 l-38 -16 23 25 c12
13 50 36 84 51 34 14 71 30 82 35 20 9 50 17 72 19 7 0 35 -4 62 -10z m-265
-169 c52 -48 119 -171 141 -258 16 -60 16 -62 -11 -128 -49 -123 -47 -238 5
-350 37 -78 89 -129 163 -156 83 -30 98 -53 97 -147 0 -42 -6 -94 -13 -116
l-12 -40 -59 1 c-33 1 -98 13 -145 27 -190 57 -252 90 -355 190 l-60 58 25 20
c77 60 101 100 126 206 11 48 15 101 12 178 -4 101 -7 115 -37 175 -18 36 -51
86 -72 112 -21 26 -39 53 -39 60 0 37 145 208 176 208 8 0 34 -18 58 -40z
m-179 -272 c58 -89 78 -158 78 -278 0 -118 -22 -200 -73 -275 -47 -68 -81 -73
-104 -15 -19 47 -20 53 -6 45 6 -3 10 1 10 10 0 12 4 14 18 6 13 -7 23 -6 30
1 7 7 15 9 19 5 3 -4 -6 -21 -22 -37 -16 -16 -26 -33 -22 -36 10 -10 26 5 54
54 59 100 39 361 -42 555 -5 12 -3 17 9 17 9 0 31 -24 51 -52z m-55 -30 c0
-10 -7 -18 -15 -18 -25 0 -36 -36 -49 -170 -6 -71 -16 -133 -20 -137 -22 -21
21 313 46 361 10 19 11 19 24 1 8 -10 14 -27 14 -37z m1128 -6 c20 -30 11 -28
-19 4 -13 15 -18 25 -10 22 8 -2 21 -14 29 -26z m-101 -49 c47 -23 73 -59 80
-111 12 -93 -26 -189 -91 -228 -67 -40 -232 -16 -286 41 -28 30 -39 123 -21
178 15 44 93 124 134 137 45 14 140 5 184 -17z m-634 -182 c49 -55 65 -88 93
-198 26 -105 29 -123 15 -123 -35 0 -131 130 -131 177 0 12 -5 23 -12 25 -15
5 -25 158 -10 158 5 0 26 -18 45 -39z m-336 -133 c-3 -7 -5 -2 -5 12 0 14 2
19 5 13 2 -7 2 -19 0 -25z m-127 -59 c5 -16 7 -29 4 -29 -5 0 -18 31 -28 70
-6 22 -5 22 4 7 7 -10 16 -32 20 -48z m1394 -375 c90 -74 70 -89 -31 -24 -61
38 -71 49 -56 63 14 14 32 6 87 -39z m-1104 -22 c0 -13 -120 -152 -130 -152
-17 0 -11 26 12 56 57 76 118 126 118 96z m735 -132 c7 -14 16 -35 19 -47 6
-20 4 -23 -18 -23 -19 0 -34 11 -56 42 -34 46 -38 75 -12 81 20 4 49 -18 67
-53z"/>
<path d="M2101 4280 c-17 -10 -7 -40 14 -40 8 0 15 9 15 19 0 24 -12 32 -29
21z"/>
<path d="M2155 4251 c-10 -17 4 -31 31 -31 19 0 25 5 22 18 -4 19 -43 29 -53
13z"/>
<path d="M2234 4235 c-7 -18 3 -35 21 -35 21 0 28 19 15 35 -16 19 -29 19 -36
0z"/>
<path d="M1597 4783 c-20 -20 1 -73 30 -73 18 0 45 44 37 64 -6 16 -54 23 -67
9z m50 -19 c3 -8 -1 -23 -10 -32 -15 -14 -17 -14 -23 1 -8 21 1 47 16 47 6 0
13 -7 17 -16z"/>
<path d="M5020 5354 c-45 -36 -86 -76 -92 -89 -11 -25 -8 -32 56 -124 26 -37
27 -43 14 -59 -8 -9 -19 -29 -26 -44 -10 -23 -18 -28 -48 -28 -27 0 -37 -5
-41 -19 -3 -12 -15 -21 -32 -23 -15 -2 -30 -12 -36 -25 -5 -13 -18 -23 -28
-23 -10 0 -29 -11 -42 -24 -13 -14 -34 -27 -45 -31 -11 -3 -25 -15 -30 -26 -6
-11 -21 -19 -35 -19 -15 0 -26 -7 -30 -20 -3 -11 -14 -20 -24 -20 -20 0 -51
-30 -51 -48 0 -7 -11 -12 -25 -12 -14 0 -29 -8 -35 -19 -5 -11 -20 -21 -32
-23 -13 -2 -27 -13 -33 -25 -5 -13 -17 -23 -27 -23 -9 0 -25 -11 -36 -25 -11
-14 -24 -25 -30 -25 -12 0 -33 -24 -36 -42 -2 -7 -6 -30 -10 -50 -10 -48 30
-137 98 -220 55 -68 75 -80 138 -85 39 -3 49 0 58 17 6 11 20 20 31 20 12 0
23 8 26 20 3 11 13 20 23 20 10 0 27 11 38 25 11 14 27 25 35 25 9 0 22 8 29
18 7 10 25 22 40 26 18 4 30 15 34 31 3 14 11 25 18 24 30 -4 45 3 51 21 3 11
15 20 25 20 11 0 27 11 36 25 9 14 25 25 35 25 11 0 24 11 31 25 6 14 19 25
29 25 10 0 26 11 35 24 8 14 27 26 42 28 19 2 28 10 30 25 2 15 11 23 30 25
16 2 31 12 37 25 7 17 15 20 36 16 15 -3 30 0 34 7 5 8 25 -7 60 -44 70 -73
93 -74 190 -7 l70 49 -1 49 c-1 27 -10 69 -21 94 -29 64 -286 424 -352 493
-46 48 -101 86 -125 86 -2 0 -41 -30 -86 -66z m148 -43 l33 -60 -80 -60 c-44
-34 -85 -61 -90 -61 -13 0 -71 78 -71 96 0 14 149 144 165 144 6 0 25 -27 43
-59z m141 -107 c29 -41 48 -74 44 -74 -30 0 -193 199 -193 236 0 17 100 -91
149 -162z m-3 -53 c50 -41 66 -61 87 -113 14 -35 32 -80 41 -100 l16 -37 -77
-60 -78 -61 -30 52 c-33 57 -96 142 -150 204 l-36 42 78 61 c43 33 80 61 83
61 3 0 33 -22 66 -49z m-124 -259 c55 -81 82 -138 73 -152 -13 -21 -36 -8 -61
33 -65 103 -96 145 -138 187 -25 25 -46 49 -46 54 0 5 8 18 17 29 18 19 19 18
62 -29 24 -27 66 -82 93 -122z m307 57 c45 -64 90 -164 78 -175 -10 -10 -85
105 -110 169 -41 103 -36 104 32 6z m-434 -1 c42 -49 120 -172 130 -205 13
-45 -21 -22 -128 85 -134 134 -153 161 -104 149 12 -4 29 -2 37 3 23 15 26 13
65 -32z m115 -256 c0 -2 -13 -2 -29 1 -23 5 -31 2 -34 -11 -3 -13 -36 15 -126
107 -66 68 -121 128 -121 133 0 4 14 8 30 8 17 0 30 4 30 10 0 5 56 -47 125
-117 69 -69 125 -128 125 -131z m-238 118 c42 -47 96 -103 122 -124 47 -38 53
-61 13 -51 -18 5 -25 0 -34 -25 -10 -28 -14 -30 -32 -20 -17 9 -21 8 -21 -5 0
-28 -31 -15 -87 38 -53 50 -173 189 -173 201 0 3 11 6 25 6 14 0 25 5 25 11 0
6 6 9 14 6 10 -4 12 0 8 15 -4 17 -1 19 24 17 20 -3 28 0 26 10 -5 23 13 8 90
-79z m601 -21 c21 -27 36 -53 33 -57 -2 -4 -36 -29 -75 -55 -80 -56 -93 -55
-139 2 l-32 39 76 61 c42 34 82 61 88 60 6 0 28 -23 49 -50z m-697 -127 c66
-67 117 -123 114 -123 -3 -1 -13 0 -24 1 -10 1 -16 -2 -13 -7 10 -16 -21 -46
-42 -40 -15 3 -21 -1 -23 -15 -3 -18 -9 -15 -61 27 -65 53 -197 203 -197 224
0 9 8 11 25 7 18 -5 25 -2 25 8 0 23 25 42 52 41 18 -1 58 -36 144 -123z m-98
-129 c91 -90 102 -104 61 -83 -16 9 -19 7 -19 -10 0 -25 -17 -26 -45 -2 -11 9
-9 5 7 -10 28 -28 23 -44 -12 -33 -14 5 -20 2 -20 -9 0 -9 -4 -16 -9 -16 -25
0 -251 235 -251 262 0 6 10 8 25 4 19 -5 25 -2 25 10 0 25 12 15 90 -73 40
-46 75 -83 77 -83 3 0 -19 28 -49 61 -87 100 -97 113 -98 127 0 8 8 10 25 6
20 -5 25 -2 25 12 0 12 11 4 36 -27 20 -24 79 -86 132 -136z m-168 -64 c66
-66 112 -118 100 -114 -16 5 -20 2 -20 -14 0 -12 -4 -21 -9 -21 -25 0 -251
237 -251 263 0 4 13 7 30 7 24 0 50 -21 150 -121z m-42 -68 c82 -82 98 -103
78 -99 -18 4 -26 1 -26 -8 0 -19 -7 -18 -42 7 -34 24 -208 218 -208 231 0 5 9
6 20 3 16 -5 20 -2 20 17 1 21 3 20 27 -12 15 -19 73 -82 131 -139z m-51 -70
c41 -40 67 -71 59 -68 -12 5 -16 0 -16 -18 0 -42 -17 -36 -48 17 -16 29 -57
90 -91 135 -69 92 -82 131 -19 57 23 -27 75 -82 115 -123z m-105 52 c31 -43
66 -95 78 -115 20 -35 21 -38 4 -45 -34 -13 -154 155 -154 215 0 12 4 22 8 22
5 0 34 -35 64 -77z"/>
<path d="M4820 4806 c0 -2 8 -10 18 -17 15 -13 16 -12 3 4 -13 16 -21 21 -21
13z"/>
<path d="M7180 4460 c0 -25 -4 -30 -25 -30 -20 0 -25 -5 -25 -25 0 -20 5 -25
25 -25 20 0 25 -5 25 -25 0 -20 -5 -25 -25 -25 -20 0 -25 -5 -25 -25 0 -23 3
-25 50 -25 l50 0 0 -75 c0 -73 1 -75 25 -75 24 0 25 2 25 75 0 73 1 75 25 75
20 0 25 -5 25 -25 0 -20 5 -25 25 -25 20 0 25 -5 25 -25 0 -20 -5 -25 -25 -25
-24 0 -25 -2 -25 -75 0 -73 1 -75 25 -75 24 0 25 2 25 75 0 73 1 75 25 75 24
0 25 -2 25 -74 0 -74 0 -75 28 -78 19 -2 28 -9 30 -25 3 -17 10 -23 28 -23 24
0 25 3 22 48 -3 40 -6 47 -25 50 -22 3 -23 8 -23 78 l0 74 -55 0 c-52 0 -55 1
-55 25 0 20 -5 25 -25 25 -23 0 -25 3 -25 50 l0 50 49 0 c44 0 50 -3 53 -22 2
-17 11 -24 31 -26 21 -3 27 -9 27 -28 0 -19 5 -24 25 -24 20 0 25 5 25 25 0
20 5 25 25 25 20 0 25 5 25 25 0 20 -5 25 -25 25 -20 0 -25 -5 -25 -25 0 -20
-5 -25 -25 -25 -23 0 -24 3 -27 78 -3 75 -4 77 -28 77 -20 0 -26 -6 -28 -27
-3 -28 -4 -28 -78 -28 -72 0 -74 -1 -74 -25 0 -20 -5 -25 -25 -25 -24 0 -25 3
-25 55 0 52 -1 55 -25 55 -21 0 -25 -5 -25 -30z m100 -155 c0 -20 -5 -25 -25
-25 -20 0 -25 5 -25 25 0 20 5 25 25 25 20 0 25 -5 25 -25z"/>
<path d="M7540 4460 c0 -27 3 -31 23 -28 16 2 22 10 22 28 0 18 -6 26 -22 28
-20 3 -23 -1 -23 -28z"/>
<path d="M6720 4305 l0 -175 180 0 180 0 0 175 0 175 -180 0 -180 0 0 -175z
m310 0 l0 -125 -130 0 -130 0 0 125 0 125 130 0 130 0 0 -125z"/>
<path d="M6820 4305 l0 -75 80 0 80 0 0 75 0 75 -80 0 -80 0 0 -75z"/>
<path d="M7640 4305 l0 -175 175 0 175 0 0 175 0 175 -175 0 -175 0 0 -175z
m300 0 l0 -125 -125 0 -125 0 0 125 0 125 125 0 125 0 0 -125z"/>
<path d="M7740 4305 l0 -75 75 0 75 0 0 75 0 75 -75 0 -75 0 0 -75z"/>
<path d="M7382 4308 c2 -15 11 -24 26 -26 18 -3 22 1 22 22 0 21 -5 26 -26 26
-21 0 -25 -4 -22 -22z"/>
<path d="M7130 4180 c0 -47 2 -50 25 -50 23 0 25 3 25 50 0 47 -2 50 -25 50
-23 0 -25 -3 -25 -50z"/>
<path d="M7540 4130 c0 -47 2 -50 25 -50 20 0 25 -5 25 -25 0 -20 5 -25 25
-25 20 0 25 -5 25 -25 0 -20 -5 -25 -25 -25 -20 0 -25 -5 -25 -25 0 -23 3 -25
51 -25 49 0 50 -1 47 -27 -3 -26 -7 -28 -50 -31 -44 -3 -47 -2 -50 25 -2 20
-9 29 -25 31 -17 3 -22 -2 -25 -25 -3 -27 -6 -28 -53 -28 l-50 0 -3 53 -3 53
-72 -3 c-66 -3 -72 -5 -75 -25 -3 -17 -10 -23 -28 -23 -22 0 -24 4 -24 50 0
47 2 50 25 50 20 0 25 5 25 25 l0 25 -125 0 -125 0 0 -25 c0 -34 -47 -37 -52
-2 -3 21 -7 22 -130 25 l-128 3 0 -26 c0 -20 5 -25 25 -25 34 0 37 -47 3 -52
-15 -2 -24 -11 -26 -25 -3 -19 1 -23 22 -23 21 0 26 -5 26 -25 0 -20 5 -25 25
-25 20 0 25 5 25 25 0 20 -5 25 -25 25 -20 0 -25 5 -25 25 0 20 5 25 25 25 20
0 25 5 25 25 0 25 1 25 80 25 79 0 80 0 80 -25 0 -20 -5 -25 -25 -25 -20 0
-25 -5 -25 -24 0 -19 -6 -25 -27 -28 -22 -2 -29 -9 -31 -30 -3 -22 -9 -28 -28
-28 -19 0 -24 -5 -24 -26 0 -21 -4 -25 -22 -22 -15 2 -24 11 -26 26 -3 16 -10
22 -28 22 l-24 0 0 -125 0 -125 25 0 c24 0 25 2 25 75 0 73 1 75 25 75 23 0
25 -3 25 -50 0 -47 2 -50 25 -50 20 0 25 -5 25 -25 0 -24 3 -25 55 -25 52 0
55 1 55 25 0 24 -3 25 -55 25 -52 0 -55 1 -55 25 l0 25 105 0 105 0 0 -25 c0
-20 -5 -25 -25 -25 -20 0 -25 -5 -25 -25 0 -20 5 -25 25 -25 20 0 25 5 25 25
0 20 5 25 25 25 24 0 25 -2 25 -75 0 -73 1 -75 25 -75 20 0 25 -5 25 -25 0
-20 -5 -25 -25 -25 l-25 0 0 -130 0 -130 50 0 c47 0 50 2 50 25 0 20 -5 25
-25 25 -25 0 -25 1 -25 80 0 79 0 80 25 80 23 0 25 -3 25 -50 0 -47 2 -50 25
-50 23 0 25 3 25 50 0 46 2 50 25 50 23 0 24 -3 27 -77 l3 -78 47 -3 c39 -3
47 -6 50 -25 3 -19 9 -22 53 -22 44 0 50 3 53 23 3 16 10 22 28 22 19 0 24 -5
24 -26 0 -21 4 -25 23 -22 14 2 23 11 25 25 2 14 11 23 25 25 14 2 23 11 25
26 3 22 1 22 -97 22 l-101 0 0 30 0 30 75 0 c73 0 75 1 75 25 0 20 5 25 25 25
23 0 25 -3 25 -50 0 -47 2 -50 25 -50 21 0 25 -5 25 -30 0 -25 4 -30 25 -30
20 0 25 -5 25 -25 l0 -25 100 0 c99 0 100 0 100 24 0 18 -6 25 -22 28 -15 2
-24 11 -26 25 -2 14 -11 23 -25 25 -16 2 -23 11 -25 31 -3 23 0 27 22 27 21 0
26 -5 26 -25 0 -20 5 -25 25 -25 23 0 25 3 25 51 l0 50 -47 -3 c-41 -3 -48 -6
-51 -25 -2 -14 -11 -23 -25 -25 -16 -2 -23 -11 -25 -30 -3 -22 -9 -28 -28 -28
-20 0 -24 5 -24 30 0 25 4 30 25 30 24 0 25 2 25 75 l0 75 75 0 75 0 0 125 0
125 -75 0 c-73 0 -75 -1 -75 -25 0 -20 5 -25 25 -25 20 0 25 -5 25 -25 0 -20
5 -25 25 -25 23 0 25 -3 25 -50 l0 -50 -50 0 c-47 0 -50 -2 -50 -25 0 -20 -5
-25 -25 -25 -23 0 -25 3 -25 50 0 47 2 50 25 50 20 0 25 5 25 25 l0 25 -125 0
-125 0 0 25 c0 23 3 25 50 25 47 0 50 2 50 25 0 20 5 25 25 25 20 0 25 -5 25
-25 0 -20 5 -25 25 -25 23 0 25 3 25 50 0 47 2 50 25 50 20 0 25 5 25 25 0 23
-3 25 -50 25 -49 0 -50 1 -50 30 0 25 4 30 25 30 23 0 25 3 25 50 0 47 2 50
25 50 20 0 25 5 25 25 0 20 -5 25 -25 25 -20 0 -25 -5 -25 -25 0 -20 -5 -25
-25 -25 -20 0 -25 5 -25 25 0 20 -5 25 -25 25 -20 0 -25 -5 -25 -25 0 -20 -5
-25 -25 -25 -20 0 -25 5 -25 25 0 20 -5 25 -25 25 -23 0 -25 3 -25 50 0 47 -2
50 -25 50 -23 0 -25 -3 -25 -50z m-460 -125 c0 -20 -5 -25 -25 -25 -20 0 -25
-5 -25 -25 0 -23 3 -25 50 -25 47 0 50 2 50 25 0 20 5 25 25 25 20 0 25 -5 25
-25 0 -20 -5 -25 -25 -25 -24 0 -25 -3 -25 -55 l0 -55 50 0 50 0 0 -50 c0 -47
2 -50 25 -50 23 0 25 3 25 49 0 44 -3 50 -22 53 -32 4 -33 52 -1 56 17 3 22
-2 25 -25 2 -20 9 -29 25 -31 14 -2 23 -11 25 -25 2 -14 11 -23 25 -25 14 -2
23 -11 25 -25 3 -19 9 -22 53 -22 44 0 50 3 53 22 3 20 -2 22 -50 25 -46 3
-53 6 -56 25 -2 14 -11 23 -25 25 -19 3 -22 9 -22 53 0 44 3 50 22 53 20 3 22
-2 25 -50 l3 -53 103 -3 102 -3 0 -49 c0 -47 -2 -50 -25 -50 -20 0 -25 -5 -25
-25 0 -20 -5 -25 -25 -25 -20 0 -25 -5 -25 -25 0 -20 5 -25 25 -25 20 0 25 -5
25 -25 0 -20 -5 -25 -25 -25 -20 0 -25 5 -25 25 0 21 -5 25 -30 25 -25 0 -30
-4 -30 -25 0 -24 -2 -25 -75 -25 -73 0 -75 -1 -75 -25 0 -20 -5 -25 -25 -25
-20 0 -25 5 -25 25 0 20 -5 25 -25 25 -20 0 -25 5 -25 25 0 20 5 25 25 25 20
0 25 5 25 25 0 23 -3 25 -50 25 -47 0 -50 2 -50 25 0 20 -5 25 -25 25 -20 0
-25 5 -25 25 0 20 -5 25 -25 25 -20 0 -25 5 -25 25 0 20 -5 25 -25 25 -20 0
-25 -5 -25 -26 0 -22 -4 -25 -27 -22 -26 3 -28 6 -28 53 0 47 2 50 28 53 25 3
27 6 27 53 0 46 2 49 25 49 20 0 25 5 25 25 0 20 5 25 25 25 20 0 25 -5 25
-25z m660 -25 c0 -47 -2 -50 -25 -50 -23 0 -25 3 -25 50 0 47 2 50 25 50 23 0
25 -3 25 -50z m0 -435 l0 -75 -75 0 -75 0 0 75 0 75 75 0 75 0 0 -75z m-360
-50 c0 -20 -5 -25 -25 -25 -20 0 -25 5 -25 25 0 20 5 25 25 25 20 0 25 -5 25
-25z m108 -2 c2 -14 11 -23 25 -25 14 -2 23 -11 25 -25 3 -19 -1 -23 -22 -23
-18 0 -25 6 -28 23 -2 16 -11 23 -30 25 -22 3 -28 8 -28 28 0 22 4 25 28 22
19 -2 28 -9 30 -25z m-58 -98 c0 -20 -5 -25 -25 -25 -18 0 -25 5 -25 18 0 24
8 32 32 32 13 0 18 -7 18 -25z m55 -105 c0 -20 -6 -26 -27 -28 -24 -3 -28 0
-28 21 0 30 9 39 35 35 14 -2 20 -10 20 -28z"/>
<path d="M7030 3844 c0 -21 4 -25 23 -22 14 2 23 11 25 26 3 18 -1 22 -22 22
-21 0 -26 -5 -26 -26z"/>
<path d="M7330 3670 l0 -50 50 0 c47 0 50 2 50 25 0 20 -5 25 -25 25 -20 0
-25 5 -25 25 0 20 -5 25 -25 25 -23 0 -25 -3 -25 -50z"/>
<path d="M7230 3595 c0 -20 5 -25 25 -25 20 0 25 5 25 25 0 20 -5 25 -25 25
-20 0 -25 -5 -25 -25z"/>
<path d="M7640 3545 c0 -20 5 -25 25 -25 20 0 25 5 25 25 0 20 -5 25 -25 25
-20 0 -25 -5 -25 -25z"/>
<path d="M10405 4143 c-24 -6 -32 -17 -45 -65 -13 -47 -38 -55 -89 -28 -48 24
-94 26 -112 4 -8 -9 -14 -40 -14 -68 0 -60 -15 -68 -75 -41 -47 21 -67 17 -93
-17 -20 -27 -20 -29 -4 -63 22 -46 21 -68 -2 -89 -15 -14 -29 -16 -64 -11 -40
6 -46 4 -66 -20 -28 -36 -27 -45 9 -90 40 -51 39 -79 -2 -95 -55 -20 -63 -26
-72 -60 -9 -29 -7 -35 13 -49 12 -9 37 -28 54 -43 l32 -28 -43 -40 c-38 -35
-43 -45 -40 -78 3 -35 6 -38 52 -53 65 -20 74 -35 53 -91 -22 -58 -21 -70 6
-96 18 -17 36 -22 74 -22 57 0 65 -9 56 -64 -12 -74 49 -115 111 -76 45 27 72
15 82 -35 7 -40 45 -75 80 -75 13 0 37 15 57 36 43 46 72 42 108 -13 40 -62
100 -57 113 9 6 31 32 68 47 68 5 0 23 -13 42 -29 65 -57 113 -48 123 24 14
102 28 116 90 85 48 -25 71 -25 84 -1 13 25 13 78 0 86 -16 10 -12 62 6 69 9
3 31 6 50 6 37 0 84 36 84 64 0 9 -14 35 -30 59 -19 26 -29 49 -25 59 6 15 72
45 79 36 2 -1 8 -21 13 -43 10 -44 5 -42 123 -33 34 3 35 2 47 -44 15 -64 19
-68 58 -68 27 0 40 8 69 41 l35 42 47 -32 c53 -35 53 -35 88 -21 36 13 42 49
17 96 -35 65 -24 83 50 84 30 0 59 28 59 56 0 25 -7 33 -52 67 -45 33 -46 45
-13 85 30 36 32 63 5 87 -16 14 -29 16 -75 10 -66 -8 -85 3 -85 50 0 38 -26
65 -63 65 -21 0 -31 -8 -46 -39 -27 -51 -48 -58 -81 -26 -33 31 -64 32 -94 1
-22 -21 -23 -27 -14 -68 15 -65 7 -78 -45 -78 -50 0 -67 -13 -67 -51 0 -25 42
-79 61 -79 5 0 13 -10 20 -21 9 -17 8 -25 -5 -37 -15 -15 -16 -14 -16 10 0 18
-13 36 -45 62 -55 46 -59 76 -15 131 54 67 34 125 -43 125 -66 0 -72 10 -37
61 56 82 30 129 -70 129 l-60 0 0 60 c0 57 -2 60 -31 76 -30 15 -34 15 -80 -6
-26 -13 -54 -20 -63 -17 -8 3 -18 25 -22 53 -10 72 -63 109 -96 68 -66 -81
-94 -84 -128 -11 -25 52 -37 60 -75 50z m42 -25 c6 -7 13 -26 17 -43 11 -44
24 -55 67 -55 38 0 60 14 79 51 13 23 55 25 64 3 3 -9 6 -30 6 -48 0 -18 5
-37 12 -44 17 -17 79 -15 106 4 12 8 32 14 45 12 20 -3 22 -9 25 -68 4 -86 12
-94 83 -86 45 5 60 3 73 -9 22 -22 20 -32 -9 -71 -14 -18 -25 -40 -25 -50 0
-30 31 -54 70 -54 69 0 78 -38 25 -107 -19 -25 -35 -54 -35 -65 0 -10 20 -41
45 -67 55 -59 58 -86 12 -95 -45 -8 -77 -33 -77 -59 0 -12 11 -39 25 -59 45
-66 25 -98 -60 -98 -26 0 -39 -6 -51 -25 -15 -23 -15 -28 7 -80 29 -70 18 -88
-36 -62 -48 23 -98 22 -119 -2 -10 -11 -21 -44 -25 -73 -8 -65 -26 -72 -78
-29 -21 17 -46 31 -56 31 -26 0 -67 -45 -67 -73 0 -54 -53 -61 -80 -12 -9 16
-31 38 -48 48 -31 18 -33 18 -59 1 -15 -9 -36 -26 -47 -36 -41 -37 -86 -17
-86 39 0 38 -29 73 -60 73 -11 0 -39 -12 -61 -27 -36 -24 -41 -25 -56 -11 -12
13 -13 24 -5 64 7 30 7 50 1 52 -5 2 -9 11 -9 19 0 9 -6 13 -15 9 -8 -3 -15
-1 -15 5 0 6 -19 10 -42 9 -24 -1 -51 -1 -60 -1 -28 2 -32 38 -8 76 12 20 20
46 18 62 -3 28 -27 45 -105 74 -18 6 -33 18 -33 26 0 7 18 32 41 54 33 32 40
45 37 71 -2 26 -11 36 -43 52 -22 12 -41 29 -43 39 -5 25 16 47 44 47 65 0 84
80 33 137 -45 52 -37 67 40 74 78 8 107 33 96 84 -17 82 -17 91 0 105 15 12
22 11 57 -9 34 -19 44 -21 68 -11 30 12 47 60 34 94 -7 18 21 56 41 56 7 0 27
-13 45 -30 18 -16 41 -30 51 -30 27 0 80 51 83 80 1 14 6 31 10 38 9 16 41 15
53 0z m1037 -426 c19 -56 48 -76 120 -80 76 -5 86 -18 51 -61 -42 -49 -32
-104 21 -121 40 -14 61 -44 44 -65 -6 -7 -34 -16 -63 -20 -29 -4 -55 -13 -59
-19 -13 -20 -9 -56 12 -96 25 -49 25 -47 -6 -54 -18 -5 -38 1 -69 19 -57 33
-69 32 -100 -10 -33 -43 -64 -54 -82 -29 -7 10 -13 28 -13 40 0 27 -44 64 -74
64 -11 0 -29 -7 -39 -15 -44 -33 -63 16 -27 70 30 45 26 79 -14 112 -69 58
-66 92 9 100 56 7 63 19 46 81 -10 39 -9 47 5 63 24 26 41 24 80 -11 30 -26
37 -28 59 -18 14 6 25 14 25 17 0 17 42 72 52 69 6 -2 16 -18 22 -36z"/>
<path d="M10317 3910 c-31 -10 -89 -37 -127 -59 -139 -83 -134 -127 25 -213
28 -15 67 -37 88 -48 l38 -21 35 22 c62 38 68 55 61 187 -5 104 -8 119 -27
134 -26 21 -21 21 -93 -2z m93 -29 c11 -22 12 -118 2 -196 -6 -45 -11 -52 -44
-70 l-37 -19 -43 30 c-24 17 -68 45 -99 62 -66 38 -77 56 -51 91 32 43 184
118 244 120 10 1 22 -8 28 -18z"/>
<path d="M10557 3923 c-29 -7 -37 -46 -37 -186 l0 -133 47 -17 47 -17 85 42
c94 47 161 104 161 136 0 27 -64 79 -160 130 -78 41 -113 52 -143 45z m111
-48 c72 -33 141 -84 157 -116 12 -22 12 -29 -2 -49 -19 -27 -189 -110 -226
-110 -35 0 -44 35 -50 183 l-4 117 36 0 c20 0 60 -11 89 -25z"/>
<path d="M10002 3618 c-21 -26 -32 -96 -32 -200 0 -166 22 -189 133 -142 148
62 187 97 187 166 0 53 -36 88 -149 146 -85 43 -121 51 -139 30z m103 -38 c24
-17 64 -39 89 -50 63 -26 82 -59 67 -110 -14 -46 -63 -84 -154 -118 -76 -29
-95 -28 -107 4 -24 62 -3 258 31 287 27 22 23 22 74 -13z"/>
<path d="M10855 3620 c-4 -6 -47 -31 -96 -56 -95 -47 -109 -64 -109 -130 0
-24 4 -34 16 -34 8 0 13 -4 10 -9 -11 -17 108 -97 201 -136 48 -20 50 -20 69
16 36 70 27 296 -13 341 -17 19 -68 24 -78 8z m82 -57 c12 -30 14 -60 10 -148
-7 -125 -12 -145 -37 -145 -30 0 -178 79 -200 107 -14 19 -20 40 -20 79 l0 54
88 44 c111 57 138 59 159 9z"/>
<path d="M10415 3485 c-53 -52 -13 -130 64 -123 27 2 41 11 58 37 13 19 23 42
23 52 0 58 -99 81 -145 34z m103 -7 c20 -20 13 -55 -14 -77 -33 -26 -49 -26
-73 -2 -26 26 -16 59 23 76 40 17 49 18 64 3z"/>
<path d="M10232 3256 c-46 -24 -94 -54 -107 -66 -68 -64 -22 -141 128 -210 79
-37 135 -46 162 -27 18 14 20 27 20 148 l0 133 -43 33 c-24 18 -51 33 -60 33
-9 0 -55 -20 -100 -44z m152 -17 c27 -21 27 -21 24 -142 l-3 -122 -45 1 c-89
1 -240 100 -240 158 0 41 140 124 211 126 15 0 38 -9 53 -21z"/>
<path d="M10560 3275 c-19 -14 -37 -31 -42 -37 -4 -7 -8 -66 -8 -131 0 -112 1
-119 25 -142 13 -14 34 -25 47 -25 54 0 243 113 268 161 6 10 7 24 4 33 -9 23
-225 166 -251 166 -5 0 -24 -11 -43 -25z m147 -56 c135 -71 150 -99 81 -150
-60 -43 -173 -99 -202 -99 -42 0 -49 20 -44 141 3 102 5 113 27 130 33 27 50
24 138 -22z"/>
<path d="M11370 3488 c-31 -33 -28 -102 5 -124 22 -14 32 -15 65 -5 36 11 80
51 80 73 0 6 -15 25 -34 44 -41 41 -85 45 -116 12z m104 -27 c24 -27 13 -55
-30 -76 -32 -15 -37 -15 -60 -1 -27 19 -28 22 -13 65 10 27 15 31 48 31 25 0
44 -7 55 -19z"/>
<path d="M7890 4055 c0 -20 5 -25 25 -25 20 0 25 -5 25 -25 0 -20 5 -25 25
-25 20 0 25 5 25 25 0 20 -5 25 -25 25 -20 0 -25 5 -25 25 0 20 -5 25 -25 25
-20 0 -25 -5 -25 -25z"/>
<path d="M7840 3955 c0 -20 5 -25 25 -25 20 0 25 5 25 25 0 20 -5 25 -25 25
-20 0 -25 -5 -25 -25z"/>
<path d="M13957 3920 c-309 -58 -514 -177 -671 -390 -97 -131 -185 -401 -200
-610 -3 -41 -8 -111 -11 -155 -15 -209 -80 -515 -141 -662 -79 -190 -122 -256
-165 -251 -25 2 -35 -7 -91 -82 -138 -186 -238 -333 -238 -352 0 -6 -25 -44
-55 -83 -57 -74 -64 -92 -43 -113 22 -22 45 -14 52 18 3 17 12 33 21 36 19 8
65 -22 65 -41 0 -18 -45 -49 -59 -41 -22 14 -21 -18 1 -41 l25 -24 77 55 c43
31 81 56 85 57 3 0 17 1 31 3 14 1 55 18 92 39 116 65 336 215 348 237 15 29
-2 78 -41 118 -58 60 -73 55 -224 -72 -44 -37 -113 -95 -154 -129 -40 -34 -83
-75 -95 -90 -20 -25 -24 -27 -36 -13 -11 14 -8 18 16 27 16 6 67 54 113 107
46 54 111 126 145 162 101 107 97 102 84 138 -11 28 -9 35 20 76 57 79 131
261 172 421 25 102 60 289 60 329 0 26 10 13 56 -74 54 -104 141 -227 186
-264 13 -11 55 -49 93 -84 39 -36 103 -87 143 -113 210 -140 401 -192 712
-193 l185 0 125 42 c127 42 267 108 348 164 l45 31 -54 -78 c-123 -176 -415
-493 -521 -564 -46 -30 -49 -31 -77 -16 -17 8 -34 15 -40 15 -27 0 -349 -304
-357 -337 -7 -27 -17 -29 -34 -8 -10 12 -9 16 7 22 11 5 60 58 108 118 49 61
112 138 142 173 29 35 53 70 53 77 0 22 -96 93 -136 101 -41 8 -36 12 -128
-136 -79 -129 -137 -240 -130 -251 3 -5 -25 -54 -61 -110 l-67 -100 22 -24
c22 -23 53 -24 44 -2 -2 7 6 25 19 40 l22 29 28 -22 28 -22 -22 -24 c-12 -12
-31 -24 -42 -26 -30 -4 -31 -23 -3 -41 23 -15 26 -15 69 13 24 17 65 48 90 70
25 22 53 40 62 40 9 0 62 32 118 70 265 183 287 201 288 234 0 13 23 39 62 69
186 145 425 405 552 602 50 76 64 103 148 275 21 41 51 101 68 133 115 217
149 509 83 717 -26 85 -90 210 -143 282 -52 70 -176 194 -252 251 -125 94
-381 207 -561 247 -115 26 -322 26 -461 0z m396 0 c164 -24 449 -141 597 -245
72 -50 205 -177 258 -245 45 -58 132 -231 153 -305 19 -67 23 -103 23 -220 0
-77 -6 -165 -12 -195 -15 -66 -63 -222 -67 -218 -2 2 10 57 26 123 24 99 30
144 31 255 1 83 -3 156 -11 190 -16 69 -106 259 -159 336 -45 66 -164 185
-232 231 -147 100 -393 213 -535 246 -141 33 -361 30 -520 -7 -143 -33 -281
-88 -374 -150 -74 -49 -214 -189 -256 -256 -15 -23 -29 -39 -32 -36 -9 9 67
113 141 193 91 98 199 171 326 221 188 74 459 108 643 82z m-40 -41 c198 -29
431 -125 630 -257 231 -154 407 -462 407 -713 0 -198 -65 -449 -178 -689 -107
-227 -327 -504 -575 -723 -117 -103 -145 -121 -162 -107 -21 18 -19 23 17 45
100 59 344 314 503 527 148 197 300 538 324 728 29 233 21 350 -37 495 -104
260 -206 359 -557 539 -262 135 -574 152 -890 49 -277 -89 -485 -291 -576
-557 -68 -200 -75 -399 -19 -543 70 -184 225 -391 380 -510 163 -125 373 -205
609 -233 205 -25 396 11 631 118 72 33 196 127 273 207 l38 40 -30 -60 c-46
-93 -124 -157 -289 -236 -194 -93 -344 -125 -549 -115 -370 16 -596 114 -854
368 -111 110 -216 280 -269 437 -27 83 -40 216 -29 308 18 142 95 338 181 457
54 75 174 199 233 241 190 133 557 219 788 184z m63 -69 c109 -14 227 -56 359
-127 309 -168 390 -252 494 -514 51 -130 61 -299 30 -494 -12 -74 -55 -217
-80 -266 -44 -88 -166 -212 -292 -298 -109 -74 -351 -154 -505 -167 -225 -19
-542 65 -747 198 -188 121 -393 402 -440 603 -37 156 2 415 88 580 116 221
279 355 528 434 209 66 347 78 565 51z m-1255 -1185 c0 -188 -125 -618 -219
-754 -43 -62 -50 -67 -77 -47 -18 13 -18 14 6 43 61 72 142 260 184 428 31
122 75 381 76 450 l0 50 15 -50 c8 -27 14 -81 15 -120z m-338 -794 c31 -12 97
-69 97 -85 0 -6 -22 -34 -48 -61 -26 -28 -76 -84 -112 -125 -108 -124 -173
-190 -187 -190 -7 0 -27 13 -45 29 l-33 29 60 86 c33 47 98 139 145 205 46 67
87 121 91 121 4 0 19 -4 32 -9z m246 -202 c32 -31 45 -64 39 -95 -6 -33 -386
-274 -432 -274 -16 0 -56 54 -56 76 0 9 69 72 205 186 108 90 174 137 192 138
12 0 35 -14 52 -31z m1153 -69 c75 -50 75 -48 5 -131 -34 -41 -100 -120 -145
-176 -46 -57 -89 -103 -96 -103 -17 0 -66 53 -66 71 0 13 27 63 152 279 59
102 76 109 150 60z m223 -155 c52 -53 48 -75 -30 -132 -100 -75 -278 -199
-303 -212 -19 -10 -26 -8 -47 13 -14 14 -25 31 -25 38 1 18 108 130 215 224
49 43 96 85 103 92 23 21 50 14 87 -23z m-1919 -23 c32 -27 39 -74 16 -95 -18
-17 -21 -17 -51 0 l-32 18 -25 -28 c-13 -16 -22 -33 -19 -38 8 -11 -6 -11 -24
0 -12 7 -6 19 26 58 22 26 48 60 58 76 20 32 23 32 51 9z m98 -91 c10 -11 16
-24 15 -30 -2 -6 -38 -32 -79 -59 -59 -39 -78 -47 -89 -38 -12 9 -11 12 5 14
28 6 65 43 62 63 -3 19 38 69 57 69 7 0 20 -9 29 -19z m1342 -169 c12 -29 12
-36 -2 -58 -17 -25 -38 -31 -49 -14 -18 30 -85 -12 -85 -54 0 -19 -1 -19 -17
-3 -16 16 -15 20 25 74 23 32 50 73 59 90 16 31 17 32 36 16 10 -10 25 -33 33
-51z m80 -49 c7 -10 14 -21 14 -24 0 -7 -118 -102 -146 -117 -12 -6 -26 -7
-35 -1 -12 7 -11 9 2 9 25 0 69 39 69 62 0 32 45 81 79 87 2 1 10 -7 17 -16z"/>
<path d="M12465 1320 c-8 -14 3 -30 21 -30 8 0 14 9 14 20 0 21 -24 28 -35 10z"/>
<path d="M13874 1099 c-3 -6 0 -17 7 -25 18 -17 44 -2 36 20 -7 18 -33 21 -43
5z"/>
<path d="M7892 3848 c3 -20 10 -23 51 -26 45 -3 47 -2 47 22 0 24 -3 26 -51
26 -47 0 -50 -2 -47 -22z"/>
<path d="M6722 3393 l3 -178 175 0 175 0 3 178 2 177 -180 0 -180 0 2 -177z
m306 0 l-3 -128 -125 0 -125 0 -3 128 -3 127 131 0 131 0 -3 -127z"/>
<path d="M6827 3464 c-4 -4 -7 -38 -7 -76 l0 -68 80 0 81 0 -3 73 -3 72 -70 3
c-39 1 -74 0 -78 -4z"/>
<path d="M1035 1615 c-82 -68 -153 -125 -156 -125 -4 0 -19 -34 -34 -75 l-27
-75 30 -163 c17 -89 34 -181 37 -205 4 -26 15 -48 27 -56 11 -8 80 -33 152
-56 72 -23 171 -55 219 -71 49 -16 94 -26 101 -21 7 4 77 64 157 134 125 109
149 136 174 188 l29 60 -48 222 c-26 122 -51 227 -57 234 -5 6 -29 17 -53 23
-24 6 -115 33 -203 61 -88 27 -169 50 -179 50 -11 -1 -86 -57 -169 -125z m302
46 c48 -16 127 -40 175 -55 48 -14 90 -31 93 -36 3 -5 15 -54 25 -107 11 -54
28 -137 38 -185 l20 -86 -42 -39 c-62 -59 -256 -228 -266 -231 -7 -3 -370 115
-378 122 -5 5 -73 389 -70 397 5 14 292 248 305 248 6 1 51 -12 100 -28z
m-407 -510 c14 -79 19 -126 12 -133 -8 -8 -22 50 -58 259 -4 18 -3 41 1 50 9
22 14 2 45 -176z m211 -197 c210 -71 205 -68 176 -107 -11 -16 -24 -14 -172
34 -88 28 -164 55 -169 60 -11 10 8 59 23 59 5 0 69 -20 142 -46z"/>
<path d="M1174 1582 c-54 -26 -112 -85 -137 -141 -61 -132 9 -308 149 -377 74
-36 179 -39 240 -7 61 32 101 69 132 122 23 40 27 56 27 126 -1 88 -18 134
-76 200 -57 65 -111 89 -208 92 -69 3 -94 0 -127 -15z m209 -33 c81 -22 157
-121 157 -204 l0 -40 -30 54 c-39 71 -55 87 -115 122 -40 23 -62 29 -113 29
-70 0 -109 -15 -159 -63 -44 -42 -42 -27 4 24 70 77 160 105 256 78z m42 -113
c94 -72 81 -237 -24 -311 -36 -25 -53 -30 -114 -33 -59 -2 -78 1 -105 18 -65
41 -91 153 -53 236 21 45 81 100 126 114 51 16 132 4 170 -24z"/>
<path d="M7193 1381 c-136 -72 -162 -108 -182 -255 -5 -37 -11 -69 -13 -70 -2
-1 -22 -10 -45 -20 -45 -20 -59 -41 -98 -151 -24 -64 -60 -102 -81 -84 -9 7
-13 21 -10 34 3 13 -1 36 -9 53 -26 50 -352 202 -406 189 -13 -3 -54 -31 -91
-61 -99 -82 -104 -140 -16 -184 103 -51 268 -120 325 -137 l62 -18 47 42 c26
23 58 44 71 46 13 3 34 7 47 10 30 6 54 39 91 129 32 77 60 113 90 118 19 3
20 -2 17 -62 -1 -36 -8 -89 -13 -118 -17 -85 -10 -96 79 -130 42 -17 97 -35
122 -42 68 -17 360 -108 404 -126 31 -12 45 -12 73 -3 18 6 40 8 47 6 17 -7
155 129 161 158 2 11 6 42 9 69 4 27 8 51 10 53 2 2 31 -3 66 -11 75 -18 102
-10 119 36 32 83 25 78 82 71 41 -5 51 -3 47 7 -8 25 -52 50 -99 56 -45 6 -46
5 -53 -22 -23 -95 -27 -104 -46 -104 -30 0 -98 30 -104 46 -6 16 20 188 34
221 8 20 4 26 -37 54 -25 18 -83 48 -127 66 -44 19 -85 38 -91 43 -5 4 -37 15
-71 23 -34 9 -89 30 -123 47 -33 17 -72 33 -86 36 -13 2 -36 9 -50 14 -45 17
-78 11 -152 -29z m186 -17 c14 -8 31 -14 37 -14 6 0 51 -17 100 -38 49 -22
151 -65 227 -97 75 -32 137 -61 137 -64 0 -4 -23 -29 -50 -56 l-50 -49 -48 18
c-26 10 -117 43 -202 73 -85 29 -180 65 -209 79 -30 14 -88 34 -129 44 -41 10
-76 20 -78 22 -2 2 40 27 94 55 100 53 116 55 171 27z m-54 -186 c83 -28 214
-76 293 -106 l142 -55 -4 -31 c-3 -17 -20 -114 -38 -215 -41 -231 -37 -226
-170 -183 -51 17 -163 51 -248 77 -205 61 -279 87 -290 100 -9 11 14 207 45
386 8 49 15 93 15 98 0 12 58 -4 255 -71z m575 -100 c-1 -7 -9 -53 -20 -103
-10 -49 -16 -93 -12 -96 4 -4 32 -16 62 -28 30 -12 43 -19 27 -16 -15 3 -47 8
-71 11 -42 6 -44 6 -39 -19 3 -13 0 -49 -6 -79 -10 -46 -20 -62 -68 -109 -46
-44 -54 -50 -49 -29 4 14 12 54 17 90 6 36 20 121 31 190 l21 125 46 37 c50
40 61 45 61 26z m-1511 -46 c-26 -2 -46 -13 -74 -42 -38 -39 -39 -40 -19 -61
10 -12 47 -35 82 -51 62 -28 86 -47 36 -28 -45 18 -184 95 -184 103 0 4 21 22
46 40 25 17 55 40 66 49 16 14 24 15 51 5 l32 -12 -36 -3z m111 -29 l25 -14
-25 7 c-14 4 -36 13 -50 21 l-25 14 25 -7 c14 -4 36 -13 50 -21z m-43 -24 c26
-11 81 -39 121 -61 l74 -40 -33 -28 c-39 -32 -45 -31 -182 31 -121 55 -128 61
-97 94 29 30 53 31 117 4z m258 -100 c0 -8 -24 -36 -52 -62 l-53 -46 -55 19
c-30 10 -63 24 -72 30 -11 7 -12 9 -3 6 8 -2 38 -12 65 -21 l51 -17 42 37 c23
21 42 44 42 51 0 8 -29 32 -65 55 -36 22 -65 43 -65 45 0 3 37 -14 83 -38 49
-26 82 -49 82 -59z m1439 71 c15 -15 -23 -12 -59 6 l-30 14 39 -5 c22 -2 44
-9 50 -15z m-89 -50 c-4 -17 -9 -29 -12 -26 -3 2 -2 19 2 36 4 17 9 29 12 26
3 -2 2 -19 -2 -36z m-1519 -140 c8 0 29 -8 47 -17 25 -13 28 -18 14 -21 -26
-5 -76 13 -239 86 -123 56 -148 71 -148 88 0 20 15 15 156 -57 85 -43 162 -79
170 -79z m147 10 c-25 -27 -48 -50 -49 -50 -2 0 -4 8 -4 18 0 24 57 82 80 82
15 0 10 -10 -27 -50z"/>
<path d="M7264 1088 c-56 -38 -64 -58 -33 -87 24 -22 39 -19 39 8 0 26 20 41
55 41 46 0 80 -21 80 -50 0 -21 -5 -26 -35 -28 -45 -5 -60 -18 -60 -52 0 -52
58 -69 70 -20 4 15 21 32 45 45 66 34 60 90 -17 145 -53 38 -84 38 -144 -2z"/>
<path d="M7294 795 c-8 -21 4 -35 32 -35 17 0 24 6 24 19 0 29 -46 43 -56 16z"/>
<path d="M7804 885 c-12 -48 16 -45 31 3 5 16 2 22 -9 22 -9 0 -18 -11 -22
-25z"/>
</g>
</svg>
