<?xml version="1.0" standalone="no"?>
<!DOCTYPE svg PUBLIC "-//W3C//DTD SVG 20010904//EN"
 "http://www.w3.org/TR/2001/REC-SVG-20010904/DTD/svg10.dtd">
<svg version="1.0" xmlns="http://www.w3.org/2000/svg"
 width="640.000000pt" height="640.000000pt" viewBox="0 0 640.000000 640.000000"
 preserveAspectRatio="xMidYMid meet">

<g transform="translate(0.000000,640.000000) scale(0.100000,-0.100000)"
fill="#000000" stroke="none">
<path d="M2993 6093 c-16 -6 -17 -42 -3 -79 8 -21 14 -24 22 -16 16 16 52 16
42 0 -5 -7 -2 -9 8 -5 14 5 15 1 8 -24 -5 -17 -5 -29 1 -29 5 0 9 7 9 15 0 18
16 20 24 3 3 -7 4 -1 1 15 -4 22 -2 27 14 27 18 0 31 18 31 42 0 6 -9 8 -20 5
-12 -3 -18 -1 -14 5 4 6 -1 8 -13 4 -29 -9 -88 -10 -101 -2 -22 13 -13 28 13
23 16 -3 24 0 22 7 -4 12 -26 17 -44 9z"/>
<path d="M2767 6079 c-31 -5 -76 -14 -100 -20 -23 -7 -49 -13 -57 -15 -110
-19 -279 -85 -390 -153 -8 -5 -35 -19 -60 -31 -25 -12 -79 -45 -120 -73 -41
-28 -115 -78 -165 -111 -106 -70 -127 -87 -220 -175 -75 -72 -179 -201 -214
-266 -12 -22 -44 -76 -71 -120 -27 -44 -50 -84 -50 -88 0 -5 -13 -39 -30 -77
-42 -96 -95 -286 -114 -410 -21 -138 -73 -582 -81 -690 -3 -47 -13 -125 -21
-175 -7 -49 -14 -93 -14 -97 0 -12 -31 -9 -78 7 -37 13 -47 13 -77 1 -67 -28
-95 -129 -95 -346 0 -123 3 -145 27 -216 16 -43 40 -99 54 -124 85 -145 103
-202 118 -368 13 -137 36 -179 124 -220 34 -17 70 -33 80 -36 13 -4 18 -14 16
-33 -2 -16 -1 -33 3 -38 9 -16 22 -78 19 -97 -1 -9 3 -19 9 -23 5 -3 10 -15
10 -26 0 -11 11 -45 26 -76 14 -31 23 -62 20 -69 -3 -7 -1 -16 5 -19 5 -4 7
-11 4 -16 -4 -5 1 -24 11 -41 32 -62 35 -69 29 -77 -2 -5 2 -14 10 -21 8 -7
15 -20 15 -30 0 -10 7 -23 15 -30 8 -7 15 -22 15 -34 0 -12 6 -28 12 -34 10
-10 10 -15 -2 -22 -10 -7 -11 -10 -3 -10 24 0 55 -42 71 -94 17 -54 19 -305 6
-846 l-6 -235 -36 -38 c-47 -49 -215 -177 -267 -204 -22 -12 -62 -28 -90 -37
-27 -9 -80 -37 -118 -63 -52 -35 -80 -47 -125 -53 -31 -4 511 -8 1205 -9 695
0 1262 3 1262 7 -1 4 2 21 6 39 6 25 13 33 34 35 18 2 27 10 29 25 4 24 46 63
68 63 8 0 14 4 14 9 0 6 16 7 35 4 28 -4 35 -2 35 11 0 9 8 16 18 16 10 0 23
5 30 12 19 19 14 -3 -5 -25 -10 -11 -13 -18 -8 -15 67 30 85 39 85 46 0 5 14
19 32 32 25 18 35 21 49 12 13 -9 19 -8 23 4 3 8 2 12 -3 9 -5 -3 -12 -1 -16
5 -3 5 0 10 8 10 18 0 40 47 26 56 -11 6 -41 -14 -35 -25 2 -3 -14 -6 -35 -6
-21 -1 -39 0 -39 1 0 1 16 9 35 18 37 18 39 36 4 36 -10 0 -19 4 -19 10 0 5
12 7 28 4 51 -10 67 -9 64 4 -3 16 21 42 39 42 7 0 21 -7 31 -17 17 -15 19
-15 37 1 22 20 19 70 -6 98 -15 17 -15 18 1 18 9 0 19 7 22 15 4 8 15 15 25
15 10 0 19 5 19 10 0 6 -11 8 -25 4 -20 -5 -25 -2 -25 12 0 9 3 15 6 11 3 -3
19 8 35 24 31 32 49 37 49 13 0 -8 5 -12 10 -9 6 4 8 11 5 16 -4 5 1 12 9 15
9 3 16 12 16 20 0 10 -8 13 -27 9 -27 -6 -27 -6 -9 9 11 9 24 16 29 16 13 0
77 51 77 63 0 5 10 19 23 30 l22 20 -25 -6 c-14 -4 -28 -7 -32 -7 -5 0 -8 -10
-8 -22 0 -26 -9 -19 -15 10 -2 13 1 21 8 19 8 -1 11 10 9 31 -1 17 2 32 8 32
5 0 10 -4 10 -9 0 -5 14 -16 30 -25 26 -12 30 -12 30 0 0 8 -4 14 -10 14 -17
0 -11 28 11 49 14 13 19 26 15 37 -5 14 -4 15 9 4 18 -15 18 -15 34 27 7 17
19 34 27 37 8 3 14 13 14 23 0 10 12 32 28 48 15 16 41 57 57 90 25 49 35 60
54 57 17 -1 21 2 17 15 -5 19 25 63 43 63 6 0 11 7 11 15 0 8 4 15 10 15 5 0
9 3 9 7 -4 23 3 35 16 29 11 -4 15 2 15 22 0 18 13 42 35 66 19 21 35 42 35
47 0 5 5 9 10 9 6 0 10 11 10 24 0 13 7 29 15 36 8 7 15 19 15 27 0 9 6 13 14
10 7 -3 13 0 13 6 -2 32 17 99 29 104 8 3 14 11 14 19 0 8 4 14 9 14 5 0 7 8
4 19 -3 11 2 21 11 24 12 5 16 20 16 60 0 36 5 59 15 67 8 7 15 21 15 31 0 10
4 28 9 41 6 13 13 58 16 101 6 67 11 81 33 102 15 14 22 25 16 25 -5 0 -16 -6
-23 -13 -28 -26 14 395 45 456 8 16 14 32 14 37 0 4 18 26 40 49 45 46 45 48
25 75 -19 25 -20 71 -2 60 6 -5 4 3 -6 16 -50 71 -57 86 -57 138 0 28 -4 52
-8 52 -4 0 -8 -32 -9 -70 -1 -76 -22 -190 -35 -190 -5 0 -8 -10 -7 -22 4 -39
-3 -134 -8 -115 -2 9 -9 17 -14 17 -6 0 -7 -4 -4 -10 3 -5 0 -22 -8 -37 -8
-15 -17 -52 -20 -82 -4 -29 -10 -58 -15 -65 -5 -6 -8 -37 -7 -69 0 -36 -3 -57
-10 -57 -8 0 -10 -20 -7 -61 4 -49 2 -60 -8 -54 -10 6 -11 3 -7 -13 11 -36 18
-68 11 -54 -3 6 -12 12 -20 12 -8 0 -14 4 -14 8 0 12 -44 62 -54 62 -4 0 7
-18 24 -40 18 -23 30 -44 26 -47 -3 -3 0 -13 7 -21 9 -13 9 -14 0 -8 -17 9
-16 3 2 -41 22 -53 18 -63 -9 -18 -12 22 -27 39 -33 38 -6 -1 -19 24 -29 55
-23 71 -30 45 -10 -34 8 -33 12 -72 9 -88 l-6 -28 -18 40 c-10 22 -25 42 -34
46 -13 5 -13 2 1 -20 9 -13 14 -27 11 -30 -9 -9 -34 49 -30 68 2 9 -1 19 -6
23 -17 10 -13 25 4 19 19 -8 19 10 0 30 -8 8 -15 25 -15 38 0 15 -9 27 -28 36
-23 11 -29 10 -40 -5 -16 -23 -14 -23 -43 10 -21 25 -27 27 -52 18 -38 -15
-74 -14 -80 2 -3 9 -9 9 -26 -1 -11 -7 -21 -9 -21 -4 0 8 -25 23 -72 42 -16 7
-28 15 -28 20 0 4 -13 10 -29 13 -18 4 -30 14 -34 27 -3 12 -14 24 -25 27 -11
3 -22 14 -25 25 -3 11 -15 22 -26 25 -12 3 -21 12 -21 19 0 8 -7 14 -15 14 -8
0 -15 9 -15 20 0 11 -7 23 -16 27 -9 3 -35 23 -57 45 -22 21 -46 38 -52 38 -7
0 -20 11 -29 25 -9 14 -24 25 -32 25 -9 0 -36 18 -61 40 -25 22 -51 40 -58 40
-7 0 -18 7 -25 15 -7 8 -21 15 -31 15 -11 0 -19 6 -19 14 0 13 -28 26 -57 26
-21 0 -15 -39 18 -107 19 -40 32 -83 32 -111 2 -35 7 -49 20 -54 9 -4 20 -21
23 -38 4 -17 11 -27 17 -23 6 4 8 0 4 -11 -4 -10 -1 -19 8 -22 8 -3 17 -14 20
-25 4 -10 15 -19 25 -19 12 0 21 -10 25 -29 3 -16 15 -37 26 -47 19 -17 27
-50 9 -39 -7 4 -7 -3 0 -20 25 -64 -11 -77 -48 -17 -14 23 -21 30 -20 17 2
-12 -2 -19 -9 -18 -7 2 -13 -1 -13 -6 0 -14 -38 -1 -44 15 -3 7 -12 11 -21 8
-9 -4 -15 -1 -15 7 -1 8 -19 27 -41 42 -23 16 -38 23 -34 18 11 -19 -9 -11
-40 14 -19 17 -26 28 -19 33 20 13 114 131 114 142 0 7 -8 9 -20 5 -11 -4 -20
-2 -20 4 0 6 -7 11 -16 11 -9 0 -29 10 -46 21 -33 24 -88 21 -118 -6 -34 -31
-81 -29 -133 5 -26 18 -54 29 -63 26 -8 -3 -17 1 -20 8 -3 8 -15 14 -27 15
-55 2 -80 9 -89 24 -5 9 -15 17 -22 17 -21 0 -67 51 -73 82 -5 26 -23 40 -23
18 0 -5 -4 -10 -9 -10 -4 0 -6 11 -3 25 2 14 8 25 12 25 5 0 12 9 15 20 5 14
0 26 -16 38 -18 16 -20 22 -10 40 13 25 31 29 31 7 0 -8 -5 -15 -11 -15 -5 0
-7 -5 -4 -10 10 -16 25 -1 25 26 0 13 5 24 11 24 6 0 9 9 6 20 -4 14 0 20 12
20 23 0 44 36 33 57 -6 10 -6 29 0 49 5 21 5 63 -3 116 -6 46 -12 97 -13 115
-2 17 -8 38 -14 46 -12 14 -9 207 3 228 4 6 0 18 -9 28 -16 18 -12 56 5 45 12
-7 11 19 -1 34 -7 9 -7 9 2 2 16 -13 31 -13 23 1 -4 5 0 18 8 27 20 22 30 101
15 119 -7 9 -7 13 1 13 17 0 13 35 -7 60 -19 24 -42 20 -42 -6 0 -8 -4 -14
-10 -14 -13 0 -13 17 0 25 18 11 0 25 -24 19 -21 -5 -23 -3 -18 22 3 19 1 25
-7 20 -6 -4 -11 -17 -11 -29 0 -17 -8 -10 -32 28 -17 28 -41 61 -54 74 -13 13
-24 28 -24 32 0 5 -4 9 -10 9 -5 0 -6 -8 -3 -17 6 -16 5 -16 -11 -4 -11 9 -13
17 -6 21 7 4 3 14 -11 26 -22 19 -22 19 -15 -3 4 -12 2 -24 -4 -28 -5 -3 -10
-2 -10 3 0 12 -76 53 -83 45 -9 -8 -47 7 -47 19 0 5 7 8 15 4 33 -12 11 11
-44 47 -34 22 -70 37 -87 37 -17 0 -34 3 -38 7 -8 9 -31 13 -75 16 -19 1 -36
7 -38 12 -2 7 13 9 39 7 31 -3 40 -1 33 7 -6 6 -37 13 -69 16 -31 3 -62 7 -67
10 -5 4 -9 0 -9 -7 0 -9 -3 -9 -8 -2 -4 6 -15 14 -26 17 -12 5 -16 13 -12 24
4 9 0 23 -8 32 -23 27 -30 61 -12 61 9 0 16 7 16 15 0 8 7 15 15 15 27 0 16
18 -15 25 -16 4 -30 11 -30 17 0 5 12 7 30 3 30 -7 38 5 30 40 -1 6 -3 16 -4
23 -1 8 -9 18 -17 23 -12 8 -11 11 3 19 20 12 15 34 -14 66 -14 16 -16 24 -8
29 7 4 17 2 23 -4 6 -6 18 -11 26 -10 11 0 12 2 4 6 -17 6 -17 40 -1 45 9 3 8
9 -5 22 -9 10 -17 22 -17 28 0 6 -10 8 -23 6 -21 -4 -23 -1 -19 26 3 25 1 28
-8 16 -9 -12 -10 -10 -3 10 4 14 7 39 6 57 -1 23 4 32 18 36 16 4 18 14 18 75
-1 53 -5 75 -19 90 -16 17 -17 21 -3 35 17 17 10 37 -13 37 -8 0 -14 5 -14 10
0 6 8 10 18 10 20 0 23 43 5 61 -7 7 -8 22 -2 42 5 19 5 35 -1 42 -7 9 -5 17
6 26 13 11 15 25 11 74 -7 69 -25 112 -49 118 -26 7 -53 67 -39 89 15 23 14
26 -6 31 -14 4 -12 5 5 6 14 1 22 7 22 19 0 27 46 63 86 66 34 3 61 16 33 16
-7 0 -3 7 11 17 21 15 25 15 33 1 8 -12 16 -13 38 -5 33 13 36 11 41 -25 5
-36 12 -42 28 -22 11 12 11 20 2 34 -7 12 -8 21 -2 25 15 9 30 -4 23 -21 -6
-16 15 -14 81 7 16 5 44 9 62 9 19 0 37 6 42 15 4 9 18 17 29 18 21 1 21 27 1
27 -6 0 -7 7 -4 16 5 14 4 15 -9 4 -18 -15 -30 -7 -22 14 4 10 13 13 23 9 13
-5 15 -2 9 17 -7 22 -5 22 31 16 25 -4 34 -3 25 2 -20 14 -3 18 83 21 84 3
131 15 121 31 -7 11 -35 11 -118 -1z m-367 -149 c-20 -13 -57 -13 -44 -1 10
10 46 19 54 14 2 -2 -2 -8 -10 -13z m-320 -206 c0 -8 -4 -12 -10 -9 -5 3 -10
10 -10 16 0 5 5 9 10 9 6 0 10 -7 10 -16z m125 -1104 c3 -5 -1 -10 -9 -10 -9
0 -16 5 -16 10 0 6 4 10 9 10 6 0 13 -4 16 -10z m-180 -170 c3 -5 1 -10 -4
-10 -6 0 -11 5 -11 10 0 6 2 10 4 10 3 0 8 -4 11 -10z m545 -212 c0 -5 -7 -8
-15 -8 -8 0 -15 4 -15 8 0 5 -11 15 -25 22 -14 7 -25 17 -25 22 0 5 18 -2 40
-14 22 -13 40 -26 40 -30z m-132 -682 c0 -32 -3 -35 -43 -47 -24 -7 -42 -17
-39 -21 3 -4 -2 -5 -10 -2 -9 3 -16 9 -16 13 0 10 72 76 90 84 8 3 16 6 17 6
0 1 1 -14 1 -33z m122 10 c0 -3 -4 -8 -10 -11 -5 -3 -10 -1 -10 4 0 6 5 11 10
11 6 0 10 -2 10 -4z m-90 -77 c0 6 14 11 30 11 36 0 40 -15 5 -24 -31 -8 -77
3 -69 16 3 5 11 4 20 -3 10 -8 14 -8 14 0z m-60 -138 c0 -5 16 -8 35 -7 23 2
35 -1 35 -9 0 -14 -22 -25 -50 -25 -24 0 -36 -20 -19 -31 9 -5 17 -3 22 6 9
16 37 21 37 7 0 -5 7 -9 15 -9 8 0 15 6 15 13 0 14 53 30 57 17 2 -5 17 -7 33
-5 23 3 30 0 30 -12 0 -23 -4 -31 -13 -28 -5 1 -6 -6 -2 -17 3 -11 1 -22 -5
-26 -5 -3 -10 1 -10 10 0 9 -4 14 -10 10 -5 -3 -7 -12 -3 -20 3 -8 0 -15 -7
-15 -9 0 -8 -7 4 -24 9 -14 13 -31 10 -39 -3 -8 2 -20 11 -27 8 -7 15 -19 15
-26 0 -17 -20 -19 -20 -1 0 6 -5 4 -11 -6 -6 -10 -9 -24 -6 -31 3 -6 -1 -23
-8 -36 -7 -13 -11 -30 -8 -37 3 -7 -2 -20 -11 -28 -9 -9 -16 -23 -16 -31 0 -8
-7 -14 -15 -14 -9 0 -15 -10 -15 -26 0 -18 -4 -25 -14 -21 -10 4 -13 -1 -10
-16 2 -12 2 -16 -2 -9 -9 20 -26 14 -19 -8 5 -14 2 -20 -9 -20 -9 0 -16 -7
-16 -15 0 -8 -7 -15 -16 -15 -12 0 -15 -6 -10 -25 5 -18 3 -24 -6 -23 -7 2
-12 -3 -10 -9 1 -7 -5 -13 -13 -13 -8 0 -15 -7 -15 -15 0 -9 -9 -15 -25 -15
-14 0 -25 -4 -25 -10 0 -5 7 -10 16 -10 13 0 14 -3 4 -15 -9 -11 -17 -12 -30
-5 -13 7 -21 7 -25 0 -3 -5 -1 -10 4 -10 6 0 11 -4 11 -8 0 -5 -13 -7 -30 -4
-28 4 -43 -12 -19 -20 5 -2 7 -11 4 -21 -5 -13 -11 -14 -25 -7 -13 7 -21 7
-25 0 -3 -5 -15 -10 -26 -10 -11 0 -17 5 -14 10 3 6 -1 10 -9 10 -8 0 -19 7
-24 17 -6 9 -16 14 -25 10 -9 -3 -18 1 -21 9 -5 13 -10 12 -38 -2 -31 -16 -32
-16 -51 7 -11 14 -28 23 -38 21 -15 -3 -19 3 -19 25 0 15 -4 33 -8 39 -9 14
-66 29 -58 15 11 -17 -39 2 -52 21 -7 10 -19 18 -27 18 -24 0 -35 32 -17 46
14 10 15 15 5 25 -18 18 -16 26 9 32 22 6 22 6 -6 32 -15 14 -32 23 -37 20 -5
-4 -9 3 -9 13 0 11 -8 22 -18 24 -15 4 -17 13 -14 43 4 31 2 37 -11 32 -19 -7
-31 37 -22 75 5 18 2 27 -10 32 -11 4 -14 12 -10 25 4 13 -1 24 -14 34 -21 14
-21 14 2 35 16 16 30 20 47 15 14 -3 51 -7 82 -8 32 0 62 -5 68 -11 13 -13 70
-5 70 10 0 6 24 16 53 21 l53 10 -4 -27 c-4 -24 -1 -28 21 -28 14 0 27 4 29
10 2 5 18 6 41 1 21 -5 39 -5 43 0 3 5 -2 9 -10 9 -22 0 -20 36 1 45 10 3 19
1 21 -5 3 -7 11 -6 26 3 12 8 41 18 65 22 39 6 43 5 37 -10 -6 -16 -4 -16 11
-4 10 8 22 20 26 27 4 6 18 12 30 12 25 1 60 24 50 33 -3 4 -1 7 5 7 7 0 12
-4 12 -9z m125 -1 c3 -5 -1 -10 -9 -10 -9 0 -16 5 -16 10 0 6 4 10 9 10 6 0
13 -4 16 -10z m-418 -776 c-3 -3 -12 -4 -19 -1 -8 3 -5 6 6 6 11 1 17 -2 13
-5z m1358 -164 c4 -6 -2 -7 -16 -1 -13 4 -25 14 -27 20 -3 10 0 10 16 2 12 -6
24 -16 27 -21z m317 -69 c2 -17 1 -28 -4 -25 -8 5 -12 54 -4 54 2 0 6 -13 8
-29z m-243 -119 c1 -7 -4 -10 -9 -7 -6 4 -8 10 -5 15 3 5 1 11 -4 15 -6 3 -7
13 -4 23 6 14 8 13 14 -8 4 -14 7 -31 8 -38z m-149 7 c0 -5 -4 -9 -10 -9 -5 0
-10 7 -10 16 0 8 5 12 10 9 6 -3 10 -10 10 -16z m78 -69 c3 9 7 9 14 -1 8 -11
9 -11 6 -1 -2 8 -8 14 -13 14 -14 1 -32 30 -32 52 0 18 1 18 17 -2 10 -12 20
-19 23 -15 3 3 13 -11 21 -31 18 -44 30 -47 24 -6 -3 23 -1 30 9 26 7 -3 12
-2 12 2 -7 48 28 41 53 -10 32 -68 70 -135 64 -115 -7 21 12 23 21 1 6 -17
-14 -36 -32 -30 -5 2 -9 10 -7 20 3 18 -13 22 -23 6 -7 -11 -64 -14 -89 -4 -9
3 -13 11 -10 16 5 7 0 7 -12 0 -13 -7 -25 -7 -37 0 -15 7 -18 7 -12 -2 5 -8 1
-11 -11 -8 -10 2 -21 14 -24 28 -5 22 -7 23 -13 7 -10 -26 -24 -13 -29 28 -5
40 11 52 29 21 17 -30 16 -2 -2 41 -22 53 -18 53 17 -1 18 -27 34 -43 36 -36z
m-106 45 c9 4 19 1 24 -6 4 -7 3 -14 -4 -17 -7 -2 -10 -22 -7 -55 3 -29 2 -46
-1 -39 -3 6 -11 9 -16 6 -6 -4 -17 1 -25 12 -12 16 -15 17 -23 4 -8 -12 -10
-10 -10 9 0 23 -1 23 -19 7 -22 -20 -38 -14 -51 18 -9 21 -9 21 -9 0 -1 -29
-40 -44 -109 -43 -90 1 -171 41 -114 56 13 3 18 11 15 19 -3 8 0 14 6 14 6 0
11 -8 11 -17 0 -15 2 -16 10 -3 6 9 13 11 18 5 11 -15 42 -17 42 -3 0 9 3 9
10 -2 5 -8 10 -12 10 -8 0 4 11 3 24 -2 18 -6 28 -5 37 6 14 17 48 10 67 -14
11 -14 12 -14 12 4 0 10 5 26 10 34 9 13 13 11 30 -10 15 -18 18 -20 13 -6 -4
13 -3 17 5 12 8 -5 12 1 12 16 0 16 3 19 8 10 5 -7 16 -10 24 -7z m292 -41 c5
-14 4 -15 -9 -4 -17 14 -19 20 -6 20 5 0 12 -7 15 -16z m727 -46 c-3 -24 -6
-52 -5 -63 1 -11 2 -32 3 -46 0 -15 9 -30 19 -34 14 -5 15 -4 5 6 -7 7 -13 18
-13 24 0 5 7 2 15 -9 10 -13 11 -25 5 -42 -5 -13 -7 -31 -4 -39 4 -8 1 -15 -4
-15 -6 0 -13 10 -15 23 -2 12 -2 -2 0 -32 3 -30 7 -61 10 -70 3 -9 -5 0 -17
19 -12 19 -26 37 -30 40 -4 3 -9 25 -12 50 -3 25 -7 50 -9 56 -2 7 0 14 6 15
5 2 12 -9 15 -26 l6 -30 7 27 c4 15 3 37 -1 50 -13 35 -15 147 -2 128 8 -13
10 -12 10 3 0 10 4 16 8 13 5 -3 6 -25 3 -48z m-321 -12 c0 -6 -7 -2 -15 8 -8
11 -15 25 -15 30 0 6 7 2 15 -8 8 -11 15 -25 15 -30z m227 12 c-3 -8 -6 -5 -6
6 -1 11 2 17 5 13 3 -3 4 -12 1 -19z m42 -27 c6 -19 9 -36 6 -39 -5 -6 -35 61
-35 80 0 19 16 -3 29 -41z m-66 3 c-6 -16 17 -16 29 1 4 6 5 -7 1 -27 -3 -24
-2 -38 5 -38 5 0 8 10 4 22 -3 13 -1 19 5 15 6 -4 13 -16 16 -27 3 -11 1 -18
-4 -14 -11 7 -11 -29 0 -78 6 -26 5 -42 -4 -54 -7 -11 -10 -29 -5 -48 4 -19 1
-42 -7 -61 l-14 -30 6 30 c6 28 5 29 -8 11 -16 -21 -37 -14 -37 12 0 15 -2 15
-10 2 -8 -13 -10 -13 -10 2 0 9 7 23 15 31 13 13 13 16 0 27 -12 10 -15 9 -15
-6 0 -14 -2 -16 -9 -6 -10 17 -23 -53 -15 -83 3 -11 0 -31 -5 -45 -10 -23 -11
-22 -5 7 3 18 2 38 -3 45 -5 9 -10 1 -14 -22 l-6 -35 -11 25 c-11 23 -12 20
-9 -22 3 -58 -8 -63 -17 -8 -3 22 -11 40 -17 40 -7 0 -9 -10 -5 -26 5 -17 2
-32 -8 -43 -10 -11 -17 -44 -19 -99 -2 -45 -6 -85 -9 -88 -3 -3 -2 -21 2 -40
15 -63 -9 -35 -35 44 -14 42 -23 62 -20 43 3 -18 5 -44 5 -58 0 -13 4 -22 9
-19 9 6 21 -26 21 -54 0 -11 -2 -12 -8 -2 -5 7 -8 -9 -9 -38 0 -35 3 -48 11
-43 6 4 5 -1 -2 -10 -8 -9 -11 -25 -7 -37 9 -29 0 -25 -24 13 -20 31 -21 31
-21 8 0 -14 11 -41 24 -60 14 -20 28 -49 32 -64 6 -27 6 -28 -15 -15 -11 7
-21 22 -21 33 0 23 -12 40 -49 70 -23 19 -24 19 -17 1 6 -17 5 -17 -10 -5 -15
12 -16 11 -9 -11 4 -14 12 -26 16 -28 5 -2 9 -13 9 -24 0 -16 -2 -17 -14 -6
-52 51 -90 71 -50 27 8 -9 17 -33 18 -52 2 -19 7 -40 11 -47 6 -10 4 -12 -8
-7 -10 4 -17 0 -20 -11 -3 -14 -6 -12 -15 8 -6 14 -11 21 -11 16 -1 -16 -30
28 -31 45 0 9 -7 19 -15 23 -17 6 -21 -9 -5 -19 14 -9 12 -35 -2 -31 -7 1 -10
1 -5 -1 4 -3 7 -15 7 -28 0 -13 5 -27 12 -31 8 -5 9 -2 5 9 -8 21 -3 21 17 1
9 -8 16 -25 16 -37 -1 -22 -1 -22 -16 -2 -15 19 -16 18 -9 -15 4 -26 3 -31 -4
-20 -6 8 -11 22 -11 31 0 9 -8 23 -17 30 -15 11 -16 11 -5 -1 6 -8 12 -24 12
-36 0 -25 -15 -40 -24 -25 -4 5 -1 11 6 13 7 3 8 10 4 17 -6 9 -11 10 -15 3
-4 -7 -12 -8 -21 -2 -12 8 -12 10 3 10 19 0 19 21 0 27 -16 6 -25 -27 -12 -43
11 -14 7 -38 -17 -92 -8 -18 -12 -37 -8 -44 4 -7 3 -8 -4 -4 -13 8 -16 56 -4
56 5 0 8 21 8 46 1 33 -2 41 -9 29 -5 -9 -6 -23 -3 -31 3 -8 2 -12 -3 -9 -5 3
-13 1 -16 -5 -5 -8 -12 -7 -23 2 -14 12 -14 10 -2 -12 9 -17 10 -25 1 -28 -6
-2 -9 -7 -6 -12 3 -4 -2 -10 -10 -13 -9 -4 -12 -1 -9 7 3 8 1 17 -5 21 -6 3
-11 21 -12 38 l-1 32 -9 -30 c-5 -16 -8 -46 -5 -65 2 -19 2 -29 -1 -21 -5 11
-7 11 -14 0 -6 -9 -7 -1 -3 21 5 34 5 34 -11 15 -17 -20 -17 -20 -11 1 5 16 2
23 -14 27 -17 4 -20 0 -21 -26 l-2 -32 -6 35 c-5 28 -8 31 -14 16 -4 -10 -5
-28 -1 -40 6 -20 5 -20 -10 1 -14 19 -14 26 -4 43 7 11 16 20 20 20 5 0 8 17
8 38 l-1 37 -14 -40 c-8 -22 -15 -41 -15 -43 0 -2 -4 0 -10 3 -5 3 -10 0 -10
-8 0 -20 -26 -29 -39 -13 -6 8 -8 22 -5 32 5 15 4 16 -6 7 -6 -6 -13 -30 -13
-52 -1 -26 -6 -41 -14 -41 -9 0 -11 12 -7 43 l6 42 -25 -32 c-13 -18 -27 -30
-30 -26 -4 3 -7 1 -7 -6 0 -7 -4 -10 -9 -7 -5 4 -12 0 -15 -6 -7 -15 1 31 10
59 5 15 4 16 -6 3 -9 -12 -11 -7 -6 23 3 22 1 35 -5 32 -5 -4 -9 -16 -9 -28 0
-16 -3 -18 -9 -9 -6 11 -10 10 -16 -5 -5 -10 -7 -22 -6 -27 1 -5 -5 -4 -13 4
-14 10 -16 10 -16 -5 0 -11 -5 -15 -15 -11 -8 3 -14 2 -13 -2 2 -11 -13 -42
-21 -42 -8 0 -30 40 -42 75 -6 17 -7 17 -8 2 -1 -15 -4 -15 -22 -5 -17 11 -23
11 -26 0 -3 -6 -9 -9 -15 -6 -5 3 -16 -2 -23 -12 -14 -18 -14 -18 -15 3 0 12
5 25 10 28 6 3 10 12 10 18 0 7 -5 4 -11 -5 -5 -10 -16 -15 -25 -11 -9 3 -20
0 -25 -8 -6 -10 -9 -10 -9 -1 0 6 -4 12 -10 12 -5 0 -10 -9 -10 -19 0 -11 -4
-21 -10 -23 -5 -1 -7 -14 -3 -26 4 -15 8 -19 13 -12 5 8 9 5 13 -9 4 -18 3
-19 -15 -10 -16 8 -23 8 -29 -2 -7 -12 -9 -11 -10 1 -1 8 -5 2 -9 -15 -8 -30
-8 -30 -9 -3 0 14 -5 28 -11 30 -8 3 -16 29 -19 62 -1 4 -7 6 -14 3 -9 -3 -13
5 -12 27 1 39 -5 52 -16 35 -6 -10 -13 -10 -34 -1 -14 7 -23 17 -20 23 4 6 -1
17 -11 25 -17 13 -15 13 24 8 26 -4 42 -3 42 4 0 16 -91 20 -98 4 -2 -7 0 -18
7 -25 14 -14 14 -27 1 -27 -5 0 -10 6 -10 14 0 12 -6 12 -41 0 -47 -17 -75 -7
-33 11 48 21 2 30 -54 11 -44 -14 -48 -14 -62 2 -8 9 -21 17 -27 18 -36 3 -43
5 -57 19 -11 12 -21 13 -43 5 l-28 -10 30 25 c17 14 40 25 52 25 12 0 24 4 27
9 8 12 74 7 89 -8 16 -16 27 -14 27 5 0 13 7 15 41 9 33 -6 40 -4 35 6 -4 8 0
5 9 -6 14 -17 17 -18 25 -5 6 9 10 10 10 3 0 -9 8 -9 33 1 38 15 137 13 147
-4 5 -9 11 -8 21 3 12 13 17 13 44 -8 l31 -23 -4 34 c-3 21 0 34 7 34 7 0 9
-10 5 -26 -5 -19 -4 -25 5 -20 6 4 11 2 11 -3 0 -6 5 -11 10 -11 6 0 10 9 10
20 0 12 7 21 18 22 9 0 24 2 32 2 8 1 20 -5 27 -14 11 -13 13 -12 13 5 1 11 4
14 7 8 7 -18 23 -16 23 3 0 8 4 12 10 9 7 -4 7 3 0 22 l-10 28 23 -26 c19 -20
25 -23 35 -13 7 7 12 18 12 23 0 5 5 13 12 17 6 4 9 3 6 -2 -3 -5 0 -14 7 -21
18 -16 29 11 15 37 -8 15 -6 17 9 13 21 -5 35 -29 26 -44 -4 -5 1 -6 9 -3 8 3
19 19 25 36 7 20 16 28 25 25 9 -4 17 3 21 16 l6 22 12 -24 c9 -19 9 -25 -1
-29 -6 -2 -12 -13 -12 -25 1 -22 1 -22 12 -2 6 11 16 23 21 26 6 5 6 19 -2 39
-13 40 -14 60 -1 40 7 -11 10 -6 10 20 0 27 -3 32 -11 20 -7 -10 -9 -11 -7 -2
2 8 6 12 9 10 12 -6 38 24 32 38 -6 16 5 18 26 5 15 -10 3 -41 -14 -38 -5 1
-11 -14 -11 -33 l-2 -35 5 34 c3 22 7 30 12 22 13 -20 40 49 34 86 -3 17 -11
34 -19 37 -16 6 -19 -19 -4 -29 12 -7 13 -25 2 -25 -5 0 -14 11 -21 24 -9 16
-19 22 -32 19 -17 -5 -17 -8 -4 -40 17 -41 18 -43 8 -43 -5 0 -16 14 -25 31
-12 19 -22 28 -30 23 -7 -4 -10 -3 -5 1 4 5 0 17 -10 27 -9 11 -11 18 -5 18 7
0 12 -4 12 -10 0 -5 5 -10 11 -10 8 0 8 4 0 14 -6 7 -8 22 -4 32 6 17 5 17
-10 5 -11 -9 -17 -10 -17 -2 0 7 -19 10 -55 8 -30 -2 -70 2 -89 8 -21 7 -40 9
-50 3 -10 -6 -16 -5 -16 1 0 5 -12 7 -27 5 -16 -3 -32 0 -38 8 -10 13 -45 21
-45 9 0 -3 -14 -7 -30 -8 -17 -1 -30 2 -30 7 0 9 -58 26 -74 21 -5 -1 -13 4
-18 11 -7 10 -11 9 -22 -5 -11 -14 -15 -15 -19 -3 -3 7 -4 26 -3 40 4 36 -28
55 -44 26 -6 -11 -15 -20 -20 -20 -16 0 -11 28 7 38 10 6 14 16 10 26 -4 10
-11 15 -16 12 -5 -3 -11 1 -14 8 -3 8 -1 17 6 19 16 5 153 -3 197 -12 19 -3
58 -4 85 0 28 4 87 8 131 8 58 1 85 5 94 16 14 16 5 35 -16 35 -8 0 -17 7 -20
15 -8 19 -24 20 -24 1 0 -23 -43 -43 -95 -44 -76 -2 -85 3 -85 49 0 35 4 42
38 62 39 23 41 24 72 26 13 1 17 6 14 16 -15 38 39 -4 63 -49 9 -17 11 -16 17
8 3 14 12 26 18 26 6 0 19 7 28 15 16 14 20 13 50 -15 18 -16 36 -30 41 -30 5
0 9 -6 10 -12 0 -7 7 2 15 20 8 17 21 32 29 32 18 0 19 -11 3 -30 -11 -12 -10
-12 4 -1 9 7 22 10 28 6 15 -9 12 -55 -4 -61 -8 -3 -17 -12 -20 -19 -4 -10 2
-11 27 -4 44 13 78 11 91 -4 6 -7 10 -10 9 -8 -3 5 38 41 47 41 14 0 19 -13
10 -30 -6 -12 -5 -17 6 -17 7 0 14 6 14 12 0 6 6 12 13 13 6 0 32 7 55 14 40
12 45 11 58 -7 7 -11 19 -26 25 -34 9 -10 9 -15 -2 -22 -11 -6 -9 -13 11 -34
21 -22 25 -23 33 -9 14 25 37 -28 32 -72 -3 -22 -1 -33 5 -29 5 3 10 -2 10
-12 0 -11 7 -28 16 -39 15 -19 15 -18 11 3 -3 12 0 24 7 26 8 3 6 9 -4 22 -16
19 -24 82 -11 90 9 5 25 -32 22 -49 -1 -4 1 -18 5 -29 7 -21 7 -21 17 3 5 15
11 20 14 12 3 -6 9 -9 15 -6 6 4 8 -5 4 -25 -3 -17 -9 -45 -12 -61 -3 -17 -10
-28 -15 -24 -12 7 -11 -3 3 -29 10 -19 9 -20 -4 -10 -12 11 -14 8 -10 -20 3
-17 7 -26 9 -19 10 28 23 9 23 -35 0 -35 -3 -44 -10 -33 -8 13 -10 13 -10 -2
0 -30 18 -29 28 1 7 19 7 44 1 71 -6 27 -6 70 0 119 5 42 9 85 8 96 -1 11 3
21 8 23 6 2 13 12 17 23 4 11 13 19 20 17 7 -2 13 0 13 4 0 3 10 17 23 31 13
13 22 28 21 33 -1 5 -1 20 0 33 1 18 5 22 21 18 12 -3 20 -1 18 6 -3 18 13 77
20 76 27 -4 34 1 21 17 -11 14 -9 19 11 35 14 10 21 19 16 19 -5 0 -1 9 9 20
10 11 15 28 12 40 -4 17 -3 19 8 10 8 -6 11 -18 8 -26z m-143 11 c0 -7 2 -28
5 -46 l5 -34 -14 35 c-8 19 -15 28 -15 19 -2 -29 -51 -36 -51 -8 0 6 9 7 21 4
16 -5 20 -3 19 12 -3 26 -2 30 15 30 8 0 15 -6 15 -12z m542 -47 c5 -100 4
-118 -4 -118 -4 0 -9 17 -10 38 -1 20 -2 54 -4 75 -1 20 2 37 7 37 5 0 10 -15
11 -32z m-146 -54 c8 -20 10 -33 4 -29 -11 7 -40 71 -40 89 1 14 16 -12 36
-60z m-643 36 c3 -11 1 -18 -4 -14 -5 3 -9 12 -9 20 0 20 7 17 13 -6z m232 0
c3 -5 1 -10 -4 -10 -6 0 -11 5 -11 10 0 6 2 10 4 10 3 0 8 -4 11 -10z m377
-48 c-8 -23 -31 14 -24 40 5 20 5 20 17 -3 7 -13 10 -29 7 -37z m84 2 c1 -24
-2 -44 -5 -44 -4 0 -7 22 -6 49 0 60 10 56 11 -5z m55 13 c-8 -8 -11 -3 -11
19 1 25 2 27 11 11 8 -14 8 -22 0 -30z m76 21 c-3 -8 -6 -5 -6 6 -1 11 2 17 5
13 3 -3 4 -12 1 -19z m-602 -28 c3 -6 -1 -7 -9 -4 -18 7 -21 14 -7 14 6 0 13
-4 16 -10z m23 -50 c7 -11 10 -20 7 -20 -8 0 -45 34 -45 42 0 13 25 -2 38 -22z
m350 -36 c0 -19 -3 -32 -8 -29 -11 7 -21 65 -14 77 10 16 22 -11 22 -48z m133
5 c-6 -16 -10 -18 -10 -7 -1 22 12 55 16 42 2 -6 -1 -22 -6 -35z m-1771 -14
c0 -14 -2 -25 -4 -25 -2 0 -6 11 -8 25 -3 14 -1 25 3 25 5 0 9 -11 9 -25z
m1690 21 c0 -3 -4 -8 -10 -11 -5 -3 -10 -1 -10 4 0 6 5 11 10 11 6 0 10 -2 10
-4z m40 -6 c0 -5 -2 -10 -4 -10 -3 0 -8 5 -11 10 -3 6 -1 10 4 10 6 0 11 -4
11 -10z m90 -10 c0 -5 -2 -10 -4 -10 -3 0 -8 5 -11 10 -3 6 -1 10 4 10 6 0 11
-4 11 -10z m-1783 -47 c-3 -10 -5 -2 -5 17 0 19 2 27 5 18 2 -10 2 -26 0 -35z
m149 35 c4 -7 10 -5 16 3 5 9 7 -2 5 -31 l-4 -45 -58 -3 c-69 -4 -116 5 -96
17 7 5 11 17 9 27 -2 11 3 24 11 31 20 14 108 15 117 1z m1532 -28 c-2 -7 -10
1 -17 16 -12 27 -11 28 4 12 10 -9 16 -21 13 -28z m-110 -21 c-12 -27 -15 -30
-21 -16 -4 11 -3 16 3 12 6 -4 10 7 10 26 0 23 3 30 11 22 7 -7 6 -20 -3 -44z
m-100 -5 c0 -44 -6 -40 -12 9 -3 21 -1 35 3 32 5 -3 9 -21 9 -41z m169 24 c-3
-8 -6 -5 -6 6 -1 11 2 17 5 13 3 -3 4 -12 1 -19z m0 -40 c-3 -8 -6 -5 -6 6 -1
11 2 17 5 13 3 -3 4 -12 1 -19z m-127 -31 c0 -4 -4 -5 -10 -2 -14 9 -12 -7 6
-43 8 -18 14 -40 11 -50 -2 -10 -7 -2 -12 21 -5 26 -12 37 -21 33 -16 -6 -17
6 -7 54 6 31 7 32 20 15 7 -11 13 -23 13 -28z m97 21 c-3 -8 -6 -5 -6 6 -1 11
2 17 5 13 3 -3 4 -12 1 -19z m-1737 -26 c0 -10 -7 -13 -22 -8 -13 3 -31 6 -40
6 -10 0 -18 4 -18 9 0 4 18 8 40 8 29 0 40 -4 40 -15z m1587 -14 c-3 -8 -6 -5
-6 6 -1 11 2 17 5 13 3 -3 4 -12 1 -19z m113 12 c0 -5 -5 -10 -11 -10 -5 0 -7
5 -4 10 3 6 8 10 11 10 2 0 4 -4 4 -10z m-113 -112 c-3 -8 -6 -5 -6 6 -1 11 2
17 5 13 3 -3 4 -12 1 -19z m-140 -10 c-3 -8 -6 -5 -6 6 -1 11 2 17 5 13 3 -3
4 -12 1 -19z m-75 -18 c-2 -16 -6 -30 -8 -30 -2 0 -4 14 -4 30 0 17 4 30 8 30
5 0 7 -13 4 -30z m25 -42 c-3 -7 -5 -2 -5 12 0 14 2 19 5 13 2 -7 2 -19 0 -25z
m-805 -65 c18 -16 18 -16 12 3 -7 17 -6 18 10 5 10 -8 15 -23 13 -33 -3 -10
-1 -21 4 -24 5 -3 9 -11 9 -17 0 -7 -11 1 -24 17 -22 28 -24 29 -35 10 -10
-15 -11 -15 -7 -2 3 10 1 20 -4 23 -11 7 -14 35 -3 35 3 0 15 -8 25 -17z m805
-205 c-3 -8 -6 -5 -6 6 -1 11 2 17 5 13 3 -3 4 -12 1 -19z m-850 -10 c-3 -8
-6 -5 -6 6 -1 11 2 17 5 13 3 -3 4 -12 1 -19z m69 -16 c-18 -16 -19 -16 -12 1
3 10 6 24 6 30 0 8 4 7 12 -1 10 -9 8 -16 -6 -30z m783 -32 c0 -10 -3 -8 -9 5
-12 27 -12 43 0 25 5 -8 9 -22 9 -30z m-129 -78 c0 -12 -3 -12 -15 -2 -8 7
-15 22 -15 34 1 21 1 21 15 2 8 -11 15 -26 15 -34z m-1530 3 c0 -12 -42 -25
-65 -19 -40 10 -29 24 20 24 25 0 45 -2 45 -5z m1510 -20 c0 -8 -4 -15 -10
-15 -5 0 -10 7 -10 15 0 8 5 15 10 15 6 0 10 -7 10 -15z m-1500 -75 c12 -8 11
-10 -7 -10 -13 0 -23 5 -23 10 0 13 11 13 30 0z m150 -50 c0 -5 -2 -10 -4 -10
-3 0 -8 5 -11 10 -3 6 -1 10 4 10 6 0 11 -4 11 -10z m167 -71 c1 -12 -1 -19
-4 -15 -3 3 -13 1 -22 -4 -13 -6 -17 -4 -18 11 -1 11 2 17 8 14 5 -4 9 -1 9 4
0 21 26 11 27 -10z m-102 1 c-3 -5 -12 -10 -18 -10 -7 0 -6 4 3 10 19 12 23
12 15 0z m1015 -4 c0 -3 -4 -8 -10 -11 -5 -3 -10 -1 -10 4 0 6 5 11 10 11 6 0
10 -2 10 -4z m-272 -47 c-3 -8 -7 -3 -11 10 -4 17 -3 21 5 13 5 -5 8 -16 6
-23z m-151 -1 c-3 -8 -6 -5 -6 6 -1 11 2 17 5 13 3 -3 4 -12 1 -19z m-251 -15
c-10 -10 -19 5 -10 18 6 11 8 11 12 0 2 -7 1 -15 -2 -18z m-152 -28 c-4 -8
-10 -15 -15 -15 -4 0 -6 7 -3 15 4 8 10 15 15 15 4 0 6 -7 3 -15z m498 -8 c-5
-7 -12 -21 -15 -32 -3 -15 -5 -13 -6 8 -1 19 -5 26 -13 21 -6 -4 -8 -3 -5 2 3
5 15 10 27 11 16 1 19 -1 12 -10z m663 -117 c3 -5 -2 -10 -12 -10 -11 0 -24
-5 -30 -11 -6 -6 -17 -9 -25 -7 -8 3 -1 11 17 20 37 20 42 20 50 8z m-191
-257 c18 7 28 -5 21 -25 -3 -8 -21 -14 -41 -15 -19 -1 -44 -9 -55 -19 -31 -28
-22 -5 14 35 17 20 35 33 38 27 4 -5 14 -6 23 -3z m-209 -203 c3 -6 -1 -13 -9
-16 -20 -8 -21 -24 -1 -24 9 0 18 7 21 15 6 14 34 22 34 9 0 -3 -17 -21 -37
-40 l-37 -35 -17 22 c-16 22 -16 24 4 50 24 30 33 34 42 19z"/>
<path d="M2310 3271 c0 -12 26 -32 33 -25 3 4 0 13 -8 20 -16 16 -25 18 -25 5z"/>
<path d="M2402 3244 c10 -10 20 -15 24 -12 3 4 -5 12 -18 18 -22 12 -22 12 -6
-6z"/>
<path d="M2530 3100 c0 -5 5 -10 11 -10 5 0 7 5 4 10 -3 6 -8 10 -11 10 -2 0
-4 -4 -4 -10z"/>
<path d="M2145 2600 c3 -5 8 -10 11 -10 2 0 4 5 4 10 0 6 -5 10 -11 10 -5 0
-7 -4 -4 -10z"/>
<path d="M4250 2060 c0 -5 5 -10 10 -10 6 0 10 -7 10 -17 0 -9 3 -14 6 -10 8
8 -5 47 -17 47 -5 0 -9 -4 -9 -10z"/>
<path d="M4232 1978 c-17 -17 -15 -38 6 -55 16 -14 16 -14 0 -9 -10 3 -18 2
-18 -3 0 -16 13 -20 32 -10 14 8 17 14 8 23 -5 8 -7 22 -3 31 4 13 3 16 -5 11
-8 -5 -10 -2 -6 8 7 19 2 20 -14 4z"/>
<path d="M3397 1890 c-3 -12 0 -20 8 -20 8 0 11 8 8 20 -3 11 -7 20 -8 20 -1
0 -5 -9 -8 -20z"/>
<path d="M3426 1862 c-3 -5 -26 -15 -51 -22 -25 -7 -43 -15 -40 -18 10 -10 88
-1 107 13 16 10 16 14 4 24 -8 7 -17 8 -20 3z"/>
<path d="M3524 1777 c0 -29 1 -44 3 -34 3 9 9 15 14 12 14 -9 11 51 -3 63 -10
8 -13 -1 -14 -41z"/>
<path d="M3605 1809 c-4 -6 -5 -12 -2 -15 2 -3 7 2 10 11 7 17 1 20 -8 4z"/>
<path d="M3464 1738 c-8 -12 -5 -14 29 -22 25 -6 27 -5 19 10 -11 20 -39 27
-48 12z"/>
<path d="M2906 1725 c-9 -26 -7 -32 5 -12 6 10 9 21 6 23 -2 3 -7 -2 -11 -11z"/>
<path d="M3041 1704 c0 -11 3 -14 6 -6 3 7 2 16 -1 19 -3 4 -6 -2 -5 -13z"/>
<path d="M3440 1706 c0 -8 5 -18 10 -21 6 -3 10 1 10 9 0 8 -4 18 -10 21 -5 3
-10 -1 -10 -9z"/>
<path d="M4037 1633 c-8 -12 32 -93 45 -93 6 0 5 6 -2 15 -7 8 -18 31 -25 51
-7 20 -15 32 -18 27z"/>
<path d="M3962 1490 c0 -14 2 -19 5 -12 2 6 2 18 0 25 -3 6 -5 1 -5 -13z"/>
<path d="M3560 1462 c0 -10 21 -32 31 -32 4 0 5 9 2 20 -5 19 -33 29 -33 12z"/>
<path d="M3969 1425 c-6 -40 -4 -53 7 -43 3 3 4 23 2 44 l-3 39 -6 -40z"/>
<path d="M3856 1405 c4 -8 11 -15 16 -15 6 0 5 6 -2 15 -7 8 -14 15 -16 15 -2
0 -1 -7 2 -15z"/>
<path d="M3890 1381 c0 -6 4 -13 10 -16 6 -3 7 1 4 9 -7 18 -14 21 -14 7z"/>
<path d="M3929 1346 c6 -8 22 -16 34 -19 22 -6 22 -6 -2 14 -27 22 -49 26 -32
5z"/>
<path d="M3910 1320 c0 -5 5 -10 10 -10 6 0 10 5 10 10 0 6 -4 10 -10 10 -5 0
-10 -4 -10 -10z"/>
<path d="M3845 1312 c4 -8 10 -25 14 -40 6 -21 9 -23 14 -10 3 10 -2 26 -14
40 -11 13 -17 17 -14 10z"/>
<path d="M3980 1301 c0 -6 4 -13 10 -16 6 -3 7 1 4 9 -7 18 -14 21 -14 7z"/>
<path d="M3880 1296 c0 -2 8 -10 18 -17 15 -13 16 -12 3 4 -13 16 -21 21 -21
13z"/>
<path d="M2575 1180 c-3 -5 -1 -10 4 -10 6 0 11 5 11 10 0 6 -2 10 -4 10 -3 0
-8 -4 -11 -10z"/>
<path d="M2808 1179 c-10 -5 -18 -14 -18 -20 0 -5 11 -3 24 6 13 9 31 13 41 9
13 -5 16 -4 11 4 -9 15 -35 15 -58 1z"/>
<path d="M2590 1135 c-11 -13 -10 -14 4 -9 9 3 16 10 16 15 0 13 -6 11 -20 -6z"/>
<path d="M3255 1139 c-4 -6 -5 -12 -2 -15 2 -3 7 2 10 11 7 17 1 20 -8 4z"/>
<path d="M3139 1107 c-21 -16 -13 -37 14 -37 17 0 19 2 8 9 -8 5 -11 16 -8 25
7 19 7 19 -14 3z"/>
<path d="M2916 1091 c-4 -7 -5 -15 -2 -18 9 -9 19 4 14 18 -4 11 -6 11 -12 0z"/>
<path d="M3471 1074 c0 -11 3 -14 6 -6 3 7 2 16 -1 19 -3 4 -6 -2 -5 -13z"/>
<path d="M2957 1043 c-7 -11 10 -40 18 -31 4 4 3 14 -3 24 -5 9 -12 12 -15 7z"/>
<path d="M3171 1034 c0 -11 3 -14 6 -6 3 7 2 16 -1 19 -3 4 -6 -2 -5 -13z"/>
<path d="M3096 1025 c4 -8 8 -15 10 -15 2 0 4 7 4 15 0 8 -4 15 -10 15 -5 0
-7 -7 -4 -15z"/>
<path d="M3611 994 c0 -11 3 -14 6 -6 3 7 2 16 -1 19 -3 4 -6 -2 -5 -13z"/>
<path d="M2926 984 c-2 -6 -2 -15 1 -18 7 -6 33 12 33 24 0 12 -29 7 -34 -6z"/>
<path d="M3190 990 c0 -5 5 -10 10 -10 6 0 10 5 10 10 0 6 -4 10 -10 10 -5 0
-10 -4 -10 -10z"/>
<path d="M3145 6080 c3 -5 8 -10 11 -10 2 0 4 5 4 10 0 6 -5 10 -11 10 -5 0
-7 -4 -4 -10z"/>
<path d="M2907 6030 c-17 -29 -17 -29 0 -23 27 9 53 34 47 44 -10 17 -30 9
-47 -21z"/>
<path d="M3215 6030 c3 -5 13 -10 21 -10 8 0 14 5 14 10 0 6 -9 10 -21 10 -11
0 -17 -4 -14 -10z"/>
<path d="M3310 6029 c0 -5 5 -7 10 -4 6 3 10 8 10 11 0 2 -4 4 -10 4 -5 0 -10
-5 -10 -11z"/>
<path d="M2773 6003 c-24 -5 -30 -18 -14 -28 5 -3 13 0 16 6 4 5 13 8 20 5 8
-3 19 2 25 10 13 15 2 17 -47 7z"/>
<path d="M2640 5980 c0 -11 2 -20 4 -20 2 0 6 9 9 20 3 11 1 20 -4 20 -5 0 -9
-9 -9 -20z"/>
<path d="M3226 5991 c-5 -8 -3 -16 4 -21 16 -10 40 -2 40 12 0 6 -6 8 -14 5
-8 -3 -16 -1 -19 6 -2 8 -6 7 -11 -2z"/>
<path d="M2991 5964 c14 -18 59 -18 59 -1 0 8 -14 13 -35 14 -30 1 -34 -1 -24
-13z"/>
<path d="M3192 5964 c-7 -8 -8 -14 -3 -14 10 0 25 19 20 25 -2 1 -10 -3 -17
-11z"/>
<path d="M3150 5940 c0 -11 5 -20 10 -20 6 0 10 9 10 20 0 11 -4 20 -10 20 -5
0 -10 -9 -10 -20z"/>
<path d="M2986 5928 c5 -8 2 -9 -9 -5 -10 3 -17 2 -17 -2 0 -11 26 -22 34 -14
10 10 7 33 -5 33 -5 0 -7 -5 -3 -12z"/>
<path d="M2680 5919 c0 -5 5 -7 10 -4 6 3 10 8 10 11 0 2 -4 4 -10 4 -5 0 -10
-5 -10 -11z"/>
<path d="M2410 5774 c-10 -11 -10 -17 0 -29 16 -19 44 -19 60 0 14 17 15 17
-22 32 -21 10 -29 9 -38 -3z"/>
<path d="M4420 5383 c13 -18 26 -30 29 -28 3 3 -8 18 -23 33 l-29 27 23 -32z"/>
<path d="M4476 5317 c3 -10 9 -15 12 -12 3 3 0 11 -7 18 -10 9 -11 8 -5 -6z"/>
<path d="M4500 5284 c0 -7 9 -22 20 -35 25 -31 26 -12 0 21 -11 14 -20 20 -20
14z"/>
<path d="M4570 5190 c0 -6 10 -25 22 -43 13 -18 24 -34 25 -36 2 -2 6 -1 9 2
4 4 -6 25 -21 47 -29 42 -35 47 -35 30z"/>
<path d="M2240 4964 c0 -8 5 -12 10 -9 6 3 10 10 10 16 0 5 -4 9 -10 9 -5 0
-10 -7 -10 -16z"/>
<path d="M4740 4874 c0 -12 7 -27 15 -34 19 -16 19 -3 0 30 -13 24 -14 24 -15
4z"/>
<path d="M4796 4722 c-2 -4 -1 -14 5 -22 7 -12 9 -10 9 8 0 23 -5 28 -14 14z"/>
<path d="M4780 4670 c0 -5 5 -10 10 -10 6 0 10 5 10 10 0 6 -4 10 -10 10 -5 0
-10 -4 -10 -10z"/>
<path d="M4816 4640 c14 -69 24 -88 20 -37 -2 27 -9 54 -15 60 -8 8 -10 3 -5
-23z"/>
<path d="M4775 4570 c-4 -6 -1 -10 4 -10 6 0 11 -7 11 -15 0 -8 4 -23 9 -33 6
-9 13 -35 17 -57 l7 -40 7 30 c8 30 10 28 15 -10 2 -11 4 -24 5 -30 1 -5 2
-19 1 -30 -2 -18 -4 -17 -12 5 -10 23 -11 24 -21 7 -12 -23 -2 -67 16 -67 19
0 30 -32 14 -42 -10 -6 -10 -10 2 -19 11 -8 12 -12 3 -16 -14 -5 -8 -48 10
-70 6 -9 6 -13 -2 -13 -8 0 -9 -6 -3 -17 5 -10 10 -52 11 -93 1 -41 7 -79 12
-85 11 -11 8 70 -16 420 -6 82 -14 137 -20 144 -3 2 -5 -8 -5 -22 0 -15 -4
-27 -10 -27 -5 0 -10 15 -10 33 0 33 -34 75 -45 57z"/>
<path d="M2273 4483 c-18 -7 -16 -23 2 -23 8 0 15 7 15 15 0 8 -1 15 -2 14 -2
0 -9 -3 -15 -6z"/>
<path d="M2218 4463 c-20 -5 -24 -23 -5 -23 17 0 41 17 31 22 -5 2 -17 3 -26
1z"/>
<path d="M2215 4420 c-17 -18 -17 -20 -1 -20 9 0 19 7 23 15 9 25 -2 27 -22 5z"/>
<path d="M2272 4411 c7 -11 16 -17 20 -14 10 5 -10 33 -23 33 -5 0 -4 -9 3
-19z"/>
<path d="M2405 4350 c3 -5 8 -10 11 -10 2 0 4 5 4 10 0 6 -5 10 -11 10 -5 0
-7 -4 -4 -10z"/>
<path d="M3888 4273 c6 -2 18 -2 25 0 6 3 1 5 -13 5 -14 0 -19 -2 -12 -5z"/>
<path d="M3953 4257 c-6 -10 -30 -12 -103 -8 -126 8 -205 1 -205 -19 0 -15
-60 -60 -81 -60 -8 0 -11 6 -8 15 9 22 -16 18 -57 -9 -19 -13 -44 -26 -55 -28
-10 -1 -25 -11 -32 -21 -7 -9 -18 -15 -23 -11 -11 7 -61 -35 -54 -45 2 -4 -5
-12 -16 -19 -10 -7 -19 -9 -19 -6 0 14 63 84 75 84 7 0 15 7 19 15 8 21 -2 19
-40 -10 -18 -14 -38 -24 -44 -23 -22 5 -69 -66 -79 -117 -5 -27 -16 -54 -25
-61 -21 -15 -20 -41 1 -52 10 -6 14 -16 10 -26 -5 -11 -1 -16 14 -16 16 0 19
-5 15 -22 -3 -13 -3 -17 0 -10 9 18 24 14 24 -7 0 -10 7 -24 15 -31 8 -7 15
-24 15 -39 0 -38 12 -51 48 -54 32 -2 40 -14 23 -32 -5 -6 -11 -32 -14 -58 -4
-44 -3 -47 12 -34 26 22 54 29 63 15 6 -10 8 -10 8 0 0 6 5 12 10 12 6 0 10
-11 10 -24 0 -16 11 -33 33 -48 17 -13 33 -22 35 -20 1 1 12 2 24 2 20 0 20
-1 5 -18 -27 -29 -21 -39 41 -68 31 -16 60 -33 64 -38 4 -6 10 -7 14 -3 4 4
13 2 21 -4 7 -7 44 -13 81 -15 45 -2 61 -1 47 6 -19 8 -19 9 3 9 13 1 22 -5
22 -14 0 -8 9 -15 20 -15 11 0 20 7 20 15 0 8 -4 15 -10 15 -5 0 -10 5 -10 10
0 13 37 13 45 0 5 -8 11 -7 21 1 8 6 21 8 31 4 27 -12 115 -8 123 5 4 6 5 23
2 37 -4 21 -7 24 -16 12 -7 -9 -28 -13 -61 -12 -70 2 -105 6 -105 13 0 4 -16
5 -35 4 -19 -2 -37 2 -41 8 -4 7 -9 6 -15 -3 -8 -12 -11 -12 -18 0 -8 12 -12
12 -25 2 -10 -9 -16 -10 -16 -3 0 6 -6 9 -13 7 -13 -6 -41 31 -29 39 4 2 39
-2 77 -11 42 -9 98 -13 139 -10 62 4 73 8 95 33 14 16 22 21 18 12 -8 -23 9
-32 62 -33 28 0 46 -5 49 -14 3 -10 -2 -11 -18 -6 -18 6 -22 4 -17 -8 4 -11 2
-14 -9 -10 -9 3 -14 -2 -14 -16 0 -13 7 -21 18 -22 9 0 28 -2 41 -5 13 -2 37
2 53 11 17 8 34 13 38 10 4 -3 11 2 14 11 3 8 10 12 16 9 5 -3 10 -1 10 6 0 8
4 8 15 -1 12 -10 18 -10 30 0 11 9 20 9 42 -2 20 -10 34 -11 51 -3 20 9 23 15
18 47 -4 24 -2 38 6 40 30 10 -72 114 -157 161 -107 58 -270 111 -414 133 -35
5 -41 8 -27 16 9 5 43 10 74 11 31 0 60 6 64 11 4 6 15 11 25 12 65 4 64 4 58
24 -9 27 17 36 57 19 17 -7 26 -15 20 -17 -7 -2 -10 -8 -6 -13 3 -5 13 -5 25
1 11 6 24 8 31 4 6 -4 27 -8 46 -10 36 -3 58 -14 29 -14 -10 0 -17 -5 -17 -11
0 -7 11 -9 29 -6 19 4 33 1 41 -8 7 -8 24 -15 37 -15 22 0 24 -2 13 -15 -9
-11 -10 -15 -1 -15 7 0 19 -7 27 -15 9 -9 11 -15 4 -15 -6 0 -9 -4 -6 -9 3 -4
17 -6 31 -3 15 2 25 0 25 -7 0 -7 -4 -10 -8 -7 -5 3 -15 -3 -23 -12 -28 -32
-30 -40 -10 -35 10 3 22 0 25 -6 4 -6 31 -11 60 -11 35 0 58 -5 66 -15 11 -13
8 -15 -16 -16 -17 -1 -22 -3 -11 -6 9 -2 17 -9 17 -15 0 -6 10 -8 25 -4 20 5
28 2 35 -16 9 -19 10 -16 6 17 -5 38 -4 39 10 20 16 -19 16 -19 9 5 -4 14 -13
28 -20 32 -20 12 -46 56 -36 62 5 3 19 -9 31 -27 18 -28 20 -29 15 -7 -4 14
-13 35 -21 47 -8 12 -14 34 -14 48 0 14 -9 43 -20 65 -11 22 -20 46 -20 54 0
9 -13 31 -30 49 -16 19 -30 38 -30 41 0 32 -158 165 -180 151 -5 -3 -11 -1
-14 4 -4 5 -1 13 4 16 7 5 5 12 -7 21 -22 17 -47 18 -37 2 5 -8 2 -9 -10 -5
-14 6 -17 3 -12 -10 5 -14 2 -14 -12 3 -17 20 -53 44 -66 44 -18 0 -2 -21 20
-26 14 -4 22 -10 17 -15 -5 -5 -28 -1 -53 7 -56 19 -79 39 -34 30 23 -5 31 -3
31 7 0 8 -10 15 -21 14 -41 0 -137 11 -143 17 -10 10 -21 7 -30 -7z m117 -23
c0 -2 -18 -4 -41 -4 -22 0 -38 4 -35 8 5 8 76 4 76 -4z m-630 -129 c-13 -14
-26 -22 -29 -19 -3 3 5 14 18 25 33 27 39 24 11 -6z m-169 -72 c-12 -20 -14
-14 -5 12 4 9 9 14 11 11 3 -2 0 -13 -6 -23z m1297 -218 c-3 -3 -9 2 -12 12
-6 14 -5 15 5 6 7 -7 10 -15 7 -18z m-444 -90 c69 -39 131 -95 103 -95 -9 0
-32 14 -50 30 -19 17 -40 30 -46 30 -6 0 -11 5 -11 10 0 6 -8 10 -18 10 -10 0
-35 9 -57 20 -22 11 -47 20 -56 20 -30 0 -82 22 -69 30 21 13 140 -19 204 -55z
m-164 -45 c8 -5 11 -12 7 -17 -5 -4 -12 -1 -17 6 -6 11 -9 10 -13 -5 -4 -16
-5 -16 -6 4 -1 24 6 27 29 12z m650 -27 c0 -13 -3 -13 -15 -3 -8 7 -15 16 -15
21 0 5 7 6 15 3 8 -4 15 -13 15 -21z m-1080 -112 c0 -5 -11 -8 -25 -8 -29 0
-34 14 -7 20 20 4 32 0 32 -12z"/>
<path d="M2670 4228 c0 -18 18 -34 28 -24 3 4 -2 14 -11 23 -16 16 -17 16 -17
1z"/>
<path d="M3545 4220 c-3 -5 -1 -10 4 -10 6 0 11 5 11 10 0 6 -2 10 -4 10 -3 0
-8 -4 -11 -10z"/>
<path d="M2770 4180 c0 -6 7 -10 15 -10 8 0 15 2 15 4 0 2 -7 6 -15 10 -8 3
-15 1 -15 -4z"/>
<path d="M3260 4112 c0 -6 -8 -13 -17 -15 -16 -4 -16 -5 -1 -6 18 -1 34 16 24
26 -3 4 -6 1 -6 -5z"/>
<path d="M2991 4043 c-5 -10 -12 -17 -15 -15 -3 1 -6 -1 -7 -5 0 -4 9 -10 20
-15 18 -6 21 -4 21 22 0 34 -5 37 -19 13z"/>
<path d="M3020 4020 c0 -13 5 -18 15 -14 8 4 15 10 15 14 0 4 -7 10 -15 14
-10 4 -15 -1 -15 -14z"/>
<path d="M3170 4020 c0 -5 5 -10 11 -10 5 0 7 5 4 10 -3 6 -8 10 -11 10 -2 0
-4 -4 -4 -10z"/>
<path d="M3196 3989 c-15 -26 -16 -33 -5 -40 17 -10 32 11 19 26 -6 7 -5 16 2
23 6 6 9 14 7 17 -3 2 -13 -9 -23 -26z"/>
<path d="M4888 3923 c-2 -5 -1 -26 3 -48 l6 -40 2 48 c1 44 -3 57 -11 40z"/>
<path d="M4821 3843 c-1 -33 11 -43 25 -22 3 6 2 14 -3 18 -6 3 -13 13 -16 21
-3 8 -6 0 -6 -17z"/>
<path d="M4840 3776 c0 -8 -6 -17 -12 -19 -8 -3 -6 -6 5 -6 11 -1 17 6 17 19
0 11 -2 20 -5 20 -3 0 -5 -6 -5 -14z"/>
<path d="M4810 3712 c0 -5 7 -17 15 -28 8 -10 15 -28 15 -39 0 -17 2 -17 10
-5 16 25 12 50 -6 43 -13 -5 -15 -2 -9 15 5 16 2 22 -9 22 -9 0 -16 -4 -16 -8z"/>
<path d="M4821 3624 c0 -11 3 -14 6 -6 3 7 2 16 -1 19 -3 4 -6 -2 -5 -13z"/>
<path d="M4845 3580 c-3 -5 -1 -10 4 -10 6 0 11 5 11 10 0 6 -2 10 -4 10 -3 0
-8 -4 -11 -10z"/>
<path d="M4927 3556 c-4 -10 -5 -21 -2 -24 9 -9 17 6 13 25 -3 17 -4 17 -11
-1z"/>
<path d="M4830 3540 c0 -11 5 -20 10 -20 6 0 10 9 10 20 0 11 -4 20 -10 20 -5
0 -10 -9 -10 -20z"/>
<path d="M4850 3480 c0 -11 5 -20 10 -20 6 0 10 9 10 20 0 11 -4 20 -10 20 -5
0 -10 -9 -10 -20z"/>
<path d="M5078 3371 c-94 -62 -197 -171 -161 -171 4 0 19 12 35 27 23 22 30
24 43 13 8 -7 15 -19 15 -26 0 -9 11 -14 29 -14 37 0 63 -24 56 -53 -3 -12 -9
-60 -15 -107 -5 -47 -12 -95 -16 -107 -4 -14 -2 -23 5 -23 6 0 11 5 11 11 0 6
8 23 18 37 22 32 52 124 52 159 0 13 11 49 25 79 19 42 25 71 25 128 0 68 -2
74 -24 84 -22 10 -33 5 -98 -37z"/>
<path d="M4880 3168 c0 -56 1 -57 23 -12 15 29 15 32 -4 47 -18 16 -19 15 -19
-35z"/>
<path d="M2930 2849 c0 -5 5 -7 10 -4 6 3 10 8 10 11 0 2 -4 4 -10 4 -5 0 -10
-5 -10 -11z"/>
<path d="M3550 2416 c0 -2 7 -7 16 -10 8 -3 12 -2 9 4 -6 10 -25 14 -25 6z"/>
<path d="M4657 2230 c3 -11 9 -22 13 -25 5 -3 6 4 3 15 -3 11 -9 22 -13 25 -5
3 -6 -4 -3 -15z"/>
<path d="M4611 2204 c0 -11 3 -14 6 -6 3 7 2 16 -1 19 -3 4 -6 -2 -5 -13z"/>
<path d="M4240 819 c0 -11 5 -17 10 -14 6 3 10 13 10 21 0 8 -4 14 -10 14 -5
0 -10 -9 -10 -21z"/>
<path d="M3945 540 c-8 -13 5 -13 25 0 13 8 13 10 -2 10 -9 0 -20 -4 -23 -10z"/>
<path d="M3935 501 c-10 -17 9 -20 30 -5 18 14 18 14 -2 14 -12 0 -24 -4 -28
-9z"/>
<path d="M4017 493 c-4 -3 -7 -11 -7 -17 0 -6 5 -5 12 2 6 6 9 14 7 17 -3 3
-9 2 -12 -2z"/>
<path d="M3805 410 c-8 -13 20 -24 41 -16 20 8 9 26 -16 26 -10 0 -22 -5 -25
-10z"/>
<path d="M3878 369 c-10 -5 -18 -14 -18 -19 0 -17 15 -11 28 10 14 23 13 23
-10 9z"/>
<path d="M3850 285 c-8 -9 -8 -15 -2 -15 12 0 26 19 19 26 -2 2 -10 -2 -17
-11z"/>
<path d="M3787 253 c-4 -3 -7 -11 -7 -17 0 -6 5 -5 12 2 6 6 9 14 7 17 -3 3
-9 2 -12 -2z"/>
<path d="M3640 185 c-8 -9 -8 -15 -2 -15 12 0 26 19 19 26 -2 2 -10 -2 -17
-11z"/>
<path d="M3756 185 c-9 -26 -7 -32 5 -12 6 10 9 21 6 23 -2 3 -7 -2 -11 -11z"/>
<path d="M3441 134 c0 -11 3 -14 6 -6 3 7 2 16 -1 19 -3 4 -6 -2 -5 -13z"/>
<path d="M3470 119 c0 -5 5 -7 10 -4 6 3 10 8 10 11 0 2 -4 4 -10 4 -5 0 -10
-5 -10 -11z"/>
</g>
</svg>
