<svg version="1.0" xmlns="http://www.w3.org/2000/svg"
 width="169.000000pt" height="502.000000pt" viewBox="0 0 169.000000 502.000000"
 preserveAspectRatio="xMidYMid meet">

<g transform="translate(0.000000,502.000000) scale(0.100000,-0.100000)"
fill="#a6a6a6" stroke="none">
<path d="M1350 4777 c0 -34 -107 -50 -146 -22 -20 13 -21 13 -16 -11 3 -17 8
-22 16 -15 17 14 18 -46 1 -80 -18 -34 -66 -62 -92 -52 -12 4 -10 0 7 -15 l25
-20 -21 -29 c-12 -16 -32 -29 -49 -31 -26 -3 -27 -3 -11 19 9 14 13 32 9 47
-3 15 -1 27 8 33 12 7 11 9 -1 9 -8 1 9 10 38 21 48 19 93 61 79 75 -3 3 -8
-4 -12 -15 -6 -21 -79 -61 -112 -61 -31 0 -46 25 -39 64 11 57 4 59 -270 59
-197 0 -248 -3 -254 -14 -16 -24 -10 -112 8 -125 16 -11 17 -115 16 -1326 -1
-1467 -9 -2611 -20 -2728 -4 -50 -2 -84 5 -96 8 -15 11 -2 11 61 0 44 3 157 5
250 9 331 16 1564 16 2696 l0 1147 217 -2 217 -1 -2 -609 -1 -608 -37 -36
c-59 -58 -68 -84 -62 -180 5 -89 20 -118 77 -145 l25 -12 1 -1270 c0 -744 4
-1279 10 -1292 5 -13 9 481 9 1275 l0 1297 65 5 c61 5 65 7 85 40 17 29 20 52
20 137 0 87 -3 105 -21 130 -15 20 -31 29 -55 31 -19 1 -48 5 -66 7 l-32 6 1
555 1 555 41 -8 c59 -12 148 -9 171 5 18 11 17 12 -8 6 -27 -6 -27 -5 -16 19
10 22 14 24 35 15 13 -6 21 -15 18 -19 -3 -5 0 -9 5 -9 14 0 15 -205 1 -231
-9 -16 -7 -19 15 -17 14 1 25 6 25 11 0 4 5 5 10 2 6 -3 10 -2 10 4 0 5 -9 13
-20 16 -19 6 -20 13 -18 122 l3 116 60 17 c109 30 157 68 215 173 38 67 34 78
-4 12 -15 -25 -34 -45 -44 -45 -13 0 -14 -2 -4 -9 10 -6 7 -15 -13 -39 -36
-43 -85 -44 -113 -4 -20 27 -26 45 -23 70 1 9 10 6 29 -8 21 -16 39 -20 68
-17 l39 4 -41 1 c-54 3 -97 40 -88 77 3 14 3 25 0 25 -3 0 -6 -6 -6 -13z m-14
-73 c-10 -27 -116 -12 -116 16 0 6 19 10 43 10 23 0 49 5 57 10 17 11 26 -10
16 -36z m-410 30 c93 -8 98 -12 89 -63 l-7 -41 -244 0 -244 0 0 49 c0 44 3 50
23 54 38 7 309 7 383 1z m434 -95 c19 -22 44 -40 55 -40 25 0 -17 -20 -90 -42
-45 -14 -51 -14 -62 1 -12 14 -13 14 -13 -1 0 -19 -8 -21 -29 -8 -11 7 -10 11
7 20 11 6 22 20 24 32 3 18 5 19 22 6 15 -11 17 -17 7 -35 -6 -12 -9 -22 -7
-22 3 0 12 12 20 28 12 23 15 25 21 10 4 -10 12 -18 17 -18 6 0 5 6 -2 15 -8
9 -10 28 -7 48 l6 32 -15 -27 c-8 -16 -18 -28 -22 -28 -13 0 -38 23 -51 45 -9
16 -10 12 -6 -25 5 -39 3 -47 -15 -58 -18 -11 -28 -11 -51 -1 l-30 12 31 18
c17 11 37 34 46 53 16 32 18 33 63 29 38 -4 52 -12 81 -44z m-297 -57 c6 -48
-7 -72 -38 -72 -23 0 -25 4 -25 45 0 29 6 51 18 63 22 25 39 12 45 -36z m127
-40 c0 -24 -34 -52 -63 -52 -25 1 -28 3 -16 10 9 5 22 23 29 40 10 25 15 28
31 19 11 -5 19 -13 19 -17z m-100 -1177 c0 -1 -11 -28 -25 -59 -33 -75 -33
-142 0 -207 l24 -49 -60 0 c-33 0 -69 5 -80 10 -32 17 -49 64 -49 134 0 75 11
110 47 148 23 24 34 27 85 27 32 -1 58 -2 58 -4z m62 -52 c17 -39 19 -58 14
-115 -6 -72 -32 -138 -52 -138 -22 0 -54 83 -54 141 0 56 40 159 61 159 6 0
19 -21 31 -47z"/>
</g>
</svg>
