<?xml version="1.0" standalone="no"?>
<!DOCTYPE svg PUBLIC "-//W3C//DTD SVG 20010904//EN"
 "http://www.w3.org/TR/2001/REC-SVG-20010904/DTD/svg10.dtd">
<svg version="1.0" xmlns="http://www.w3.org/2000/svg"
 width="314.000000pt" height="310.000000pt" viewBox="0 0 314.000000 310.000000"
 preserveAspectRatio="xMidYMid meet">

<g transform="translate(0.000000,310.000000) scale(0.100000,-0.100000)"
fill="#FFFFFF" stroke="none">
<path d="M200 2560 l0 -390 388 2 387 3 3 388 2 387 -390 0 -390 0 0 -390z
m670 5 l0 -275 -280 0 -280 0 0 275 0 275 280 0 280 0 0 -275z"/>
<path d="M420 2565 l0 -165 165 0 165 0 0 165 0 165 -165 0 -165 0 0 -165z"/>
<path d="M1200 2895 l0 -55 -55 0 -55 0 0 -55 0 -55 55 0 55 0 0 -55 0 -55
-55 0 -55 0 0 -55 0 -55 110 0 110 0 0 -170 0 -170 55 0 55 0 0 170 0 170 55
0 55 0 0 -55 0 -55 60 0 60 0 0 -60 0 -60 -60 0 -60 0 0 -165 0 -165 60 0 60
0 0 165 0 165 55 0 55 0 0 -165 0 -165 55 0 55 0 0 -55 0 -55 55 0 55 0 0 110
0 110 55 0 55 0 0 -55 0 -55 55 0 55 0 0 -55 0 -55 -55 0 -55 0 0 -55 0 -55
-55 0 -55 0 0 -55 0 -55 -110 0 -110 0 0 110 0 110 -170 0 -170 0 0 -55 0 -55
-55 0 -55 0 0 110 0 110 55 0 55 0 0 55 0 55 -275 0 -275 0 0 -55 0 -55 55 0
55 0 0 -55 0 -55 -115 0 -115 0 0 110 0 110 -275 0 -275 0 0 -165 0 -165 55 0
55 0 0 -115 0 -115 -55 0 -55 0 0 -220 0 -220 55 0 55 0 0 220 0 220 55 0 55
0 0 -220 0 -220 110 0 110 0 0 55 0 55 115 0 115 0 0 -55 0 -55 55 0 55 0 0
55 0 55 -55 0 -55 0 0 55 0 55 110 0 110 0 0 -220 0 -220 55 0 55 0 0 -60 0
-60 -55 0 -55 0 0 -275 0 -275 110 0 110 0 0 55 0 55 -55 0 -55 0 0 165 0 165
55 0 55 0 0 -55 0 -55 55 0 55 0 0 55 0 55 55 0 55 0 0 -220 0 -220 225 0 225
0 0 55 0 55 55 0 55 0 0 -55 0 -55 55 0 55 0 0 55 0 55 55 0 55 0 0 55 0 55
60 0 60 0 0 -55 0 -55 55 0 55 0 0 -55 0 -55 220 0 220 0 0 55 0 55 -55 0 -55
0 0 55 0 55 55 0 55 0 0 110 0 110 -110 0 -110 0 0 -55 0 -55 -55 0 -55 0 0
170 0 170 165 0 165 0 0 275 0 275 -165 0 -165 0 0 -55 0 -55 55 0 55 0 0 -55
0 -55 55 0 55 0 0 -110 0 -110 -110 0 -110 0 0 -55 0 -55 -55 0 -55 0 0 110 0
110 55 0 55 0 0 55 0 55 -280 0 -280 0 0 55 0 55 110 0 110 0 0 55 0 55 60 0
60 0 0 -55 0 -55 55 0 55 0 0 110 0 110 55 0 55 0 0 60 0 60 -110 0 -110 0 0
55 0 55 55 0 55 0 0 110 0 110 55 0 55 0 0 55 0 55 -55 0 -55 0 0 -55 0 -55
-55 0 -55 0 0 55 0 55 -60 0 -60 0 0 -55 0 -55 -55 0 -55 0 0 55 0 55 -55 0
-55 0 0 110 0 110 -55 0 -55 0 0 -110 0 -110 -55 0 -55 0 0 170 0 170 -110 0
-110 0 0 55 0 55 55 0 55 0 0 55 0 55 55 0 55 0 0 -55 0 -55 55 0 55 0 0 55 0
55 55 0 55 0 0 55 0 55 -55 0 -55 0 0 -55 0 -55 -55 0 -55 0 0 165 0 165 -55
0 -55 0 0 -55 0 -55 -170 0 -170 0 0 -55 0 -55 -55 0 -55 0 0 110 0 110 -55 0
-55 0 0 -55z m560 -220 l0 -55 -55 0 -55 0 0 -55 0 -55 -60 0 -60 0 0 110 0
110 115 0 115 0 0 -55z m-340 -110 l0 -55 -55 0 -55 0 0 55 0 55 55 0 55 0 0
-55z m-890 -670 l0 -55 110 0 110 0 0 -110 0 -110 60 0 60 0 0 55 0 55 55 0
55 0 0 55 0 55 55 0 55 0 0 -55 0 -55 55 0 55 0 0 -55 0 -55 -165 0 -165 0 0
-60 0 -60 220 0 220 0 0 60 0 60 55 0 55 0 0 -60 0 -60 55 0 55 0 0 115 0 115
60 0 60 0 0 -115 0 -115 220 0 220 0 0 -110 0 -110 -55 0 -55 0 0 -55 0 -55
-110 0 -110 0 0 -55 0 -55 110 0 110 0 0 -55 0 -55 -280 0 -280 0 0 55 0 55
-55 0 -55 0 0 55 0 55 -55 0 -55 0 0 55 0 55 -55 0 -55 0 0 55 0 55 -110 0
-110 0 0 -55 0 -55 -60 0 -60 0 0 55 0 55 -55 0 -55 0 0 -110 0 -110 -55 0
-55 0 0 165 0 165 -55 0 -55 0 0 115 0 115 -55 0 -55 0 0 55 0 55 55 0 55 0 0
55 0 55 55 0 55 0 0 -55z m1900 -55 l0 -110 -60 0 -60 0 0 -55 0 -55 -110 0
-110 0 0 55 0 55 110 0 110 0 0 110 0 110 60 0 60 0 0 -110z m0 -950 l0 -170
-170 0 -170 0 0 170 0 170 170 0 170 0 0 -170z m-1120 5 l0 -55 -55 0 -55 0 0
55 0 55 55 0 55 0 0 -55z m560 -115 l0 -60 55 0 55 0 0 -55 0 -55 -55 0 -55 0
0 55 0 55 -55 0 -55 0 0 -110 0 -110 -55 0 -55 0 0 110 0 110 -60 0 -60 0 0
60 0 60 170 0 170 0 0 -60z m440 -280 l0 -110 -220 0 -220 0 0 55 0 55 165 0
165 0 0 55 0 55 55 0 55 0 0 -110z m340 -55 l0 -55 -55 0 -55 0 0 55 0 55 55
0 55 0 0 -55z m220 0 l0 -55 -55 0 -55 0 0 55 0 55 55 0 55 0 0 -55z m-1110
-110 l0 -55 -55 0 -55 0 0 55 0 55 55 0 55 0 0 -55z"/>
<path d="M640 1560 l0 -60 55 0 55 0 0 60 0 60 -55 0 -55 0 0 -60z"/>
<path d="M1310 1445 l0 -55 -55 0 -55 0 0 -55 0 -55 55 0 55 0 0 -55 0 -55 55
0 55 0 0 55 0 55 -55 0 -55 0 0 55 0 55 55 0 55 0 0 55 0 55 -55 0 -55 0 0
-55z"/>
<path d="M1530 1445 l0 -55 60 0 60 0 0 -55 0 -55 -60 0 -60 0 0 -110 0 -110
60 0 60 0 0 110 0 110 110 0 110 0 0 55 0 55 -110 0 -110 0 0 55 0 55 -60 0
-60 0 0 -55z"/>
<path d="M2200 895 l0 -55 55 0 55 0 0 55 0 55 -55 0 -55 0 0 -55z"/>
<path d="M1980 2895 l0 -55 55 0 55 0 0 55 0 55 -55 0 -55 0 0 -55z"/>
<path d="M2202 2563 l3 -388 388 -3 387 -2 0 390 0 390 -390 0 -390 0 2 -387z
m668 2 l0 -275 -275 0 -275 0 0 275 0 275 275 0 275 0 0 -275z"/>
<path d="M2430 2565 l0 -165 165 0 165 0 0 165 0 165 -165 0 -165 0 0 -165z"/>
<path d="M1090 2285 l0 -115 55 0 55 0 0 115 0 115 -55 0 -55 0 0 -115z"/>
<path d="M2760 2005 l0 -55 55 0 55 0 0 -55 0 -55 55 0 55 0 0 55 0 55 -55 0
-55 0 0 55 0 55 -55 0 -55 0 0 -55z"/>
<path d="M2650 1785 l0 -55 55 0 55 0 0 55 0 55 -55 0 -55 0 0 -55z"/>
<path d="M2760 1560 l0 -60 110 0 110 0 0 60 0 60 -110 0 -110 0 0 -60z"/>
<path d="M200 560 l0 -390 390 0 390 0 -2 388 -3 387 -387 3 -388 2 0 -390z
m670 -5 l0 -275 -280 0 -280 0 0 275 0 275 280 0 280 0 0 -275z"/>
<path d="M420 555 l0 -165 165 0 165 0 0 165 0 165 -165 0 -165 0 0 -165z"/>
</g>
</svg>
