<?xml version="1.0" standalone="no"?>
<!DOCTYPE svg PUBLIC "-//W3C//DTD SVG 20010904//EN"
 "http://www.w3.org/TR/2001/REC-SVG-20010904/DTD/svg10.dtd">
<svg version="1.0" xmlns="http://www.w3.org/2000/svg"
 width="836.000000pt" height="832.000000pt" viewBox="0 0 836.000000 832.000000"
 preserveAspectRatio="xMidYMid meet">

<g transform="translate(0.000000,832.000000) scale(0.100000,-0.100000)"
fill="#FFFFFF" stroke="none">
<path d="M3080 8005 l0 -165 -165 0 -165 0 0 -160 0 -160 165 0 165 0 0 -160
0 -160 -165 0 -165 0 0 -160 0 -160 325 0 325 0 0 -480 0 -480 160 0 160 0 0
480 0 480 160 0 160 0 0 -160 0 -160 160 0 160 0 0 -160 0 -160 -160 0 -160 0
0 -480 0 -480 160 0 160 0 0 480 0 480 160 0 160 0 0 -480 0 -480 160 0 160 0
0 -160 0 -160 160 0 160 0 0 320 0 320 160 0 160 0 0 -160 0 -160 160 0 160 0
0 -160 0 -160 -160 0 -160 0 0 -160 0 -160 -160 0 -160 0 0 -160 0 -160 -320
0 -320 0 0 320 0 320 -480 0 -480 0 0 -160 0 -160 -160 0 -160 0 0 320 0 320
160 0 160 0 0 160 0 160 -805 0 -805 0 0 -160 0 -160 -160 0 -160 0 0 160 0
160 -800 0 -800 0 0 -160 0 -160 160 0 160 0 0 -160 0 -160 -160 0 -160 0 0
-160 0 -160 160 0 160 0 0 -160 0 -160 -160 0 -160 0 0 -805 0 -805 160 0 160
0 0 480 0 480 160 0 160 0 0 -320 0 -320 160 0 160 0 0 -160 0 -160 320 0 320
0 0 160 0 160 -320 0 -320 0 0 160 0 160 640 0 640 0 0 -160 0 -160 -160 0
-160 0 0 -160 0 -160 160 0 160 0 0 160 0 160 160 0 160 0 0 -480 0 -480 165
0 165 0 0 -160 0 -160 -165 0 -165 0 0 -800 0 -800 325 0 325 0 0 160 0 160
-160 0 -160 0 0 480 0 480 160 0 160 0 0 -320 0 -320 160 0 160 0 0 320 0 320
160 0 160 0 0 -480 0 -480 320 0 320 0 0 -160 0 -160 320 0 320 0 0 160 0 160
160 0 160 0 0 -160 0 -160 160 0 160 0 0 160 0 160 160 0 160 0 0 160 0 160
160 0 160 0 0 -160 0 -160 160 0 160 0 0 -160 0 -160 645 0 645 0 0 160 0 160
-160 0 -160 0 0 160 0 160 160 0 160 0 0 320 0 320 -320 0 -320 0 0 -160 0
-160 -165 0 -165 0 0 480 0 480 485 0 485 0 0 800 0 800 -485 0 -485 0 0 -160
0 -160 165 0 165 0 0 -160 0 -160 160 0 160 0 0 -320 0 -320 -325 0 -325 0 0
-160 0 -160 -160 0 -160 0 0 320 0 320 160 0 160 0 0 160 0 160 -800 0 -800 0
0 160 0 160 320 0 320 0 0 160 0 160 160 0 160 0 0 -160 0 -160 160 0 160 0 0
325 0 325 160 0 160 0 0 160 0 160 -320 0 -320 0 0 160 0 160 160 0 160 0 0
320 0 320 160 0 160 0 0 160 0 160 -160 0 -160 0 0 -160 0 -160 -160 0 -160 0
0 160 0 160 -160 0 -160 0 0 -160 0 -160 -160 0 -160 0 0 160 0 160 -160 0
-160 0 0 320 0 320 -160 0 -160 0 0 -320 0 -320 -160 0 -160 0 0 480 0 480
-320 0 -320 0 0 160 0 160 160 0 160 0 0 160 0 160 160 0 160 0 0 -160 0 -160
160 0 160 0 0 160 0 160 160 0 160 0 0 160 0 160 -160 0 -160 0 0 -160 0 -160
-160 0 -160 0 0 485 0 485 -160 0 -160 0 0 -165 0 -165 -480 0 -480 0 0 -160
0 -160 -160 0 -160 0 0 325 0 325 -160 0 -160 0 0 -165z m1600 -645 l0 -160
-160 0 -160 0 0 -160 0 -160 -160 0 -160 0 0 320 0 320 320 0 320 0 0 -160z
m-960 -320 l0 -160 -160 0 -160 0 0 160 0 160 160 0 160 0 0 -160z m-1930
-1920 l0 -160 160 0 160 0 0 160 0 160 160 0 160 0 0 -160 0 -160 -160 0 -160
0 0 -160 0 -160 320 0 320 0 0 160 0 160 165 0 165 0 0 -160 0 -160 -165 0
-165 0 0 -320 0 -320 325 0 325 0 0 160 0 160 160 0 160 0 0 -160 0 -160 160
0 160 0 0 320 0 320 160 0 160 0 0 -320 0 -320 640 0 640 0 0 -325 0 -325
-160 0 -160 0 0 -160 0 -160 -160 0 -160 0 0 -160 0 -160 160 0 160 0 0 -160
0 -160 -160 0 -160 0 0 160 0 160 -160 0 -160 0 0 -160 0 -160 -480 0 -480 0
0 -160 0 -160 -160 0 -160 0 0 160 0 160 -160 0 -160 0 0 160 0 160 160 0 160
0 0 160 0 160 -325 0 -325 0 0 160 0 160 -160 0 -160 0 0 160 0 160 -160 0
-160 0 0 165 0 165 -160 0 -160 0 0 -165 0 -165 -160 0 -160 0 0 325 0 325
160 0 160 0 0 320 0 320 -160 0 -160 0 0 -160 0 -160 -160 0 -160 0 0 -160 0
-160 -160 0 -160 0 0 -160 0 -160 -160 0 -160 0 0 160 0 160 160 0 160 0 0
160 0 160 -160 0 -160 0 0 160 0 160 160 0 160 0 0 160 0 160 480 0 480 0 0
-160z m4810 -160 l0 -320 -160 0 -160 0 0 -160 0 -160 -320 0 -320 0 0 160 0
160 320 0 320 0 0 320 0 320 160 0 160 0 0 -320z m0 -2730 l0 -480 -480 0
-480 0 0 480 0 480 480 0 480 0 0 -480z m-2240 -320 l0 -160 -160 0 -160 0 0
160 0 160 160 0 160 0 0 -160z m640 0 l0 -160 160 0 160 0 0 -160 0 -160 -160
0 -160 0 0 160 0 160 -160 0 -160 0 0 160 0 160 160 0 160 0 0 -160z m-320
-640 l0 -160 -160 0 -160 0 0 160 0 160 160 0 160 0 0 -160z m1600 -160 l0
-320 -640 0 -640 0 0 -160 0 -160 -160 0 -160 0 0 160 0 160 160 0 160 0 0
160 0 160 480 0 480 0 0 160 0 160 160 0 160 0 0 -320z m960 -160 l0 -160
-160 0 -160 0 0 160 0 160 160 0 160 0 0 -160z m650 0 l0 -160 -160 0 -160 0
0 160 0 160 160 0 160 0 0 -160z"/>
<path d="M2110 4160 l0 -160 160 0 160 0 0 160 0 160 -160 0 -160 0 0 -160z"/>
<path d="M3400 3675 l0 -325 160 0 160 0 0 325 0 325 -160 0 -160 0 0 -325z"/>
<path d="M4040 3835 l0 -165 160 0 160 0 0 -160 0 -160 -160 0 -160 0 0 -320
0 -320 320 0 320 0 0 160 0 160 -160 0 -160 0 0 160 0 160 320 0 320 0 0 160
0 160 -320 0 -320 0 0 165 0 165 -160 0 -160 0 0 -165z"/>
<path d="M3400 2550 l0 -160 160 0 160 0 0 160 0 160 -160 0 -160 0 0 -160z"/>
<path d="M5960 2230 l0 -160 160 0 160 0 0 160 0 160 -160 0 -160 0 0 -160z"/>
<path d="M5320 8005 l0 -165 160 0 160 0 0 165 0 165 -160 0 -160 0 0 -165z"/>
<path d="M190 7040 l0 -1120 1120 0 1120 0 0 1120 0 1120 -1120 0 -1120 0 0
-1120z m1920 0 l0 -800 -800 0 -800 0 0 800 0 800 800 0 800 0 0 -800z"/>
<path d="M830 7040 l0 -480 480 0 480 0 0 480 0 480 -480 0 -480 0 0 -480z"/>
<path d="M5970 7040 l0 -1120 1120 0 1120 0 0 1120 0 1120 -1120 0 -1120 0 0
-1120z m1920 0 l0 -800 -800 0 -800 0 0 800 0 800 800 0 800 0 0 -800z"/>
<path d="M6600 7040 l0 -480 485 0 485 0 0 480 0 480 -485 0 -485 0 0 -480z"/>
<path d="M2750 6240 l0 -320 165 0 165 0 0 320 0 320 -165 0 -165 0 0 -320z"/>
<path d="M7570 5440 l0 -160 160 0 160 0 0 -160 0 -160 160 0 160 0 0 160 0
160 -160 0 -160 0 0 160 0 160 -160 0 -160 0 0 -160z"/>
<path d="M7240 4800 l0 -160 165 0 165 0 0 160 0 160 -165 0 -165 0 0 -160z"/>
<path d="M7570 4160 l0 -160 320 0 320 0 0 160 0 160 -320 0 -320 0 0 -160z"/>
<path d="M190 1270 l0 -1120 1120 0 1120 0 0 1120 0 1120 -1120 0 -1120 0 0
-1120z m1920 0 l0 -800 -800 0 -800 0 0 800 0 800 800 0 800 0 0 -800z"/>
<path d="M830 1270 l0 -480 480 0 480 0 0 480 0 480 -480 0 -480 0 0 -480z"/>
</g>
</svg>
