<?xml version="1.0" standalone="no"?>
<!DOCTYPE svg PUBLIC "-//W3C//DTD SVG 20010904//EN"
 "http://www.w3.org/TR/2001/REC-SVG-20010904/DTD/svg10.dtd">
<svg version="1.0" xmlns="http://www.w3.org/2000/svg"
 width="198.000000pt" height="256.000000pt" viewBox="0 0 198.000000 256.000000"
 preserveAspectRatio="xMidYMid meet">

<g transform="translate(0.000000,256.000000) scale(0.100000,-0.100000)"
fill="#FFFFFF" stroke="none">
<path d="M1715 2361 c-3 -6 -4 -15 0 -20 4 -8 -107 -111 -120 -111 -2 0 -21
11 -41 25 -54 37 -114 35 -148 -5 -29 -36 -42 -105 -29 -158 12 -45 4 -68 -31
-101 -20 -19 -26 -21 -26 -9 0 18 -24 30 -44 22 -8 -3 -56 -1 -108 5 -162 18
-245 16 -330 -7 -92 -26 -118 -27 -118 -7 0 21 -58 55 -94 55 -87 0 -166 -53
-186 -126 -12 -42 -11 -51 3 -76 13 -23 17 -56 18 -141 0 -62 6 -137 12 -167
l12 -55 128 -9 c127 -9 173 -4 252 30 18 7 18 6 -3 -21 -44 -56 -91 -80 -151
-78 -70 3 -107 -16 -116 -59 -4 -18 -15 -57 -26 -86 -26 -71 -36 -207 -19
-258 29 -86 72 -165 115 -206 25 -24 45 -50 45 -60 0 -9 14 -28 31 -42 l31
-27 -4 -126 c-3 -88 -8 -128 -16 -131 -27 -9 -58 -70 -54 -106 4 -33 6 -35 70
-52 37 -10 105 -33 152 -52 138 -54 161 -60 196 -48 53 19 76 42 77 77 3 44
-24 72 -94 99 -61 24 -201 92 -209 101 -9 10 -40 19 -40 11 0 -4 51 -33 113
-65 118 -61 198 -104 205 -112 2 -2 -15 -14 -39 -25 l-44 -22 -100 31 c-55 17
-139 45 -188 64 l-87 34 21 27 c11 14 24 24 29 21 14 -9 20 37 20 158 0 97 3
119 15 124 9 3 19 2 23 -2 4 -3 7 -66 7 -138 -1 -94 2 -120 8 -91 4 21 6 101
3 176 -2 76 -1 138 4 138 4 0 18 24 31 53 20 44 24 72 27 191 4 128 2 141 -17
167 -24 32 -26 48 -10 83 6 13 9 36 5 50 -5 21 -13 26 -36 26 -16 0 -31 4 -34
9 -6 9 78 64 104 68 8 1 36 5 63 9 26 4 47 12 47 19 0 19 46 38 75 31 14 -4
23 -11 19 -17 -3 -6 -6 -52 -5 -102 1 -87 3 -96 42 -172 41 -80 83 -135 103
-135 6 0 -1 10 -15 23 -57 48 -149 267 -112 267 5 0 8 17 6 38 -1 20 0 28 3
17 9 -30 19 -37 61 -40 49 -3 81 9 119 46 l31 30 18 -60 c14 -48 16 -76 10
-138 -4 -43 -8 -91 -9 -108 -3 -27 -6 -30 -37 -27 -29 3 -37 -1 -49 -23 -13
-25 -13 -29 9 -46 27 -22 64 -25 79 -6 6 7 10 28 10 47 -1 19 2 85 7 146 7
100 6 118 -15 185 -18 60 -31 83 -70 121 -41 41 -53 48 -87 48 -26 0 -50 -8
-67 -21 -20 -16 -35 -19 -64 -15 -20 3 -43 5 -49 6 -7 0 -13 6 -13 13 0 7 30
19 78 29 107 24 265 68 275 77 4 4 3 30 -3 57 -6 27 -16 86 -24 132 l-13 83
43 45 c34 37 45 44 61 36 10 -5 41 -12 69 -16 71 -9 119 12 128 55 11 55 7 99
-14 138 l-19 39 61 48 c34 27 74 51 88 54 36 7 35 44 -2 48 -14 2 -29 -2 -33
-7z m-186 -105 c47 -25 52 -38 27 -67 -12 -14 -28 -23 -35 -21 -12 4 -30 -14
-31 -30 0 -4 7 -14 16 -23 13 -12 19 -13 31 -4 7 7 12 18 9 25 -5 14 30 64 45
64 15 0 39 -65 39 -105 0 -66 -66 -96 -130 -59 -38 23 -56 58 -70 133 -10 56
-9 65 6 82 20 23 55 24 93 5z m-98 -143 c15 -55 58 -95 111 -104 l43 -6 -51
-2 c-69 -1 -106 13 -128 51 -20 33 -25 114 -11 158 8 23 9 23 17 -15 4 -22 13
-59 19 -82z m94 37 c-3 -5 -1 -10 5 -10 6 0 8 -4 5 -10 -10 -17 -25 -11 -25
10 0 11 5 20 11 20 5 0 7 -4 4 -10z m-869 -141 c20 -12 36 -32 40 -47 10 -45
12 -48 14 -17 l2 30 8 -30 c6 -22 8 -25 9 -9 1 18 14 26 84 45 69 20 100 23
197 21 63 -2 140 -7 170 -11 l55 -7 -70 -8 c-38 -4 -117 -19 -175 -33 -187
-44 -224 -51 -285 -47 -33 2 -89 4 -125 5 l-65 1 60 13 c35 8 61 10 63 4 7
-18 20 -8 15 11 -10 39 -53 62 -110 58 -35 -2 -49 0 -42 7 5 6 32 10 59 10 40
0 54 -5 79 -29 17 -17 32 -39 32 -50 1 -18 2 -18 6 -3 7 28 -24 67 -70 88 -40
18 -41 19 -13 19 16 0 44 -9 62 -21z m39 1 c27 -30 12 -34 -15 -5 -13 14 -19
25 -13 25 5 0 18 -9 28 -20z m669 -35 c-9 -14 -21 -25 -27 -25 -6 0 0 11 13
25 13 14 25 25 27 25 2 0 -4 -11 -13 -25z m-753 -14 c22 -18 22 -19 3 -24 -10
-3 -41 -8 -69 -12 -27 -4 -56 -12 -64 -18 -12 -10 -13 -7 -7 18 4 17 14 36 23
43 25 18 87 15 114 -7z m721 -138 c15 -87 24 -161 20 -165 -4 -4 -95 -30 -202
-57 -107 -27 -229 -61 -270 -75 -41 -13 -76 -23 -77 -22 -2 2 -15 79 -28 172
-14 93 -27 174 -29 180 -3 7 13 16 37 22 156 40 279 65 387 81 69 11 127 20
130 20 3 1 17 -70 32 -156z m-876 71 c-4 -14 -9 -24 -12 -21 -3 2 -2 17 2 31
3 15 9 25 11 22 3 -3 2 -17 -1 -32z m272 -41 c6 -16 16 -73 23 -128 6 -55 17
-131 24 -168 l13 -69 -139 4 c-109 3 -142 7 -149 18 -12 19 -18 83 -24 243
l-5 127 123 0 124 0 10 -27z m274 -355 c2 -29 4 -53 4 -54 -1 -1 -12 -4 -26
-7 -22 -5 -27 -2 -36 26 -6 18 -14 39 -18 47 -6 14 19 29 66 39 3 0 8 -23 10
-51z m274 21 c55 -43 70 -74 50 -103 -23 -36 -93 -67 -124 -55 -18 7 -27 6
-32 -1 -9 -15 -20 13 -19 43 1 17 3 15 9 -8 l8 -30 1 28 c1 23 5 27 29 27 23
0 33 8 48 35 18 34 18 35 -4 65 -29 39 -15 38 34 -1z m-71 11 c23 -9 26 -15
23 -47 -3 -37 -4 -38 -43 -38 -26 0 -39 4 -38 12 2 7 -15 17 -37 23 -49 13
-43 35 6 27 19 -3 32 -2 29 3 -3 5 3 13 12 19 22 13 17 13 48 1z m-159 -45
c-8 -8 -17 -15 -20 -15 -3 0 -6 7 -6 15 0 9 9 15 21 15 18 0 19 -2 5 -15z
m-131 -25 c0 -8 -10 -16 -22 -18 -18 -3 -23 2 -23 18 0 16 5 21 23 18 12 -2
22 -10 22 -18z m217 -42 c-7 -7 -12 -8 -12 -2 0 14 12 26 19 19 2 -3 -1 -11
-7 -17z m-277 6 c13 -5 9 -11 -19 -30 -30 -21 -39 -22 -55 -12 -18 11 -17 13
17 29 20 10 38 18 39 18 1 1 9 -2 18 -5z m-108 -45 c34 -13 43 -25 43 -65 0
-47 -20 -66 -78 -72 -45 -4 -53 -1 -78 23 -19 19 -25 22 -20 8 5 -11 4 -14 -2
-8 -5 6 -7 27 -4 48 7 62 71 92 139 66z m118 -79 c3 -11 2 -27 -3 -36 -8 -14
-10 -9 -14 20 -4 38 6 49 17 16z m-25 -10 c0 -5 -2 -10 -4 -10 -3 0 -8 5 -11
10 -3 6 -1 10 4 10 6 0 11 -4 11 -10z m-12 -22 c25 -25 11 -59 -60 -143 -40
-47 -75 -84 -79 -83 -3 2 -34 28 -67 59 -62 56 -70 73 -53 107 5 9 12 25 15
34 5 16 8 16 33 3 15 -8 54 -15 86 -15 48 0 61 4 80 24 26 29 29 30 45 14z
m42 -113 c1 6 5 1 10 -10 11 -26 13 -245 1 -245 -4 0 -11 -15 -14 -33 -3 -18
-12 -50 -21 -72 -15 -36 -17 -37 -34 -21 -20 18 -67 22 -77 6 -3 -5 -12 -10
-19 -10 -20 0 -102 110 -131 176 -30 67 -44 167 -26 179 15 9 63 -34 54 -48
-3 -6 -2 -7 4 -4 6 4 20 -4 32 -17 17 -18 19 -25 9 -29 -7 -4 0 -4 16 -2 16 2
32 8 36 12 4 4 36 41 70 82 62 73 63 73 76 50 7 -13 14 -19 14 -14z m485 -96
c5 -13 1 -27 -8 -36 -13 -14 -18 -14 -36 -1 -19 13 -19 16 -5 36 19 28 41 28
49 1z m-554 -289 c29 -16 26 -68 -5 -76 -29 -7 -66 11 -66 32 0 25 19 54 36
54 8 0 24 -5 35 -10z m14 -477 c33 -14 98 -36 145 -50 105 -31 120 -39 120
-64 0 -24 -23 -20 -120 21 -89 37 -115 46 -187 66 -55 15 -63 20 -63 41 0 28
6 27 105 -14z m359 -70 c5 -11 -1 -23 -16 -35 -36 -26 -56 -29 -64 -6 -7 22
-8 20 31 41 38 21 41 21 49 0z"/>
<path d="M890 1970 c-11 -7 -12 -12 -3 -21 14 -14 46 -4 41 13 -6 16 -20 19
-38 8z"/>
<path d="M813 1953 c-22 -8 -14 -23 11 -23 26 0 43 16 31 28 -4 4 -10 1 -12
-5 -3 -7 -9 -13 -14 -13 -6 0 -7 5 -4 10 7 11 6 11 -12 3z"/>
<path d="M1163 1899 c-27 -10 -63 -65 -63 -95 0 -28 41 -64 72 -64 36 0 79 17
94 38 46 59 -31 150 -103 121z m81 -25 c42 -42 27 -97 -31 -113 -48 -14 -82
-4 -93 25 -26 67 74 138 124 88z"/>
<path d="M1180 1850 c0 -8 4 -21 9 -28 8 -14 16 -7 36 28 8 13 7 13 -9 1 -15
-13 -19 -13 -27 0 -7 12 -9 12 -9 -1z"/>
<path d="M957 1853 c-12 -11 -8 -43 6 -49 8 -3 26 0 41 5 23 9 25 14 16 31
-10 19 -49 27 -63 13z m26 -24 c-4 -13 -9 -17 -15 -11 -11 11 -3 32 12 32 4 0
6 -9 3 -21z"/>
<path d="M846 1824 c-10 -26 13 -46 43 -39 34 9 45 27 24 43 -24 17 -60 15
-67 -4z m34 -14 c0 -11 -4 -20 -10 -20 -5 0 -10 9 -10 20 0 11 5 20 10 20 6 0
10 -9 10 -20z m30 0 c0 -5 -4 -10 -10 -10 -5 0 -10 5 -10 10 0 6 5 10 10 10 6
0 10 -4 10 -10z"/>
<path d="M940 1741 c-65 -16 -65 -16 -64 -51 1 -19 5 -34 10 -33 61 15 148 54
146 65 -8 32 -26 36 -92 19z m76 -16 c2 -5 -26 -20 -61 -31 l-65 -22 0 24 c0
19 7 25 43 33 50 11 79 10 83 -4z"/>
<path d="M1145 1620 c3 -5 8 -10 11 -10 2 0 4 5 4 10 0 6 -5 10 -11 10 -5 0
-7 -4 -4 -10z"/>
<path d="M1050 1599 c0 -5 5 -7 10 -4 6 3 10 8 10 11 0 2 -4 4 -10 4 -5 0 -10
-5 -10 -11z"/>
<path d="M960 1580 c0 -5 5 -10 11 -10 5 0 7 5 4 10 -3 6 -8 10 -11 10 -2 0
-4 -4 -4 -10z"/>
<path d="M880 1549 c0 -5 5 -7 10 -4 6 3 10 8 10 11 0 2 -4 4 -10 4 -5 0 -10
-5 -10 -11z"/>
<path d="M606 1844 c-20 -20 -21 -50 -1 -58 21 -8 65 11 65 28 0 16 -26 46
-40 46 -5 0 -16 -7 -24 -16z m47 -18 c7 -19 -1 -26 -30 -26 -25 0 -26 1 -17
24 8 20 40 21 47 2z"/>
<path d="M620 1820 c0 -5 5 -10 10 -10 6 0 10 5 10 10 0 6 -4 10 -10 10 -5 0
-10 -4 -10 -10z"/>
<path d="M496 1834 c-8 -22 11 -44 39 -44 25 0 38 21 29 45 -8 20 -60 19 -68
-1z m54 -14 c0 -13 -7 -20 -20 -20 -13 0 -20 7 -20 20 0 13 7 20 20 20 13 0
20 -7 20 -20z"/>
<path d="M520 1820 c0 -5 5 -10 10 -10 6 0 10 5 10 10 0 6 -4 10 -10 10 -5 0
-10 -4 -10 -10z"/>
<path d="M613 1733 c-7 -3 -13 -13 -13 -24 0 -14 7 -19 30 -19 23 0 30 5 30
19 0 19 -25 31 -47 24z m37 -23 c0 -5 -9 -10 -20 -10 -11 0 -20 5 -20 10 0 6
9 10 20 10 11 0 20 -4 20 -10z"/>
<path d="M510 1710 c0 -17 7 -20 39 -20 34 0 38 3 34 20 -4 15 -14 20 -39 20
-27 0 -34 -4 -34 -20z m60 0 c0 -5 -11 -10 -25 -10 -14 0 -25 5 -25 10 0 6 11
10 25 10 14 0 25 -4 25 -10z"/>
<path d="M657 1354 c-4 -4 -7 -16 -7 -26 0 -15 6 -19 28 -16 19 2 27 9 27 23
0 20 -33 33 -48 19z m33 -19 c0 -8 -7 -15 -15 -15 -16 0 -20 12 -8 23 11 12
23 8 23 -8z"/>
<path d="M1311 889 c1 -76 3 -94 9 -65 7 36 3 156 -6 165 -2 2 -3 -43 -3 -100z"/>
<path d="M1365 892 c-4 -57 -5 -105 -2 -108 7 -7 21 180 15 198 -3 7 -9 -33
-13 -90z"/>
<path d="M1273 793 c-5 -10 -7 -27 -7 -38 1 -11 2 -27 3 -36 1 -17 25 -30 106
-60 28 -9 77 -29 110 -43 l60 -25 33 31 c36 36 44 84 15 95 -10 3 -58 23 -107
44 -49 22 -91 37 -94 34 -3 -2 12 -12 34 -21 110 -46 165 -74 170 -89 5 -11
-3 -26 -20 -43 -25 -25 -26 -26 -26 -5 0 11 7 26 15 33 8 7 15 17 15 23 0 6
-7 4 -16 -5 -15 -15 -21 -15 -73 3 -47 16 -198 78 -210 86 -2 1 2 9 9 18 8 10
9 15 2 15 -6 0 -15 -8 -19 -17z m64 -55 c26 -11 82 -33 123 -48 66 -24 75 -31
78 -55 4 -31 0 -31 -108 15 -36 15 -80 33 -98 40 -31 12 -52 36 -52 59 0 15 1
14 57 -11z"/>
</g>
</svg>
