<?xml version="1.0" standalone="no"?>
<!DOCTYPE svg PUBLIC "-//W3C//DTD SVG 20010904//EN"
 "http://www.w3.org/TR/2001/REC-SVG-20010904/DTD/svg10.dtd">
<svg version="1.0" xmlns="http://www.w3.org/2000/svg"
 width="242.000000pt" height="321.000000pt" viewBox="0 0 242.000000 321.000000"
 preserveAspectRatio="xMidYMid meet">

<g transform="translate(0.000000,321.000000) scale(0.100000,-0.100000)"
fill="#FFFFFF" stroke="none">
<path d="M1085 3060 c-46 -10 -105 -44 -194 -110 -72 -55 -85 -69 -115 -133
-75 -156 -72 -325 6 -409 l29 -31 -26 -38 c-29 -45 -52 -125 -61 -214 -21
-203 132 -464 295 -506 56 -14 53 -8 66 -127 8 -69 13 -80 44 -97 34 -17 192
-20 386 -6 209 15 235 26 254 111 23 99 6 210 -42 281 l-24 35 33 42 c65 85
119 271 149 507 9 71 -12 217 -39 278 -34 76 -106 166 -173 216 -67 50 -293
162 -373 185 -61 17 -169 25 -215 16z m174 -20 c60 -11 239 -89 337 -146 137
-79 249 -226 269 -353 10 -64 8 -198 -4 -251 -5 -25 -15 -76 -21 -115 -12 -78
-43 -180 -72 -239 -27 -52 -117 -173 -164 -218 -47 -45 -69 -53 -159 -63 -38
-4 -103 -13 -143 -21 -98 -19 -226 -18 -292 2 -67 20 -146 97 -209 203 -66
112 -82 253 -45 396 19 74 41 111 98 163 66 61 118 83 205 89 71 5 81 3 136
-25 72 -36 90 -54 110 -111 39 -111 9 -191 -85 -223 -100 -35 -196 -8 -244 68
-16 25 -31 42 -34 39 -3 -3 8 -24 24 -48 36 -52 102 -87 164 -87 55 0 137 24
163 47 22 21 47 77 47 108 0 20 9 24 86 39 122 25 274 96 274 129 0 6 -10 1
-22 -10 -13 -11 -34 -26 -48 -32 -24 -12 -24 -11 3 9 15 12 27 26 27 32 0 7
-5 6 -14 -1 -7 -6 -3 10 10 36 17 33 24 63 24 105 0 32 -3 58 -7 58 -5 0 -6
-23 -5 -50 6 -83 -59 -195 -134 -233 -26 -13 -132 -37 -182 -41 -7 -1 -23 25
-36 57 -31 75 -39 83 -110 119 -56 28 -66 30 -145 26 -93 -5 -128 -18 -197
-74 -37 -30 -43 -32 -61 -19 -36 25 -67 113 -65 185 2 98 11 138 47 216 29 63
40 76 116 134 143 108 213 128 358 100z m479 -1308 c29 -68 36 -132 22 -206
-20 -107 -38 -113 -348 -128 -244 -11 -282 -7 -301 31 -5 9 -11 53 -15 98 l-6
83 82 -1 c46 0 115 6 153 15 39 8 103 18 143 22 82 8 121 30 188 107 45 52 52
50 82 -21z"/>
<path d="M1678 2465 c-10 -13 -18 -27 -18 -31 0 -10 30 17 41 38 14 26 -3 22
-23 -7z"/>
<path d="M1317 1352 c-21 -24 -22 -48 -1 -60 11 -6 13 -11 5 -16 -6 -4 -11
-22 -11 -41 0 -27 6 -37 29 -51 24 -14 29 -23 25 -44 -4 -17 0 -31 10 -39 14
-12 13 -16 -9 -43 -32 -38 -31 -44 5 -78 18 -17 26 -31 20 -35 -16 -10 -12
-77 6 -96 16 -18 14 -18 -37 -12 -30 3 -51 3 -48 -1 9 -10 -24 -44 -93 -95
-31 -23 -55 -48 -53 -54 2 -7 6 -47 10 -89 5 -65 3 -78 -9 -78 -8 0 -27 -10
-42 -23 -23 -20 -27 -34 -34 -102 -6 -58 -12 -82 -26 -92 -13 -9 -20 -10 -25
-2 -7 12 -42 -1 -40 -15 1 -3 -10 -23 -24 -43 -24 -36 -25 -37 -25 -12 0 34
42 94 63 93 9 -1 17 5 17 12 0 30 -209 95 -300 93 -38 -1 -33 -3 35 -14 86
-15 189 -41 218 -57 17 -9 16 -11 -7 -39 -13 -16 -27 -38 -31 -49 -8 -25 -27
-25 -153 -1 -134 26 -182 40 -182 53 0 5 19 28 42 49 48 44 43 54 -6 13 -38
-33 -55 -61 -56 -95 0 -34 15 -45 70 -52 25 -4 69 -13 98 -21 30 -9 86 -18
125 -22 l72 -6 32 46 c18 25 41 46 50 46 39 1 54 26 64 107 10 78 25 107 58
116 16 4 19 -5 26 -72 4 -42 8 -84 8 -93 1 -10 5 -18 10 -18 5 0 7 15 3 33 -7
38 -28 329 -24 332 9 6 263 -18 393 -37 l150 -23 7 -50 c3 -28 7 -102 7 -165
1 -121 8 -147 36 -137 9 4 14 10 11 15 -2 4 13 30 34 57 29 37 38 56 34 77 -2
15 -6 41 -9 58 l-4 30 63 0 c70 0 76 6 76 78 0 31 2 32 40 32 22 0 40 4 40 9
0 19 -31 32 -72 29 l-43 -3 0 -52 c-1 -29 -3 -54 -5 -56 -3 -2 -26 -2 -51 1
-43 3 -47 6 -53 34 -3 17 -6 58 -6 93 0 84 -25 102 -166 121 -43 5 -50 9 -50
28 1 18 -5 21 -48 24 -26 2 -68 -1 -93 -6 -39 -9 -48 -7 -64 9 -22 22 -25 71
-5 88 10 8 21 9 42 1 32 -13 112 -15 144 -5 28 9 22 37 -10 46 -39 11 -104 10
-139 -2 -60 -21 -106 35 -62 75 18 17 22 17 68 0 54 -19 112 -14 134 12 29 36
-59 57 -139 35 -44 -13 -62 -5 -62 29 0 27 1 27 75 32 80 5 113 21 94 44 -17
21 -83 17 -134 -7 -42 -20 -47 -20 -70 -5 -26 17 -34 59 -14 72 6 3 49 7 95 8
93 1 124 16 90 42 -26 19 -67 18 -133 -3 -41 -13 -56 -14 -65 -5 -9 9 -6 18
12 37 13 14 19 25 13 25 -5 0 -17 -8 -26 -18z m183 -42 c8 -5 11 -12 7 -16
-10 -11 -104 -17 -124 -9 -15 6 -12 10 17 20 42 16 80 18 100 5z m35 -109 c6
-11 -56 -31 -97 -31 -16 0 -28 4 -28 8 0 22 113 42 125 23z m32 -115 c26 -26
-81 -41 -123 -18 -18 10 -18 11 6 21 25 11 106 9 117 -3z m2 -117 c42 -15 23
-29 -39 -29 -108 0 -124 33 -19 39 14 0 41 -4 58 -10z m34 -144 c-3 -14 -49
-18 -102 -9 -45 7 -45 8 -16 15 42 10 120 6 118 -6z m-225 -25 c-16 -26 2 -45
57 -59 43 -11 113 -15 104 -7 -3 3 -33 9 -68 15 -87 14 -114 37 -67 59 17 7
36 8 59 1 19 -5 61 -11 93 -14 33 -2 73 -7 89 -10 17 -3 56 -11 88 -17 32 -6
59 -14 62 -18 2 -4 -12 -30 -31 -59 l-36 -53 -51 7 c-29 3 -108 15 -177 26
-69 12 -165 22 -214 25 -49 2 -91 6 -93 8 -2 2 11 13 29 24 18 12 50 38 71 60
30 31 43 38 67 34 25 -4 27 -6 18 -22z m443 -162 l3 -97 45 -6 c78 -10 79 -13
6 -14 -38 -1 -65 -5 -58 -9 6 -4 13 -33 14 -64 2 -48 -1 -62 -19 -81 -12 -13
-22 -28 -22 -34 0 -10 -30 -40 -30 -32 -1 2 -5 77 -10 167 l-9 163 35 55 c20
31 37 54 39 52 2 -2 5 -47 6 -100z m209 2 c11 -7 2 -10 -33 -10 -30 0 -46 4
-42 10 8 13 55 13 75 0z m-60 -50 c0 -16 -2 -30 -4 -30 -2 0 -6 14 -8 30 -3
17 -1 30 4 30 4 0 8 -13 8 -30z m-1275 -314 c33 -8 89 -20 125 -26 111 -18
120 -21 120 -36 0 -20 -96 -10 -208 22 -45 13 -91 24 -102 24 -11 0 -20 2 -20
4 0 2 -3 12 -7 21 -5 14 -2 16 13 12 10 -3 46 -13 79 -21z"/>
<path d="M1787 553 c-11 -10 -8 -43 3 -43 6 0 10 11 10 25 0 26 -2 29 -13 18z"/>
<path d="M1354 596 c-41 -41 -43 -59 -8 -75 23 -10 25 -10 19 9 -10 30 12 50
55 50 41 0 64 -18 54 -44 -5 -14 -17 -18 -40 -15 -9 1 -24 -23 -24 -38 0 -19
29 -43 45 -37 9 4 13 14 9 28 -4 16 2 25 26 39 48 29 35 76 -27 102 -52 22
-71 19 -109 -19z"/>
<path d="M676 360 c-31 -47 -40 -41 113 -74 l114 -24 28 31 c16 17 29 37 29
44 0 13 -38 25 -150 49 -97 20 -104 19 -134 -26z m193 -1 c41 -10 75 -20 77
-21 1 -2 -8 -16 -21 -32 l-23 -29 -116 23 c-114 22 -116 23 -103 44 7 11 17
27 21 34 9 15 50 11 165 -19z"/>
<path d="M1427 393 c-14 -13 -6 -33 12 -33 25 0 38 20 20 31 -17 11 -24 11
-32 2z"/>
<path d="M1255 290 c99 -18 488 -39 474 -26 -2 3 -70 8 -149 11 -80 4 -158 8
-175 10 -16 2 -68 6 -115 9 -71 4 -77 4 -35 -4z"/>
</g>
</svg>
