<?xml version="1.0" standalone="no"?>
<!DOCTYPE svg PUBLIC "-//W3C//DTD SVG 20010904//EN"
 "http://www.w3.org/TR/2001/REC-SVG-20010904/DTD/svg10.dtd">
<svg version="1.0" xmlns="http://www.w3.org/2000/svg"
 width="497.000000pt" height="394.000000pt" viewBox="0 0 497.000000 394.000000"
 preserveAspectRatio="xMidYMid meet">

<g transform="translate(0.000000,394.000000) scale(0.100000,-0.100000)"
fill="#FFFFFF" stroke="none">
<path d="M3156 3838 c-15 -21 -24 -22 -213 -28 -109 -3 -198 -9 -198 -14 0 -5
87 -8 193 -8 183 0 192 -1 187 -19 -9 -28 11 -56 50 -70 l35 -13 0 -144 0
-144 50 -57 c46 -53 50 -62 50 -108 0 -50 0 -50 -37 -58 -21 -3 -201 -10 -400
-13 -199 -4 -363 -9 -365 -12 -2 -3 -45 -48 -96 -102 -91 -95 -92 -97 -92
-146 l0 -50 -222 -4 c-123 -2 -224 -4 -224 -4 -4 2 14 92 20 107 5 12 0 19
-21 27 -15 5 -53 26 -83 46 -30 20 -57 36 -61 36 -8 0 -16 -92 -29 -335 -5
-104 -15 -257 -22 -339 l-11 -148 -81 7 c-104 9 -110 10 -301 40 -88 13 -179
25 -201 25 -62 0 -104 11 -104 26 0 8 -4 14 -10 14 -5 0 -10 -11 -10 -24 0
-28 21 -36 96 -36 48 0 358 -44 395 -55 18 -6 29 -53 29 -129 0 -45 4 -52 50
-98 27 -27 50 -52 50 -55 0 -3 -36 -3 -81 0 -67 5 -83 10 -99 29 -18 22 -19
22 -54 5 -38 -18 -44 -34 -25 -70 24 -44 42 -47 77 -9 l27 28 116 -4 116 -4 9
-121 c10 -135 4 -127 107 -152 l67 -17 0 -73 0 -72 58 -7 c32 -4 91 -2 132 4
40 6 76 7 80 3 24 -30 49 -160 75 -398 9 -77 19 -155 23 -174 9 -41 35 -62 54
-43 10 10 10 14 0 21 -9 6 -9 17 4 55 13 37 15 76 12 180 l-3 132 30 15 c42
21 78 93 70 139 -4 19 -8 36 -9 38 -8 8 -111 29 -125 25 -14 -3 -20 12 -35 89
-29 142 -31 177 -11 184 9 4 129 2 268 -4 139 -6 460 -13 715 -14 441 -3 463
-4 468 -22 3 -10 31 -54 60 -98 88 -129 110 -215 84 -323 -7 -27 -6 -81 2
-165 6 -69 8 -147 4 -174 l-8 -48 -56 6 c-31 4 -185 11 -342 15 -157 5 -357
16 -445 24 -323 31 -665 33 -665 3 0 -8 62 -10 222 -8 163 2 281 -3 446 -18
124 -11 265 -20 314 -20 79 0 88 -2 75 -15 -12 -11 -34 -14 -92 -11 -42 2 -79
6 -82 10 -10 10 -63 7 -63 -4 0 -17 -92 -12 -112 7 -21 19 -36 10 -19 -11 8
-9 10 -27 6 -45 -11 -51 -25 -46 -25 8 0 46 -18 81 -28 53 -5 -15 -132 -17
-132 -2 0 5 -9 14 -20 20 -26 14 -63 3 -56 -16 4 -11 -10 -14 -75 -14 -72 0
-81 2 -86 20 -5 20 -43 29 -43 10 0 -5 4 -10 9 -10 16 0 21 -32 11 -71 -7 -26
-15 -37 -25 -33 -10 4 -12 12 -4 31 5 14 6 41 3 61 -6 31 -8 33 -19 19 -15
-20 -105 -24 -135 -5 -10 7 -23 8 -27 4 -4 -5 -2 -11 5 -13 18 -7 16 -83 -3
-83 -11 0 -15 12 -15 51 0 59 -15 58 -23 -3 -6 -48 5 -68 38 -68 24 0 35 17
35 56 0 23 3 24 58 24 32 0 61 -3 65 -6 3 -4 0 -22 -9 -42 -8 -19 -13 -36 -12
-38 2 -1 19 -5 39 -9 36 -7 36 -6 49 39 l13 46 66 0 c83 0 93 -6 82 -47 -11
-38 -7 -43 34 -43 30 0 33 3 44 45 l11 45 66 0 67 0 -5 -45 c-3 -25 -3 -47 1
-49 17 -10 51 17 62 48 13 35 14 36 66 36 46 0 53 -3 53 -20 0 -12 -5 -17 -13
-14 -19 7 -57 -33 -57 -62 0 -16 8 -28 25 -36 23 -11 25 -16 25 -88 0 -80 -9
-100 -45 -100 -35 0 -45 -20 -45 -93 0 -56 5 -77 26 -113 l26 -44 76 0 c43 0
151 -7 242 -15 190 -17 343 -19 369 -5 10 5 110 10 223 11 l206 1 39 40 c68
72 151 128 190 128 52 0 73 15 73 54 0 42 -47 108 -88 125 -45 19 -75 11 -93
-25 l-15 -32 -60 40 c-32 22 -63 50 -67 61 -5 12 -9 52 -10 89 -2 64 0 69 30
97 18 17 33 35 33 41 0 6 -13 25 -29 41 -25 24 -38 29 -78 29 -55 0 -86 -23
-98 -71 -7 -30 15 -83 40 -92 12 -5 15 -27 15 -117 0 -80 3 -112 13 -114 92
-28 125 -41 158 -63 l38 -25 -61 -52 -61 -53 -197 -6 c-108 -3 -204 -9 -213
-13 -12 -4 -17 -1 -17 12 0 9 -17 40 -38 68 -20 28 -42 60 -48 71 -9 17 -25
21 -100 26 -49 4 -151 7 -226 8 l-138 1 0 75 c0 68 2 76 25 91 27 18 33 52 13
72 -7 7 -13 26 -14 42 l-2 30 79 0 c84 0 93 -6 64 -44 -19 -25 -19 -50 0 -66
10 -8 15 -31 15 -66 0 -30 5 -54 10 -54 17 0 12 121 -6 134 -9 7 -12 18 -8 29
5 13 10 15 20 6 15 -12 54 -3 54 12 0 6 5 7 10 4 17 -11 11 -43 -10 -50 -16
-5 -20 -15 -20 -50 0 -24 -3 -50 -6 -59 -4 -11 -1 -16 10 -16 13 0 16 11 16
55 0 42 4 55 15 55 18 0 37 34 29 54 -7 19 -1 19 188 7 78 -5 133 -13 143 -21
8 -7 19 -10 23 -6 4 4 8 155 8 334 2 293 0 332 -16 378 -18 49 -107 195 -148
240 -19 22 -23 22 -593 28 -316 3 -647 9 -736 12 l-162 6 -23 -25 c-13 -13
-45 -50 -71 -81 l-49 -56 30 -11 c30 -10 71 -73 58 -87 -4 -3 -60 -8 -126 -10
l-120 -4 0 73 c0 41 3 103 6 140 6 58 10 67 35 82 39 22 40 67 3 96 -32 25
-47 26 -68 5 -21 -21 -21 -88 0 -105 13 -11 15 -25 10 -73 -3 -33 -8 -61 -9
-63 -2 -2 -23 4 -47 12 -23 8 -53 15 -66 15 -13 0 -24 1 -25 3 0 1 -6 58 -12
127 l-12 124 -30 7 c-17 3 -54 29 -83 56 l-53 50 -6 86 c-7 101 -18 93 117 76
88 -11 150 -6 150 12 0 7 -15 8 -40 4 -38 -6 -40 -6 -40 19 0 16 6 26 15 26
19 0 82 56 73 65 -4 4 -21 -4 -38 -19 -52 -44 -53 -42 -35 106 4 28 17 48 52
82 27 24 44 48 40 52 -4 4 -25 -10 -47 -31 l-40 -39 0 46 c0 39 4 48 28 63 33
21 62 57 55 68 -2 4 -19 -6 -36 -23 l-32 -31 -3 27 c-3 21 3 33 25 48 52 38
88 74 81 81 -4 4 -27 -9 -51 -29 -24 -20 -47 -36 -51 -36 -3 0 -6 13 -6 30 0
22 7 33 28 44 33 17 58 44 49 52 -3 4 -19 -4 -34 -16 -26 -20 -28 -21 -32 -4
-4 20 36 56 81 75 16 6 28 18 28 25 0 19 -3 18 -58 -16 -55 -35 -58 -31 -47
66 l7 63 36 -25 c20 -13 49 -30 64 -36 23 -10 26 -16 21 -47 -2 -20 -8 -47
-12 -61 -4 -14 -9 -52 -10 -85 -1 -33 -8 -112 -17 -175 l-14 -115 -53 -46
c-61 -55 -58 -78 4 -25 23 20 43 35 45 33 1 -1 -4 -38 -12 -82 -15 -94 -17
-155 -5 -155 4 0 11 26 15 58 17 156 28 200 50 206 19 5 235 -6 428 -22 l76
-7 -74 -85 c-41 -47 -74 -91 -74 -98 0 -7 23 -27 50 -44 28 -17 46 -34 41 -37
-5 -4 -12 -18 -16 -33 -6 -22 -1 -32 21 -53 15 -14 25 -27 23 -28 -2 -2 -32
-25 -67 -52 -62 -48 -63 -48 -82 -29 -18 17 -19 23 -8 52 16 43 3 64 -47 74
-44 10 -61 -1 -82 -50 -12 -30 -12 -37 2 -58 21 -33 42 -40 76 -27 23 9 31 8
45 -8 9 -10 24 -19 31 -19 8 0 50 28 94 62 l80 61 117 -7 c179 -11 189 -12
310 -14 l113 -2 15 -36 16 -37 111 6 c62 4 130 10 152 14 l40 6 -59 -51 c-41
-36 -68 -52 -87 -52 -35 0 -55 -30 -39 -60 29 -54 94 -44 89 14 -3 30 4 39 68
95 l71 61 72 0 c120 0 382 -29 413 -46 30 -17 67 -11 67 11 0 10 21 16 71 21
38 4 76 12 82 19 7 6 18 10 25 7 9 -3 12 22 12 100 0 57 5 143 11 192 15 125
8 153 -44 177 -23 10 -52 19 -64 19 -12 0 -27 9 -33 21 -8 14 -19 20 -39 17
-47 -4 -61 16 -61 88 0 63 0 63 32 72 37 9 45 29 47 110 1 44 4 52 20 52 42 0
39 59 -4 78 -38 17 -63 15 -75 -7 -14 -27 -13 -29 16 -56 25 -23 26 -28 19
-90 -6 -58 -9 -65 -28 -65 -12 -1 -62 -2 -111 -4 -82 -3 -93 -1 -132 23 -38
23 -42 29 -37 56 3 17 6 31 7 31 1 1 35 13 76 26 91 31 86 15 96 300 6 190 8
208 25 213 11 4 24 15 30 26 25 47 -67 126 -98 83 -20 -28 -16 -77 8 -98 21
-18 22 -22 15 -215 -10 -285 -3 -262 -94 -293 l-77 -26 -9 -50 c-6 -38 -14
-52 -32 -61 -18 -8 -24 -19 -24 -44 0 -40 31 -74 78 -83 27 -5 37 -1 65 27 19
19 36 40 38 46 2 7 25 16 51 19 73 10 81 -1 76 -112 -4 -109 5 -127 46 -89 15
14 33 25 40 25 20 0 27 -27 10 -40 -10 -9 -14 -35 -14 -95 0 -45 -5 -140 -11
-211 l-10 -129 26 -22 26 -23 -30 0 c-19 0 -35 8 -45 21 -17 24 -52 19 -61 -9
-4 -15 -15 -17 -73 -14 -37 1 -97 7 -134 12 -85 13 -291 12 -343 0 -22 -5 -87
-12 -145 -16 l-105 -6 -16 39 -16 40 -248 6 c-137 4 -250 9 -253 12 -3 2 1 11
7 19 7 8 10 23 7 33 -6 19 -58 53 -82 53 -18 0 -110 46 -118 59 -3 4 29 47 70
95 76 86 77 86 125 86 l49 0 26 -52 c14 -29 37 -67 50 -85 13 -17 24 -40 24
-51 0 -25 37 -57 80 -70 19 -6 118 -14 220 -16 102 -3 248 -14 325 -24 l140
-19 30 36 c16 20 48 55 69 79 l40 43 75 -7 c69 -6 78 -4 95 15 33 36 12 70
-64 108 -83 40 -173 53 -200 28 -31 -28 -34 -54 -11 -79 l22 -23 -23 -14 c-70
-44 -147 -78 -150 -67 -5 14 -95 26 -212 27 l-88 1 6 68 c4 37 12 91 18 120
14 63 4 88 -47 127 -59 45 -216 71 -267 44 -35 -19 -48 -70 -48 -186 0 -59 -4
-114 -9 -121 -6 -10 -20 9 -46 61 l-39 74 -175 12 c-97 6 -226 17 -287 23 -61
6 -132 9 -158 6 -40 -5 -46 -3 -42 11 3 9 12 81 21 161 9 80 19 147 21 150 3
2 107 7 232 10 l227 5 6 59 c7 58 8 60 98 150 l91 91 358 6 c196 4 372 10 390
14 l34 8 -6 -54 c-4 -30 -3 -60 3 -68 12 -18 381 -30 381 -12 0 7 -34 11 -108
11 -60 0 -143 3 -184 6 l-76 7 5 121 6 121 -52 55 c-44 46 -51 59 -46 84 3 16
5 81 5 145 l0 117 35 17 c22 10 37 26 41 42 l6 26 142 -6 c77 -3 182 -10 233
-16 51 -5 152 -9 225 -9 171 0 336 -16 394 -38 l47 -17 28 -93 c48 -163 64
-309 80 -732 8 -223 15 -368 38 -785 48 -869 51 -953 51 -1372 l0 -393 -24 11
c-54 25 -107 -21 -72 -60 16 -17 5 -18 -226 -25 -134 -4 -520 -11 -858 -16
-338 -4 -651 -13 -695 -18 -44 -6 -134 -16 -200 -22 -124 -12 -165 -17 -350
-44 -85 -12 -272 -17 -825 -25 -393 -5 -717 -7 -719 -5 -2 2 -8 219 -12 481
-11 601 -25 1068 -32 1080 -14 23 -36 301 -57 708 -10 198 -27 334 -60 480
-12 51 -38 190 -91 485 -48 265 -49 273 -49 318 l0 42 153 -1 c83 0 199 -4
257 -10 347 -31 505 -19 910 67 63 14 125 27 138 30 12 2 22 0 22 -6 0 -6 45
-10 120 -10 l120 0 0 -36 c0 -27 -7 -41 -25 -56 -30 -23 -55 -68 -55 -98 0
-34 59 -110 96 -126 53 -22 156 -18 188 7 28 22 56 78 56 111 0 31 -38 96 -60
103 -16 5 -20 15 -20 56 l0 49 200 0 200 0 0 -22 c0 -17 -10 -27 -40 -40 -47
-19 -60 -46 -60 -124 0 -107 75 -194 166 -194 33 0 164 63 191 92 38 40 39 77
4 125 -17 23 -49 52 -71 65 -34 19 -40 28 -40 56 0 17 -4 32 -10 32 -5 0 -10
-19 -10 -42 1 -40 3 -44 42 -63 23 -11 56 -37 72 -58 l30 -38 -19 -37 c-15
-29 -37 -46 -95 -75 -112 -57 -161 -46 -217 51 -22 36 -25 52 -21 104 5 66 19
84 71 95 22 4 27 11 27 33 0 62 8 60 -232 60 -197 0 -219 -2 -214 -16 3 -9 6
-37 6 -63 0 -40 4 -50 25 -61 13 -7 32 -29 41 -48 21 -44 7 -101 -34 -132 -23
-19 -37 -21 -94 -18 -77 4 -108 22 -142 81 l-21 37 21 38 c12 20 31 41 43 47
16 7 21 20 23 52 1 24 2 50 2 59 1 14 -15 16 -126 15 -83 -1 -129 2 -133 9 -7
12 -8 12 -180 -24 -379 -81 -574 -96 -860 -67 -137 14 -460 14 -485 1 -24 -13
-80 -96 -80 -118 0 -9 9 -42 21 -72 12 -30 29 -104 40 -165 36 -219 59 -341
69 -375 5 -19 10 -56 10 -81 0 -25 4 -59 10 -75 9 -28 23 -142 40 -334 4 -52
13 -115 18 -140 14 -58 52 -459 52 -543 0 -35 5 -77 10 -93 19 -54 33 -377 31
-699 -2 -233 2 -364 13 -483 9 -89 16 -229 16 -311 0 -130 2 -151 19 -169 11
-14 29 -22 47 -21 24 0 26 2 10 8 -20 8 -20 8 0 12 10 2 89 0 174 -4 195 -11
445 -12 965 -4 537 9 791 27 1245 89 47 6 204 13 350 15 1210 16 1245 17 1273
36 28 18 34 32 17 42 -6 4 -10 155 -10 421 0 229 -5 457 -10 507 -6 51 -15
205 -20 342 -6 138 -15 333 -20 435 -6 102 -14 285 -19 408 -6 122 -13 227
-16 233 -4 6 -11 130 -16 277 -15 475 -26 574 -81 767 -21 73 -27 82 -60 98
-56 27 -133 37 -383 47 -464 18 -659 32 -675 46 -19 16 -84 44 -104 44 -8 0
-22 -10 -30 -22z m102 -28 c47 -29 44 -62 -8 -85 -33 -15 -44 -16 -70 -5 -29
12 -34 20 -31 50 7 60 50 76 109 40z m-2988 -152 c0 -46 3 -63 49 -318 17 -91
41 -226 55 -300 13 -74 31 -164 39 -200 33 -143 47 -259 57 -467 12 -261 27
-480 39 -583 5 -41 14 -120 20 -175 13 -124 34 -1028 25 -1073 -4 -18 -1 -125
6 -238 7 -113 11 -207 9 -209 -2 -1 -13 -5 -24 -7 -19 -3 -20 4 -26 212 -3
118 -12 262 -19 320 -8 72 -10 167 -5 300 11 317 10 403 -3 439 -7 19 -12 77
-12 130 0 53 -5 134 -10 181 -6 47 -17 164 -25 260 -26 313 -36 414 -45 445
-5 17 -12 62 -15 100 -3 39 -10 104 -15 145 -5 41 -17 136 -26 210 -8 74 -20
151 -25 170 -5 19 -27 136 -48 260 -22 124 -49 252 -61 285 l-22 60 32 48 c17
26 36 47 41 47 5 0 9 -19 9 -42z m3628 -740 c18 -15 15 -28 -7 -28 -33 0 -51
11 -51 32 0 15 4 18 23 12 12 -3 28 -11 35 -16z m-278 -227 c0 -44 -75 -68
-112 -34 -31 28 -22 70 15 64 4 -1 10 5 13 14 5 12 12 11 45 -8 21 -12 39 -28
39 -36z m-788 -92 c41 -11 101 -56 92 -70 -9 -15 -172 -10 -229 6 -70 21 -83
37 -54 64 20 19 31 20 88 15 37 -3 83 -10 103 -15z m-14 -94 c118 0 123 -1
118 -20 -3 -11 -13 -76 -22 -145 -9 -69 -20 -129 -25 -134 -14 -15 -165 -20
-214 -6 -69 19 -70 24 -67 196 l3 152 42 -22 c36 -18 60 -21 165 -21z m1175
-37 c26 -10 27 -12 26 -92 -1 -107 -22 -294 -32 -278 -11 16 -56 15 -91 -3
-15 -8 -29 -15 -30 -15 0 0 2 39 6 88 3 48 7 136 7 195 1 102 2 108 24 117 23
9 42 6 90 -12z m-417 -89 c66 -31 84 -54 60 -77 -13 -13 -26 -14 -83 -4 l-68
11 -76 -81 -77 -81 -138 16 c-77 9 -171 19 -210 23 l-70 6 4 30 c3 21 9 28 19
24 8 -3 70 -6 138 -6 103 0 126 -3 141 -17 16 -16 22 -15 101 27 46 25 91 53
100 62 14 16 13 19 -11 40 -26 22 -26 24 -10 46 15 21 21 23 68 17 28 -4 79
-20 112 -36z m-1186 -218 c21 -17 23 -22 12 -45 -21 -46 -92 -25 -92 27 0 40
39 49 80 18z m1588 -83 c37 -37 -12 -71 -68 -47 -37 17 -39 37 -2 45 15 3 32
7 37 9 18 6 21 5 33 -7z m-2070 -219 c1 -8 -4 -23 -13 -34 -12 -16 -16 -17
-24 -6 -5 7 -14 10 -20 7 -15 -10 -14 47 1 62 14 14 51 -6 56 -29z m1206 15
c9 -3 16 -15 16 -26 0 -29 -44 -20 -48 10 -3 23 4 27 32 16z m-934 -284 c7
-36 23 -103 36 -150 43 -154 59 -413 30 -481 -14 -33 -14 -33 -19 -9 -3 14
-11 75 -17 135 -16 150 -39 305 -49 324 -5 9 -14 43 -22 76 -15 71 -42 130
-64 138 -12 5 -5 19 32 66 l48 60 6 -47 c3 -26 11 -76 19 -112z m149 -169 c12
-16 21 -33 21 -39 0 -14 -39 -61 -60 -72 -16 -9 -20 -4 -30 42 -6 29 -13 63
-16 75 -6 21 -3 23 29 23 28 0 40 -6 56 -29z m1819 -487 c30 -21 28 -37 -9
-74 -31 -31 -32 -32 -25 -103 9 -107 12 -112 92 -167 82 -55 94 -59 94 -31 0
39 11 51 47 51 54 0 117 -79 99 -125 -4 -10 -20 -15 -52 -15 -50 0 -83 -20
-179 -110 l-50 -48 -212 -6 c-202 -6 -213 -5 -222 13 -8 15 -7 20 6 25 9 4
105 9 212 13 l196 6 55 46 c31 25 67 53 80 62 l23 15 -59 38 c-32 20 -85 44
-116 53 l-57 16 6 107 c6 106 6 108 -18 120 -13 7 -27 18 -31 24 -13 20 -8 69
9 88 20 22 80 24 111 2z m-1374 -49 c8 -23 -14 -85 -31 -85 -11 0 -14 6 -9 23
3 12 6 36 6 54 0 24 4 31 14 27 8 -3 17 -12 20 -19z m912 8 c103 -17 104 -17
104 -45 0 -31 -7 -35 -24 -14 -15 20 -161 36 -261 29 -77 -5 -81 -4 -104 21
l-24 26 102 0 c57 0 150 -8 207 -17z m-286 -48 c0 -7 -6 -18 -14 -24 -11 -9
-15 -7 -20 11 -3 13 -6 32 -6 42 0 18 1 18 20 1 11 -10 20 -24 20 -30z m-240
-5 c0 -24 -25 -60 -34 -49 -1 2 -1 23 2 46 3 30 8 40 18 36 8 -3 14 -18 14
-33z m493 -7 c-13 -2 -35 -2 -50 0 -16 2 -5 4 22 4 28 0 40 -2 28 -4z m-559
-37 c-8 -21 33 -41 52 -26 7 7 21 10 29 6 16 -6 21 -36 6 -36 -29 0 -41 -34
-41 -111 0 -63 -3 -79 -15 -79 -11 0 -15 19 -17 93 -3 84 -5 93 -25 102 -27
11 -29 27 -7 49 19 20 25 20 18 2z m511 -291 c6 -7 18 -26 27 -42 10 -15 24
-37 33 -49 l15 -21 -187 -1 c-104 -1 -240 -6 -303 -11 -63 -6 -118 -7 -122 -3
-6 6 -38 117 -38 133 0 13 45 14 310 11 203 -2 257 -6 265 -17z m-561 -140 l6
-30 -15 25 c-8 14 -14 32 -15 40 0 23 17 -2 24 -35z m654 -29 c7 -18 12 -38
12 -44 0 -16 -101 -15 -330 3 -102 8 -216 16 -253 17 -64 3 -67 4 -54 22 17
23 136 33 418 34 l195 1 12 -33z m827 -37 c-8 -12 -42 -12 -50 0 -3 5 5 11 17
13 28 5 40 0 33 -13z m35 -24 c0 -20 -5 -25 -24 -25 l-24 0 21 25 c27 31 27
31 27 0z m20 -54 c0 -5 -8 -13 -17 -17 -22 -10 -821 -18 -811 -9 21 21 828 46
828 26z m-1099 -18 c110 -7 118 -8 69 -14 -30 -4 -141 -7 -247 -8 -179 -1
-288 -10 -576 -47 -265 -34 -479 -46 -907 -54 -245 -4 -519 -13 -610 -20 -130
-9 -181 -9 -240 0 -41 7 -138 16 -215 19 l-140 6 165 7 c91 4 414 10 719 14
407 4 580 10 650 20 53 8 132 19 176 24 44 5 145 16 225 25 268 31 673 43 931
28z"/>
<path d="M3457 2393 c-4 -3 -7 -17 -7 -29 0 -18 8 -25 38 -33 63 -18 82 -15
82 15 0 19 -8 28 -35 40 -37 15 -68 18 -78 7z m86 -30 c4 -2 7 -9 7 -14 0 -7
-13 -8 -32 -4 -42 9 -50 14 -43 26 6 8 48 3 68 -8z"/>
<path d="M4064 896 c-8 -32 1 -46 32 -46 46 0 42 61 -4 68 -16 2 -23 -3 -28
-22z m46 -17 c0 -5 -7 -9 -15 -9 -15 0 -20 12 -9 23 8 8 24 -1 24 -14z"/>
<path d="M4352 568 c-17 -17 -15 -63 3 -78 20 -16 43 -6 57 25 9 21 8 28 -7
45 -21 23 -36 25 -53 8z m43 -28 c10 -16 -16 -43 -28 -31 -11 11 -2 41 12 41
5 0 13 -5 16 -10z"/>
<path d="M4237 3652 c-18 -19 -22 -59 -9 -79 14 -22 60 -33 89 -22 15 6 31 16
35 22 38 60 -67 132 -115 79z m93 -52 c13 -9 13 -11 0 -20 -22 -14 -66 -12
-79 3 -6 8 -8 17 -4 20 10 10 66 8 83 -3z"/>
<path d="M2066 3618 c-24 -34 -20 -73 10 -97 46 -36 91 -21 108 35 9 30 -2 52
-35 69 -39 21 -65 19 -83 -7z m78 -14 c20 -8 21 -57 1 -74 -31 -25 -81 13 -71
55 6 25 34 33 70 19z"/>
<path d="M2624 3615 c-31 -47 5 -95 71 -95 26 0 55 33 55 62 0 55 -95 80 -126
33z m96 -10 c31 -38 -33 -88 -68 -53 -13 13 -16 50 -5 61 12 13 60 7 73 -8z"/>
<path d="M390 3604 c-24 -63 7 -106 62 -85 27 10 58 46 58 68 0 23 -32 43 -71
43 -33 0 -41 -4 -49 -26z m87 -38 c-18 -27 -47 -33 -47 -10 0 26 32 54 48 41
10 -8 10 -14 -1 -31z"/>
<path d="M1006 3081 c-4 -6 -1 -13 6 -16 7 -2 155 -6 328 -8 173 -2 326 -7
339 -12 18 -6 23 -5 19 6 -8 24 -72 30 -384 36 -220 4 -303 2 -308 -6z"/>
<path d="M1016 3024 c-3 -9 -6 -55 -6 -102 0 -88 -25 -446 -36 -514 -3 -24 -2
-38 5 -38 5 0 13 15 16 33 8 46 24 263 30 397 3 63 7 143 10 178 4 58 -5 82
-19 46z"/>
<path d="M1210 2981 c0 -12 49 -18 188 -26 97 -5 102 -4 102 15 0 19 -7 20
-145 20 -84 0 -145 -4 -145 -9z"/>
<path d="M1120 2806 c0 -105 8 -141 27 -122 22 21 5 236 -18 236 -5 0 -9 -51
-9 -114z"/>
<path d="M1576 2858 c-9 -35 -7 -188 3 -188 12 0 21 62 21 143 0 66 -12 89
-24 45z"/>
<path d="M1235 2620 c-9 -15 8 -18 135 -29 68 -6 119 -6 124 -1 12 12 0 15
-85 29 -83 14 -166 14 -174 1z"/>
<path d="M1120 2516 c0 -12 -3 -51 -6 -85 -6 -51 -4 -61 8 -61 22 0 38 112 22
154 -9 24 -24 19 -24 -8z"/>
<path d="M1537 2503 c-11 -18 -19 -183 -9 -183 12 0 35 99 34 144 -1 30 -16
54 -25 39z"/>
<path d="M4166 2333 c-4 -10 1 -28 14 -45 13 -17 20 -43 20 -71 0 -49 13 -67
48 -67 23 0 24 0 21 -105 -1 -58 0 -108 4 -112 4 -3 7 -19 7 -35 0 -24 -3 -28
-22 -23 -13 2 -84 6 -158 7 l-135 3 -3 -33 c-4 -43 9 -58 58 -66 29 -5 38 -10
34 -21 -4 -8 -17 -15 -30 -15 -32 0 -59 -43 -57 -94 0 -23 8 -108 16 -191 20
-185 21 -249 5 -275 -17 -27 -1 -52 40 -65 19 -5 32 -16 32 -25 0 -15 -47 -39
-99 -50 -16 -3 -27 -15 -32 -33 -12 -46 -29 -233 -29 -324 l0 -83 -27 1 c-69
1 -123 16 -141 40 -17 20 -22 21 -36 10 -39 -32 0 -96 42 -70 12 8 38 9 76 5
l57 -8 -25 -23 c-17 -16 -26 -35 -26 -55 0 -20 -5 -30 -15 -30 -19 0 -38 -36
-30 -60 14 -44 84 -49 106 -8 9 16 6 25 -15 47 -42 44 -35 68 36 123 13 11 18
48 28 206 11 199 19 242 43 242 34 0 106 41 109 62 2 16 14 24 50 33 26 6 54
17 62 25 20 16 20 53 0 91 -9 18 -14 52 -14 82 1 29 -3 129 -9 222 -10 165
-11 171 -36 193 -14 12 -32 22 -39 22 -8 0 -16 9 -19 20 -3 14 -17 21 -46 26
-37 6 -41 9 -41 36 l0 30 88 -6 c48 -3 117 -9 155 -12 l67 -6 0 54 c0 52 3 57
43 94 26 25 50 38 63 36 26 -4 47 20 42 50 -6 45 -77 31 -79 -16 0 -11 -18
-36 -40 -55 l-39 -33 0 96 c0 96 0 96 -25 96 -18 0 -28 7 -35 26 -16 41 -12
71 10 77 24 6 26 39 4 61 -21 21 -70 21 -78 -1z m64 -18 c7 -9 10 -18 7 -21
-10 -10 -47 7 -47 22 0 19 24 18 40 -1z m192 -257 c-10 -10 -15 -10 -22 2 -6
9 -5 17 3 22 18 11 33 -10 19 -24z m-303 -335 c17 -15 22 -34 27 -110 l7 -93
-75 0 -75 0 -8 53 c-17 121 -7 153 48 160 18 2 37 5 43 5 7 1 21 -6 33 -15z
m31 -253 c0 -18 -7 -20 -70 -20 -63 0 -70 2 -70 20 0 18 7 20 70 20 63 0 70
-2 70 -20z m0 -66 c0 -25 -1 -25 -70 -22 -65 3 -70 5 -70 26 0 21 4 22 70 22
68 0 70 -1 70 -26z m4 -66 c3 -13 6 -36 6 -53 0 -16 7 -41 15 -55 8 -14 14
-33 15 -43 0 -38 -133 -64 -174 -34 -15 11 -16 17 -7 35 6 11 11 55 11 96 l0
76 64 0 c58 0 64 -2 70 -22z m-306 -890 c18 -18 15 -35 -8 -41 -19 -5 -50 15
-50 32 0 23 38 29 58 9z"/>
<path d="M925 1733 c-23 -3 -51 -14 -65 -27 -14 -12 -38 -30 -54 -40 -24 -15
-27 -22 -22 -48 5 -24 1 -34 -19 -50 -14 -11 -22 -24 -19 -29 3 -6 14 -3 26 7
16 16 21 16 28 4 16 -26 11 -39 -25 -62 -19 -13 -35 -26 -35 -30 0 -14 27 -9
40 7 19 22 27 18 32 -16 4 -25 -1 -34 -25 -51 -32 -23 -23 -37 12 -19 16 9 21
7 26 -8 8 -25 59 -33 170 -29 l80 3 -3 30 c-1 17 -5 95 -8 175 -3 80 -10 155
-16 168 -12 23 -25 24 -123 15z m97 -35 c14 -11 17 -39 20 -158 2 -80 6 -152
9 -160 3 -12 -8 -16 -58 -18 l-61 -3 -7 98 c-3 54 -7 127 -8 163 l-2 65 35 12
c45 15 53 16 72 1z m-122 -177 c6 -84 9 -155 7 -157 -1 -2 -16 0 -32 5 -25 6
-31 14 -37 47 -4 21 -7 57 -7 79 -1 22 -7 64 -14 92 l-14 52 36 25 c20 13 39
21 43 17 3 -3 12 -75 18 -160z"/>
<path d="M3107 1492 c-25 -27 -37 -69 -37 -127 0 -43 5 -59 22 -75 43 -40 118
-16 118 39 0 30 -63 58 -97 42 -20 -9 -23 -8 -23 13 0 37 21 86 41 97 11 5 17
14 14 20 -9 14 -20 11 -38 -9z m73 -152 c12 -7 12 -13 4 -27 -14 -22 -46 -28
-73 -13 -27 14 -28 40 -1 33 11 -3 20 0 20 6 0 13 29 14 50 1z"/>
<path d="M2838 1473 c-12 -3 -18 -14 -18 -33 0 -23 7 -32 39 -47 24 -10 41
-26 43 -38 4 -25 43 -45 88 -45 70 0 78 40 12 60 -21 6 -43 14 -51 16 -11 4
-10 9 5 25 14 15 16 24 8 37 -12 19 -84 30 -84 13 0 -6 13 -11 28 -11 38 0 46
-9 25 -32 -21 -23 -45 -23 -74 1 -23 19 -23 20 -5 34 21 15 12 26 -16 20z
m170 -127 c4 -4 -13 -6 -37 -4 -25 2 -46 8 -48 14 -4 12 72 3 85 -10z"/>
<path d="M2630 1420 c0 -6 8 -22 17 -36 16 -25 16 -27 0 -36 -9 -5 -17 -16
-17 -24 0 -12 4 -12 26 3 25 16 27 16 39 0 12 -17 35 -23 35 -10 0 3 -7 14
-16 24 -15 16 -14 20 10 46 14 15 26 31 26 35 0 15 -17 8 -40 -17 -13 -14 -26
-25 -30 -25 -4 0 -13 11 -20 25 -14 25 -30 33 -30 15z"/>
<path d="M3495 1416 c-55 -24 -85 -78 -62 -110 19 -26 143 -43 197 -27 45 13
64 43 48 74 -14 27 -98 77 -127 77 -15 -1 -39 -7 -56 -14z m120 -38 c17 -11
21 -16 10 -12 -11 4 -49 10 -85 14 -65 6 -65 6 -30 17 40 13 63 9 105 -19z m2
-35 c24 -10 43 -21 43 -25 0 -15 -74 -30 -118 -23 -73 10 -92 16 -92 29 0 39
93 49 167 19z"/>
<path d="M981 1171 c-44 -5 -55 -10 -57 -26 -1 -11 -22 -36 -45 -56 -42 -37
-46 -51 -24 -101 5 -13 -1 -22 -24 -35 -17 -10 -31 -24 -31 -31 0 -11 9 -9 34
6 l34 20 7 -35 c6 -32 3 -39 -22 -59 -33 -26 -25 -43 10 -19 23 15 25 15 31
-7 10 -39 7 -44 -44 -79 -48 -33 -61 -49 -40 -49 6 0 29 14 52 30 l41 30 34
-26 33 -25 51 27 c67 37 103 79 95 113 -4 14 -11 62 -16 106 -6 44 -15 103
-21 130 -5 28 -12 60 -15 73 -2 12 -10 21 -17 20 -6 -1 -36 -4 -66 -7z m83
-138 c9 -65 21 -138 26 -162 l8 -43 -46 6 c-24 3 -53 6 -63 6 -15 0 -19 8 -19
38 0 20 -7 80 -14 132 -18 117 -9 140 52 140 l39 0 17 -117z m-123 -86 c15
-121 15 -133 0 -144 -14 -10 -18 -4 -29 50 -7 34 -22 91 -33 127 -20 62 -20
65 -2 77 10 7 23 16 28 21 6 6 12 8 15 5 2 -2 12 -64 21 -136z m98 -133 c31
-6 31 -7 14 -26 -10 -11 -31 -27 -47 -35 -24 -13 -33 -13 -53 -2 l-25 13 34
28 c37 31 34 30 77 22z"/>
<path d="M1920 1113 c-26 -10 -50 -36 -50 -55 0 -17 -12 -18 -188 -18 -104 0
-192 4 -198 9 -17 18 -95 30 -119 19 -47 -21 -58 -86 -20 -123 36 -36 99 -30
131 13 9 13 31 14 145 7 74 -5 167 -8 207 -8 62 1 72 -1 72 -16 0 -25 30 -50
68 -57 25 -5 41 -1 72 20 36 24 40 30 40 69 0 90 -88 166 -160 140z m68 -27
c46 -24 63 -51 65 -101 2 -43 0 -48 -33 -67 -32 -19 -39 -20 -65 -7 -17 8 -32
25 -35 39 -6 24 -9 25 -90 26 -47 1 -134 6 -195 13 -152 15 -174 14 -182 -6
-16 -44 -61 -55 -93 -23 -26 26 -25 43 4 77 20 22 27 26 37 16 7 -7 26 -13 41
-13 15 0 28 -4 28 -10 0 -6 76 -10 209 -10 l210 0 3 27 c2 17 12 32 28 40 32
16 35 16 68 -1z"/>
<path d="M1950 1029 c-9 -16 -8 -26 5 -45 24 -38 65 -25 65 21 0 44 -50 62
-70 24z m45 -22 c0 -26 -20 -25 -23 2 -3 16 1 22 10 19 7 -3 13 -12 13 -21z"/>
<path d="M1374 1016 c-11 -28 4 -46 36 -46 28 0 31 3 28 28 -2 21 -9 28 -31
30 -18 2 -29 -2 -33 -12z m46 -16 c0 -5 -7 -10 -15 -10 -8 0 -15 5 -15 10 0 6
7 10 15 10 8 0 15 -4 15 -10z"/>
<path d="M1390 697 c-26 -13 -37 -41 -39 -99 l-1 -38 -49 0 c-43 0 -49 2 -44
19 8 32 -75 42 -132 16 -37 -18 -55 -51 -55 -101 0 -31 4 -37 37 -50 39 -17
87 -13 119 10 29 22 11 28 -30 11 -31 -13 -44 -14 -73 -4 -34 11 -35 13 -30
51 7 51 30 67 96 68 45 0 52 -2 42 -14 -18 -22 5 -31 72 -27 52 3 57 1 57 -18
0 -19 -6 -21 -55 -21 -30 0 -55 -4 -55 -10 0 -5 25 -10 55 -10 l55 0 0 -39 c0
-37 19 -71 41 -71 5 0 9 -13 9 -30 0 -16 5 -30 10 -30 6 0 10 9 10 20 0 15 7
20 25 20 23 0 25 -4 25 -44 0 -25 5 -48 10 -51 6 -4 10 13 10 43 0 48 1 50 30
54 26 4 30 1 30 -19 0 -13 5 -23 10 -23 6 0 10 9 10 21 0 19 3 18 30 -11 28
-30 29 -33 13 -46 -52 -39 -196 -44 -250 -9 l-25 17 23 24 c22 23 22 24 2 24
-11 0 -26 -11 -34 -26 -13 -24 -12 -28 13 -49 26 -23 96 -38 174 -39 40 0 128
45 132 67 2 9 -10 31 -27 48 -33 32 -37 44 -21 54 6 3 10 17 10 31 0 23 3 24
59 24 32 0 79 3 105 6 l46 7 0 -31 c0 -25 5 -33 25 -38 16 -4 25 -13 25 -25 0
-10 5 -19 10 -19 6 0 10 9 10 21 0 15 4 19 16 15 9 -3 24 -6 35 -6 16 0 19 -7
19 -40 0 -22 5 -40 10 -40 6 0 10 18 10 40 0 38 2 40 30 40 20 0 30 -5 30 -15
0 -8 5 -15 10 -15 6 0 10 5 10 11 0 6 9 22 20 36 13 17 20 41 20 69 l0 44 73
0 c39 0 135 -7 212 -15 158 -17 215 -19 215 -7 0 11 -311 42 -412 42 l-78 0 0
48 c0 61 -12 76 -80 101 -75 29 -131 27 -181 -4 -42 -27 -42 -27 -24 -120 4
-19 0 -20 -103 -17 -59 2 -108 5 -108 5 -1 1 2 27 6 57 9 64 3 75 -55 101 -47
22 -148 25 -185 6z m178 -27 c24 -11 41 -24 38 -29 -17 -27 -176 -24 -213 5
-17 14 -17 14 1 29 28 22 121 19 174 -5z m454 -18 c26 -10 50 -21 54 -25 16
-16 -54 -29 -124 -22 -113 9 -129 22 -64 48 49 21 77 21 134 -1z m-496 -47
l81 0 -4 -85 c-2 -47 -6 -94 -8 -105 -8 -40 -103 -59 -172 -34 -37 12 -43 35
-43 155 l0 84 33 -8 c17 -4 69 -7 113 -7z m571 -37 c-3 -18 -9 -63 -13 -101
-6 -61 -9 -68 -31 -73 -30 -8 -185 4 -195 14 -3 4 -4 46 -1 95 l6 88 86 -7
c51 -3 96 -2 111 4 39 16 43 14 37 -20z m-288 -64 c21 -4 31 -12 29 -21 -2
-11 -27 -16 -110 -20 -104 -5 -108 -4 -108 16 0 17 8 21 48 24 90 7 110 7 141
1z"/>
<path d="M1146 528 c-20 -28 -20 -47 -2 -54 27 -10 57 15 54 44 -4 34 -31 40
-52 10z m23 -29 c-19 -12 -24 -2 -8 17 9 11 14 13 17 4 3 -7 -2 -16 -9 -21z"/>
<path d="M2134 448 c-11 -17 -13 -111 -3 -124 17 -21 -2 -44 -45 -55 -98 -27
-347 37 -256 66 22 7 27 25 7 25 -16 0 -57 -28 -57 -40 0 -19 65 -54 124 -66
165 -36 287 4 247 80 -9 15 -11 38 -6 65 l7 41 289 0 c191 0 288 3 284 10 -9
15 -582 13 -591 -2z"/>
<path d="M633 203 c-23 -9 -15 -49 13 -63 29 -16 57 -5 62 24 7 35 -34 56 -75
39z m52 -23 c11 -18 -5 -31 -26 -20 -11 6 -17 15 -14 21 8 12 32 12 40 -1z"/>
</g>
</svg>
