<?xml version="1.0" standalone="no"?>
<!DOCTYPE svg PUBLIC "-//W3C//DTD SVG 20010904//EN"
 "http://www.w3.org/TR/2001/REC-SVG-20010904/DTD/svg10.dtd">
<svg version="1.0" xmlns="http://www.w3.org/2000/svg"
 width="175.000000pt" height="189.000000pt" viewBox="0 0 175.000000 189.000000"
 preserveAspectRatio="xMidYMid meet">

<g transform="translate(0.000000,189.000000) scale(0.100000,-0.100000)"
fill="#FFFFFF" stroke="none">
<path d="M715 1739 c-4 -13 -1 -27 11 -40 15 -17 16 -32 8 -159 l-9 -141 25
-5 c86 -17 149 -38 154 -50 3 -8 12 -14 20 -14 18 0 113 -95 121 -121 4 -10
38 -34 80 -54 87 -42 175 -131 199 -203 29 -84 14 -201 -29 -242 -23 -22 -23
-24 -8 -62 21 -52 14 -143 -13 -163 -57 -43 -243 -125 -285 -125 -5 0 0 15 11
32 23 40 50 140 50 188 0 32 4 36 46 54 82 34 142 156 129 260 -11 84 -37 129
-102 180 -43 35 -67 46 -93 46 -45 0 -47 2 -97 80 -54 83 -91 119 -175 168
-61 35 -73 39 -120 34 -76 -7 -185 -59 -228 -110 -92 -110 -98 -120 -145 -251
-39 -111 -46 -273 -16 -362 31 -94 74 -162 128 -205 26 -21 52 -41 56 -45 5
-4 -12 -33 -38 -64 -48 -59 -52 -78 -18 -83 19 -3 64 39 104 96 14 19 20 21
43 12 92 -34 196 -52 301 -51 l110 1 35 -47 c57 -78 130 -68 81 10 -27 45 -27
53 7 62 15 3 57 20 94 37 l67 30 63 -41 c70 -46 98 -52 98 -21 0 11 -3 20 -7
20 -5 0 -28 18 -53 39 l-45 39 27 26 c28 29 87 143 112 219 11 32 16 84 16
158 0 100 -3 117 -32 192 -48 120 -106 192 -198 244 -114 64 -214 93 -349 100
l-113 6 6 91 c4 50 7 112 8 138 1 29 6 49 15 52 7 3 13 14 13 24 0 41 -53 58
-65 21z m45 -8 c7 -13 7 -22 0 -26 -15 -9 -30 4 -30 26 0 25 16 25 30 0z m200
-352 c52 -12 102 -25 110 -30 8 -4 44 -22 80 -39 36 -17 81 -46 100 -63 19
-18 28 -23 20 -12 -11 15 -7 14 13 -5 15 -13 26 -29 23 -36 -3 -7 4 -20 15
-30 27 -25 63 -91 84 -153 28 -85 17 -252 -23 -348 -16 -40 -39 -87 -51 -105
l-21 -33 0 52 c0 28 -5 64 -10 79 -9 22 -7 31 9 48 48 52 56 197 15 278 -35
70 -125 155 -199 189 -38 17 -66 37 -75 54 -8 15 -41 51 -73 81 -32 30 -53 54
-46 54 29 0 -4 12 -67 24 -52 11 -60 14 -34 15 19 1 78 -8 130 -20z m-192 -32
c65 -40 125 -102 168 -174 l24 -42 -44 -20 c-60 -26 -142 -104 -172 -163 -49
-96 -23 -234 53 -284 40 -26 150 -49 198 -40 l35 7 0 -59 c0 -68 -30 -165 -62
-199 -19 -20 -31 -23 -104 -23 l-84 0 11 28 c14 35 15 153 2 177 -6 10 -26 23
-44 29 -32 10 -34 14 -43 71 -9 69 -65 205 -83 205 -7 0 -20 12 -30 26 -16 25
-16 28 5 68 12 22 22 50 22 61 0 59 -70 210 -117 253 -20 18 -22 23 -9 28 9 3
16 10 16 15 0 5 -16 1 -35 -8 l-35 -17 27 -12 c16 -7 24 -13 18 -14 -5 -1 -1
-5 11 -10 25 -10 88 -128 103 -195 10 -46 9 -54 -14 -99 -36 -71 -35 -164 3
-249 33 -73 76 -113 139 -130 32 -8 48 -19 54 -35 12 -31 11 -109 -2 -155 -8
-31 -14 -37 -37 -37 -39 0 -199 44 -265 73 -53 24 -167 121 -167 143 0 6 11
16 25 22 55 25 95 133 96 258 0 69 -4 91 -28 145 -16 35 -44 78 -62 96 -30 31
-31 33 -18 65 8 18 49 68 91 110 64 64 86 79 132 93 30 9 53 19 50 23 -2 4 21
7 52 7 48 0 67 -6 120 -38z m-417 -288 c69 -98 86 -220 48 -345 -21 -68 -63
-124 -92 -124 -8 0 -20 14 -26 31 -14 40 -14 48 0 29 9 -12 10 -10 6 8 -5 19
-3 21 9 11 11 -9 17 -9 29 1 25 21 17 -2 -12 -32 -15 -15 -22 -28 -17 -28 18
0 54 46 64 81 25 85 4 270 -39 359 -24 50 -4 56 30 9z m-37 -25 c5 -17 3 -22
-11 -20 -21 1 -31 -38 -38 -153 -7 -106 -15 -118 -15 -23 0 62 18 169 36 217
8 19 19 10 28 -21z m846 -9 c13 -14 21 -25 18 -25 -2 0 -15 11 -28 25 -13 14
-21 25 -18 25 2 0 15 -11 28 -25z m-75 -36 c95 -29 83 -224 -17 -264 -58 -23
-174 -4 -205 33 -34 41 -32 127 5 174 56 73 115 89 217 57z m-480 -131 c15
-13 35 -43 47 -68 21 -46 53 -179 45 -186 -3 -3 -19 7 -36 22 -41 34 -74 98
-66 127 4 15 3 18 -3 9 -7 -11 -11 -8 -15 10 -8 27 -9 108 -2 108 3 0 16 -10
30 -22z m-248 -115 c-3 -10 -5 -4 -5 12 0 17 2 24 5 18 2 -7 2 -21 0 -30z
m-89 -63 c0 -8 -6 1 -13 20 -7 19 -13 42 -13 50 0 8 6 -1 13 -20 7 -19 13 -42
13 -50z m79 18 c-3 -8 -6 -5 -6 6 -1 11 2 17 5 13 3 -3 4 -12 1 -19z m971
-283 c62 -52 46 -60 -28 -14 -49 30 -57 39 -43 52 11 11 16 9 71 -38z m-838
-11 c0 -11 -91 -114 -101 -114 -17 0 -9 18 31 69 35 44 70 66 70 45z m549 -90
c24 -40 27 -64 9 -64 -19 0 -31 11 -57 49 -20 27 -21 35 -10 42 25 15 37 10
58 -27z"/>
<path d="M433 1013 c-18 -7 -16 -52 2 -59 21 -9 47 15 43 40 -3 21 -22 29 -45
19z m31 -36 c-8 -21 -23 -22 -31 -1 -7 18 17 38 30 25 4 -4 5 -15 1 -24z"/>
<path d="M801 630 c-16 -9 -6 -30 15 -30 15 0 20 25 6 34 -4 2 -14 1 -21 -4z"/>
<path d="M845 610 c-9 -15 4 -30 26 -30 23 0 26 25 3 34 -21 8 -22 8 -29 -4z"/>
<path d="M906 603 c-13 -14 -5 -33 14 -33 11 0 20 6 20 14 0 15 -24 28 -34 19z"/>
</g>
</svg>
