<?xml version="1.0" standalone="no"?>
<!DOCTYPE svg PUBLIC "-//W3C//DTD SVG 20010904//EN"
 "http://www.w3.org/TR/2001/REC-SVG-20010904/DTD/svg10.dtd">
<svg version="1.0" xmlns="http://www.w3.org/2000/svg"
 width="1177.000000pt" height="863.000000pt" viewBox="0 0 1177.000000 863.000000"
 preserveAspectRatio="xMidYMid meet">

<g transform="translate(0.000000,863.000000) scale(0.100000,-0.100000)"
fill="#FFFFFF" stroke="none">
<path d="M6695 8128 c-11 -6 -31 -20 -44 -32 -28 -25 -141 -173 -141 -185 0
-5 -48 7 -107 25 -60 19 -160 48 -223 65 -63 17 -124 38 -137 46 -21 14 -23
14 -33 -11 -5 -14 -14 -26 -19 -26 -16 0 -242 -234 -247 -257 -8 -31 23 -131
44 -141 9 -5 122 -42 250 -82 184 -58 232 -77 232 -90 0 -10 6 -23 14 -29 11
-10 -3 -28 -79 -104 -82 -82 -145 -171 -145 -207 0 -15 49 -91 77 -118 16 -16
77 -39 196 -74 l172 -51 19 -56 c25 -77 107 -250 147 -307 17 -26 52 -67 76
-92 l45 -45 69 6 c42 4 91 16 124 31 42 19 61 23 83 16 15 -4 115 -11 222 -14
107 -3 238 -12 290 -20 165 -24 204 -27 260 -16 78 15 147 52 231 127 41 36
99 78 129 93 60 30 165 60 211 60 16 0 38 5 48 12 15 9 24 8 46 -6 24 -16 33
-17 65 -6 32 11 43 10 69 -3 18 -9 31 -11 31 -5 0 6 13 8 35 4 19 -4 35 -3 35
1 0 4 73 8 163 7 144 0 168 -3 220 -23 82 -32 121 -86 113 -155 -3 -26 -16
-67 -30 -90 -13 -23 -125 -141 -248 -261 -276 -272 -273 -268 -273 -450 1
-148 11 -191 82 -349 50 -113 93 -175 176 -256 116 -111 207 -150 356 -150 85
0 136 11 228 51 66 29 145 35 197 15 135 -51 289 -318 317 -548 19 -157 -3
-337 -66 -524 -50 -149 -155 -316 -290 -462 -108 -116 -361 -302 -680 -500
-222 -138 -292 -206 -382 -370 -112 -204 -154 -458 -173 -1057 -5 -164 -12
-315 -16 -335 -31 -190 -62 -271 -159 -419 -103 -156 -239 -234 -465 -266 -52
-7 -130 -21 -173 -30 -77 -17 -78 -17 -133 5 -40 17 -83 49 -158 119 -76 72
-124 108 -187 140 -46 24 -128 68 -181 98 l-97 55 6 62 6 62 -41 32 c-22 18
-51 38 -64 45 -12 7 -53 33 -91 57 l-67 44 57 58 c31 32 72 65 90 73 18 9 32
21 30 27 -1 7 41 44 94 84 53 40 122 103 155 141 32 37 95 106 140 153 93 99
165 221 190 323 l17 66 -47 75 c-45 72 -147 176 -172 176 -21 0 -173 136 -283
254 -104 110 -981 997 -1057 1068 -55 51 -134 144 -174 203 -19 28 -77 95
-130 150 -279 289 -345 360 -441 475 -58 69 -121 148 -139 175 -45 66 -178
244 -243 324 -29 36 -68 86 -87 111 -34 46 -167 204 -298 353 -83 95 -242 305
-242 320 0 13 -26 47 -156 204 -135 162 -247 260 -372 322 -110 54 -117 55
-213 20 -46 -17 -126 -41 -179 -54 -308 -75 -487 -128 -714 -212 -65 -24 -142
-46 -170 -48 -58 -5 -85 -14 -241 -80 -60 -25 -139 -55 -175 -65 -113 -32
-249 -85 -420 -163 -91 -41 -181 -79 -200 -86 -20 -6 -67 -29 -105 -52 -39
-22 -122 -67 -186 -100 -88 -44 -127 -70 -158 -106 -23 -27 -63 -72 -89 -102
-26 -29 -56 -63 -68 -76 -62 -68 -129 -232 -146 -357 -19 -142 -9 -173 141
-470 72 -141 131 -263 131 -270 1 -7 11 -26 24 -42 l24 -29 -26 -22 -26 -22
22 -54 c35 -85 98 -179 121 -179 11 0 23 5 26 11 10 16 20 8 64 -51 45 -59 49
-70 26 -70 -8 0 -15 -6 -15 -13 0 -10 97 -168 143 -232 15 -20 16 -20 78 13 4
1 9 -10 12 -25 6 -27 50 -81 175 -212 34 -36 83 -97 109 -135 25 -38 62 -88
83 -110 20 -23 64 -75 96 -117 295 -378 545 -662 659 -744 22 -16 76 -64 120
-105 45 -42 146 -128 225 -192 80 -64 170 -140 200 -168 30 -29 107 -97 170
-150 137 -115 199 -176 290 -285 133 -159 460 -453 610 -549 73 -46 101 -66
225 -164 132 -103 317 -196 466 -233 98 -24 257 -30 349 -13 93 18 296 87 405
138 92 43 329 195 445 285 36 28 109 78 162 111 53 33 121 80 150 103 29 24
77 60 107 81 l54 38 44 -24 c24 -14 82 -55 128 -92 79 -62 153 -105 183 -106
7 0 31 14 54 30 38 28 43 29 62 15 12 -8 65 -43 119 -77 54 -35 123 -79 152
-98 30 -19 103 -82 162 -140 59 -58 119 -110 133 -116 48 -21 255 -83 317 -95
59 -11 147 -9 223 6 251 48 283 62 445 192 166 133 248 247 276 382 6 31 20
88 31 126 16 58 21 120 28 350 8 266 28 493 51 580 6 21 28 74 50 117 21 43
39 86 39 95 1 63 85 229 171 335 89 111 150 163 269 228 52 28 111 65 132 81
20 16 87 49 150 74 131 53 233 104 298 148 76 53 183 167 219 237 19 36 58
101 87 145 132 203 180 329 204 530 6 50 13 97 15 105 2 8 12 74 22 145 24
183 22 347 -5 455 -12 47 -33 126 -46 177 -25 96 -110 269 -173 353 -39 50
-118 119 -178 155 -22 13 -83 38 -135 55 -91 31 -100 32 -207 26 -77 -4 -129
-12 -163 -26 -131 -51 -213 2 -254 166 -22 87 -20 178 5 255 30 90 45 117 101
173 72 72 172 209 219 299 39 75 41 84 46 192 7 128 -2 168 -64 290 -47 95
-100 162 -149 191 -64 37 -244 98 -409 137 -184 44 -413 75 -441 59 -14 -8
-23 -7 -36 5 -10 9 -41 18 -70 21 -53 4 -98 31 -98 58 0 6 -13 17 -28 23 -16
7 -40 30 -53 52 -13 23 -43 66 -67 97 -23 31 -70 96 -103 144 -100 143 -138
172 -362 271 -183 81 -321 131 -532 193 -83 25 -94 31 -145 85 -77 81 -120 99
-245 98 -55 0 -109 -5 -120 -11z m225 -14 c41 -12 67 -29 109 -72 47 -47 67
-79 115 -187 33 -71 101 -213 153 -314 51 -101 100 -208 109 -239 20 -69 14
-194 -11 -222 -13 -14 -13 -19 -3 -23 9 -4 7 -11 -10 -25 -13 -12 -20 -27 -16
-35 3 -9 -4 -25 -15 -36 -12 -12 -21 -26 -21 -31 0 -15 -81 -156 -148 -260
-30 -47 -67 -103 -81 -125 -51 -79 -140 -144 -199 -145 -23 0 -23 0 7 43 16
24 36 49 45 56 8 7 12 19 10 26 -3 7 4 23 15 34 12 12 21 26 21 32 0 6 11 24
25 41 14 16 25 36 25 44 0 7 11 21 24 30 14 8 22 22 20 29 -3 8 4 20 15 27 12
7 21 20 21 29 0 8 16 34 35 56 19 23 35 45 35 51 0 5 9 17 20 27 11 10 22 27
26 39 4 11 24 46 44 77 37 56 38 59 36 146 -1 97 3 87 -118 313 -25 47 -49 96
-53 110 -4 14 -38 89 -76 168 -74 150 -143 252 -212 314 -35 31 -39 37 -21 38
11 0 44 -7 74 -16z m-93 -23 c80 -58 198 -247 292 -471 18 -41 64 -139 103
-217 111 -220 107 -254 -51 -476 -73 -104 -180 -265 -207 -312 -124 -218 -144
-231 -219 -150 -53 57 -200 353 -183 370 2 2 71 -16 153 -40 81 -25 156 -45
165 -45 17 0 32 31 60 125 7 22 33 79 57 128 53 102 52 119 -7 173 -22 21 -40
43 -40 50 0 13 -38 27 -111 40 -18 4 -77 18 -129 31 -52 13 -135 33 -185 43
-49 10 -106 25 -126 32 -37 14 -107 64 -99 72 3 2 83 -13 179 -33 l173 -38 29
61 c16 33 36 94 44 136 9 41 23 90 32 108 15 30 15 36 -2 93 -21 68 -34 78
-125 99 -112 26 -109 18 -38 116 99 137 156 162 235 105z m-779 -124 l23 -53
327 -110 c180 -60 328 -109 329 -109 1 0 -7 -38 -18 -85 -15 -66 -55 -177 -76
-209 -1 -2 -8 1 -15 7 -7 6 -65 20 -128 32 -134 24 -152 29 -447 117 l-223 67
27 45 c52 92 116 173 163 209 27 20 48 41 46 46 -4 16 -26 19 -26 3 0 -8 -26
-35 -57 -61 -32 -25 -62 -51 -68 -56 -5 -6 -18 -19 -27 -28 -10 -9 -18 -21
-18 -26 0 -12 -63 -105 -72 -106 -8 0 -28 57 -28 82 0 10 47 66 105 125 58 59
105 109 105 112 0 7 42 51 49 51 3 0 16 -24 29 -53z m312 -46 c124 -38 250
-74 281 -80 34 -7 64 -21 76 -34 24 -26 39 -77 23 -77 -6 0 -135 39 -288 86
-152 48 -300 93 -328 101 -46 14 -53 19 -63 53 -6 20 -11 40 -11 42 0 3 19 -1
43 -8 23 -7 143 -45 267 -83z m880 -6 c149 -24 644 -230 728 -302 33 -29 163
-201 230 -306 20 -32 65 -91 98 -132 59 -70 62 -78 74 -154 26 -169 -20 -360
-86 -361 -42 0 -160 -71 -242 -145 -46 -41 -104 -84 -129 -96 -63 -30 -162
-35 -298 -14 -63 9 -206 19 -332 22 -123 3 -223 8 -223 10 0 3 15 22 33 43 17
21 50 73 72 116 22 44 75 132 117 196 157 239 191 346 156 500 -7 29 -48 123
-91 208 -111 216 -227 450 -227 456 0 2 17 -4 38 -15 20 -10 57 -22 82 -26z
m-902 -574 c15 -48 15 -54 0 -45 -7 4 -8 3 -4 -4 4 -6 -2 -17 -14 -24 -11 -7
-20 -19 -20 -26 0 -7 -4 -10 -10 -7 -5 3 -10 0 -10 -7 -1 -15 -55 -78 -68 -78
-4 0 -13 -14 -19 -31 -7 -17 -17 -28 -22 -24 -7 4 -11 -4 -11 -18 0 -13 -3
-26 -6 -30 -8 -8 -52 13 -57 27 -8 20 5 67 19 73 8 3 14 14 14 24 0 10 9 24
20 31 11 7 20 17 20 22 0 10 141 155 151 156 3 0 11 -17 17 -39z m53 15 c19
-8 147 -42 284 -77 161 -40 253 -68 259 -78 5 -8 23 -28 40 -43 16 -15 27 -30
24 -33 -3 -3 -59 12 -124 34 -279 93 -373 120 -431 127 -44 4 -63 11 -67 23
-3 9 -13 26 -22 39 -19 26 -10 28 37 8z m284 -163 c121 -41 241 -82 268 -91
57 -19 59 -32 17 -105 -16 -29 -36 -82 -45 -119 -21 -92 -25 -100 -44 -93 -19
8 -624 180 -664 189 -15 4 -30 13 -33 21 -10 25 50 136 115 216 l62 76 52 -9
c29 -5 151 -43 272 -85z m1778 -323 c1 -55 -4 -94 -13 -110 -7 -14 -16 -40
-19 -59 -4 -19 -12 -36 -20 -39 -10 -3 -12 0 -8 11 3 9 1 17 -6 20 -8 2 -6 18
7 52 16 41 18 66 13 174 -4 69 -9 140 -12 156 -4 17 8 -4 26 -45 27 -64 32
-88 32 -160z m42 210 c19 -16 40 -158 37 -258 -2 -45 -7 -58 -37 -90 -38 -41
-41 -37 -22 29 24 80 6 199 -48 323 -8 17 -5 19 25 13 18 -4 39 -12 45 -17z
m179 -21 c14 -12 11 -213 -3 -284 -18 -88 -21 -95 -38 -95 -11 0 -14 6 -9 23
4 12 11 54 16 92 8 64 -1 146 -24 215 -2 8 -7 28 -11 43 -6 28 -5 29 27 22 18
-4 37 -11 42 -16z m-72 -70 c22 -85 19 -160 -10 -254 -12 -39 -24 -61 -35 -63
-15 -3 -17 2 -11 40 3 24 12 55 19 71 8 15 9 25 4 22 -5 -4 -9 17 -9 47 0 29
-7 82 -14 118 -12 58 -12 67 2 83 8 10 20 16 26 14 5 -2 18 -37 28 -78z m133
-107 c0 -112 -4 -164 -13 -180 -14 -24 -40 -25 -33 -1 20 73 24 112 24 227 0
98 3 130 11 122 7 -7 11 -66 11 -168z m225 135 c30 -9 104 -30 165 -47 268
-77 323 -115 405 -285 62 -127 77 -206 60 -307 -7 -40 -21 -91 -31 -115 -30
-71 -123 -203 -203 -290 -41 -46 -87 -105 -101 -133 -69 -136 -72 -291 -9
-429 34 -76 68 -109 132 -127 53 -16 54 -16 115 12 53 24 77 29 172 32 104 3
116 2 213 -31 116 -39 214 -105 276 -187 77 -101 144 -241 182 -381 65 -237
74 -338 50 -520 -10 -68 -26 -189 -37 -269 -36 -269 -62 -341 -196 -551 -33
-52 -79 -128 -103 -169 -49 -86 -159 -197 -243 -248 -70 -42 -261 -127 -307
-137 -19 -4 -64 -29 -100 -56 -36 -27 -98 -66 -138 -86 -40 -21 -99 -59 -132
-85 -72 -58 -197 -209 -239 -287 -30 -57 -81 -188 -81 -210 0 -6 -18 -49 -40
-96 -22 -46 -44 -104 -50 -128 -23 -103 -42 -329 -50 -582 -8 -267 -8 -272
-44 -410 -53 -199 -99 -270 -263 -402 -158 -127 -204 -151 -343 -178 -47 -9
-104 -21 -127 -26 -102 -22 -233 -4 -393 56 -52 19 -101 35 -108 35 -8 0 -66
51 -130 113 -87 84 -142 128 -217 172 -55 33 -132 82 -171 111 -64 47 -72 50
-90 37 -10 -8 -27 -12 -36 -9 -10 2 -21 0 -24 -5 -11 -18 -68 -8 -116 21 -26
16 -52 30 -57 30 -5 0 -30 20 -55 45 -26 25 -60 52 -76 60 -17 9 -30 21 -30
28 0 13 81 82 159 137 41 28 76 34 95 14 8 -8 23 -14 33 -14 24 0 153 -94 175
-128 22 -33 23 -81 4 -88 -39 -15 36 -67 246 -171 88 -44 128 -72 215 -151
188 -170 193 -172 371 -137 68 14 135 25 148 25 43 0 167 39 240 75 94 46 160
107 227 209 142 215 152 257 172 721 32 761 77 977 251 1206 56 73 95 107 218
186 301 197 482 319 572 386 234 175 439 458 503 694 52 188 67 329 51 470
-21 188 -102 373 -219 496 -63 66 -82 80 -129 93 -73 21 -122 15 -256 -35
-127 -48 -188 -52 -287 -21 -159 49 -287 170 -372 350 -79 166 -88 201 -94
345 l-5 130 31 59 c24 45 80 106 243 265 116 113 226 229 245 258 29 45 33 61
33 116 0 50 -5 71 -23 98 -47 71 -187 117 -313 104 -34 -4 -84 -4 -111 0 l-49
6 0 137 c1 75 -3 155 -7 178 l-8 41 78 -2 c44 -1 103 -9 133 -18z m-5445 -705
c59 -24 169 -98 218 -145 79 -78 297 -328 297 -341 0 -8 21 -41 48 -74 26 -33
67 -89 92 -123 25 -35 65 -86 90 -113 25 -28 71 -82 101 -121 31 -38 90 -106
130 -150 41 -44 96 -109 123 -145 28 -36 64 -82 82 -102 19 -21 45 -56 60 -80
15 -23 57 -81 94 -128 37 -47 84 -110 105 -140 64 -93 223 -277 371 -432 78
-81 190 -202 248 -270 59 -68 129 -149 157 -180 27 -31 49 -60 49 -64 0 -4 42
-48 93 -99 50 -50 129 -132 174 -182 45 -51 120 -126 166 -167 90 -79 605
-592 772 -768 55 -58 134 -128 175 -156 108 -74 135 -100 175 -166 41 -68 41
-75 16 -147 -41 -121 -82 -178 -276 -389 -81 -88 -162 -165 -198 -190 -63 -42
-148 -114 -267 -226 -75 -70 -219 -187 -251 -205 -13 -6 -28 -16 -33 -21 -6
-4 -54 -38 -106 -75 -52 -37 -97 -70 -100 -74 -15 -21 -430 -288 -513 -329
-99 -51 -251 -96 -395 -119 -40 -6 -159 -11 -265 -11 -245 0 -224 -8 -475 189
-57 45 -105 81 -108 81 -18 0 -100 79 -220 211 -134 146 -235 240 -418 387
-50 40 -133 111 -184 159 -113 103 -213 188 -307 258 -38 29 -142 123 -230
210 -88 87 -173 170 -190 184 -16 14 -30 32 -30 39 0 20 -79 142 -92 142 -34
0 -413 374 -633 625 -58 66 -133 148 -166 182 -109 109 -373 441 -444 557 -31
51 -131 177 -191 241 -26 28 -77 95 -114 150 -37 55 -96 138 -130 185 -35 47
-76 110 -93 140 -66 123 -105 187 -141 235 -57 76 -76 120 -100 230 -14 69
-21 136 -21 215 l0 115 48 85 c29 53 71 109 113 150 56 56 89 77 230 147 90
45 198 96 239 113 41 17 89 37 105 45 17 8 59 26 95 40 36 15 79 33 95 40 110
48 443 165 470 165 8 0 52 15 97 34 89 37 323 119 478 167 52 17 104 34 115
39 28 11 177 55 255 75 36 9 101 25 145 37 44 11 123 35 175 53 100 35 126 36
195 7z m-2886 -1297 c-5 -71 -5 -146 -2 -165 9 -57 65 -211 95 -262 15 -27 25
-48 21 -48 -4 0 3 -10 14 -22 12 -13 52 -77 90 -143 118 -205 217 -344 353
-500 73 -82 162 -195 199 -250 234 -352 873 -1068 1203 -1350 47 -40 75 -73
93 -110 19 -42 66 -93 222 -243 197 -190 231 -219 394 -349 48 -37 143 -121
212 -186 69 -64 152 -139 184 -165 202 -160 262 -213 361 -319 60 -65 127
-139 149 -164 21 -26 67 -66 102 -90 35 -24 71 -51 80 -60 13 -12 124 -104
218 -179 17 -14 90 -40 148 -54 28 -6 56 -15 63 -20 27 -17 168 -19 243 -3 41
9 101 19 134 23 49 5 220 49 311 80 10 3 -18 -16 -64 -44 -78 -47 -210 -99
-360 -143 -179 -53 -390 -29 -587 67 -137 66 -226 117 -296 169 -29 22 -72 51
-95 65 -81 48 -289 211 -368 288 -45 43 -132 124 -193 181 -62 56 -150 146
-195 199 -157 185 -333 343 -641 580 -52 40 -148 121 -214 180 -66 59 -151
134 -188 167 -150 133 -369 388 -510 594 -78 115 -220 302 -257 341 -18 19
-59 70 -91 112 -34 46 -63 75 -71 72 -7 -3 -26 12 -41 33 -16 21 -44 55 -62
76 -32 35 -33 39 -18 60 8 12 15 27 15 35 0 22 -117 192 -132 192 -5 0 10 -26
33 -57 88 -123 92 -130 79 -153 -6 -12 -14 -19 -17 -16 -3 3 -20 -6 -39 -20
l-33 -25 -17 28 c-10 15 -42 65 -71 109 -29 45 -53 86 -53 93 0 6 11 11 24 11
12 0 36 12 52 27 l28 26 -26 -5 c-22 -4 -36 4 -83 52 l-56 56 25 14 c37 19 38
32 8 102 -27 64 -100 173 -109 164 -3 -3 10 -27 30 -53 34 -47 87 -155 87
-177 -1 -13 -85 -66 -105 -66 -26 0 -123 186 -112 214 4 9 20 19 36 22 20 4
28 11 24 20 -3 8 1 14 11 14 9 0 16 5 16 11 0 7 -9 9 -24 5 -21 -5 -27 2 -64
82 -22 48 -61 123 -86 167 -80 141 -153 289 -170 345 -31 103 -15 230 47 385
28 69 50 116 52 113 1 -2 -2 -61 -6 -133z m5426 -1565 c10 -11 16 -20 13 -20
-3 0 -13 9 -23 20 -10 11 -16 20 -13 20 3 0 13 -9 23 -20z"/>
<path d="M6084 7761 c-64 -29 -74 -83 -24 -125 60 -50 135 -54 170 -8 24 30
25 63 5 102 -28 53 -79 64 -151 31z m106 -33 c40 -37 16 -98 -38 -98 -42 0
-92 35 -92 64 0 51 87 74 130 34z"/>
<path d="M7585 7170 l-40 -7 48 -2 c26 0 47 4 47 9 0 6 -3 9 -7 9 -5 -1 -26
-5 -48 -9z"/>
<path d="M7730 7172 c0 -12 98 -37 107 -28 12 12 -12 24 -59 30 -29 5 -48 3
-48 -2z"/>
<path d="M7950 7144 c0 -13 35 -33 57 -34 38 0 34 17 -6 29 -44 13 -51 13 -51
5z"/>
<path d="M8123 7103 c9 -14 47 -24 47 -12 0 5 -4 9 -9 9 -5 0 -17 3 -27 7 -11
4 -15 3 -11 -4z"/>
<path d="M8210 7062 c0 -16 32 -52 41 -47 5 4 1 17 -8 30 -18 24 -33 32 -33
17z"/>
<path d="M8290 7005 c13 -16 60 -21 60 -6 0 11 -25 21 -52 21 -17 0 -18 -3 -8
-15z"/>
<path d="M6337 7132 c-27 -29 -20 -58 20 -91 37 -31 92 -41 120 -23 20 13 33
60 23 86 -16 44 -131 63 -163 28z m114 -11 c13 -2 26 -48 18 -63 -9 -17 -66
-18 -78 -1 -3 5 -14 12 -23 16 -44 16 -5 59 47 52 17 -2 33 -4 36 -4z"/>
<path d="M3465 6194 c-31 -23 -163 -94 -175 -94 -26 0 -244 -93 -372 -159 -75
-39 -167 -82 -204 -96 -37 -14 -162 -74 -278 -134 -455 -234 -546 -284 -616
-335 -32 -23 -73 -49 -91 -56 -19 -8 -59 -31 -89 -51 -30 -20 -98 -60 -150
-89 -52 -29 -120 -66 -150 -83 -132 -73 -212 -125 -350 -232 -25 -19 -64 -44
-87 -56 l-42 -20 27 -42 c41 -63 125 -171 237 -302 114 -134 124 -147 244
-310 48 -66 132 -175 187 -241 117 -143 360 -478 498 -687 54 -81 100 -146
103 -143 14 13 -473 705 -592 841 -57 65 -234 298 -270 355 -12 19 -47 63 -76
96 -148 168 -328 396 -329 416 0 3 16 16 35 28 20 12 72 51 116 86 87 69 210
148 335 215 121 65 287 160 304 174 8 7 31 20 50 30 19 9 78 45 130 80 52 34
183 107 290 163 107 55 257 132 333 171 76 40 173 86 215 103 42 17 145 64
227 106 152 76 328 152 352 152 18 0 129 56 181 92 l43 30 47 -53 c26 -29 115
-119 197 -200 85 -83 165 -172 185 -204 19 -31 59 -91 89 -133 30 -42 67 -102
82 -132 18 -35 59 -86 114 -140 133 -130 288 -319 346 -422 117 -208 249 -374
520 -653 75 -77 176 -187 224 -245 49 -58 206 -224 350 -370 143 -146 278
-286 299 -312 21 -27 92 -89 158 -139 66 -50 215 -182 332 -293 118 -110 250
-235 296 -276 l82 -75 -123 -105 c-146 -125 -191 -161 -284 -225 -90 -62 -109
-78 -297 -258 -86 -82 -203 -185 -260 -229 -111 -85 -343 -280 -498 -418 -52
-47 -114 -98 -138 -114 -23 -16 -91 -74 -150 -128 -61 -57 -159 -134 -227
-178 -152 -100 -167 -111 -161 -117 12 -12 299 192 396 282 58 54 126 112 151
129 25 17 97 77 160 132 175 156 325 283 403 343 140 107 183 145 340 294 149
142 189 176 379 317 108 80 317 262 317 276 0 7 -39 48 -87 91 -48 43 -172
159 -276 258 -209 199 -240 226 -374 327 -50 38 -109 90 -129 116 -21 26 -156
166 -299 312 -144 146 -301 312 -350 370 -49 58 -150 168 -224 246 -282 291
-412 456 -534 676 -46 82 -175 239 -317 383 -62 63 -115 126 -124 147 -8 21
-41 75 -74 120 -32 46 -71 106 -87 133 -16 28 -101 122 -194 215 -91 92 -184
187 -206 213 -43 50 -58 55 -90 31z"/>
<path d="M3457 6121 c-25 -9 -87 -90 -87 -112 0 -45 94 1 125 61 28 53 14 72
-38 51z m12 -61 c-26 -34 -34 -37 -43 -15 -7 20 10 49 38 61 30 13 32 -8 5
-46z"/>
<path d="M2440 5984 c-19 -13 -78 -45 -130 -69 -162 -77 -185 -89 -188 -107
-2 -9 6 -22 18 -28 25 -14 109 15 174 59 22 16 68 42 102 59 73 37 88 53 80
87 -8 31 -12 31 -56 -1z m40 -29 c-8 -9 -40 -30 -72 -46 -32 -16 -82 -44 -111
-62 -79 -50 -132 -68 -154 -52 -15 11 3 23 150 95 92 45 170 86 173 92 4 6 10
6 17 -1 7 -7 6 -15 -3 -26z"/>
<path d="M3294 5984 c-8 -29 16 -60 39 -51 21 8 27 45 10 62 -22 22 -42 18
-49 -11z m44 -16 c-2 -13 -7 -23 -13 -23 -5 0 -11 10 -13 23 -2 15 2 22 13 22
11 0 15 -7 13 -22z"/>
<path d="M3220 5944 c0 -14 2 -15 16 -3 15 12 16 11 10 -9 -6 -16 -3 -22 8
-22 19 0 21 -16 4 -23 -8 -3 -6 -6 5 -6 25 -1 34 29 14 44 -10 7 -17 17 -17
24 0 6 -9 11 -20 11 -12 0 -20 -7 -20 -16z"/>
<path d="M1910 5815 c0 -2 12 -11 27 -18 l27 -14 -27 -27 c-15 -15 -32 -23
-41 -20 -20 8 -20 18 -1 38 21 20 19 29 -4 17 -23 -13 -33 -45 -18 -60 19 -19
55 -12 76 15 28 35 26 52 -5 64 -29 11 -34 12 -34 5z"/>
<path d="M2761 5750 c-13 -11 -32 -20 -42 -20 -10 0 -19 -4 -19 -10 0 -16 43
-12 69 6 19 14 25 14 32 3 12 -19 11 -29 -1 -29 -5 0 -10 -5 -10 -11 0 -5 8
-9 18 -8 9 2 27 -2 40 -9 18 -11 22 -10 22 3 0 8 -5 15 -12 15 -9 0 -9 3 0 12
18 18 14 28 -10 25 -15 -1 -26 5 -33 21 -12 27 -23 27 -54 2z"/>
<path d="M2613 5675 c-34 -14 -48 -43 -15 -30 49 20 55 19 48 -8 -7 -31 4 -34
39 -11 37 24 55 6 21 -21 -17 -13 -24 -25 -18 -29 6 -3 23 5 39 18 23 21 26
28 17 43 -7 10 -23 18 -40 18 -19 1 -30 7 -32 18 -4 20 -16 21 -59 2z"/>
<path d="M2510 5580 c0 -5 7 -10 15 -10 8 0 15 5 15 10 0 6 -7 10 -15 10 -8 0
-15 -4 -15 -10z"/>
<path d="M2554 5549 c-8 -14 11 -33 25 -25 11 7 4 36 -9 36 -5 0 -12 -5 -16
-11z"/>
<path d="M2382 5522 c-8 -6 -12 -21 -10 -38 l4 -29 12 28 c8 19 19 27 38 27
23 0 25 -3 19 -30 -6 -29 -5 -30 19 -24 31 7 35 -10 9 -38 -22 -25 -8 -36 17
-13 26 24 26 65 1 72 -11 3 -21 15 -23 27 -2 16 -11 22 -38 24 -19 1 -41 -2
-48 -6z"/>
<path d="M2310 5461 c0 -12 76 -101 102 -119 39 -28 17 14 -38 71 -57 59 -64
64 -64 48z"/>
<path d="M1040 4865 c0 -22 55 -79 68 -71 21 13 13 34 -21 60 -39 30 -47 32
-47 11z"/>
<path d="M1021 4807 c-8 -11 -5 -19 13 -36 24 -23 46 -21 46 3 0 12 -31 46
-42 46 -3 0 -11 -6 -17 -13z"/>
<path d="M990 4750 c-11 -7 -12 -12 -3 -21 14 -14 46 -4 41 13 -6 16 -20 19
-38 8z"/>
<path d="M2905 4108 c-11 -6 -54 -40 -97 -75 -75 -62 -104 -106 -91 -139 3 -8
-2 -23 -11 -33 -10 -11 -18 -34 -18 -52 -1 -27 9 -42 68 -98 38 -36 103 -91
144 -121 160 -116 302 -248 501 -465 45 -50 316 -315 460 -450 79 -75 157
-140 201 -168 15 -9 53 -41 85 -71 32 -30 81 -75 108 -101 28 -25 72 -65 99
-88 162 -138 218 -193 314 -306 58 -69 140 -158 181 -198 100 -95 230 -183
280 -190 34 -5 43 -1 80 32 22 20 54 60 70 89 17 28 41 62 55 75 76 72 28 174
-134 284 -25 16 -70 53 -100 81 -57 52 -127 111 -190 158 -230 173 -251 192
-528 450 -85 79 -208 213 -320 347 -91 109 -242 260 -357 359 -55 46 -109 94
-120 106 -11 12 -49 48 -85 80 -36 32 -108 100 -160 150 -52 50 -126 118 -165
151 -38 33 -104 93 -146 133 -78 74 -90 80 -124 60z"/>
<path d="M4490 4030 c-12 -8 -11 -10 7 -10 12 0 25 5 28 10 8 13 -15 13 -35 0z"/>
<path d="M4820 4020 c0 -5 12 -10 28 -9 24 0 25 1 7 9 -27 12 -35 12 -35 0z"/>
<path d="M4350 3995 c-8 -9 -8 -15 -2 -15 12 0 26 19 19 26 -2 2 -10 -2 -17
-11z"/>
<path d="M4980 4000 c0 -5 18 -10 40 -10 22 0 40 5 40 10 0 6 -18 10 -40 10
-22 0 -40 -4 -40 -10z"/>
<path d="M5170 3970 c0 -5 10 -10 23 -10 18 0 19 2 7 10 -19 13 -30 13 -30 0z"/>
<path d="M4275 3920 c-3 -5 -1 -10 4 -10 6 0 11 5 11 10 0 6 -2 10 -4 10 -3 0
-8 -4 -11 -10z"/>
<path d="M5125 3871 c-65 -9 -111 -34 -135 -74 -35 -57 -28 -73 73 -172 51
-50 140 -129 198 -175 57 -46 185 -165 284 -265 285 -285 585 -568 620 -587
57 -30 114 -39 152 -23 27 11 40 28 64 78 25 55 28 68 19 93 -16 41 -38 63
-90 89 -49 25 -130 98 -206 184 -26 30 -76 80 -112 110 -37 31 -100 88 -142
126 -62 57 -169 151 -199 175 -3 3 -31 34 -61 70 -104 122 -279 315 -307 338
-57 46 -57 46 -158 33z"/>
<path d="M4240 3785 c0 -14 5 -25 10 -25 6 0 10 11 10 25 0 14 -4 25 -10 25
-5 0 -10 -11 -10 -25z"/>
<path d="M4243 3600 c0 -25 2 -35 4 -22 2 12 2 32 0 45 -2 12 -4 2 -4 -23z"/>
<path d="M4250 3431 c0 -11 5 -23 10 -26 6 -4 10 5 10 19 0 14 -4 26 -10 26
-5 0 -10 -9 -10 -19z"/>
<path d="M2660 3389 c-178 -78 -211 -113 -203 -210 5 -48 15 -61 117 -158 25
-24 46 -48 46 -53 0 -5 19 -30 43 -56 23 -26 54 -63 69 -82 75 -101 238 -249
579 -525 125 -100 296 -262 595 -560 89 -88 192 -187 229 -220 105 -92 154
-136 204 -184 66 -62 170 -152 214 -185 32 -23 81 -37 166 -48 43 -5 101 37
101 73 0 12 19 31 51 51 95 58 97 123 7 203 -163 146 -206 184 -247 215 -94
72 -1183 1180 -1350 1375 -58 66 -187 185 -201 185 -5 0 -16 13 -24 28 -12 24
-62 81 -136 158 -12 12 -39 24 -63 27 -23 3 -51 8 -62 11 -12 4 -65 -14 -135
-45z"/>
<path d="M4263 3260 c0 -36 2 -50 4 -32 2 17 2 47 0 65 -2 17 -4 3 -4 -33z"/>
<path d="M4989 3201 c-23 -23 -29 -38 -29 -72 0 -37 6 -47 48 -88 113 -110
320 -287 454 -389 31 -24 87 -75 125 -113 171 -177 224 -223 278 -246 50 -21
58 -22 88 -10 18 8 49 30 70 49 31 30 37 42 37 76 0 36 -5 45 -57 90 -32 27
-92 72 -133 100 -81 54 -176 148 -258 253 -82 106 -245 239 -370 303 -26 14
-62 36 -81 50 -28 20 -46 26 -89 26 -46 0 -58 -4 -83 -29z"/>
<path d="M2170 3073 c0 -5 12 -20 26 -34 15 -13 104 -112 198 -219 162 -184
810 -843 906 -921 25 -21 124 -99 220 -174 245 -193 364 -310 515 -510 29 -39
85 -100 124 -137 110 -104 422 -308 470 -308 23 1 21 3 -11 14 -66 24 -365
225 -445 299 -41 40 -97 100 -124 135 -147 195 -313 357 -569 557 -181 141
-247 202 -555 510 -193 193 -429 440 -526 550 -183 207 -229 255 -229 238z"/>
<path d="M4250 3060 c0 -5 5 -10 10 -10 6 0 10 5 10 10 0 6 -4 10 -10 10 -5 0
-10 -4 -10 -10z"/>
<path d="M4238 2940 c-5 -35 7 -41 16 -7 8 30 7 37 -3 37 -5 0 -11 -13 -13
-30z"/>
<path d="M5162 2493 c-7 -2 -26 -25 -43 -50 -53 -77 -40 -131 49 -193 26 -19
88 -74 137 -123 65 -64 110 -98 160 -123 83 -41 94 -39 177 27 56 43 77 72 78
103 0 21 -40 96 -51 96 -4 0 -31 22 -61 48 -118 108 -324 223 -395 221 -21 0
-44 -3 -51 -6z"/>
<path d="M4026 2434 c-17 -12 -17 -14 -4 -14 9 0 20 5 23 11 11 17 2 18 -19 3z"/>
<path d="M5978 1627 c-38 -30 -83 -78 -107 -114 -38 -57 -41 -66 -41 -130 0
-174 113 -256 283 -205 72 21 209 107 266 165 91 95 15 236 -167 306 -120 46
-152 43 -234 -22z m227 8 c130 -54 195 -122 195 -202 0 -55 -29 -88 -140 -163
-96 -65 -166 -90 -248 -90 -73 0 -113 26 -146 92 -37 73 -36 146 3 213 32 55
94 121 122 130 11 4 19 10 19 15 0 15 53 39 85 39 17 0 66 -15 110 -34z"/>
</g>
</svg>
