<?xml version="1.0" standalone="no"?>
<!DOCTYPE svg PUBLIC "-//W3C//DTD SVG 20010904//EN"
 "http://www.w3.org/TR/2001/REC-SVG-20010904/DTD/svg10.dtd">
<svg version="1.0" xmlns="http://www.w3.org/2000/svg"
 width="750.000000pt" height="1334.000000pt" viewBox="0 115 750.000000 1334.000000"
 preserveAspectRatio="xMidYMid meet">

<g transform="translate(0.000000,1334.000000) scale(0.100000,-0.100000)"
fill="#FFFFFF" stroke="none">
<path d="M405 13237 c-3 -7 -5 -54 -3 -103 3 -88 3 -89 28 -89 l25 0 0 100 c0
96 -1 100 -23 103 -12 2 -24 -3 -27 -11z"/>
<path d="M700 13141 c0 -54 4 -91 10 -91 6 0 10 35 10 84 0 47 -4 88 -10 91
-6 4 -10 -27 -10 -84z"/>
<path d="M756 13221 c-4 -5 -2 -12 3 -15 5 -4 12 -2 15 3 4 5 2 12 -3 15 -5 4
-12 2 -15 -3z"/>
<path d="M5989 13215 c-50 -27 -61 -104 -22 -147 24 -26 75 -33 112 -14 17 9
31 21 31 26 0 15 -16 12 -30 -5 -19 -23 -73 -19 -98 8 -45 47 -12 127 52 127
31 0 86 -48 67 -59 -8 -5 -7 -12 3 -27 14 -19 15 -19 29 0 12 17 12 21 -5 38
-10 10 -18 22 -18 28 0 12 -54 40 -77 40 -10 -1 -30 -7 -44 -15z"/>
<path d="M1267 13160 c-20 -33 -37 -62 -37 -65 0 -3 18 -5 41 -5 32 0 42 -4
46 -20 7 -25 23 -26 23 -1 0 11 6 22 13 24 10 4 10 6 0 6 -9 1 -13 20 -13 61
0 81 -22 81 -73 0z m49 -46 c-6 -14 -56 -20 -56 -6 0 4 12 25 28 47 l27 40 3
-33 c2 -19 1 -40 -2 -48z"/>
<path d="M1410 13200 c-14 -14 -20 -33 -20 -65 0 -56 25 -85 73 -85 40 0 67
25 67 63 0 23 -4 27 -29 27 -17 0 -33 -4 -36 -10 -4 -6 5 -10 19 -10 15 0 26
-6 26 -13 0 -38 -71 -52 -90 -18 -25 48 -4 111 37 111 15 0 35 -7 45 -17 25
-22 36 -8 13 17 -24 26 -79 26 -105 0z"/>
<path d="M3458 13206 c-18 -14 -24 -36 -10 -36 4 0 13 5 20 12 9 9 12 -4 12
-60 0 -57 3 -72 15 -72 12 0 15 16 15 85 0 74 -2 85 -17 85 -10 0 -26 -7 -35
-14z"/>
<path d="M3584 13212 c-18 -11 -34 -49 -34 -77 0 -28 16 -66 34 -77 36 -24 96
6 96 49 0 41 -60 69 -88 41 -9 -9 -12 -8 -12 4 0 15 25 48 36 48 2 0 13 -5 24
-12 24 -15 37 -4 20 17 -13 16 -57 20 -76 7z m60 -95 c8 -12 7 -21 -6 -33 -22
-22 -48 -11 -48 20 0 37 34 45 54 13z"/>
<path d="M3795 13198 c-19 -28 0 -39 20 -12 11 15 18 17 31 8 29 -18 27 -29
-21 -82 -25 -27 -45 -53 -45 -56 0 -3 27 -6 61 -6 44 0 60 3 56 13 -2 7 -16
11 -35 9 -39 -4 -40 7 -6 39 41 38 48 57 29 85 -21 32 -68 33 -90 2z"/>
<path d="M3956 13161 c-20 -32 -36 -64 -36 -70 0 -6 18 -11 45 -11 33 0 45 -4
45 -15 0 -8 5 -15 10 -15 6 0 10 7 10 15 0 8 7 15 15 15 8 0 15 7 15 15 0 8
-7 15 -15 15 -12 0 -15 13 -15 55 0 48 -3 55 -19 55 -13 0 -32 -20 -55 -59z
m54 -11 c0 -38 -2 -40 -30 -40 l-30 0 26 40 c15 22 28 40 30 40 2 0 4 -18 4
-40z"/>
<path d="M6265 13174 c-7 -51 -2 -63 19 -45 8 7 25 11 38 9 18 -2 23 -9 23
-33 0 -24 -5 -31 -23 -33 -13 -2 -30 2 -38 9 -19 16 -30 4 -14 -16 15 -18 71
-20 88 -3 35 35 -5 106 -53 94 -23 -6 -26 -4 -23 16 2 19 10 24 41 26 52 4 47
22 -7 22 l-44 0 -7 -46z"/>
<path d="M6410 13170 c0 -47 11 -63 25 -40 11 17 44 11 55 -11 9 -15 8 -24 -1
-35 -14 -17 -56 -19 -62 -1 -2 6 -8 9 -12 5 -14 -13 17 -38 46 -38 20 0 34 8
46 26 15 24 15 29 2 53 -11 20 -23 26 -47 26 -27 0 -32 4 -32 22 0 20 5 23 40
23 22 0 40 5 40 10 0 6 -22 10 -50 10 l-50 0 0 -50z"/>
<path d="M6624 13207 c-3 -9 -4 -28 -2 -44 2 -22 8 -28 28 -28 23 0 25 4 25
40 0 34 -3 40 -23 43 -13 2 -24 -3 -28 -11z m41 -18 c9 -26 -10 -48 -26 -32
-12 12 -3 53 11 53 5 0 12 -9 15 -21z"/>
<path d="M6705 13140 c-31 -45 -54 -84 -51 -88 7 -7 3 -13 65 81 29 43 51 81
48 83 -3 3 -30 -32 -62 -76z"/>
<path d="M6954 13207 c-3 -8 -4 -41 -2 -73 l3 -59 95 0 95 0 0 70 0 70 -93 3
c-72 2 -94 0 -98 -11z"/>
<path d="M314 13197 c-3 -8 -4 -45 -2 -83 3 -66 4 -69 28 -69 25 0 25 1 25 80
0 75 -1 80 -23 83 -12 2 -24 -3 -28 -11z"/>
<path d="M583 13172 c-23 -15 -34 -62 -21 -90 15 -31 67 -42 86 -19 10 12 6
14 -25 13 -28 -1 -38 3 -41 17 -3 14 4 17 37 17 34 0 41 3 41 19 0 11 -10 27
-22 35 -25 18 -37 19 -55 8z m55 -34 c3 -14 -3 -18 -27 -18 -29 0 -41 17 -24
34 13 13 48 1 51 -16z"/>
<path d="M757 13173 c-11 -10 -8 -123 3 -123 6 0 10 28 10 65 0 65 -1 71 -13
58z"/>
<path d="M825 13164 c-22 -22 -15 -36 29 -57 45 -21 38 -42 -11 -34 -29 5 -33
4 -23 -8 19 -23 67 -19 80 6 13 24 -2 49 -30 49 -10 0 -23 7 -30 15 -10 12 -9
16 5 21 10 4 26 2 36 -5 21 -13 26 -2 7 17 -17 17 -44 15 -63 -4z"/>
<path d="M958 13169 c-26 -15 -23 -32 3 -19 25 14 49 6 49 -15 0 -10 -10 -15
-29 -15 -36 0 -59 -25 -44 -48 6 -11 25 -18 52 -18 l41 -2 0 54 c0 42 -4 55
-19 64 -24 12 -31 12 -53 -1z m52 -74 c0 -19 -24 -29 -46 -21 -13 5 -14 9 -4
21 16 20 50 19 50 0z"/>
<path d="M6010 13154 c-19 -49 -13 -64 25 -64 28 0 35 4 35 19 0 33 -19 71
-35 71 -9 0 -20 -12 -25 -26z m40 1 c0 -8 -7 -15 -15 -15 -8 0 -15 7 -15 15 0
8 7 15 15 15 8 0 15 -7 15 -15z"/>
<path d="M224 13147 c-3 -8 -4 -34 -2 -58 3 -39 6 -44 28 -44 24 0 25 3 25 55
0 49 -2 55 -23 58 -12 2 -24 -3 -28 -11z"/>
<path d="M7371 13144 c0 -11 3 -14 6 -6 3 7 2 16 -1 19 -3 4 -6 -2 -5 -13z"/>
<path d="M6751 13126 c-20 -24 -10 -70 17 -74 36 -5 50 58 18 80 -16 11 -22
10 -35 -6z m37 -33 c-4 -31 -23 -42 -30 -16 -7 25 1 43 18 43 11 0 14 -8 12
-27z"/>
<path d="M134 13106 c-3 -8 -4 -25 -2 -38 2 -17 9 -23 28 -23 22 0 25 4 25 35
0 29 -4 36 -23 38 -13 2 -24 -3 -28 -12z"/>
<path d="M3710 13065 c0 -8 7 -15 15 -15 8 0 15 7 15 15 0 8 -7 15 -15 15 -8
0 -15 -7 -15 -15z"/>
<path d="M1966 12433 c-11 -11 -6 -23 9 -23 8 0 15 4 15 9 0 13 -16 22 -24 14z"/>
<path d="M2027 12434 c-8 -8 1 -24 14 -24 5 0 9 7 9 15 0 15 -12 20 -23 9z"/>
<path d="M2326 12433 c-11 -11 -6 -23 9 -23 8 0 15 4 15 9 0 13 -16 22 -24 14z"/>
<path d="M2390 12426 c0 -9 7 -16 16 -16 9 0 14 5 12 12 -6 18 -28 21 -28 4z"/>
<path d="M1580 12402 c-28 -22 -30 -70 -4 -89 10 -7 35 -18 55 -23 52 -14 67
-35 44 -60 -23 -26 -60 -25 -85 0 -22 22 -40 26 -40 10 0 -25 41 -50 83 -50
52 0 77 22 77 66 0 33 -17 47 -78 63 -43 12 -59 35 -41 57 16 19 78 18 85 -1
7 -16 34 -21 34 -6 0 18 -53 51 -80 51 -15 0 -38 -8 -50 -18z"/>
<path d="M4670 12375 c0 -10 11 -15 35 -15 l35 0 0 -100 c0 -82 3 -100 15
-100 12 0 15 18 15 100 l0 100 35 0 c24 0 35 5 35 15 0 12 -16 15 -85 15 -69
0 -85 -3 -85 -15z"/>
<path d="M1974 12370 c-54 -21 -72 -105 -33 -154 16 -21 29 -26 63 -26 57 0
86 30 86 89 0 55 -12 76 -51 90 -37 13 -37 13 -65 1z m73 -32 c26 -33 20 -101
-10 -120 -57 -36 -112 46 -77 113 12 22 72 27 87 7z"/>
<path d="M1761 12333 c12 -21 26 -42 31 -47 4 -6 8 -29 8 -53 0 -32 4 -43 15
-43 11 0 15 11 15 41 0 29 9 53 30 84 34 49 36 55 17 55 -7 0 -24 -19 -37 -42
l-23 -41 -25 41 c-13 23 -31 42 -39 42 -12 0 -10 -8 8 -37z"/>
<path d="M2120 12360 c0 -5 14 -10 30 -10 l30 0 0 -80 c0 -64 3 -80 15 -80 12
0 15 16 15 80 l0 80 30 0 c17 0 30 5 30 10 0 6 -32 10 -75 10 -43 0 -75 -4
-75 -10z"/>
<path d="M2321 12287 c-17 -46 -31 -86 -31 -90 0 -17 21 -5 30 18 8 21 16 25
50 25 34 0 41 -4 46 -25 3 -14 13 -25 21 -25 8 0 13 4 11 8 -1 4 -16 45 -33
90 -39 108 -53 108 -94 -1z m67 6 c11 -32 10 -33 -20 -33 -23 0 -29 3 -24 16
3 9 9 27 12 41 8 28 17 21 32 -24z"/>
<path d="M5600 12337 c-49 -24 -26 -97 30 -97 9 0 25 -6 35 -14 16 -12 17 -16
6 -30 -17 -20 -55 -21 -75 0 -24 23 -39 13 -21 -14 12 -16 26 -22 54 -22 50 0
74 18 69 55 -2 24 -11 32 -43 45 -55 21 -65 28 -58 45 6 18 54 20 70 4 18 -18
36 -7 21 12 -18 23 -59 30 -88 16z"/>
<path d="M4881 12257 c-17 -46 -31 -86 -31 -90 0 -17 21 -5 30 18 8 21 16 25
50 25 34 0 41 -4 46 -25 3 -14 13 -25 21 -25 8 0 13 4 11 8 -1 4 -16 45 -33
90 -39 108 -53 108 -94 -1z m67 6 c11 -32 10 -33 -20 -33 -23 0 -29 3 -24 16
3 9 9 27 12 41 8 28 17 21 32 -24z"/>
<path d="M5040 12250 c0 -73 3 -90 15 -90 10 0 15 11 15 35 0 30 3 35 23 35
17 0 28 -10 40 -35 9 -19 24 -35 33 -35 14 0 13 5 -6 37 -15 25 -18 39 -10 41
23 8 32 53 15 78 -13 20 -24 24 -70 24 l-55 0 0 -90z m101 54 c19 -23 -1 -48
-40 -52 -30 -3 -31 -2 -31 32 0 33 2 36 29 36 16 0 34 -7 42 -16z"/>
<path d="M5210 12250 c0 -73 3 -90 15 -90 10 0 15 10 15 28 0 15 5 34 10 42 9
12 17 8 48 -28 52 -59 73 -54 28 7 -20 27 -36 52 -36 57 0 4 14 23 32 41 48
49 12 41 -39 -9 l-43 -42 0 42 c0 31 -4 42 -15 42 -12 0 -15 -17 -15 -90z"/>
<path d="M5411 12257 c-17 -46 -31 -86 -31 -90 0 -17 21 -5 30 18 8 21 16 25
50 25 34 0 41 -4 46 -25 3 -14 13 -25 21 -25 8 0 13 4 11 8 -1 4 -16 45 -33
90 -39 108 -53 108 -94 -1z m67 6 c11 -32 10 -33 -20 -33 -23 0 -29 3 -24 16
3 9 9 27 12 41 8 28 17 21 32 -24z"/>
<path d="M5730 12330 c0 -5 14 -10 30 -10 l30 0 0 -80 c0 -64 3 -80 15 -80 12
0 15 16 15 80 l0 80 30 0 c17 0 30 5 30 10 0 6 -32 10 -75 10 -43 0 -75 -4
-75 -10z"/>
<path d="M5910 12250 l0 -90 60 0 c33 0 60 4 60 10 0 6 -20 10 -45 10 -43 0
-45 1 -45 30 0 28 2 30 40 30 22 0 40 5 40 10 0 6 -18 10 -40 10 -38 0 -40 2
-40 30 0 29 2 30 45 30 25 0 45 5 45 10 0 6 -27 10 -60 10 l-60 0 0 -90z"/>
<path d="M6060 12250 l0 -90 60 0 c33 0 60 4 60 10 0 6 -20 10 -45 10 l-45 0
0 80 c0 64 -3 80 -15 80 -12 0 -15 -17 -15 -90z"/>
<path d="M6210 12250 l0 -90 60 0 c33 0 60 4 60 10 0 6 -20 10 -45 10 -43 0
-45 1 -45 30 0 29 2 30 45 30 25 0 45 5 45 10 0 6 -20 10 -45 10 -43 0 -45 1
-45 30 0 29 2 30 45 30 25 0 45 5 45 10 0 6 -27 10 -60 10 l-60 0 0 -90z"/>
<path d="M480 11880 l0 -30 1515 0 1515 0 0 30 0 30 -1515 0 -1515 0 0 -30z"/>
<path d="M2885 11392 c-46 -22 -89 -68 -110 -119 -25 -58 -19 -87 26 -139 30
-35 39 -52 34 -68 -16 -53 -27 -202 -23 -316 5 -138 20 -188 78 -258 16 -20
30 -39 30 -43 0 -4 -22 -9 -50 -13 -27 -4 -52 -11 -55 -16 -4 -6 12 -7 40 -3
l46 6 -7 -44 c-5 -36 -22 -85 -41 -120 -2 -4 4 -6 14 -5 14 1 19 -8 21 -36 2
-20 -2 -46 -8 -58 -13 -24 -2 -27 15 -3 12 16 16 14 51 -16 44 -39 121 -76
178 -87 l39 -7 -7 -331 c-6 -304 -41 -1074 -49 -1082 -1 -2 -47 -6 -101 -10
l-98 -7 17 34 c10 19 42 69 72 112 30 43 52 81 50 84 -16 16 -126 -94 -155
-154 -9 -18 -18 -33 -21 -33 -3 0 -19 18 -34 40 -34 47 -92 80 -142 80 -45 0
-38 -13 23 -44 44 -22 122 -91 122 -107 0 -13 -47 -19 -172 -19 -76 0 -129 4
-133 10 -4 6 1 33 10 61 10 28 15 53 11 56 -13 13 -39 -10 -57 -53 -22 -49
-18 -70 6 -38 15 18 15 18 13 -6 -2 -20 -10 -26 -38 -30 l-35 -6 40 -7 c66
-11 217 -8 450 11 257 20 481 19 725 -2 356 -31 595 -40 745 -28 77 6 235 15
350 19 116 4 195 9 178 11 -21 2 -33 9 -33 18 0 28 70 122 152 205 43 45 77
83 75 86 -3 2 -22 -4 -44 -15 -21 -11 -49 -23 -63 -27 -14 -4 -37 -19 -52 -33
-72 -67 -33 45 40 116 30 29 52 55 49 58 -9 10 -113 -37 -150 -67 -21 -17 -47
-49 -58 -71 l-21 -40 -64 66 c-35 36 -71 66 -79 66 -19 0 -20 9 16 -85 45
-117 55 -153 64 -219 l7 -59 -153 5 c-109 4 -165 1 -195 -8 -29 -8 -46 -9 -50
-3 -3 6 -10 94 -15 197 -5 103 -17 304 -26 447 -9 143 -17 382 -17 530 -1 259
1 277 31 456 37 213 73 387 98 474 14 46 28 70 65 105 31 30 52 61 59 86 14
49 14 155 1 225 -14 74 -68 185 -104 215 -28 24 -35 26 -132 22 -118 -4 -139
-14 -189 -91 -16 -25 -37 -46 -46 -46 -9 -1 -87 26 -174 60 -87 33 -187 65
-224 71 -85 13 -453 4 -502 -12 -34 -12 -39 -10 -93 26 -49 32 -68 39 -120 41
-44 3 -72 -2 -101 -15z m168 -38 c18 -9 48 -30 68 -45 44 -35 48 -35 102 -6
40 21 53 22 252 21 210 0 210 0 309 -33 54 -18 142 -50 194 -72 53 -21 111
-39 129 -39 29 0 35 5 58 50 32 63 67 85 158 98 95 15 112 6 159 -84 108 -205
85 -393 -51 -420 -39 -8 -45 -18 -29 -43 13 -22 11 -38 -42 -261 -11 -47 -34
-179 -52 -295 -30 -197 -32 -227 -32 -485 0 -165 4 -305 11 -350 10 -64 25
-364 35 -703 3 -81 1 -88 -17 -93 -44 -10 -195 -8 -291 3 -55 7 -177 15 -270
18 -103 4 -194 12 -233 22 -51 13 -94 15 -212 10 -91 -4 -149 -3 -149 3 0 70
31 706 36 735 4 22 10 179 13 348 l6 309 62 20 62 20 68 -28 c64 -26 79 -28
233 -32 91 -2 176 1 190 6 21 8 28 6 42 -17 l18 -26 0 27 c0 21 9 34 40 53 22
14 47 36 56 51 l17 25 49 -48 c57 -56 62 -50 13 14 -25 33 -35 56 -35 83 0 53
-19 100 -40 100 -15 0 -16 -7 -12 -49 5 -59 -23 -118 -71 -146 -31 -18 -31
-18 -46 6 -28 43 -79 94 -87 87 -4 -4 12 -28 36 -54 39 -42 41 -47 26 -62 -39
-39 -362 -19 -441 26 -23 14 -30 25 -30 48 0 29 0 29 74 36 115 12 183 52 215
129 13 32 13 39 -4 76 -36 80 -115 117 -255 117 -116 1 -174 -25 -222 -98 -64
-95 -38 -158 81 -195 67 -20 81 -42 53 -85 -39 -59 -143 -56 -267 6 -66 34
-83 60 -42 66 35 5 26 20 -15 24 -37 3 -38 4 -38 43 0 38 2 40 35 45 l35 6
-33 7 c-38 8 -49 29 -33 64 8 17 17 23 27 19 9 -3 28 -9 42 -12 l27 -6 -31 28
c-55 51 -125 150 -140 200 -9 31 -14 94 -14 184 0 149 13 245 37 272 15 16 12
21 -36 65 -40 37 -51 53 -51 77 0 42 38 106 79 133 42 28 126 31 174 7z m467
-964 c46 -23 53 -33 45 -60 -8 -25 -24 -26 -32 -2 -3 9 -20 32 -36 50 -36 37
-31 40 23 12z m1436 -1457 c-14 -21 -32 -65 -41 -98 -22 -75 -46 -119 -57
-102 -4 6 -8 39 -8 71 0 58 1 60 53 113 63 62 88 70 53 16z m-193 -48 c39 -44
60 -100 64 -170 4 -51 1 -75 -10 -89 -22 -29 -34 -12 -39 56 -3 37 -18 96 -37
141 -36 92 -40 117 -14 96 10 -8 26 -23 36 -34z m231 -88 c-32 -34 -73 -90
-90 -122 -33 -64 -72 -90 -60 -40 15 60 107 176 171 216 48 30 41 13 -21 -54z
m-2062 -96 c-20 -38 -38 -68 -40 -66 -9 9 60 135 73 135 2 0 -13 -31 -33 -69z
m-146 28 c3 -6 -5 -3 -20 6 -14 10 -26 19 -26 22 0 7 39 -17 46 -28z"/>
<path d="M2890 11280 c-33 -35 -37 -56 -16 -82 22 -30 39 -22 32 13 -8 43 6
57 65 65 63 8 59 28 -5 32 -42 3 -50 0 -76 -28z"/>
<path d="M4267 11220 c-31 -25 -57 -69 -57 -100 0 -32 17 -23 42 23 21 39 27
42 68 45 60 4 111 -29 124 -79 13 -51 1 -83 -44 -125 -41 -38 -44 -60 -7 -48
56 17 105 104 93 166 -14 77 -62 120 -146 133 -38 5 -50 3 -73 -15z"/>
<path d="M3825 10935 c-22 -8 -55 -30 -72 -49 -30 -32 -33 -42 -33 -95 0 -175
45 -223 225 -238 56 -4 78 -2 103 11 77 40 94 138 42 243 -41 82 -68 109 -131
127 -64 19 -82 19 -134 1z m230 -150 c42 -41 27 -75 -35 -75 -60 0 -78 35 -38
77 27 29 43 29 73 -2z"/>
<path d="M3040 10909 c-13 -6 -33 -18 -43 -27 -29 -26 -67 -108 -67 -144 0
-32 31 -95 54 -110 18 -12 89 -9 116 5 55 28 64 118 14 137 l-24 10 27 50 28
51 -24 19 c-26 22 -43 24 -81 9z"/>
<path d="M3833 10370 c-13 -5 -23 -11 -23 -13 0 -2 37 -4 83 -3 91 0 114 -8
205 -76 30 -22 56 -38 59 -35 7 8 -95 86 -149 113 -50 25 -131 32 -175 14z"/>
<path d="M3820 10275 c0 -6 68 -37 120 -56 24 -9 24 -9 5 7 -36 29 -125 63
-125 49z"/>
<path d="M4877 8863 c-4 -3 -7 -18 -6 -32 1 -26 1 -25 10 3 9 31 7 41 -4 29z"/>
<path d="M4797 8758 c8 -70 13 -74 13 -10 0 28 -4 53 -10 57 -5 3 -7 -15 -3
-47z"/>
<path d="M286 8987 c-14 -14 -26 -32 -26 -40 0 -29 40 -65 85 -76 46 -12 57
-29 30 -51 -16 -13 -65 -6 -65 10 0 6 -11 10 -25 10 -33 0 -33 -25 0 -46 40
-26 105 -21 133 11 12 14 22 32 22 39 0 26 -35 56 -80 69 -34 10 -45 18 -45
32 0 26 62 35 71 11 7 -19 44 -21 44 -3 0 29 -27 49 -72 54 -40 5 -50 2 -72
-20z"/>
<path d="M1553 8955 c-24 -25 -39 -45 -33 -45 5 0 10 -7 10 -15 0 -8 -4 -15
-10 -15 -5 0 -10 -4 -10 -10 0 -5 6 -10 14 -10 8 0 17 -9 21 -19 8 -27 46 -49
91 -53 28 -2 39 1 41 13 3 11 -9 18 -38 25 -58 12 -64 34 -10 34 23 0 41 5 41
10 0 6 -20 10 -45 10 -33 0 -45 4 -45 15 0 11 13 15 48 17 l47 1 -42 4 c-24 2
-43 7 -43 12 0 17 26 31 57 31 26 0 33 4 33 20 0 17 -7 20 -41 20 -36 0 -47
-6 -86 -45z"/>
<path d="M470 8877 c0 -43 5 -78 12 -85 15 -15 53 -16 79 -2 13 7 19 7 19 0 0
-5 9 -10 20 -10 18 0 20 7 20 85 0 78 -2 85 -20 85 -18 0 -20 -7 -20 -54 0
-64 -19 -92 -51 -76 -15 9 -19 22 -19 70 0 53 -2 60 -20 60 -18 0 -20 -7 -20
-73z"/>
<path d="M660 8865 c0 -84 0 -85 25 -85 24 0 25 3 25 59 0 40 5 63 15 71 27
23 45 -5 45 -71 0 -52 2 -59 20 -59 18 0 20 7 20 59 0 61 16 89 45 77 11 -4
15 -22 15 -71 0 -63 1 -65 25 -65 24 0 25 2 25 63 0 74 -18 107 -59 107 -15 0
-32 -5 -39 -12 -9 -9 -15 -9 -24 0 -7 7 -24 12 -38 12 -14 0 -31 -5 -38 -12
-9 -9 -12 -9 -12 0 0 7 -11 12 -25 12 -25 0 -25 -1 -25 -85z"/>
<path d="M960 8865 c0 -78 2 -85 20 -85 17 0 20 7 20 53 0 59 18 94 44 84 12
-5 16 -20 16 -72 0 -63 1 -65 25 -65 24 0 25 2 25 64 0 50 4 65 16 70 30 11
44 -13 44 -75 0 -52 2 -59 20 -59 18 0 20 7 20 73 0 82 -9 97 -55 97 -17 0
-36 -5 -43 -12 -9 -9 -15 -9 -24 0 -7 7 -24 12 -38 12 -14 0 -31 -5 -38 -12
-9 -9 -12 -9 -12 0 0 7 -9 12 -20 12 -18 0 -20 -7 -20 -85z"/>
<path d="M1268 8939 c-17 -10 -25 -39 -11 -39 4 0 22 5 40 12 28 10 36 10 43
-2 12 -20 3 -30 -29 -30 -16 0 -39 -8 -51 -18 -49 -40 6 -101 66 -73 15 6 24
7 24 1 0 -6 9 -10 20 -10 18 0 20 7 20 69 0 50 -4 74 -16 85 -17 18 -80 21
-106 5z m72 -109 c-12 -23 -45 -27 -53 -6 -8 19 1 26 35 26 26 0 28 -2 18 -20z"/>
<path d="M240 8140 l0 -400 3510 0 3510 0 0 400 0 400 -3510 0 -3510 0 0 -400z
m7000 0 l0 -380 -3490 0 -3490 0 0 380 0 380 3490 0 3490 0 0 -380z"/>
<path d="M3016 7475 c-15 -36 -20 -342 -6 -434 11 -77 16 -90 48 -123 41 -43
70 -48 112 -18 46 33 61 80 71 219 19 290 22 340 15 358 -13 33 -25 -7 -40
-138 -17 -146 -21 -159 -50 -159 -12 0 -27 -5 -34 -12 -9 -9 -18 -9 -34 -1
-13 6 -31 14 -40 17 -16 5 -18 20 -19 118 0 133 -10 204 -23 173z m79 -342
c13 -17 14 -17 32 0 26 23 35 22 66 -11 39 -41 32 -125 -15 -183 l-19 -24 6
62 c3 34 2 64 -4 67 -13 8 -21 -18 -21 -72 0 -53 -12 -78 -30 -67 -8 5 -10 27
-5 77 5 51 4 69 -4 64 -6 -4 -11 -20 -11 -35 0 -15 -6 -36 -14 -47 -14 -18
-15 -18 -26 11 -19 48 -25 142 -10 160 17 20 40 19 55 -2z"/>
<path d="M3976 7474 c-9 -23 -7 -189 4 -336 7 -93 15 -141 31 -178 20 -47 24
-50 49 -45 18 4 31 1 40 -10 8 -9 29 -15 55 -15 36 0 44 4 49 23 3 12 14 142
23 289 14 210 15 270 5 280 -24 24 -34 -10 -44 -139 -8 -121 -22 -203 -34
-203 -3 0 -12 7 -21 16 -10 10 -25 13 -42 9 -16 -3 -34 0 -46 9 -18 13 -20 28
-23 143 -1 70 -5 138 -7 151 -6 25 -30 30 -39 6z m210 -358 c12 -12 3 -174
-11 -196 -14 -23 -35 21 -35 74 0 37 -3 47 -10 36 -5 -8 -10 -34 -10 -57 0
-24 -4 -43 -10 -43 -14 0 -30 35 -30 64 0 40 -18 40 -26 -1 l-7 -38 -20 44
c-23 52 -26 103 -8 125 11 13 27 15 85 10 39 -4 76 -12 82 -18z"/>
<path d="M1500 7345 c-10 -11 -10 -19 -2 -27 15 -15 44 -2 40 19 -4 23 -22 27
-38 8z"/>
<path d="M270 7225 c0 -108 1 -115 20 -115 15 0 20 7 20 28 0 16 6 37 14 47
13 18 16 16 47 -28 26 -37 39 -47 61 -47 l27 0 -44 64 -44 63 34 41 c39 45 44
62 17 62 -10 0 -36 -22 -58 -50 -21 -27 -42 -49 -46 -50 -5 0 -8 23 -8 50 0
43 -3 50 -20 50 -19 0 -20 -7 -20 -115z"/>
<path d="M670 7300 c0 -11 -7 -20 -15 -20 -8 0 -15 -7 -15 -15 0 -8 7 -15 15
-15 12 0 15 -13 15 -60 0 -63 13 -80 59 -80 24 0 29 28 6 36 -11 4 -15 21 -15
55 0 37 4 49 15 49 8 0 15 7 15 15 0 8 -7 15 -15 15 -8 0 -15 9 -15 20 0 15
-7 20 -25 20 -18 0 -25 -5 -25 -20z"/>
<path d="M821 7274 c-50 -21 -60 -118 -14 -151 37 -28 123 -6 123 30 0 11 -29
8 -50 -5 -23 -15 -53 -2 -58 26 -3 13 6 16 58 16 l62 0 -7 28 c-14 57 -59 79
-114 56z m67 -46 c3 -15 -4 -18 -32 -18 -38 0 -44 8 -24 28 17 17 52 11 56
-10z"/>
<path d="M487 7262 c-10 -10 -17 -22 -17 -25 0 -11 29 -8 49 5 22 14 51 4 51
-17 0 -10 -10 -15 -33 -15 -56 0 -88 -41 -61 -79 17 -23 63 -28 82 -9 9 9 12
9 12 0 0 -7 11 -12 25 -12 24 0 25 2 25 63 0 83 -16 107 -74 107 -29 0 -48 -6
-59 -18z m71 -113 c-19 -13 -42 -6 -46 13 -2 12 5 17 25 20 31 3 45 -18 21
-33z"/>
<path d="M976 7258 c-26 -37 -16 -108 18 -130 17 -12 61 -9 74 4 9 9 12 6 12
-14 0 -33 -23 -42 -66 -26 -42 15 -56 2 -25 -23 33 -27 86 -25 116 6 23 22 25
32 25 115 0 89 0 90 -25 90 -14 0 -25 -5 -25 -12 0 -9 -3 -9 -12 0 -21 21 -75
15 -92 -10z m92 -20 c34 -34 -7 -108 -44 -77 -27 22 -12 89 21 89 6 0 16 -5
23 -12z"/>
<path d="M1181 7254 c-46 -59 -11 -144 59 -144 51 0 80 25 87 75 7 59 -23 95
-82 95 -35 0 -48 -5 -64 -26z m87 -16 c20 -20 15 -76 -9 -88 -28 -16 -49 3
-49 44 0 32 15 56 35 56 6 0 16 -5 23 -12z"/>
<path d="M1360 7195 c0 -78 2 -85 20 -85 17 0 20 7 20 50 0 52 23 90 55 90 8
0 15 7 15 15 0 18 -41 20 -58 3 -9 -9 -12 -9 -12 0 0 7 -9 12 -20 12 -18 0
-20 -7 -20 -85z"/>
<path d="M1490 7195 c0 -84 0 -85 25 -85 25 0 25 1 25 85 0 84 0 85 -25 85
-25 0 -25 -1 -25 -85z"/>
<path d="M1598 7269 c-17 -10 -25 -39 -11 -39 4 0 22 5 40 12 28 10 36 10 43
-2 12 -20 3 -30 -29 -30 -16 0 -39 -8 -51 -18 -49 -40 6 -101 66 -73 15 6 24
7 24 1 0 -6 9 -10 20 -10 18 0 20 7 20 69 0 50 -4 74 -16 85 -17 18 -80 21
-106 5z m72 -109 c-12 -23 -45 -27 -53 -6 -8 19 1 26 35 26 26 0 28 -2 18 -20z"/>
<path d="M240 6470 l0 -400 3510 0 3510 0 0 400 0 400 -3510 0 -3510 0 0 -400z
m7000 0 l0 -380 -3490 0 -3490 0 0 380 0 380 3490 0 3490 0 0 -380z"/>
<path d="M265 5725 l-25 -24 0 -401 0 -401 25 -24 24 -25 3461 0 3461 0 24 25
25 24 0 401 0 401 -25 24 -24 25 -3461 0 -3461 0 -24 -25z m3243 -427 l3 -118
-26 0 -25 0 0 121 c0 119 0 120 23 117 21 -3 22 -7 25 -120z m92 2 l0 -120
-25 0 -25 0 0 113 c0 63 3 117 7 120 3 4 15 7 25 7 16 0 18 -10 18 -120z
m-332 88 c3 -15 -4 -18 -32 -18 l-36 0 0 -95 c0 -95 0 -95 -25 -95 -25 0 -25
0 -25 95 l0 95 -35 0 c-22 0 -35 5 -35 13 0 25 13 28 99 25 72 -3 86 -6 89
-20z m137 -61 c9 -14 15 -45 15 -84 0 -61 -1 -63 -25 -63 -14 0 -25 5 -25 12
0 9 -3 9 -12 0 -20 -20 -65 -14 -82 10 -20 29 -20 34 4 58 12 12 33 20 55 20
25 0 35 4 35 15 0 21 -29 31 -51 17 -40 -25 -65 -9 -31 20 34 31 94 28 117 -5z
m373 -4 c13 -14 22 -35 20 -47 -3 -18 -11 -21 -61 -24 -59 -3 -69 -14 -34 -36
12 -8 22 -7 37 2 23 14 50 16 50 3 0 -21 -33 -41 -66 -41 -50 0 -72 15 -83 57
-9 30 -7 44 7 72 27 56 86 62 130 14z m200 14 c7 -6 12 -36 12 -83 0 -67 -2
-74 -20 -74 -18 0 -20 7 -20 58 0 74 -21 100 -54 66 -11 -10 -16 -34 -16 -70
0 -47 -2 -54 -20 -54 -18 0 -20 7 -20 85 0 78 2 85 20 85 11 0 20 -4 20 -9 0
-6 12 -4 26 4 26 13 47 11 72 -8z m200 -5 c7 -9 12 -45 12 -84 0 -66 -1 -68
-25 -68 -24 0 -25 2 -25 65 0 49 -4 67 -15 71 -29 12 -45 -16 -45 -77 0 -56
-1 -59 -25 -59 -25 0 -25 1 -25 85 0 84 0 85 25 85 14 0 25 -5 25 -11 0 -5 10
-3 22 5 25 18 56 13 76 -12z m187 -5 c9 -14 15 -45 15 -84 0 -61 -1 -63 -25
-63 -14 0 -25 5 -25 12 0 9 -3 9 -12 0 -20 -20 -65 -14 -82 10 -20 29 -20 34
4 58 12 12 33 20 55 20 25 0 35 4 35 15 0 21 -29 31 -51 17 -40 -25 -65 -9
-31 20 34 31 94 28 117 -5z"/>
<path d="M3314 5239 c-3 -6 -1 -16 5 -22 13 -13 42 0 49 21 5 15 -44 16 -54 1z"/>
<path d="M3692 5307 c-15 -18 -5 -27 30 -27 23 0 29 4 26 18 -4 21 -41 28 -56
9z"/>
<path d="M4274 5239 c-3 -6 -1 -16 5 -22 13 -13 42 0 49 21 5 15 -44 16 -54 1z"/>
<path d="M3158 4535 c-5 -55 -8 -471 -9 -925 -1 -946 -5 -1095 -39 -1190 -32
-92 -24 -161 35 -320 45 -118 48 -132 53 -249 6 -143 15 -161 81 -161 71 0 71
1 71 115 0 87 3 106 20 128 26 32 40 35 240 46 139 8 180 14 264 40 100 32
123 32 178 4 46 -22 60 -66 83 -258 9 -73 14 -85 42 -96 39 -14 44 -2 12 30
-25 25 -29 37 -29 83 0 30 6 63 14 73 12 17 17 17 45 5 28 -11 33 -11 46 6 15
19 15 19 30 0 8 -11 15 -33 15 -48 0 -16 7 -45 15 -65 8 -20 13 -38 10 -41 -2
-3 -20 9 -40 27 -20 17 -38 31 -41 31 -9 0 14 -35 35 -54 46 -42 1 -51 -48
-10 -35 29 -43 16 -9 -16 25 -23 77 -27 111 -8 12 7 24 14 26 15 2 1 -6 26
-17 55 -41 107 -36 165 30 338 47 123 61 231 47 355 -8 66 -18 99 -64 190
l-55 110 -10 185 c-6 102 -13 524 -17 938 -3 414 -10 747 -14 740 -10 -15 -10
-1408 -1 -1704 l7 -200 37 -44 c62 -72 81 -134 86 -290 l4 -135 -42 -110 c-24
-60 -49 -135 -56 -165 -13 -52 -33 -80 -60 -80 -7 0 -16 5 -19 10 -10 16 -43
12 -54 -7 -14 -25 -21 -13 -30 49 -10 70 -24 94 -71 118 -52 27 -115 25 -225
-4 -116 -32 -223 -46 -344 -46 -86 0 -102 -3 -132 -23 -19 -12 -40 -35 -47
-51 -8 -15 -20 -30 -27 -32 -22 -9 -54 15 -61 44 -4 15 -32 94 -62 177 -30 84
-54 167 -54 190 -1 22 13 81 31 130 l32 90 -2 900 c-1 495 -4 970 -8 1055 l-6
155 -7 -100z m128 -2660 c27 -7 34 -32 33 -110 -1 -61 -2 -62 -14 -11 -5 23
-8 27 -16 15 -5 -7 -9 -26 -9 -41 0 -43 -20 -33 -21 10 0 34 -1 35 -11 15 -19
-39 -28 -25 -28 41 0 77 7 98 29 92 9 -2 26 -7 37 -11z"/>
<path d="M4492 930 c-16 -27 -15 -55 3 -70 38 -32 65 39 27 73 -16 15 -19 15
-30 -3z"/>
<path d="M4571 924 c-24 -31 -27 -69 -6 -78 22 -8 45 21 45 59 0 45 -14 51
-39 19z"/>
<path d="M2896 912 c-3 -5 -21 -52 -40 -105 -26 -71 -32 -97 -22 -97 8 0 19
14 25 30 9 27 14 30 55 30 41 0 45 -2 51 -30 4 -17 13 -30 22 -30 8 0 13 6 10
13 -2 6 -20 54 -38 104 -31 84 -49 108 -63 85z m43 -109 c1 -8 -11 -13 -29
-13 -34 0 -36 7 -14 58 l16 37 13 -35 c8 -19 14 -41 14 -47z"/>
<path d="M4412 870 c-13 -33 3 -62 30 -58 31 4 32 22 4 54 l-25 29 -9 -25z"/>
<path d="M3036 858 c-21 -30 -2 -58 50 -73 28 -8 39 -16 39 -30 0 -26 -50 -33
-74 -11 -23 21 -36 8 -14 -16 19 -21 82 -25 101 -6 7 7 12 24 12 39 0 24 -6
29 -51 44 -36 12 -49 21 -47 33 4 19 68 31 68 13 0 -6 7 -11 15 -11 8 0 15 4
15 8 0 37 -90 45 -114 10z"/>
<path d="M3190 795 l0 -85 55 0 c30 0 55 5 55 10 0 6 -20 10 -45 10 -43 0 -45
1 -45 30 0 29 2 30 46 30 27 0 43 4 39 10 -3 6 -24 10 -46 10 -35 0 -39 3 -39
25 0 23 4 25 45 25 25 0 45 5 45 10 0 6 -25 10 -55 10 l-55 0 0 -85z"/>
<path d="M3330 870 c0 -5 11 -10 25 -10 24 0 25 -2 25 -75 0 -60 3 -75 15 -75
12 0 15 15 15 75 l0 75 30 0 c17 0 30 5 30 10 0 6 -30 10 -70 10 -40 0 -70 -4
-70 -10z"/>
<path d="M3500 812 c0 -80 15 -102 72 -102 52 0 68 24 68 103 0 38 -4 67 -10
67 -5 0 -10 -25 -10 -56 0 -71 -12 -94 -50 -94 -38 0 -50 23 -50 94 0 31 -4
56 -10 56 -6 0 -10 -29 -10 -68z"/>
<path d="M3680 795 c0 -69 3 -85 15 -85 10 0 15 10 15 34 0 50 14 52 51 6 37
-46 75 -58 39 -12 -57 75 -56 69 -20 107 24 25 29 35 18 35 -9 0 -33 -19 -52
-42 l-36 -42 0 42 c0 31 -4 42 -15 42 -12 0 -15 -16 -15 -85z"/>
<path d="M3850 866 c-24 -29 -8 -59 40 -76 33 -11 45 -21 45 -35 0 -27 -50
-33 -76 -9 -15 14 -19 14 -19 3 0 -40 82 -55 113 -21 33 36 18 63 -43 79 -25
7 -36 16 -38 31 -3 18 1 22 25 22 16 0 34 -5 41 -12 17 -17 28 -2 12 17 -16
19 -84 20 -100 1z"/>
<path d="M4000 795 l0 -85 60 0 c33 0 60 4 60 10 0 6 -20 10 -45 10 -43 0 -45
1 -45 30 0 28 2 30 40 30 22 0 40 5 40 10 0 6 -18 10 -40 10 -36 0 -40 3 -40
25 0 23 4 25 45 25 25 0 45 5 45 10 0 6 -27 10 -60 10 l-60 0 0 -85z"/>
<path d="M4140 870 c0 -5 11 -10 25 -10 24 0 25 -2 25 -75 0 -60 3 -75 15 -75
12 0 15 15 15 75 l0 75 30 0 c17 0 30 5 30 10 0 6 -30 10 -70 10 -40 0 -70 -4
-70 -10z"/>
<path d="M4626 864 c-10 -26 -7 -52 8 -57 29 -11 48 37 24 61 -16 16 -25 15
-32 -4z"/>
<path d="M4479 771 c-37 -37 -37 -53 3 -86 36 -31 69 -28 107 9 20 21 21 27
11 47 -16 31 -50 58 -73 59 -10 0 -32 -13 -48 -29z"/>
</g>
</svg>
