<?xml version="1.0" standalone="no"?>
<!DOCTYPE svg PUBLIC "-//W3C//DTD SVG 20010904//EN"
 "http://www.w3.org/TR/2001/REC-SVG-20010904/DTD/svg10.dtd">
<svg version="1.0" xmlns="http://www.w3.org/2000/svg"
 width="267.000000pt" height="185.000000pt" viewBox="0 0 267.000000 185.000000"
 preserveAspectRatio="xMidYMid meet">

<g transform="translate(0.000000,185.000000) scale(0.100000,-0.100000)"
fill="#000000" stroke="none">
<path d="M1369 1732 c-21 -15 -47 -17 -215 -14 -225 4 -255 -2 -325 -64 -66
-59 -119 -81 -119 -50 0 25 -14 25 -76 -2 -132 -59 -274 -143 -289 -173 -17
-32 -55 -58 -55 -38 0 7 34 46 75 88 41 41 75 76 75 78 0 9 -25 0 -59 -22 -20
-14 -57 -35 -82 -48 -53 -27 -87 -75 -123 -177 -15 -41 -39 -96 -53 -121 l-25
-47 26 -38 c14 -21 26 -43 26 -49 0 -5 13 -17 29 -26 34 -20 88 -115 102 -182
11 -50 31 -70 82 -83 16 -3 31 -13 34 -20 5 -13 -10 -118 -24 -166 -5 -21 26
-25 44 -7 6 6 31 11 54 11 24 -1 47 4 50 10 11 18 29 -1 29 -31 0 -45 88 -111
150 -111 24 0 25 -4 4 -40 -10 -15 -14 -34 -11 -43 8 -21 186 -114 251 -131
30 -8 86 -18 124 -22 59 -5 71 -4 79 10 8 14 13 13 43 -9 19 -14 40 -25 47
-25 20 0 27 28 13 45 -20 24 10 28 158 21 155 -7 185 0 190 48 6 50 -2 57 -42
41 -47 -20 -89 -19 -252 5 -76 11 -144 18 -153 15 -31 -10 -134 14 -158 37
-13 12 -20 25 -15 30 4 4 70 0 147 -8 183 -21 278 -16 343 18 43 22 52 24 64
12 8 -8 47 -20 88 -27 42 -7 75 -18 78 -25 3 -9 -3 -11 -23 -6 -21 5 -26 3
-23 -9 2 -9 -6 -22 -17 -30 -16 -13 -17 -17 -6 -31 28 -33 85 -39 169 -15 42
11 85 28 96 38 14 12 38 16 105 15 47 0 101 -2 119 -4 51 -5 68 18 75 106 8
93 4 100 -116 205 -61 52 -118 92 -181 122 -171 85 -259 112 -658 209 -47 11
-50 28 -5 28 44 0 188 26 266 47 60 17 65 21 73 52 9 33 10 33 55 28 34 -4 51
-12 68 -33 13 -16 27 -24 33 -20 14 8 159 -11 182 -24 13 -7 13 -10 -2 -15
-31 -12 -19 -22 35 -29 68 -9 137 -40 137 -61 0 -10 11 -26 25 -37 14 -11 25
-26 25 -34 0 -9 11 -14 34 -14 49 0 52 -14 9 -47 -63 -51 -29 -74 134 -93 45
-5 82 -14 91 -24 17 -16 12 -20 -33 -28 -17 -3 -15 -6 12 -21 18 -9 42 -17 54
-17 12 0 31 -8 42 -17 20 -18 20 -17 14 25 -6 47 -2 50 26 25 19 -18 20 -17 7
7 -7 14 -30 48 -51 76 -51 67 -54 102 -4 54 41 -40 43 -34 12 46 -13 32 -31
88 -41 124 -29 105 -63 176 -136 285 -45 67 -90 120 -132 155 -74 62 -155 116
-183 121 -11 3 -21 11 -21 19 -1 8 -2 21 -3 27 0 7 -12 19 -24 28 -21 14 -27
14 -55 -1 -18 -8 -32 -20 -32 -25 0 -5 -24 8 -53 31 -63 47 -98 54 -47 9 l35
-31 -45 6 c-25 3 -65 14 -90 25 l-44 19 37 7 c40 8 48 20 20 29 -10 3 -65 12
-123 21 -58 8 -114 17 -126 20 -11 2 -31 -3 -45 -13z m148 -38 c-3 -3 -12 -4
-19 -1 -8 3 -5 6 6 6 11 1 17 -2 13 -5z m-1002 -214 c-16 -16 -31 -28 -33 -25
-7 7 39 55 52 55 5 0 -3 -13 -19 -30z m-278 -112 c-3 -8 -6 -5 -6 6 -1 11 2
17 5 13 3 -3 4 -12 1 -19z m1205 -447 c140 -36 272 -103 356 -180 35 -33 42
-54 15 -44 -10 3 -56 31 -103 62 -65 42 -121 68 -234 107 -194 66 -215 101
-34 55z m-68 -147 c9 -3 16 -12 16 -20 0 -17 -16 -19 -26 -3 -4 8 -9 7 -15 -2
-11 -18 -21 -6 -13 15 7 17 14 19 38 10z m1074 -26 c16 -16 15 -28 -3 -28 -8
0 -15 2 -15 4 0 2 -3 11 -6 20 -7 19 7 21 24 4z m-1800 -205 c2 -9 -7 -13 -27
-13 -30 0 -39 9 -24 24 11 10 46 3 51 -11z"/>
<path d="M199 1470 c-13 -10 -19 -19 -12 -20 11 0 43 26 43 36 0 8 -8 4 -31
-16z"/>
<path d="M111 1279 c-20 -45 -19 -59 4 -59 14 0 33 85 21 97 -3 3 -14 -14 -25
-38z"/>
</g>
</svg>
