<?xml version="1.0" standalone="no"?>
<!DOCTYPE svg PUBLIC "-//W3C//DTD SVG 20010904//EN"
 "http://www.w3.org/TR/2001/REC-SVG-20010904/DTD/svg10.dtd">
<svg version="1.0" xmlns="http://www.w3.org/2000/svg"
 width="479.000000pt" height="729.000000pt" viewBox="0 0 579.000000 729.000000"
 preserveAspectRatio="xMidYMid meet">

<g transform="translate(0.000000,729.000000) scale(0.100000,-0.100000)"
fill="#d6d6d6" stroke="none">
<path d="M2423 6758 c-32 -34 -29 -73 8 -115 l30 -35 -6 -347 c-8 -391 -2
-357 -105 -626 -31 -82 -128 -364 -215 -625 -87 -261 -193 -578 -236 -705 -43
-126 -192 -572 -330 -990 -138 -418 -379 -1145 -535 -1615 -157 -470 -288
-866 -290 -880 -6 -28 20 -57 90 -104 29 -19 52 -26 90 -26 28 0 69 -5 91 -10
50 -12 88 11 93 56 2 16 14 63 27 104 12 41 40 138 60 215 21 77 39 141 39
142 5 7 249 -75 419 -140 202 -78 322 -117 507 -166 l105 -27 -3 -145 c-1 -79
-5 -204 -8 -276 l-6 -133 117 -55 c67 -31 131 -55 149 -55 47 1 165 45 199 74
24 21 28 31 23 54 -4 15 -9 133 -12 263 l-6 235 69 13 c37 6 95 20 128 31 34
10 88 21 120 25 79 9 209 33 265 50 25 7 99 25 165 40 66 14 163 37 215 50 52
13 98 21 102 17 3 -4 16 -43 27 -87 12 -44 29 -107 40 -140 l19 -60 104 -3
104 -3 62 40 c34 23 62 43 62 45 0 3 -45 135 -101 293 -147 420 -242 699 -707
2078 -143 424 -277 817 -298 875 -20 58 -57 166 -82 240 -24 74 -136 409 -248
745 -112 335 -204 622 -204 638 0 15 -12 54 -27 85 l-28 57 -3 379 -3 379 26
27 c30 31 37 92 13 116 -8 9 -33 18 -54 21 -32 4 -43 1 -61 -19z m67 -17 c0
-5 -7 -14 -15 -21 -18 -15 -42 1 -31 19 8 13 46 15 46 2z m-40 -51 c0 -5 -4
-10 -10 -10 -5 0 -10 5 -10 10 0 6 5 10 10 10 6 0 10 -4 10 -10z m-99 -1233
c-16 -51 -62 -193 -101 -317 -137 -430 -281 -876 -321 -990 -59 -165 -85 -247
-101 -315 -9 -33 -22 -80 -31 -105 -9 -25 -32 -97 -51 -160 -89 -292 -161
-509 -182 -550 -12 -25 -28 -74 -34 -110 -12 -66 -20 -93 -89 -310 -22 -69
-74 -237 -116 -375 -42 -137 -92 -291 -111 -341 -19 -51 -34 -100 -34 -110 0
-24 -54 -197 -97 -309 -19 -49 -43 -128 -54 -175 -31 -131 -110 -384 -123
-392 -6 -4 -8 -8 -4 -8 4 0 -1 -23 -12 -50 -11 -28 -20 -60 -20 -70 0 -25 -3
-25 -45 3 -19 12 -35 30 -35 40 0 20 39 142 282 882 519 1586 765 2328 1123
3390 96 286 176 522 177 525 0 3 3 -10 5 -28 3 -20 -8 -70 -26 -125z m227 78
c11 -33 106 -314 211 -625 104 -311 262 -781 351 -1045 89 -264 256 -759 370
-1100 289 -858 380 -1126 519 -1527 67 -191 121 -351 121 -356 0 -4 -14 -18
-30 -30 l-30 -23 -10 26 c-6 15 -10 34 -10 43 0 10 -8 33 -19 52 -10 19 -93
260 -184 535 -92 275 -178 534 -192 575 -14 41 -36 123 -50 181 -13 59 -36
133 -49 165 -36 84 -95 247 -118 323 -11 36 -28 86 -38 111 -9 25 -25 70 -34
100 -22 71 -173 542 -193 600 -8 25 -25 84 -39 132 -13 48 -30 101 -38 116 -8
16 -35 95 -60 176 -26 81 -66 204 -90 274 -24 70 -60 174 -79 232 -38 110
-128 389 -193 595 -20 66 -59 185 -84 265 -40 122 -75 287 -57 270 3 -3 14
-32 25 -65z m-48 -77 c0 -40 4 -85 9 -102 6 -17 22 -69 36 -116 14 -47 30 -93
36 -102 5 -10 9 -26 9 -36 0 -10 11 -41 25 -67 13 -27 22 -51 19 -55 -3 -3
-36 -5 -74 -5 l-68 0 -6 45 c-9 63 -19 488 -12 506 13 34 26 -1 26 -68z m-71
-634 c-1 -385 -3 -764 -5 -844 -4 -212 -9 -1069 -7 -1330 1 -124 1 -322 1
-440 -1 -187 5 -923 13 -1702 2 -131 1 -240 -2 -243 -3 -2 -37 11 -76 29 -61
29 -71 38 -76 66 -8 37 10 1128 22 1400 4 102 9 271 11 375 1 105 4 208 5 230
2 22 6 182 10 355 3 173 8 349 10 390 2 41 8 251 14 465 6 215 16 532 22 705
6 173 10 339 10 368 -1 30 2 59 7 65 8 9 21 476 22 770 0 29 8 52 16 44 3 -2
4 -319 3 -703z m-70 391 c-3 -110 -9 -207 -12 -215 -9 -19 -66 -52 -77 -45
-13 8 -6 114 12 175 9 30 22 83 29 118 6 34 16 65 20 68 5 3 9 27 9 53 0 47 8
69 19 54 4 -5 4 -98 0 -208z m-120 -279 l23 -25 39 26 c52 34 64 20 18 -21
l-37 -31 29 -35 c42 -50 36 -57 -15 -16 l-43 36 -51 -45 c-47 -42 -72 -55 -72
-37 0 10 85 94 96 96 11 1 6 17 -12 37 -15 17 -19 39 -6 39 5 0 19 -11 31 -24z
m295 -21 c28 -21 38 -24 59 -16 33 13 47 -4 21 -24 -33 -25 5 -17 43 10 48 32
64 21 21 -15 l-33 -28 40 -36 c46 -40 29 -49 -22 -10 -18 14 -39 24 -46 21 -7
-2 2 -11 20 -20 57 -30 49 -37 -39 -37 l-83 0 25 21 c24 21 24 21 -14 0 -21
-12 -41 -19 -44 -17 -10 11 20 35 64 52 24 9 44 19 44 23 0 3 -25 24 -55 45
-53 38 -67 56 -44 56 6 0 25 -11 43 -25z m-184 -41 c0 -17 -22 -14 -28 4 -2 7
3 12 12 12 9 0 16 -7 16 -16z m208 -16 c9 -9 7 -14 -6 -24 -24 -18 -32 -17
-32 4 0 31 17 41 38 20z m-258 -53 c19 -20 21 -27 10 -40 -18 -22 -66 -20 -73
4 -4 18 19 61 34 61 3 0 16 -11 29 -25z m67 -81 c9 -25 -5 -29 -95 -27 -106 3
-142 10 -142 28 0 20 229 20 237 -1z m373 0 c0 -15 -11 -16 -92 -10 -50 3
-111 6 -135 6 -23 0 -43 5 -43 10 0 6 52 10 135 10 119 0 135 -2 135 -16z
m-584 -47 c18 -12 48 -35 68 -51 36 -28 36 -28 76 -12 48 19 50 19 50 5 0 -5
-13 -15 -30 -20 -16 -6 -30 -14 -30 -18 0 -4 14 -20 30 -36 17 -16 30 -37 30
-48 0 -15 -10 -10 -51 27 -28 25 -54 44 -58 42 -30 -18 -166 -76 -179 -76 -31
0 9 26 91 60 68 28 91 50 53 50 -15 0 -96 77 -96 91 0 14 12 10 46 -14z m406
-30 l85 -39 47 32 c26 18 50 30 53 27 12 -12 -7 -36 -41 -52 l-36 -17 39 -28
c21 -15 52 -35 69 -44 32 -17 43 -36 20 -36 -7 0 -46 18 -87 40 -83 44 -76 44
-178 -20 -25 -16 -50 -27 -55 -24 -11 7 20 44 38 44 7 0 19 7 28 15 8 8 26 19
41 25 30 12 26 25 -11 34 -14 4 -31 11 -37 17 -7 6 -27 19 -44 29 -18 11 -33
25 -33 31 0 6 4 9 8 7 5 -1 47 -20 94 -41z m136 31 c-2 -6 -16 -21 -31 -32
l-27 -20 -50 24 c-28 13 -54 28 -56 32 -3 4 34 8 81 8 63 0 86 -3 83 -12z
m-372 -8 c37 0 28 -14 -20 -31 -38 -13 -47 -14 -70 -2 -14 7 -26 21 -26 30 0
13 8 15 46 9 26 -3 57 -6 70 -6z m399 -88 c-8 -8 -25 10 -19 20 4 6 9 5 15 -3
4 -7 6 -15 4 -17z m-375 -18 c0 -14 -3 -14 -15 -4 -8 7 -15 14 -15 16 0 2 7 4
15 4 8 0 15 -7 15 -16z m335 -46 c36 -18 65 -36 65 -40 0 -9 -190 -5 -191 5
-5 22 -1 29 26 46 17 11 31 20 32 20 2 1 32 -13 68 -31z m-385 -29 c45 -42 51
-50 30 -46 -14 3 -60 9 -103 12 -72 7 -78 9 -75 29 3 19 57 56 83 56 6 0 35
-23 65 -51z m529 -45 c13 -4 13 -7 0 -19 -10 -11 -60 -18 -172 -26 -174 -13
-194 -10 -177 21 8 16 21 20 58 20 26 0 52 4 59 8 13 8 207 5 232 -4z m-581
-15 c40 -5 77 -9 82 -9 4 0 10 -10 13 -21 6 -22 5 -22 -106 -16 -61 2 -122 1
-134 -4 -13 -5 -36 -6 -53 -3 -23 5 -30 12 -30 30 0 45 33 48 228 23z m548
-89 c8 -25 14 -45 14 -46 0 0 -26 -13 -59 -28 l-59 -29 -61 34 c-61 34 -86 68
-64 90 10 10 148 28 192 25 19 -1 27 -10 37 -46z m-458 8 c-4 -12 -148 -66
-179 -67 -30 -1 -62 33 -55 57 7 21 13 22 123 22 85 0 114 -3 111 -12z m-243
-58 c65 -54 72 -57 89 -36 10 12 126 56 148 56 4 0 8 -12 8 -26 0 -21 -8 -29
-50 -47 -30 -13 -50 -27 -49 -36 0 -9 19 -30 42 -46 32 -24 43 -38 45 -63 l3
-33 -53 37 c-29 21 -67 51 -85 67 -35 33 -21 35 -141 -26 -69 -36 -102 -36
-102 -1 0 22 10 30 68 57 l68 31 -37 33 c-28 25 -35 38 -31 58 2 14 7 25 11
25 3 0 33 -22 66 -50z m471 -3 c27 -18 67 -43 89 -56 l40 -22 83 45 c45 25 87
46 92 46 36 0 -29 -58 -94 -85 l-39 -16 29 -15 c16 -9 36 -22 45 -30 8 -8 21
-14 28 -14 6 0 35 -12 63 -26 35 -18 47 -29 40 -36 -8 -8 -21 -5 -44 9 -19 11
-46 23 -61 27 -14 3 -49 19 -76 35 l-49 29 -88 -35 c-49 -19 -97 -41 -108 -49
-26 -18 -36 -18 -36 0 0 21 54 56 107 69 43 11 72 37 41 37 -7 0 -28 10 -47
23 -19 12 -51 32 -70 43 -20 12 -37 29 -39 38 -6 27 42 19 94 -17z m-226 -103
l0 -46 -34 29 c-19 15 -35 31 -35 35 -1 6 43 25 62 27 4 1 7 -20 7 -45z m497
-11 c-3 -2 -15 1 -28 7 l-22 13 24 13 c22 11 24 11 27 -8 2 -11 1 -22 -1 -25z
m-257 17 c0 -5 -4 -10 -10 -10 -5 0 -10 5 -10 10 0 6 5 10 10 10 6 0 10 -4 10
-10z m-399 -46 c7 -9 39 -34 71 -55 65 -45 74 -63 26 -54 -36 6 -206 25 -225
25 -7 0 -13 12 -13 28 0 23 7 30 53 49 65 26 71 27 88 7z m607 -34 c45 -21 82
-42 82 -45 0 -3 -70 -5 -155 -5 -131 0 -155 2 -155 15 0 13 107 72 136 74 5 1
47 -17 92 -39z m-640 -82 c177 -21 182 -22 182 -45 0 -28 -3 -28 -135 -7 -55
9 -138 17 -185 19 -47 2 -93 4 -102 4 -21 1 -24 21 -6 39 16 16 36 16 246 -10z
m817 -2 c17 -12 -12 -14 -210 -18 -255 -4 -285 -2 -285 18 0 21 467 21 495 0z
m-61 -62 c9 -32 8 -33 -75 -71 l-65 -30 -40 19 c-21 11 -68 36 -104 57 l-65
36 65 6 c36 3 113 6 171 7 l107 2 6 -26z m-975 -5 c18 -11 35 -28 38 -37 2 -9
26 -30 53 -46 27 -16 61 -41 76 -54 l26 -25 92 23 c50 13 97 25 104 28 10 3
13 -2 10 -19 -2 -20 -13 -26 -62 -39 -33 -8 -61 -20 -63 -25 -2 -6 24 -30 58
-55 48 -35 59 -48 55 -64 -3 -12 -6 -34 -6 -50 l0 -29 -58 54 c-32 30 -77 70
-100 90 l-43 36 -87 -27 c-48 -16 -113 -40 -145 -55 -63 -29 -87 -24 -87 20 0
17 10 26 44 39 25 10 55 17 68 18 13 0 46 6 73 13 28 7 62 16 78 19 26 6 39
26 16 26 -9 0 -90 61 -172 131 -18 15 -27 31 -23 37 10 16 16 15 55 -9z m211
1 c25 -5 78 -12 118 -16 l72 -7 0 -33 c0 -19 -3 -34 -7 -34 -5 0 -48 -11 -97
-24 l-89 -24 -69 48 c-38 27 -74 50 -80 52 -6 2 -5 13 2 29 11 24 16 26 58 22
26 -2 67 -8 92 -13z m498 -60 c66 -33 123 -60 128 -60 17 0 150 69 163 84 14
17 66 22 75 7 10 -16 -44 -75 -94 -100 -28 -14 -51 -30 -50 -36 0 -5 41 -31
91 -57 51 -25 96 -52 100 -60 14 -21 10 -38 -9 -38 -17 0 -201 76 -253 105
-24 13 -31 11 -111 -29 -47 -24 -98 -52 -113 -64 -41 -32 -64 -37 -81 -15 -12
16 -10 22 27 56 23 20 49 37 58 37 9 0 41 17 71 37 l55 37 -35 6 c-81 14 -200
100 -187 134 10 27 41 18 165 -44z m-647 -72 c39 -32 40 -32 17 -41 -46 -18
-88 -25 -88 -15 0 15 22 88 27 88 2 0 22 -14 44 -32z m610 -60 c-17 -11 -33
-19 -35 -17 -2 2 -1 18 1 36 l5 32 31 -15 30 -16 -32 -20z m339 22 c0 -17 -3
-18 -25 -8 -19 8 -22 14 -13 20 22 14 38 9 38 -12z m-616 -47 c-4 -21 -8 -39
-9 -40 -3 -5 -62 42 -66 52 -2 5 10 13 26 16 56 12 56 12 49 -28z m551 -61
c90 -40 111 -53 113 -72 l4 -23 -153 6 c-84 4 -176 7 -206 7 -48 0 -53 2 -53
23 1 18 17 30 88 64 48 23 89 42 92 42 3 1 55 -21 115 -47z m-726 1 c67 -54
151 -135 151 -144 0 -4 -17 -2 -39 6 -51 18 -189 50 -278 66 -126 21 -124 35
13 79 49 15 93 29 98 29 5 1 30 -16 55 -36z m-264 -76 c17 -4 79 -15 140 -26
60 -11 149 -32 197 -47 l88 -27 0 -45 c0 -38 -2 -43 -17 -37 -10 4 -52 14 -93
21 -41 7 -136 27 -210 44 -74 17 -152 34 -173 37 -30 4 -38 10 -43 32 -3 14
-7 31 -9 38 -8 25 24 28 120 10z m1237 -59 c15 -28 26 -54 23 -56 -5 -5 -429
-24 -585 -26 l-95 -1 0 50 0 50 70 7 c39 4 149 5 245 2 130 -3 190 -1 235 9
33 8 65 15 70 16 6 0 22 -22 37 -51z m-1307 -59 c11 -9 67 -47 125 -84 l105
-68 70 13 c39 7 95 15 126 17 51 5 57 3 62 -16 4 -17 0 -22 -21 -27 -71 -16
-132 -36 -132 -43 0 -4 35 -41 78 -82 l79 -74 -5 -48 -4 -48 -48 43 c-26 24
-82 70 -124 102 -55 42 -73 62 -64 68 22 14 -83 -4 -166 -28 -44 -13 -87 -24
-97 -24 -10 0 -24 -6 -32 -14 -20 -21 -117 -51 -126 -40 -5 5 -11 23 -14 41
-8 40 19 59 101 74 31 5 86 20 122 31 36 12 71 23 78 24 6 2 12 8 12 15 0 6
-6 9 -14 6 -8 -3 -44 15 -80 41 -36 26 -79 55 -95 64 -33 18 -37 31 -21 72 9
24 12 25 37 14 15 -6 37 -19 48 -29z m225 -33 c91 -19 184 -37 207 -41 59 -9
64 -25 9 -25 -25 0 -79 -7 -120 -16 l-75 -17 -93 58 c-51 32 -102 65 -113 73
l-20 14 20 -6 c11 -2 94 -20 185 -40z m998 -18 c-2 -18 -24 -29 -128 -65
l-125 -44 -65 24 c-36 14 -78 29 -95 34 -19 5 -31 16 -33 29 -3 19 4 22 80 31
46 6 147 11 226 12 142 1 143 1 140 -21z m97 -35 c23 -11 34 -22 30 -31 -3 -7
-5 -17 -5 -22 0 -9 -33 -22 -110 -44 -30 -9 -65 -22 -78 -29 -22 -13 -22 -14
-5 -28 10 -8 72 -39 138 -69 141 -63 145 -66 145 -94 0 -44 -13 -49 -71 -28
-100 35 -312 123 -333 138 -22 15 -66 19 -66 6 0 -5 -31 -24 -69 -44 -37 -20
-90 -52 -115 -72 -26 -20 -56 -36 -66 -36 -22 0 -50 26 -50 46 0 16 88 83 109
84 7 0 30 14 51 30 21 17 43 30 49 30 6 0 11 6 11 13 0 7 -20 18 -43 24 -24 7
-78 28 -120 47 -59 27 -77 40 -77 55 0 32 45 38 94 13 23 -12 90 -37 150 -57
94 -31 111 -34 125 -22 9 8 59 29 111 46 52 18 109 38 125 46 17 7 31 14 32
14 1 1 18 -7 38 -16z m-1286 -64 c13 -11 22 -21 20 -22 -10 -7 -61 -27 -69
-27 -4 0 -6 10 -3 23 12 55 15 57 52 26z m460 -104 l0 -75 -66 57 c-36 31 -61
58 -57 60 5 1 34 9 64 17 30 8 56 15 57 15 1 1 2 -33 2 -74z m777 12 c7 -20
11 -37 9 -37 -12 0 -95 45 -95 51 0 9 51 28 64 25 5 -1 15 -19 22 -39z m-452
10 c17 -12 16 -14 -9 -31 -32 -21 -38 -17 -29 18 7 30 13 31 38 13z m-562 -70
c29 -23 76 -59 103 -79 28 -20 68 -55 90 -77 l39 -41 -29 5 c-17 3 -79 14
-140 25 -60 10 -141 26 -180 34 -38 8 -103 20 -142 26 -66 11 -73 14 -73 35 0
31 14 40 105 64 44 11 100 27 125 35 25 8 46 15 47 15 1 1 26 -18 55 -42z
m902 -72 c88 -35 163 -71 168 -79 8 -15 -88 -22 -409 -29 l-133 -3 0 31 c0 25
8 36 48 62 40 28 146 81 162 82 3 0 77 -29 164 -64z m-1262 -31 c15 -8 78 -23
140 -34 62 -11 185 -33 273 -50 88 -16 163 -30 168 -30 8 0 10 -42 2 -63 -5
-10 -16 -12 -48 -6 -23 4 -94 16 -157 27 -102 18 -225 35 -430 59 -58 7 -65
11 -68 32 -12 80 38 106 120 65z m1591 -91 c12 -7 8 -53 -5 -54 -7 0 -54 0
-104 1 -51 1 -121 -6 -161 -15 -53 -12 -133 -17 -319 -18 l-249 -2 0 35 c0 31
3 35 35 42 19 4 116 6 215 3 107 -2 241 1 330 9 134 12 236 12 258 -1z m-1648
-73 c33 -22 63 -40 67 -40 4 0 38 -19 75 -43 107 -69 162 -97 187 -97 13 0 50
12 82 26 68 30 226 86 231 81 2 -2 0 -31 -3 -64 l-6 -60 -42 -12 c-159 -47
-190 -58 -198 -71 -6 -11 12 -37 75 -102 46 -48 103 -116 126 -149 l43 -62 -7
-69 c-4 -37 -11 -70 -15 -73 -5 -3 -50 41 -102 97 -178 195 -242 259 -264 264
-14 4 -50 -7 -96 -29 -40 -19 -111 -47 -158 -62 -46 -15 -110 -43 -141 -61
-32 -19 -62 -34 -67 -34 -5 0 -17 16 -27 36 -20 43 -11 73 26 91 86 41 137 63
144 63 4 0 37 15 74 34 36 18 84 39 106 46 58 18 59 23 14 56 -67 48 -239 197
-239 207 0 12 40 67 48 67 4 0 34 -18 67 -40z m225 19 c36 -5 121 -19 190 -31
69 -11 142 -23 163 -25 20 -3 37 -8 37 -12 0 -3 -26 -14 -58 -25 -31 -10 -96
-35 -143 -56 l-86 -37 -49 27 c-27 15 -87 50 -134 78 -47 29 -91 55 -99 60 -9
5 -12 15 -8 26 8 20 34 19 187 -5z m1312 -71 c35 -119 36 -127 24 -136 -6 -5
-77 -41 -158 -81 l-147 -73 -142 48 -143 49 -13 50 c-7 28 -13 71 -13 97 0 45
1 47 33 52 17 3 104 8 192 11 88 3 187 12 220 19 33 8 76 15 96 15 35 1 37 0
51 -51z m164 -125 c3 -16 10 -41 16 -56 7 -19 8 -31 1 -35 -5 -4 -29 -23 -54
-43 -24 -19 -78 -52 -119 -73 -86 -44 -102 -56 -74 -56 10 0 104 -30 208 -65
104 -36 190 -65 191 -65 2 0 5 -18 9 -39 3 -22 9 -47 12 -56 6 -16 1 -17 -47
-10 -30 4 -67 14 -84 22 -16 8 -46 17 -65 19 -45 6 -277 70 -324 89 -20 9 -36
20 -36 25 0 15 -47 12 -62 -4 -8 -7 -33 -23 -56 -35 -45 -23 -239 -147 -284
-181 -37 -28 -84 -27 -92 3 -15 58 -8 74 58 126 35 28 67 51 71 51 5 0 33 19
63 43 31 23 60 42 66 42 6 0 12 7 14 16 2 14 -10 18 -65 24 -84 8 -198 32
-223 45 -17 9 -18 19 -13 83 3 39 9 76 14 81 7 8 80 -11 144 -39 17 -7 80 -30
140 -51 61 -20 114 -41 119 -46 17 -14 44 -9 83 18 21 14 83 47 138 74 55 26
125 64 155 84 66 44 88 46 96 9z m-1680 -4 c10 -12 36 -32 57 -45 39 -25 48
-44 21 -44 -8 0 -47 -16 -85 -36 -38 -20 -72 -34 -74 -32 -3 2 2 22 9 44 8 21
20 60 27 87 6 26 15 47 19 47 4 0 15 -10 26 -21z m619 -71 c3 -18 5 -96 3
-172 l-3 -139 -36 54 c-20 30 -71 91 -113 136 -42 44 -76 83 -76 86 0 3 30 13
68 23 37 10 81 23 97 30 45 20 54 17 60 -18z m1015 -198 l7 -26 -72 25 -73 25
51 32 52 31 14 -31 c7 -17 17 -42 21 -56z m-1294 -57 c49 -53 127 -137 174
-186 l85 -90 -37 6 c-21 3 -120 28 -220 56 -194 54 -398 105 -460 115 -31 6
-38 11 -38 29 0 12 4 28 9 36 5 7 73 35 152 62 79 27 145 53 148 58 10 15 66
29 82 20 9 -5 56 -52 105 -106z m677 50 l27 -6 -42 -31 c-23 -17 -45 -30 -48
-29 -3 2 -6 21 -8 44 -3 39 -2 41 20 35 13 -4 35 -9 51 -13z m326 -108 c34
-14 128 -43 208 -64 81 -21 148 -42 150 -48 5 -13 -102 -33 -173 -33 -27 0
-76 -4 -109 -10 -70 -11 -379 -40 -430 -40 -19 0 -35 4 -35 10 0 12 158 119
253 171 40 21 72 39 73 39 0 0 29 -11 63 -25z m-1524 -50 c81 -15 360 -84 660
-164 l110 -29 3 -51 c2 -28 -1 -51 -5 -51 -14 0 -157 28 -225 44 -180 43 -322
76 -398 91 -47 10 -122 26 -168 36 -45 11 -93 19 -106 19 -33 0 -36 7 -21 56
15 52 31 74 48 69 7 -2 53 -11 102 -20z m1900 -120 c16 -79 29 -69 -113 -83
-70 -7 -176 -22 -237 -33 -104 -19 -344 -49 -392 -49 -21 0 -23 4 -23 58 l0
59 113 7 c61 4 150 11 197 16 47 5 159 16 249 24 90 9 166 18 169 21 13 13 32
3 37 -20z m-1960 -98 c155 -160 314 -307 334 -307 10 0 57 20 105 44 48 25
110 50 139 56 28 6 67 20 85 31 18 10 38 17 43 14 5 -4 9 -2 9 3 0 7 94 42
114 42 4 0 6 -30 4 -67 l-3 -67 -150 -51 c-182 -63 -235 -84 -257 -103 -15
-13 -2 -30 145 -196 89 -100 181 -207 204 -237 l41 -54 -5 -88 -6 -89 -69 69
c-71 69 -179 206 -323 408 -43 61 -85 116 -94 123 -22 18 -58 8 -177 -49 -55
-27 -104 -49 -109 -49 -10 0 -192 -82 -277 -125 -59 -30 -108 -37 -108 -16 0
3 -3 16 -6 29 -5 15 -2 22 8 22 9 0 26 8 39 18 13 10 44 27 69 37 25 11 70 34
100 51 30 18 96 46 145 63 50 17 106 40 125 50 19 10 52 24 73 31 20 6 36 15
36 18 -1 7 -197 191 -327 309 -59 54 -63 60 -58 91 6 40 31 82 49 82 6 0 53
-42 102 -93z m154 49 c58 -14 149 -34 201 -46 52 -12 162 -37 244 -56 82 -19
158 -34 168 -34 35 0 17 -19 -34 -36 -29 -9 -75 -27 -103 -39 -27 -12 -69 -28
-92 -34 -23 -6 -76 -29 -118 -51 l-76 -40 -37 24 c-20 14 -94 81 -164 149
-126 124 -127 126 -117 156 6 17 14 31 17 31 3 0 53 -11 111 -24z m1845 -79
c14 -30 56 -193 56 -217 0 -5 -50 -34 -112 -65 l-112 -55 -175 56 c-196 63
-428 149 -448 165 -7 7 -13 22 -13 34 0 21 5 23 108 29 59 4 152 16 207 27
118 22 373 57 431 58 38 1 43 -2 58 -32z m-831 -132 c12 -8 28 -15 37 -15 8 0
48 -14 89 -30 40 -17 168 -62 285 -101 116 -39 217 -75 223 -81 17 -14 173 62
288 141 48 33 94 57 102 54 7 -3 25 -30 39 -60 21 -43 23 -57 14 -68 -17 -21
-125 -86 -185 -111 -27 -12 -51 -26 -52 -31 -3 -8 6 -12 132 -53 170 -55 173
-57 211 -137 51 -111 48 -117 -56 -87 -30 8 -80 21 -110 29 -30 8 -131 39
-223 69 l-168 56 -47 -24 c-79 -41 -452 -312 -529 -385 -62 -58 -75 -58 -134
6 -40 44 -40 45 -23 66 46 57 143 145 180 164 22 11 74 44 115 73 41 28 109
75 151 103 43 29 78 57 78 64 0 6 -26 19 -57 28 -32 9 -105 33 -163 54 -58 21
-156 55 -217 76 l-113 37 -1 81 c0 45 -2 90 -4 99 -8 43 66 33 138 -17z
m-1014 -238 c-23 -9 -55 -24 -73 -32 -17 -8 -65 -26 -106 -41 -41 -14 -81 -31
-88 -37 -7 -5 -14 -8 -16 -6 -7 7 12 82 43 169 16 47 32 104 35 128 3 23 8 47
12 53 4 7 52 -34 120 -102 l114 -114 -41 -18z m676 -34 c-4 -87 -7 -218 -8
-292 l-1 -134 -36 43 c-32 40 -92 109 -278 317 l-73 82 38 17 c53 24 335 122
352 123 11 1 12 -27 6 -156z m597 -46 l126 -45 -84 -58 c-47 -33 -121 -83
-164 -112 l-80 -52 0 139 c0 76 -3 152 -6 169 l-6 31 43 -14 c24 -8 101 -34
171 -58z m712 11 c3 -16 5 -28 2 -28 -9 0 -76 31 -76 35 0 9 55 33 61 27 4 -4
9 -19 13 -34z m-1768 -105 c144 -206 250 -341 327 -420 61 -62 75 -81 56 -76
-63 15 -202 59 -384 121 -110 37 -263 87 -340 111 -200 61 -231 75 -227 103 1
13 4 28 6 34 6 15 164 91 271 129 50 18 115 47 145 64 30 16 60 30 66 30 6 1
42 -43 80 -96z m1649 -111 c72 -22 145 -44 163 -47 23 -5 36 -15 43 -32 12
-32 -8 -49 -66 -58 -22 -4 -94 -20 -160 -35 -66 -16 -175 -38 -243 -49 -67
-12 -156 -32 -196 -46 -61 -21 -295 -85 -311 -85 -13 0 -3 44 13 56 79 62 383
281 445 322 l78 51 52 -18 c29 -10 111 -37 182 -59z m-2020 -166 c99 -32 216
-69 260 -83 44 -14 141 -47 216 -74 76 -26 177 -59 225 -71 l89 -23 3 -48 c2
-26 -1 -47 -5 -47 -14 1 -186 47 -283 77 -52 17 -183 63 -290 103 -248 93
-281 104 -419 141 -62 17 -136 42 -163 56 -44 23 -49 29 -43 52 12 51 28 52
133 11 53 -20 178 -63 277 -94z m2430 -17 c9 -35 17 -70 18 -77 3 -19 -76 -48
-228 -83 -165 -38 -264 -62 -390 -93 -55 -14 -149 -32 -210 -41 -60 -9 -141
-26 -178 -37 -38 -10 -95 -24 -126 -29 -51 -8 -133 -32 -182 -53 -24 -10 -69
38 -69 73 0 16 -3 42 -6 59 -6 29 -4 31 37 42 24 7 87 24 139 40 52 15 118 33
145 40 28 7 102 28 165 48 63 19 174 45 245 58 167 29 429 86 435 95 5 8 107
35 150 41 31 4 36 -3 55 -83z"/>
</g>
</svg>
